<svg width="1200" height="630" viewBox="0 0 1200 630" fill="none" xmlns="http://www.w3.org/2000/svg">
<rect width="1200" height="630" rx="26" fill="#FFF7C7"/>
<g clip-path="url(#clip0_1018_2333)">
<rect x="350" y="65" width="500" height="500" rx="32" fill="#FFF7C7"/>
<path d="M350 65H850V565H350V65Z" fill="#FFF7C7"/>
<path d="M691.049 480.686C693.284 481.332 695.178 481.396 697.471 481.133C697.913 481.363 698.171 481.526 698.48 481.92C695.857 482.768 692.903 482.411 690.304 481.675L691.049 480.686Z" fill="#29549E"/>
<path d="M683.354 459.314C683.603 460.01 683.646 460.285 683.477 461.037C682.417 463.146 681.863 464.98 681.52 467.311C681.539 471.092 682.586 474.481 685.317 477.231C686.951 478.878 688.892 479.897 691.049 480.687L690.304 481.675C687.657 480.745 685.231 479.185 683.451 476.997C681.339 474.401 680.12 470.975 680.474 467.619C680.623 464.511 681.688 461.897 683.354 459.314Z" fill="#29549E"/>
<path d="M608.3 165.805L608.416 165.779L609.075 166.517C608.609 169.791 607.416 173.372 605.707 176.208C604.622 178.008 603.096 179.639 600.968 180.104C599.338 180.46 597.717 180.025 596.366 179.078C592.479 176.354 591.271 171.006 590.515 166.635L591.211 166.586C591.899 169.298 592.613 172.139 593.928 174.626C594.886 176.438 596.463 178.482 598.537 179.034C599.818 179.375 601.108 179.171 602.227 178.464C606.009 176.074 607.379 169.851 608.3 165.805Z" fill="#29549E"/>
<path d="M582.581 149.957L583.606 150.561C579.942 154.057 576.469 157.062 574.844 162.007C574.8 164.3 575.198 165.251 576.545 167.102C576.554 167.114 576.557 167.13 576.562 167.144C576.823 167.287 577.088 167.422 577.357 167.551C580.989 169.274 584.749 167.694 588.24 166.442L589.136 167.265C585.916 168.862 581.558 170.422 577.985 169.196C577.412 169 576.666 168.673 576.25 168.223C575.5 167.701 574.885 167.051 574.421 166.258C573.321 164.378 573.604 162.534 574.13 160.551C575.768 156.056 579.135 153.092 582.581 149.957Z" fill="#FFE01A"/>
<path d="M607.426 134.18C606.735 130.898 606.13 127.186 604.483 124.22C603.661 122.74 602.491 121.472 600.799 121.045C599.593 120.742 598.255 120.901 597.19 121.55C593.605 123.736 593.282 129.281 592.268 132.863C592.1 133.456 591.931 133.729 591.415 134.046C591.201 133.841 591.211 133.908 591.149 133.591C590.672 131.146 592.703 125.148 594.035 123.021C595.064 121.377 596.565 119.768 598.552 119.394C600.163 119.09 601.87 119.664 603.145 120.649C606.607 123.326 608.082 129.549 608.677 133.721L607.426 134.18Z" fill="#29549E"/>
<path d="M616.62 150.067C620.437 153.224 625.356 157.182 625.735 162.532C625.867 164.387 625.374 166.31 624.095 167.7C622.803 169.104 620.98 169.657 619.112 169.651C615.461 169.641 612.33 167.956 609.075 166.517L608.416 165.779L608.69 165.134C611.946 166.445 615.262 168.27 618.85 168.345C620.346 168.376 621.896 168.044 622.971 166.932C624.027 165.839 624.537 164.305 624.472 162.801C624.256 157.781 619.15 153.922 615.78 150.797L616.62 150.067Z" fill="#FFE01A"/>
<path d="M683.354 459.314C685.82 456.038 689.091 454.042 693.142 453.437C696.884 452.878 700.583 453.719 703.634 455.978C706.76 458.292 709 461.778 709.541 465.653C709.574 465.89 709.602 466.127 709.623 466.365C709.645 466.603 709.661 466.841 709.67 467.08C709.68 467.319 709.684 467.557 709.682 467.796C709.68 468.035 709.672 468.274 709.659 468.512C709.645 468.75 709.625 468.988 709.6 469.226C709.575 469.464 709.543 469.701 709.506 469.937C709.469 470.172 709.426 470.407 709.377 470.641C709.329 470.875 709.275 471.107 709.214 471.338C709.154 471.57 709.088 471.799 709.017 472.027C708.946 472.255 708.869 472.481 708.786 472.706C708.704 472.93 708.616 473.152 708.522 473.372C708.429 473.591 708.33 473.809 708.226 474.023C708.121 474.238 708.012 474.451 707.897 474.66C707.783 474.87 707.663 475.077 707.538 475.28C707.413 475.484 707.284 475.684 707.149 475.881C707.014 476.079 706.875 476.272 706.73 476.463C705.753 477.743 704.559 478.753 703.301 479.746C703.526 479.208 703.571 478.658 703.656 478.085C703.901 477.813 704.148 477.544 704.398 477.277C706.971 474.536 708.652 470.939 708.447 467.113C708.254 463.51 706.553 459.899 703.805 457.546C701.086 455.219 697.276 454.176 693.738 454.578C689.185 455.095 686.158 457.58 683.477 461.037C683.646 460.285 683.604 460.01 683.354 459.314Z" fill="#325EA7"/>
<path d="M412.802 370.339C412.827 370.273 412.849 370.207 412.878 370.143C413.576 368.614 414.954 367.455 416.512 366.87C418.414 366.156 420.167 366.298 421.98 367.143C423.75 368.344 424.954 369.739 425.421 371.879C425.471 372.103 425.509 372.329 425.536 372.558C425.562 372.785 425.577 373.014 425.579 373.244C425.581 373.473 425.572 373.703 425.55 373.931C425.528 374.16 425.495 374.386 425.45 374.611C425.404 374.836 425.347 375.058 425.278 375.277C425.21 375.496 425.13 375.711 425.038 375.922C424.947 376.132 424.845 376.338 424.732 376.538C424.619 376.737 424.496 376.931 424.363 377.118C424.005 377.629 423.5 378.174 422.996 378.547C422.927 378.601 422.861 378.659 422.789 378.709C421.333 379.707 419.375 380.083 417.644 379.81C415.723 379.507 414.412 378.434 413.333 376.875C413.129 376.543 412.949 376.218 412.795 375.858C411.972 373.943 412.057 372.261 412.802 370.339Z" fill="#29549E"/>
<path d="M413.596 371.196C414.255 369.733 415.233 368.56 416.751 367.939C418.434 367.252 419.899 367.457 421.539 368.102C422.975 369.204 424.238 370.685 424.421 372.567C424.58 374.201 423.971 375.886 422.874 377.091C422.66 377.323 422.439 377.548 422.21 377.767C420.955 378.375 419.697 378.883 418.276 378.733C416.47 378.542 415.229 377.418 414.091 376.097C413.192 374.382 413.107 373.054 413.596 371.196Z" fill="#FFF7C7"/>
<path d="M727.115 136.104C728.47 136.043 729.871 136.219 731.115 136.786C731.326 136.881 731.532 136.987 731.732 137.104C731.932 137.221 732.126 137.348 732.312 137.485C732.499 137.622 732.678 137.768 732.85 137.924C733.022 138.079 733.185 138.243 733.34 138.416C733.494 138.589 733.639 138.769 733.775 138.957C733.911 139.144 734.037 139.339 734.152 139.54C734.268 139.74 734.373 139.946 734.467 140.158C734.561 140.37 734.644 140.586 734.716 140.806C735.36 142.793 735.183 145.085 734.208 146.936C733.027 149.178 731.274 150.104 728.952 150.778C727.163 150.792 725.719 150.642 724.147 149.705C723.941 149.584 723.741 149.453 723.548 149.312C723.355 149.172 723.17 149.021 722.992 148.862C722.814 148.702 722.645 148.534 722.484 148.357C722.323 148.18 722.171 147.996 722.029 147.804C721.887 147.612 721.755 147.413 721.633 147.208C721.511 147.002 721.4 146.791 721.299 146.574C721.199 146.357 721.109 146.136 721.031 145.91C720.953 145.684 720.886 145.455 720.831 145.223C720.355 143.233 720.771 140.991 721.906 139.293C723.173 137.398 724.955 136.57 727.115 136.104Z" fill="#D2593E"/>
<path d="M726.21 137.526C727.317 137.432 728.416 137.334 729.494 137.671C729.693 137.732 729.888 137.803 730.08 137.885C730.271 137.966 730.458 138.057 730.64 138.157C730.822 138.258 730.998 138.368 731.169 138.487C731.34 138.606 731.504 138.733 731.662 138.869C731.819 139.004 731.969 139.148 732.112 139.299C732.255 139.45 732.39 139.609 732.516 139.774C732.643 139.939 732.76 140.11 732.869 140.288C732.978 140.465 733.077 140.647 733.167 140.835C733.253 141.016 733.33 141.2 733.397 141.389C733.464 141.577 733.522 141.768 733.57 141.962C733.618 142.156 733.657 142.352 733.686 142.55C733.714 142.748 733.733 142.947 733.742 143.147C733.751 143.347 733.75 143.547 733.739 143.747C733.727 143.946 733.706 144.145 733.675 144.342C733.644 144.54 733.604 144.736 733.553 144.929C733.503 145.123 733.443 145.313 733.373 145.501C732.63 147.469 731.257 148.39 729.409 149.206C728.558 149.294 727.676 149.37 726.827 149.22C725.229 148.938 723.679 147.845 722.815 146.484C722.709 146.318 722.611 146.146 722.521 145.969C722.433 145.792 722.354 145.611 722.284 145.426C722.214 145.241 722.154 145.053 722.104 144.861C722.054 144.67 722.014 144.476 721.985 144.28C721.955 144.085 721.936 143.888 721.927 143.69C721.918 143.493 721.92 143.295 721.932 143.098C721.944 142.9 721.967 142.704 721.999 142.508C722.032 142.313 722.075 142.12 722.128 141.93C722.742 139.748 724.282 138.532 726.21 137.526Z" fill="#FFF7C7"/>
<path d="M599.652 161.871C602.48 163.614 605.04 165.06 608.3 165.805C607.379 169.851 606.009 176.074 602.227 178.464C601.108 179.171 599.818 179.375 598.537 179.034C596.463 178.482 594.886 176.438 593.928 174.626C592.613 172.139 591.899 169.298 591.211 166.586L591.578 166.209C594.34 165.337 597.163 163.363 599.652 161.871Z" fill="#FFF7C7"/>
<path d="M774.498 315.761C776.209 313.958 778.351 312.862 780.87 312.818C781.158 312.814 781.446 312.825 781.733 312.85C782.02 312.875 782.305 312.915 782.588 312.968C782.872 313.022 783.151 313.09 783.428 313.172C783.704 313.254 783.976 313.35 784.242 313.459C784.509 313.569 784.769 313.691 785.024 313.827C785.278 313.963 785.525 314.111 785.765 314.271C786.004 314.432 786.235 314.604 786.457 314.788C786.679 314.972 786.891 315.166 787.094 315.371C788.255 316.528 788.941 317.868 789.297 319.456C789.541 322.009 789.029 324.491 787.39 326.521C786.587 327.516 785.611 328.221 784.495 328.822C782.638 329.542 781.194 329.691 779.238 329.576C778.684 329.398 778.12 329.22 777.587 328.983C775.631 328.115 774.144 326.445 773.352 324.481C772.987 323.736 772.765 323.077 772.648 322.25C772.303 319.823 773.094 317.702 774.498 315.761Z" fill="#29549E"/>
<path d="M775.169 316.748C776.672 315.189 778.331 313.989 780.583 313.925C782.676 313.866 784.725 314.813 786.185 316.295C786.858 316.979 787.392 317.82 787.894 318.633C788.422 320.503 788.577 322.603 787.573 324.349C786.561 326.107 785.214 326.894 783.626 328.022C782.225 328.453 781.005 328.581 779.547 328.458C777.122 327.685 775.912 326.499 774.478 324.483C774.326 323.972 774.189 323.457 774.066 322.938C773.529 320.589 773.901 318.762 775.169 316.748Z" fill="#FFF7C7"/>
<path d="M615.78 150.797C619.15 153.922 624.256 157.781 624.472 162.801C624.537 164.305 624.027 165.839 622.971 166.932C621.896 168.044 620.346 168.376 618.85 168.345C615.262 168.27 611.946 166.445 608.69 165.134C605.834 164.055 603.271 162.813 600.685 161.188C603.435 159.413 606.204 157.667 608.992 155.952L609.875 155.327C611.542 153.716 613.942 152.276 615.78 150.797Z" fill="#FFF7C7"/>
<path d="M609.874 155.327C610.143 156.937 610.23 163.5 609.225 164.672C609.122 164.792 609.004 164.896 608.894 165.009C608.463 164.546 608.589 163.654 608.614 163.029C608.71 160.665 609.068 158.323 608.992 155.952L609.874 155.327Z" fill="#FFE01A"/>
<path d="M583.607 150.561C586.535 153.56 590.332 156.107 593.911 158.286C595.417 159.26 597.033 160.188 598.449 161.282C596.023 162.769 593.627 164.218 590.945 165.202L591.578 166.209L591.212 166.586L590.515 166.635L589.136 167.265L588.24 166.442C584.749 167.694 580.989 169.274 577.357 167.551C577.089 167.422 576.824 167.287 576.562 167.144C576.557 167.13 576.554 167.114 576.545 167.102C575.198 165.251 574.8 164.3 574.844 162.007C576.469 157.062 579.942 154.057 583.607 150.561Z" fill="#FFF7C7"/>
<path d="M588.24 166.442C588.478 166.341 588.718 166.243 588.952 166.133C589.177 166.027 589.793 165.719 589.908 165.517C590.589 164.311 588.917 158.24 589.654 156.23L589.876 156.38C591.029 158.798 590.957 162.526 590.945 165.202L591.578 166.209L591.211 166.586L590.515 166.635L589.136 167.265L588.24 166.442Z" fill="#FFE01A"/>
<path d="M585.964 489.86C587.812 489.645 589.438 489.718 591.173 490.46C591.306 490.516 591.436 490.576 591.566 490.639C591.695 490.701 591.822 490.768 591.948 490.837C592.074 490.906 592.197 490.979 592.319 491.055C592.442 491.131 592.562 491.209 592.68 491.291C592.798 491.373 592.914 491.458 593.027 491.546C593.141 491.634 593.252 491.724 593.361 491.818C593.47 491.912 593.577 492.008 593.681 492.107C593.785 492.206 593.887 492.307 593.985 492.412C594.084 492.516 594.18 492.622 594.274 492.731C594.367 492.841 594.458 492.952 594.546 493.066C594.633 493.18 594.718 493.296 594.799 493.414C594.881 493.532 594.96 493.652 595.036 493.774C595.111 493.896 595.184 494.02 595.253 494.146C595.322 494.272 595.388 494.4 595.451 494.529C595.514 494.658 595.573 494.789 595.629 494.921C595.685 495.053 595.738 495.187 595.787 495.322C596.587 497.52 596.406 500.024 595.416 502.132C594.149 504.829 592.021 506.275 589.295 507.205C587.283 507.547 585.24 507.356 583.398 506.439C583.152 506.316 582.912 506.181 582.679 506.035C582.447 505.888 582.222 505.729 582.004 505.56C581.788 505.39 581.58 505.209 581.381 505.019C581.183 504.828 580.994 504.628 580.816 504.418C580.637 504.209 580.469 503.991 580.313 503.764C580.156 503.538 580.012 503.304 579.879 503.062C579.745 502.821 579.625 502.574 579.517 502.321C579.409 502.068 579.314 501.81 579.232 501.547C579.138 501.261 579.06 500.971 578.995 500.677C578.931 500.383 578.881 500.087 578.846 499.788C578.811 499.489 578.79 499.189 578.784 498.889C578.779 498.588 578.788 498.287 578.812 497.987C578.836 497.687 578.874 497.389 578.927 497.093C578.981 496.797 579.049 496.505 579.131 496.215C579.213 495.926 579.309 495.641 579.42 495.361C579.53 495.081 579.653 494.807 579.791 494.54C581.155 491.915 583.287 490.765 585.964 489.86Z" fill="#FFE01A"/>
<path d="M586.923 491.099C588.342 491.14 589.82 491.425 591.104 492.041C592.807 492.856 594.153 494.314 594.693 496.137C595.282 498.121 594.94 500.403 593.909 502.184C592.641 504.373 590.786 505.315 588.445 505.957C586.595 505.978 585.049 505.813 583.45 504.803C583.246 504.675 583.048 504.538 582.858 504.39C582.667 504.243 582.485 504.086 582.31 503.92C582.136 503.754 581.97 503.58 581.813 503.397C581.656 503.214 581.509 503.024 581.372 502.826C581.234 502.629 581.107 502.424 580.99 502.214C580.872 502.004 580.766 501.788 580.671 501.566C580.576 501.345 580.492 501.12 580.42 500.89C580.347 500.66 580.287 500.428 580.238 500.192C580.189 499.955 580.152 499.716 580.126 499.475C580.101 499.234 580.087 498.992 580.086 498.75C580.084 498.507 580.094 498.266 580.117 498.024C580.139 497.783 580.173 497.544 580.218 497.306C580.264 497.068 580.321 496.833 580.39 496.6C580.459 496.368 580.539 496.14 580.63 495.915C580.721 495.691 580.823 495.471 580.935 495.257C581.048 495.043 581.171 494.834 581.305 494.632C582.62 492.611 584.62 491.577 586.923 491.099Z" fill="#FFF7C7"/>
<path d="M608.677 133.721C612.398 132.061 616.714 130.816 620.766 131.78L620.591 132.761C615.366 131.526 605.941 135.455 601.367 138.262C601.143 138.399 600.932 138.556 600.718 138.707L600.699 139.067L600.308 140.183C599.041 139.855 598.28 140.42 597.207 141.047C594.899 142.399 592.717 144.061 590.584 145.671L589.554 146.292C589.323 148.791 589.149 151.295 589.032 153.803L589.707 154.319C591.526 155.506 593.379 156.658 595.168 157.889L593.911 158.286C590.332 156.107 586.535 153.56 583.606 150.561L582.581 149.957C580.237 148.766 577.727 145.862 576.24 143.719C574.738 141.556 573.568 138.916 574.111 136.233C574.416 134.726 575.216 133.404 576.513 132.555C579.044 130.897 582.142 131.561 584.908 132.065C590.014 133.578 594.473 135.77 599.134 138.278C601.81 136.738 604.782 135.723 607.426 134.18L608.677 133.721Z" fill="#FFE01A"/>
<path d="M584.287 150.116C585.976 148.729 587.745 147.513 589.554 146.292C589.323 148.791 589.149 151.295 589.032 153.803C587.428 152.602 585.847 151.373 584.287 150.116Z" fill="#FFF7C7"/>
<path d="M591.66 135.625C593.972 136.611 596.185 137.81 598.413 138.968C597.172 139.894 595.774 140.681 594.464 141.51C593.067 142.456 591.719 143.495 590.355 144.49C590.632 141.506 591.114 138.569 591.66 135.625Z" fill="#FFF7C7"/>
<path d="M583.548 149.393C581.413 148.153 579.337 145.973 577.798 144.066C576.168 142.046 574.624 139.496 574.981 136.796C575.146 135.547 575.745 134.408 576.762 133.65C579.054 131.941 582.143 132.549 584.736 132.999C586.843 133.698 588.963 134.367 591.011 135.23C590.236 138.509 589.591 141.82 589.491 145.198C587.321 146.464 585.414 147.713 583.548 149.393Z" fill="#FFF7C7"/>
<path d="M446.947 444.27C447.162 444.313 447.3 444.327 447.504 444.441C448.869 445.204 450.503 451.838 451.312 453.597C452.837 456.916 458.422 457.789 461.59 458.923C462.554 459.268 464.307 459.745 464.754 460.687C462.444 463.483 455.605 463.43 452.901 466.548C450.269 469.583 449.862 474.153 447.668 477.562L447.086 477.536C444.741 475.776 444.135 468.818 441.432 465.932C439.151 463.496 431.882 463.421 430.122 460.575C431.748 458.458 440.002 457.546 442.556 454.559C444.122 452.728 445.249 447.074 446.947 444.27Z" fill="#FFE01A"/>
<path d="M683.477 461.037C686.158 457.58 689.185 455.095 693.738 454.578C697.276 454.176 701.086 455.219 703.805 457.546C706.553 459.899 708.254 463.51 708.447 467.113C708.652 470.939 706.971 474.536 704.398 477.277C704.148 477.544 703.901 477.813 703.656 478.085C703.571 478.658 703.526 479.207 703.301 479.746C701.768 480.667 700.249 481.535 698.48 481.92C698.171 481.526 697.913 481.363 697.471 481.133C695.178 481.396 693.284 481.331 691.049 480.686C688.892 479.897 686.951 478.878 685.317 477.231C682.586 474.48 681.539 471.092 681.52 467.311C681.863 464.979 682.417 463.145 683.477 461.037Z" fill="#FFF7C7"/>
<path d="M697.471 481.133C699.774 480.403 701.667 479.459 703.656 478.085C703.571 478.658 703.526 479.207 703.301 479.746C701.768 480.667 700.249 481.535 698.48 481.92C698.171 481.526 697.913 481.363 697.471 481.133Z" fill="#29549E"/>
<path d="M620.766 131.78C622.605 132.651 624.311 133.777 624.977 135.809C625.654 137.873 625.01 140.059 624.028 141.904C622.324 145.109 619.32 147.719 616.62 150.067L615.78 150.797C613.942 152.276 611.542 153.716 609.875 155.327L608.992 155.952C606.204 157.667 603.435 159.413 600.685 161.188C603.271 162.813 605.834 164.055 608.69 165.134L608.416 165.779L608.3 165.805C605.04 165.06 602.48 163.614 599.652 161.871C597.163 163.363 594.34 165.337 591.578 166.209L590.945 165.202C593.627 164.218 596.023 162.769 598.449 161.282C597.033 160.188 595.417 159.26 593.911 158.286L595.168 157.889C593.379 156.658 591.526 155.506 589.707 154.319L589.032 153.803C589.149 151.295 589.323 148.791 589.554 146.292L590.584 145.671C592.717 144.061 594.899 142.399 597.208 141.047C598.28 140.42 599.042 139.854 600.308 140.183L600.699 139.067L600.718 138.707C600.932 138.556 601.143 138.399 601.367 138.262C605.941 135.455 615.366 131.526 620.591 132.761L620.766 131.78Z" fill="#FFF7C7"/>
<path d="M608.649 143.973C608.474 141.776 607.538 137.682 608.04 135.776L608.334 135.479C609.359 137.095 609.946 142.165 609.666 144.058C609.627 144.319 609.6 144.351 609.506 144.559L608.649 143.973Z" fill="#FFE01A"/>
<path d="M620.766 131.78C622.605 132.651 624.311 133.777 624.977 135.809C625.654 137.873 625.01 140.059 624.028 141.904C622.324 145.109 619.32 147.719 616.62 150.067L615.78 150.797C613.942 152.276 611.542 153.716 609.875 155.327L608.992 155.952C606.204 157.667 603.435 159.413 600.685 161.188C603.271 162.813 605.834 164.055 608.69 165.134L608.416 165.779L608.3 165.805C605.04 165.06 602.48 163.614 599.652 161.871C597.163 163.363 594.34 165.337 591.578 166.209L590.945 165.202C593.627 164.218 596.023 162.769 598.449 161.282C597.033 160.188 595.417 159.26 593.911 158.286L595.168 157.889C596.632 158.564 598.122 159.748 599.495 160.625C602.709 158.658 605.975 156.74 609.053 154.566L610.046 153.801C610.066 151.291 610.117 148.777 610.004 146.269C607.643 144.673 605.155 143.242 602.719 141.761C601.876 141.269 601.08 140.782 600.308 140.183L600.699 139.067C601.763 139.73 602.831 140.386 603.902 141.036L608.649 143.973L609.506 144.559C611.555 145.997 613.642 147.414 615.611 148.958C615.659 148.949 615.708 148.945 615.755 148.931C617.836 148.296 621.738 143.797 622.89 141.865C623.873 140.215 624.485 138.289 623.944 136.38C623.424 134.542 622.184 133.656 620.591 132.761L620.766 131.78Z" fill="#FFE01A"/>
<path d="M610.004 146.269C611.557 147.368 613.104 148.477 614.644 149.595C614.027 151.164 611.362 152.804 610.046 153.801C610.066 151.291 610.117 148.777 610.004 146.269Z" fill="#FFF7C7"/>
<path d="M590.584 145.671C592.717 144.061 594.899 142.399 597.208 141.047C598.28 140.42 599.042 139.854 600.308 140.183C601.08 140.782 601.876 141.269 602.719 141.761C605.155 143.242 607.643 144.673 610.004 146.269C610.117 148.777 610.066 151.291 610.046 153.801L609.053 154.566C605.975 156.74 602.709 158.658 599.495 160.625C598.122 159.748 596.632 158.564 595.168 157.889C593.379 156.658 591.526 155.506 589.707 154.319L589.032 153.803C589.149 151.295 589.323 148.791 589.554 146.292L590.584 145.671Z" fill="#FFF7C7"/>
<path d="M609.053 154.566C609.026 152.416 608.282 148.404 609.168 146.515L610.004 146.269C610.117 148.777 610.066 151.291 610.046 153.801L609.053 154.566Z" fill="#FFE01A"/>
<path d="M590.584 145.671C590.534 146.982 590.563 153.489 589.904 154.181C589.849 154.239 589.772 154.273 589.707 154.319L589.032 153.803C589.149 151.295 589.323 148.791 589.554 146.292L590.584 145.671Z" fill="#FFE01A"/>
<path d="M421.853 170.074C425.388 169.88 428.749 170.693 431.633 172.817C434.737 175.103 436.898 178.485 437.47 182.32C438.071 186.355 437.147 190.473 434.702 193.763C431.981 197.422 428.347 199.071 423.926 199.755C420.119 199.891 416.456 199.153 413.374 196.777C410.232 194.355 408.151 190.514 407.71 186.582C407.269 182.649 408.594 178.685 411.063 175.63C413.858 172.173 417.49 170.532 421.853 170.074Z" fill="#D2593E"/>
<path d="M421.276 171.271C424.491 170.963 427.54 171.606 430.256 173.413C430.447 173.542 430.635 173.676 430.819 173.815C431.003 173.954 431.183 174.097 431.36 174.244C431.537 174.392 431.71 174.544 431.879 174.7C432.049 174.857 432.214 175.017 432.375 175.182C432.537 175.346 432.694 175.515 432.847 175.688C432.999 175.86 433.148 176.036 433.292 176.216C433.436 176.396 433.575 176.579 433.71 176.766C433.845 176.953 433.975 177.143 434.101 177.336C434.226 177.53 434.346 177.726 434.462 177.926C434.577 178.125 434.688 178.327 434.793 178.532C434.898 178.737 434.999 178.944 435.094 179.154C435.189 179.364 435.278 179.576 435.363 179.791C435.447 180.006 435.526 180.222 435.6 180.44C435.673 180.659 435.741 180.879 435.804 181.101C435.866 181.323 435.923 181.546 435.975 181.771C436.026 181.995 436.072 182.221 436.112 182.448C436.716 186.039 435.9 189.914 433.767 192.878C431.377 196.199 427.959 197.857 423.988 198.472C420.791 198.736 417.568 198.004 414.882 196.215C411.819 194.175 409.839 190.897 409.177 187.306C408.519 183.747 409.463 180.135 411.503 177.185C413.892 173.731 417.256 172 421.276 171.271Z" fill="#FFF7C7"/>
<path d="M397.515 272.864C399.266 268.656 399.651 262.904 403.495 259.826C404.564 258.971 405.875 258.606 407.233 258.758C408.948 258.949 410.357 259.827 411.392 261.182L410.984 261.745C413.222 265.433 414.561 269.283 415.333 273.536C413.317 274.467 408.167 277.473 406.425 277.541L405.956 277.981C406.147 278.426 406.279 278.446 406.659 278.721C403.467 280.666 400.231 282.567 397.151 284.687C397.085 286.088 396.949 287.52 397.028 288.921C397.214 290.48 397.422 292.564 397.157 294.101L397.276 294.929C398.523 295.875 405.351 299.6 405.566 299.84C405.682 299.969 405.714 300.154 405.788 300.312L406.153 300.845C404.857 301.779 400.285 304.482 398.802 304.398L398.438 303.964L397.808 304.207L397.92 305.091C394.559 306.847 389.736 309.046 385.886 308.759C384.313 308.641 382.795 308.04 381.805 306.769C380.858 305.555 380.554 303.976 380.728 302.469C381.281 297.667 386.37 292.143 389.948 289.2C389.139 288.62 388.472 287.881 387.777 287.172C386.785 286.317 385.818 285.392 384.946 284.415C382.514 281.689 380.361 278.263 380.698 274.456C380.812 273.166 381.242 271.934 382.296 271.121C387.34 267.23 392.395 272.142 397.306 272.84C397.376 272.85 397.446 272.856 397.515 272.864Z" fill="#D2593E"/>
<path d="M396.311 285.299C396.262 286.968 396.269 288.591 396.398 290.256C396.376 291.011 396.503 291.654 396.072 292.29C395.21 291.972 394.557 291.338 393.771 290.881C393.269 290.263 392.362 289.687 391.736 289.168C393.198 287.816 394.782 286.575 396.311 285.299Z" fill="#FFF7C7"/>
<path d="M397.276 294.929C398.523 295.876 405.351 299.6 405.566 299.84C405.682 299.969 405.714 300.154 405.788 300.312C403.249 301.403 400.79 302.734 398.319 303.973C397.898 300.959 397.502 297.964 397.276 294.929Z" fill="#FFF7C7"/>
<path d="M398.228 274.495C400.887 275.483 403.416 276.783 405.894 278.155C404.45 278.985 403.048 279.874 401.644 280.771L397.215 283.503C397.595 280.497 397.744 277.498 398.228 274.495Z" fill="#FFF7C7"/>
<path d="M388.533 286.33C387.102 285.085 385.722 283.755 384.522 282.284C382.652 279.992 381.307 277.371 381.707 274.319C381.852 273.221 382.289 272.159 383.239 271.525C387.666 268.566 392.971 273.079 396.731 273.605C396.85 273.622 396.971 273.634 397.09 273.648C397.7 275.175 396.506 281.892 396.337 284.083C394.474 285.464 392.589 286.823 390.806 288.306L388.533 286.33Z" fill="#FFF7C7"/>
<path d="M390.452 290.166C391.602 290.317 393.127 291.84 394.108 292.535C394.936 293.146 395.759 293.764 396.576 294.389C396.648 297.733 397.373 300.908 397.673 304.21C394.411 305.682 390.601 307.786 386.976 307.918C385.461 307.974 384.006 307.594 382.894 306.519C381.92 305.576 381.412 304.455 381.447 303.091C381.58 297.979 387.15 293.495 390.452 290.166Z" fill="#FFF7C7"/>
<path d="M398.388 273.492C399.197 269.399 400.515 264.342 403.393 261.173C404.252 260.227 405.35 259.438 406.673 259.406C408.432 259.362 409.82 260.579 410.984 261.745C413.222 265.433 414.561 269.283 415.333 273.536C413.317 274.467 408.167 277.473 406.425 277.542C403.973 275.931 401.039 274.75 398.388 273.492Z" fill="#FFF7C7"/>
<path d="M410.984 261.745L411.392 261.182C414.037 264.482 415.139 269.079 416.098 273.109C420.324 271.303 426.362 268.574 430.936 270.473C432.155 270.979 433.1 271.852 433.548 273.108C434.294 275.201 433.729 277.538 432.754 279.455C430.813 283.269 427.434 286.462 424.222 289.205C428.032 292.458 434.226 297.397 434.54 302.825C434.629 304.352 434.16 305.858 433.147 307.015C432.033 308.288 430.345 308.686 428.717 308.699C424.467 308.734 420.218 306.658 416.38 305.034C415.127 309.633 413.94 316.862 409.484 319.47C408.285 320.172 407.11 320.298 405.782 319.901C403.422 319.196 401.902 316.953 400.86 314.854C399.34 311.79 398.441 308.459 397.919 305.091L397.808 304.207L398.438 303.964L398.802 304.398C400.285 304.482 404.857 301.779 406.153 300.845L405.788 300.312C405.714 300.154 405.682 299.969 405.566 299.84C405.351 299.6 398.523 295.875 397.276 294.929L397.157 294.101C397.422 292.564 397.214 290.48 397.028 288.921C396.949 287.521 397.085 286.088 397.15 284.687C400.231 282.567 403.467 280.666 406.659 278.721C406.279 278.446 406.147 278.426 405.955 277.981L406.425 277.542C408.167 277.473 413.317 274.467 415.333 273.536C414.56 269.283 413.222 265.433 410.984 261.745Z" fill="#D2593E"/>
<path d="M417.868 285.569C419.564 286.353 421.133 287.856 422.595 289.026C421.899 289.635 421.16 290.199 420.437 290.777L417.835 292.809C417.816 290.396 417.854 287.981 417.868 285.569Z" fill="#FFF7C7"/>
<path d="M415.242 274.466L415.376 274.519C416.428 275.641 416.738 281.704 416.87 283.397C415.34 282.537 413.86 281.555 412.369 280.628L407.977 278.115C410.295 276.731 412.809 275.634 415.242 274.466Z" fill="#FFF7C7"/>
<path d="M416.541 294.938L416.698 295.059C417.36 296.302 416.155 302.16 415.834 303.778C414.047 303.122 412.344 302.293 410.627 301.477C409.711 301.082 408.818 300.563 407.928 300.107C410.83 298.438 413.779 296.832 416.541 294.938Z" fill="#FFF7C7"/>
<path d="M425.423 270.889C425.636 270.868 425.849 270.846 426.062 270.833C428.027 270.719 430.012 270.66 431.553 272.093C432.489 272.962 433.038 274.124 433.033 275.409C433.018 280.062 427.07 285.039 423.916 287.973L423.667 288.127C422.415 287.949 419.273 284.932 417.723 284.146C417.313 280.773 416.861 277.452 416.278 274.104C419.192 272.58 422.179 271.47 425.423 270.889Z" fill="#FFF7C7"/>
<path d="M423.489 289.846C426.99 292.939 433.411 297.846 433.641 302.884C433.697 304.118 433.293 305.514 432.38 306.381C430.983 307.708 429.044 307.71 427.249 307.667C423.385 307.125 420.039 305.698 416.52 304.091C417.178 300.78 417.562 297.542 417.689 294.168C419.688 292.808 421.588 291.337 423.489 289.846Z" fill="#FFF7C7"/>
<path d="M406.153 300.845C406.435 300.78 406.709 300.639 406.998 300.65C408.095 300.695 413.9 303.892 415.618 304.552C414.56 309.037 413.378 316.081 409.182 318.73C408.348 319.257 407.348 319.505 406.375 319.278C404.362 318.81 402.866 316.833 401.9 315.133C400.219 312.175 398.664 307.834 398.802 304.398C400.285 304.482 404.857 301.779 406.153 300.845Z" fill="#FFF7C7"/>
<path d="M406.659 278.721C408.81 278.8 414.831 283.099 416.83 284.451C417.058 287.527 417.044 290.603 417.056 293.686C413.751 295.756 410.397 297.743 406.993 299.646C403.543 297.947 400.444 295.76 397.157 294.101C397.422 292.564 397.214 290.48 397.028 288.921C396.949 287.521 397.085 286.088 397.15 284.687C400.231 282.567 403.467 280.667 406.659 278.721Z" fill="#FFF7C7"/>
<path d="M795.93 207.911C797.858 205.727 800.294 203.721 802.785 202.208C804.48 201.179 806.688 200.154 808.704 200.733C809.858 201.064 810.695 201.895 811.235 202.947C812.953 206.293 811.955 212.536 810.867 215.944C811.578 216.172 812.285 216.409 812.99 216.656C815.855 217.677 819.259 219.53 820.542 222.422C821.197 223.901 821.14 225.519 820.488 226.988C818.951 230.453 814.648 232.861 811.276 234.195C811.987 237.542 812.839 241.299 812.202 244.72C811.648 246.024 811.122 247.088 809.744 247.655C807.799 248.456 805.526 247.795 803.707 246.957C802.522 246.411 801.236 245.773 800.158 245.037C798.51 244.311 797.188 243.116 795.882 241.907C792.743 244.488 789.822 247.299 785.746 248.222C783.972 247.8 782.534 247.219 781.42 245.7C778.97 242.355 780.128 236.868 780.657 233.045C778.937 232.495 777.228 231.925 775.602 231.13C773.48 230.092 771.116 228.519 770.375 226.156C769.97 224.866 770.135 223.526 770.793 222.351C772.594 219.13 777.632 217.079 781.032 216.173C780.808 215.247 780.629 214.312 780.494 213.369C780.043 210.311 779.251 205.257 781.342 202.642C782.031 201.781 783.013 201.307 784.105 201.222C788.354 200.892 792.968 205.306 795.93 207.911Z" fill="#FFE01A"/>
<path d="M803.189 214.741C805.438 215.267 807.668 215.808 809.885 216.461C809.526 218.545 808.874 220.608 808.322 222.65L808.139 223.226L807.91 223.224C806.679 218.969 805.015 218.215 803.189 214.741Z" fill="#FFF7C7"/>
<path d="M796.016 208.981C797.923 210.223 799.588 212.011 801.155 213.644C799.588 213.53 798.02 213.482 796.45 213.43C794.597 213.454 792.784 213.654 790.948 213.893C792.593 212.214 794.321 210.609 796.016 208.981Z" fill="#FFF7C7"/>
<path d="M788.594 214.979L788.751 215.009C788.638 215.501 788.727 215.366 788.455 215.726C787.68 216.753 786.809 217.728 786.175 218.854C785.448 220.145 784.942 221.895 783.975 222.984L783.717 222.651C783.075 220.683 782.513 218.695 781.952 216.703L788.594 214.979Z" fill="#FFF7C7"/>
<path d="M783.806 226.1C784.006 226.324 783.925 226.203 784.068 226.524C785.285 229.248 786.688 231.777 788.297 234.284C787.876 234.408 787.622 234.298 787.203 234.207C785.351 233.732 783.509 233.21 781.664 232.708C782.266 230.47 782.882 228.229 783.806 226.1Z" fill="#FFF7C7"/>
<path d="M807.953 225.382C809.124 226.961 809.913 231.492 810.444 233.533C808.619 234.182 806.807 234.612 804.912 235.007L802.5 235.357C804.829 232.212 806.676 229.092 807.953 225.382Z" fill="#FFF7C7"/>
<path d="M810.307 234.584C811.228 237.175 811.205 240.725 811.184 243.474C810.864 244.637 810.487 245.965 809.278 246.506C807.693 247.215 805.48 246.185 803.895 245.79C801.353 244.426 798.947 243.085 796.733 241.216C798.432 239.596 800.096 237.978 801.672 236.236C804.636 235.921 807.44 235.404 810.307 234.584Z" fill="#FFF7C7"/>
<path d="M780.782 217.121L780.862 217.138C781.595 217.827 783.028 223.316 783.499 224.705C782.313 227.241 781.481 229.72 780.836 232.445C779.164 231.771 777.524 231.066 775.897 230.289C774.226 229.377 772.121 228.194 771.325 226.378C770.875 225.352 770.93 224.245 771.395 223.234C772.884 219.99 777.659 218.245 780.782 217.121Z" fill="#FFF7C7"/>
<path d="M810.874 216.676C813.713 217.54 817.129 218.971 819.022 221.352C819.887 222.438 820.343 223.725 820.161 225.117C819.831 227.637 817.691 229.284 815.828 230.741C814.352 231.72 812.868 232.495 811.25 233.211C810.315 230.258 809.52 227.265 808.562 224.315C809.391 221.787 810.161 219.24 810.874 216.676Z" fill="#FFF7C7"/>
<path d="M806.447 201.991C806.842 201.958 807.25 201.919 807.647 201.945C808.541 202.004 809.32 202.542 809.831 203.253C811.943 206.192 810.555 212.38 809.936 215.637C807.757 214.826 805.469 214.385 803.188 213.975C801.459 213.566 798.241 209.745 796.577 208.468C799.973 206.299 802.71 203.664 806.447 201.991Z" fill="#FFF7C7"/>
<path d="M783.77 202.065C788.332 201.969 791.874 205.624 795.108 208.373C793.34 210.139 791.6 211.932 789.888 213.753C787.69 214.926 784.249 215.246 781.787 215.885C781.143 212.535 780.106 207.654 781.425 204.358C781.933 203.089 782.549 202.614 783.77 202.065Z" fill="#FFF7C7"/>
<path d="M781.596 233.374C783.946 234.445 786.763 234.894 789.294 235.4C790.85 237.455 792.325 239.61 794.447 241.124L794.776 240.981L794.536 241.164L794.755 240.917C793.777 238.944 791.705 237.119 790.208 235.502C793.461 236.153 796.644 236.209 799.947 236.276L800.085 236.574L799.527 237.302C797.174 239.682 794.526 241.896 791.954 244.038C790.028 245.642 787.596 247.485 784.942 247.165C783.842 247.032 782.875 246.493 782.229 245.584C779.98 242.423 781.01 236.897 781.596 233.374Z" fill="#FFF7C7"/>
<path d="M793.297 214.274C796.077 214.072 799.163 213.965 801.863 214.762C804.473 217.541 806.25 220.724 807.653 224.238C806.372 227.603 804.783 231.494 802.34 234.191C801.444 235.179 800.855 235.467 799.524 235.535C796.241 235.621 792.709 235.372 789.523 234.561C787.175 231.623 785.684 228.211 784.221 224.781C785.883 221.037 787.584 217.916 790.195 214.75L793.297 214.274Z" fill="#FFF7C7"/>
<path d="M796.469 366.55C796.783 366.542 797.097 366.556 797.409 366.592C797.721 366.629 798.028 366.689 798.332 366.771C798.635 366.854 798.931 366.958 799.218 367.083C799.506 367.209 799.784 367.355 800.05 367.522C804.129 370.029 805.161 376.462 806.179 380.775C809.229 379.576 812.417 378.336 815.734 378.246C817.924 378.187 820.625 378.699 822.249 380.291C823.178 381.202 823.592 382.419 823.549 383.709C823.369 389.135 818.18 393.413 814.582 396.885C817.709 399.842 821.633 403.056 823.488 407.017C824.197 408.53 824.261 410.499 823.61 412.052C823.026 413.448 821.605 414.593 820.228 415.144C815.913 416.867 810.563 414.606 806.583 412.923C806.152 415.026 805.666 417.145 804.945 419.169C803.725 422.591 801.994 425.361 798.602 426.949C797.478 427.08 796.417 426.952 795.402 426.417C791.356 424.28 789.511 417.515 788.271 413.415C784.969 414.808 781.283 416.464 777.634 416.469C775.956 416.471 774.076 416.076 772.875 414.815C771.83 413.718 771.51 412.135 771.574 410.663C771.802 405.425 777.074 400.433 780.681 397.179C777.506 394.563 774.03 391.481 772.177 387.73C771.261 385.875 770.74 383.58 771.483 381.574C771.958 380.292 772.867 379.392 774.114 378.849C778.412 376.98 784.283 379.377 788.39 380.884C789.165 377.226 790.044 373.039 792.036 369.821C793.176 367.979 794.374 367.051 796.469 366.55Z" fill="#36345B"/>
<path d="M787.121 393.004C786.952 395.314 786.798 397.726 787.104 400.03C787.048 400.427 787.104 400.196 786.869 400.702C785.225 400.17 783.404 398.402 782.007 397.364L787.121 393.004Z" fill="#FFF7C7"/>
<path d="M807.688 392.205C809.718 393.628 811.584 395.229 813.472 396.832L811.32 398.685L807.864 401.505C807.768 398.405 807.811 395.307 807.688 392.205Z" fill="#FFF7C7"/>
<path d="M805.22 382.121C805.51 382.151 805.329 382.104 805.69 382.43C806.184 385.071 806.491 387.734 806.612 390.418C805.415 389.604 804.169 388.843 802.95 388.059L798.455 385.448C800.744 384.431 802.976 383.236 805.22 382.121Z" fill="#FFF7C7"/>
<path d="M806.611 403.334L806.815 403.363C807.514 404.749 806.351 410.218 806.058 411.809L801.817 409.851L798.616 408.2C801.321 406.64 804.044 405.118 806.611 403.334Z" fill="#FFF7C7"/>
<path d="M787.901 402.806C789.606 404.048 791.413 405.379 793.353 406.22C794.153 407.105 795.601 407.686 796.652 408.27C794.66 409.568 792.393 410.854 790.193 411.747C789.633 411.974 789.391 412.206 788.827 411.965C788.149 408.992 788.058 405.845 787.901 402.806Z" fill="#FFF7C7"/>
<path d="M788.974 382.122C791.38 383.173 793.717 384.337 796.061 385.519C796.64 385.744 797.273 385.937 797.815 386.238C796.253 387.072 794.303 388.499 792.652 389.028C791.765 389.1 791.027 389.685 790.201 389.625C789.434 390.16 788.676 390.728 787.877 391.212C788.394 388.231 788.559 385.131 788.974 382.122Z" fill="#FFF7C7"/>
<path d="M796.061 385.519C796.64 385.744 797.273 385.937 797.815 386.238C796.253 387.072 794.303 388.499 792.652 389.028C791.765 389.1 791.027 389.685 790.201 389.625C791.948 388.04 794.081 386.791 796.061 385.519Z" fill="#FFE01A"/>
<path d="M797.493 408.714C798.682 408.756 804.209 411.977 805.919 412.649C805.155 415.841 804.479 419.343 802.767 422.189C801.536 424.237 800.014 425.707 797.666 426.299C796.998 426.199 796.324 426.032 795.72 425.72C791.864 423.731 790.205 416.956 789.084 413.081C792.019 411.857 794.767 410.337 797.493 408.714Z" fill="#FFF7C7"/>
<path d="M795.57 367.517C797.041 367.327 798.351 367.371 799.652 368.161C803.544 370.524 804.483 377.026 805.424 381.105C803.03 382.177 800.699 383.433 798.355 384.611C798.143 384.721 797.993 384.809 797.756 384.876C796.782 385.152 790.531 381.82 789.182 381.216C790.221 376.529 791.274 370.356 795.57 367.517Z" fill="#FFF7C7"/>
<path d="M815.042 379.045C815.346 378.998 815.635 378.98 815.942 378.979C817.886 378.977 819.888 379.37 821.269 380.85C822.174 381.819 822.62 382.993 822.564 384.318C822.371 388.894 817.094 393.377 813.995 396.308C811.851 394.412 809.584 392.638 807.372 390.821C807.28 387.716 806.808 384.765 806.183 381.728C809.092 380.667 811.971 379.532 815.042 379.045Z" fill="#FFF7C7"/>
<path d="M781.303 397.948C783.237 399.069 785.156 400.799 787.004 402.104C787.055 405.57 787.415 409.173 788.029 412.582C785.141 413.816 782.347 414.936 779.263 415.597C778.597 415.615 777.909 415.65 777.245 415.601C775.818 415.494 774.13 414.979 773.175 413.852C772.348 412.877 772.157 411.596 772.31 410.358C772.889 405.636 777.792 400.773 781.303 397.948Z" fill="#FFF7C7"/>
<path d="M776.747 379.019C780.687 378.805 784.702 380.504 788.318 381.878C787.446 385.138 787.514 388.61 786.982 391.936C785.575 392.996 784.204 394.101 782.868 395.248C782.363 395.731 781.906 396.327 781.178 396.411C777.795 394.183 772.953 389.267 772.066 385.179C771.765 383.795 771.877 382.285 772.738 381.112C773.731 379.762 775.171 379.314 776.747 379.019Z" fill="#FFF7C7"/>
<path d="M814.003 397.511L815.57 398.915C818.687 401.727 823.189 405.479 823.3 410.043C823.329 411.196 823.05 412.322 822.209 413.152C820.826 414.518 818.444 414.873 816.591 414.927C813.093 414.845 809.985 413.446 806.785 412.188C807.429 408.93 807.771 405.729 807.799 402.408C809.894 400.81 811.962 399.178 814.003 397.511Z" fill="#FFF7C7"/>
<path d="M797.815 386.238C800.512 388.06 803.579 389.65 806.439 391.227C806.412 393.241 806.788 395.205 806.813 397.208C807.146 398.885 807.039 400.632 807.023 402.335C805.484 403.404 803.191 405.464 801.412 405.945C800.371 406.822 798.969 407.525 797.804 408.253C796.446 407.641 794.788 406.435 793.353 406.22C792.284 405.215 790.966 404.495 789.777 403.639C788.472 402.699 787.725 401.988 787.47 400.373L787.104 400.03C786.798 397.726 786.952 395.314 787.121 393.004L787.877 391.212C788.676 390.728 789.434 390.16 790.201 389.625C791.027 389.685 791.765 389.1 792.652 389.028C794.303 388.499 796.253 387.072 797.815 386.238Z" fill="#FFF7C7"/>
<path d="M790.201 389.626C791.027 389.685 791.765 389.1 792.652 389.028C790.729 390.51 788.413 391.991 788.095 394.622C788.005 395.364 787.989 396.149 788.088 396.891C787.69 397.813 787.557 398.492 787.514 399.49L787.47 400.373L787.104 400.03C786.798 397.726 786.952 395.314 787.121 393.004L787.877 391.212C788.676 390.728 789.434 390.16 790.201 389.626Z" fill="#FFE01A"/>
<path d="M806.813 397.208C807.146 398.885 807.039 400.632 807.023 402.335C805.484 403.404 803.191 405.464 801.412 405.945C800.703 406.14 799.973 406.177 799.243 406.244C802.706 404.119 805.804 401.265 806.813 397.208Z" fill="#FFE01A"/>
<path d="M788.088 396.891C788.902 400.829 790.77 403.183 794.112 405.403C795.135 406.082 796.891 406.965 798.156 406.677C798.548 406.588 798.888 406.426 799.243 406.244C799.973 406.177 800.703 406.14 801.412 405.945C800.371 406.822 798.969 407.525 797.804 408.253C796.446 407.641 794.788 406.435 793.353 406.22C792.284 405.215 790.966 404.495 789.777 403.639C788.472 402.699 787.725 401.988 787.47 400.373L787.514 399.49C787.557 398.492 787.69 397.813 788.088 396.891Z" fill="#FFE01A"/>
<path d="M472.25 213.767C477.637 213.525 483.12 213.709 488.519 213.707L518.494 213.696L611.976 213.7L690.987 213.721L715.206 213.711C719.283 213.706 723.502 213.466 727.56 213.736C728.94 213.827 730.492 214.483 731.579 215.325C733.764 217.017 734.586 219.075 734.853 221.748C735.154 224.762 734.996 227.907 735.001 230.94L735.011 247.354L735.023 299.961L735.011 366.496L735.067 388.267C735.079 392.241 735.261 396.307 735.009 400.272C734.886 402.218 734.123 403.814 732.859 405.293C731.04 407.423 728.328 408.326 725.622 408.609C721.23 409.069 716.473 408.694 712.048 408.684L686.291 408.668L633.922 408.612C624.112 408.589 614.192 408.274 604.395 408.638C598.419 408.859 592.441 409.601 586.469 409.98C586.615 418.023 587.483 426.1 588.02 434.127C588.17 436.373 588.858 440.146 588.388 442.197C588.275 442.693 588.377 442.518 587.927 442.785L587.55 442.549C586.897 440.946 587.061 437.066 586.931 435.174C586.363 426.877 586.167 418.387 585.14 410.145C574.191 410.828 564.791 411.417 555.178 405.117C546.795 399.624 541.414 391.342 539.365 381.547C538.785 378.771 537.625 372.602 539.244 370.125C539.686 372 539.531 374.222 539.658 376.158C539.857 379.162 540.486 382.001 541.331 384.884C543.55 391.623 547.151 397.667 552.752 402.12C553.265 402.533 553.789 402.931 554.325 403.314C554.861 403.697 555.408 404.063 555.966 404.414C556.524 404.764 557.091 405.098 557.669 405.415C558.246 405.731 558.832 406.031 559.427 406.313C560.022 406.595 560.625 406.86 561.236 407.106C561.847 407.353 562.464 407.582 563.088 407.792C563.713 408.002 564.343 408.194 564.978 408.367C565.614 408.54 566.254 408.694 566.899 408.829C573.749 410.195 581.197 409.308 588.116 408.818C598.304 408.038 608.474 407.071 618.626 405.919C618.694 405.715 618.762 405.512 618.822 405.305C620.199 400.546 619.993 389.789 617.611 385.401L595.08 386.787C590.381 387.058 585.456 387.614 580.763 387.148C575.141 386.591 570.197 384.272 566.629 379.82C563.381 375.768 562.393 371.299 561.972 366.204C561.861 364.863 561.685 363.337 561.876 361.999C561.951 361.476 561.92 361.4 562.368 361.091C563.023 361.723 563.213 369.384 563.651 371.224C564.394 374.347 565.756 377.368 567.867 379.809C571.925 384.499 577.241 385.798 583.193 386.242C583.289 373.809 578.798 360.138 572.375 349.522C567.952 342.212 561.892 334.759 553.21 332.667C548.827 331.61 544.752 332.406 540.939 334.739C534.914 338.425 530.391 344.33 527.915 350.892C523.803 361.789 523.939 377.112 523.21 388.886L520.911 427.333C520.625 432.098 520.812 437.934 519.734 442.516L519.379 442.539C519.046 441.917 519.026 441.367 519.008 440.676C518.914 437.164 519.428 433.48 519.643 429.964L520.93 408.231L488.304 408.249C482.795 408.261 477.014 408.656 471.55 408.15C470.408 408.045 469.414 407.791 468.436 407.178C466.511 405.972 464.932 403.791 464.454 401.567C463.593 397.572 464.25 390.367 464.261 386.022L464.218 354.607L464.176 275.601L464.129 242.762C464.119 236.463 463.91 230.088 464.164 223.797C464.255 221.54 464.479 219.265 465.823 217.366C467.381 215.165 469.69 214.223 472.25 213.767Z" fill="#1E1E1E"/>
<path d="M619.523 386.578C622.141 386.384 624.775 386.102 627.353 385.605C629.552 385.182 634.298 383.408 636.209 383.579C636.747 383.627 636.849 383.906 637.18 384.267C637.331 384.874 637.309 385.279 637.12 385.865C635.932 389.551 632.89 391.493 629.68 393.22C627.88 393.769 626.065 394.267 624.237 394.713L620.661 395.131C620.391 392.266 619.944 389.424 619.523 386.578Z" fill="#FFF7C7"/>
<path d="M521.123 406.666C510.309 406.717 499.494 406.698 488.679 406.608C484.001 406.61 476.915 407.09 472.471 406.58C471.027 406.414 469.312 406.132 468.225 405.088C467.143 404.05 466.207 402.497 466.048 400.985C465.45 395.287 465.904 389.111 465.908 383.371L465.923 346.643L465.895 270.91C465.886 255.495 465.664 240.05 465.852 224.638C465.886 221.94 466.076 219.271 468.139 217.285C469.691 215.79 471.811 215.677 473.883 215.604C479.623 215.404 485.417 215.557 491.165 215.556L523.685 215.553L615.777 215.504L687.896 215.535L712.863 215.517C716.983 215.517 721.164 215.347 725.277 215.539C727.039 215.621 729.893 215.744 731.098 217.128C732.683 218.95 733.168 220.843 733.307 223.207C733.524 226.928 733.351 230.747 733.342 234.476L733.322 254.795L733.369 321.011L733.386 373.381L733.448 390.014C733.465 393.127 733.706 396.395 733.393 399.485C733.175 401.638 732.451 403.456 730.709 404.816C729.267 405.943 727.758 406.639 725.935 406.826C721.039 407.327 715.881 407.019 710.959 407.015L683.8 406.991L641.252 406.996C633.97 407.001 626.605 407.243 619.331 406.98C620.477 403.418 620.644 399.793 620.736 396.076C622.072 395.94 623.559 395.917 624.846 395.545C627.378 395.289 629.793 394.474 632.027 393.276C633.438 392.569 634.731 391.491 635.762 390.3C636.98 388.895 638.484 386.818 638.269 384.879C638.099 383.343 636.864 382.518 635.736 381.656C636.729 378.448 638.372 375.333 639.807 372.301C642.343 366.937 644.961 361.603 647.289 356.144C645.539 355.396 643.909 354.343 642.274 353.373C638.581 359.042 635.846 366.59 632.992 372.8C631.249 376.592 628.952 380.454 627.695 384.428C625.453 384.931 622.936 385.385 620.64 385.15C618.722 384.954 616.827 384.546 614.89 384.627C604.701 385.053 594.507 385.811 584.317 386.311C584.119 379.812 583.087 373.643 581.305 367.404C577.859 355.343 569.949 339.729 558.728 333.489C558.717 330.776 558.736 327.666 558.279 325.001C558.103 323.978 557.086 322.395 557.269 321.489L558.197 321.062C558.586 321.011 559.024 320.904 559.395 320.764C560.852 320.213 561.92 318.92 562.499 317.511C563.57 314.904 563.228 312.285 562.134 309.768L561.588 308.779C559.561 305.856 557.027 301.455 553.206 300.867C552.947 300.826 552.686 300.798 552.424 300.784C552.162 300.77 551.9 300.769 551.637 300.783C551.375 300.796 551.114 300.822 550.855 300.863C550.595 300.903 550.339 300.957 550.085 301.024C549.831 301.092 549.582 301.172 549.336 301.265C549.091 301.359 548.851 301.464 548.617 301.583C548.382 301.701 548.155 301.831 547.934 301.973C547.713 302.115 547.501 302.268 547.296 302.433C544.995 304.265 544.208 306.731 543.503 309.449C541.354 310.532 539.701 311.651 538.917 314.083C538.363 315.805 538.505 317.833 539.398 319.417C540.223 320.879 541.557 322.08 543.199 322.49C544.435 322.799 545.683 323.021 546.904 323.392C547.06 323.845 547.181 324.249 547.24 324.725C547.257 326.024 547.019 328.654 548 329.613C548.802 328.46 548.274 326.36 548.233 325.026L548.091 323.646C548.312 322.799 549.473 322.065 550.188 321.584C550.991 321.044 551.507 320.489 552.106 319.742L552.343 319.444C552.537 317.092 552.324 314.987 551.911 312.668C555.412 310.811 556.785 309.489 558.169 305.743C559.525 307.123 560.694 308.663 561.454 310.453C562.313 312.478 562.563 315.015 561.644 317.071C560.922 318.688 559.624 319.596 558.019 320.199C556.261 320.643 555.132 321.019 553.331 320.527C552.775 320.376 552.615 320.237 552.05 320.49C552.175 320.96 552.389 321.131 552.822 321.382C553.864 321.986 555.436 321.719 556.561 321.566C557.417 325.405 557.329 329.167 557.664 333.051C552.639 331.245 547.745 330.137 542.694 332.542C535.175 336.122 529.22 343.778 526.519 351.52C522.679 362.527 522.928 375.048 522.246 386.59C521.852 393.258 521.238 399.994 521.123 406.666Z" fill="#FFF7C7"/>
<path d="M589.357 320.844C589.659 322.771 590.537 326.996 589.552 328.796C588.277 327.392 588.444 323.237 588.195 321.258C588.705 321.92 588.873 322.681 589.105 323.469L589.357 320.844Z" fill="#325EA7"/>
<path d="M589.682 271.164C590.518 274.003 590.878 276.488 590.579 279.45L589.368 278.701C589.466 276.394 589.252 274.272 588.597 272.062L589.682 271.164Z" fill="#325EA7"/>
<path d="M585.092 288.979L586.777 288.737C585.434 290.355 584.029 292.04 582.398 293.379C581.288 294.288 580.189 295.259 579.02 296.089L578.222 295.249C578.87 294.386 580.386 293.439 581.255 292.737C582.615 291.569 583.843 290.261 585.092 288.979Z" fill="#325EA7"/>
<path d="M589.368 278.701L590.579 279.45C590.14 282.89 588.924 286 586.777 288.737L585.092 288.979C587.586 285.738 588.907 282.791 589.368 278.701Z" fill="#29549E"/>
<path d="M569.986 255.985C570.312 256.33 570.479 256.553 570.63 257.005C567.262 259.376 564.079 261.916 561.14 264.811L560.882 264.458C561.468 263.835 562.03 263.196 562.592 262.553C561.976 262.595 561.279 263.852 560.512 264.053C560.406 264.081 560.297 264.1 560.19 264.123C562.763 261.024 566.585 258.144 569.986 255.985Z" fill="#29549E"/>
<path d="M659.307 292.986C661.102 292.9 670.771 292.578 671.659 293.328L671.422 293.735C671.285 293.821 671.149 293.91 671.01 293.992C669.807 294.698 661.475 294.835 660.112 294.353C659.728 294.217 659.481 293.36 659.307 292.986Z" fill="#FFE01A"/>
<path d="M578.404 257.812C583.312 261.757 587.148 265.27 589.682 271.164L588.597 272.062C587.343 268.995 585.933 266.571 583.646 264.168L582.786 263.24C581.146 261.59 579.373 260.16 577.56 258.709L578.404 257.812Z" fill="#29549E"/>
<path d="M657.451 263.754C662.649 263.844 667.864 263.771 673.057 263.964L674.352 265.22C668.765 265.439 661.576 265.728 656.074 265.049L657.451 263.754Z" fill="#F5D14A"/>
<path d="M565.02 309.019C568.504 309.029 576.957 308.355 579.839 308.984C580.475 309.123 580.538 309.249 580.809 309.773L580.56 310.264L579.797 310.37C577.795 310.416 564.448 310.708 563.696 310.23L563.674 309.678C564.18 309.044 564.204 309.126 565.02 309.019Z" fill="#FFE01A"/>
<path d="M563.452 246.488C563.443 245.886 563.323 245.803 563.72 245.316C566.077 245.121 581.581 244.741 582.72 245.484L581.842 246.284C578.501 247.521 567.66 247.067 563.841 246.572L563.452 246.488Z" fill="#FFE01A"/>
<path d="M655.312 246.992C657.159 246.593 673.578 246.514 675.448 246.95L674.14 248.249C671.054 249.082 660.282 248.684 656.756 248.377L655.312 246.992Z" fill="#F5D14A"/>
<path d="M573.534 301.631C580.662 305.652 587.109 312.933 589.357 320.844L589.105 323.469C588.873 322.681 588.705 321.92 588.195 321.258C588.187 321.245 588.178 321.232 588.173 321.218C585.366 312.556 579.646 307.528 572.564 302.218L573.534 301.631Z" fill="#29549E"/>
<path d="M582.72 245.484C584.942 243.499 586.953 241.201 587.903 238.321C588.237 237.306 588.463 235.816 589.11 234.974C589.667 235.06 589.675 235.024 590.03 235.452C590.335 237.809 587.755 241.85 586.327 243.692C583.56 247.259 577.589 251.841 573.787 254.314L572.831 253.473C575.909 251.161 578.982 248.867 581.842 246.284L582.72 245.484Z" fill="#29549E"/>
<path d="M574.458 316.584C576.905 316.542 583.735 315.88 585.7 316.883C586.032 317.053 585.976 317.22 586.061 317.549L585.686 317.942C582.303 318.217 578.801 318.078 575.403 318.107C573.266 318.094 563.929 318.584 562.849 317.568L563.074 317.135C564.521 316.171 572.276 316.604 574.458 316.584Z" fill="#FFE01A"/>
<path d="M652.156 240.291C657.434 240.195 662.723 240.262 668.002 240.263C671.413 240.263 674.93 240.091 678.327 240.383C678.637 240.944 678.424 241.204 678.273 241.799C675.554 241.921 653.73 242.265 652.507 241.424C652.186 241.202 652.22 240.652 652.156 240.291Z" fill="#FFE01A"/>
<path d="M559.345 323.641C562.815 323.623 586.773 323.263 588.181 324.017C588.299 324.573 588.265 324.563 587.989 325.067C583.84 325.13 560.892 325.584 559.101 324.797C558.992 324.202 559.053 324.182 559.345 323.641Z" fill="#FFE01A"/>
<path d="M651.005 287.265C651.343 286.678 651.333 286.496 652.026 286.336C654.498 285.77 657.879 286.134 660.446 286.114C666.716 286.065 673.045 285.873 679.309 286.146C679.139 286.823 679.197 287.225 678.602 287.639C674.972 287.771 652.807 288.142 651.005 287.265Z" fill="#FFE01A"/>
<path d="M649.978 278.66C653.639 278.41 679.904 278.231 680.968 278.904L681.185 279.887C678.349 280.546 673.879 280.107 670.895 280.116C664.183 280.138 657.393 280.367 650.689 280.061C650.117 279.725 650.154 279.276 649.978 278.66Z" fill="#FFE01A"/>
<path d="M652.334 271.077C657.755 271.129 663.182 271.21 668.603 271.185C671.401 271.171 674.34 270.878 677.12 271.158C677.819 271.229 678.263 271.356 678.831 271.766C679.028 272.235 679.151 272.229 678.951 272.725L678.186 272.87C674.66 272.878 653.433 273.306 651.785 272.712C651.716 272.688 651.654 272.649 651.589 272.618L651.375 272.679C651.45 272.142 652.021 271.529 652.334 271.077Z" fill="#FFE01A"/>
<path d="M558.648 238.378C563.949 238.12 569.344 238.301 574.657 238.293C578.685 238.288 582.931 238.021 586.928 238.404L587.172 238.758L586.884 239.8C585.294 240.216 560.999 240.279 559.359 239.835C558.83 239.334 558.783 239.063 558.648 238.378Z" fill="#FFE01A"/>
<path d="M571.733 254.55C569.508 252.517 566.824 250.869 564.465 248.977C560.706 245.963 556.282 241.158 555.271 236.285C555.138 235.644 555.237 235.56 555.575 235.045C555.732 235.063 555.906 235.028 556.046 235.101C556.161 235.161 556.529 235.82 556.59 235.944C557.384 237.555 557.879 239.303 558.757 240.88C559.932 242.988 561.901 244.656 563.452 246.488L563.841 246.572C566.683 249.024 569.637 251.332 572.705 253.495L572.831 253.473L573.787 254.314L574.439 254.917L578.404 257.812L577.56 258.709C576.519 258.072 575.538 257.312 574.547 256.598C573.769 256.076 573.408 255.65 572.456 255.663C571.853 256.119 571.244 256.566 570.63 257.005C570.479 256.553 570.312 256.33 569.986 255.985C570.593 255.532 571.162 255.048 571.733 254.55Z" fill="#325EA7"/>
<path d="M664.84 257.443L665.886 257.611C667.983 259.959 670.839 261.677 673.057 263.964C667.864 263.771 662.649 263.844 657.451 263.754C659.765 261.488 662.333 259.49 664.84 257.443Z" fill="#FFF7C7"/>
<path d="M666.571 256.874C669.306 257.932 676.532 265.403 678.476 267.895C679.089 268.668 679.651 269.477 680.163 270.32C680.675 271.164 681.132 272.037 681.534 272.938C681.647 273.193 681.754 273.45 681.854 273.709C681.954 273.969 682.048 274.231 682.135 274.496C682.222 274.76 682.303 275.026 682.376 275.294C682.451 275.563 682.518 275.833 682.579 276.104C682.639 276.376 682.693 276.649 682.74 276.923C682.787 277.198 682.827 277.473 682.86 277.75C682.894 278.026 682.92 278.302 682.94 278.58C682.959 278.858 682.972 279.136 682.978 279.414C682.984 279.692 682.983 279.971 682.975 280.249C682.967 280.527 682.952 280.805 682.93 281.082C682.908 281.36 682.88 281.637 682.844 281.913C682.809 282.189 682.766 282.464 682.717 282.737C682.668 283.011 682.612 283.284 682.549 283.555C682.487 283.826 682.417 284.096 682.341 284.364C682.265 284.631 682.182 284.897 682.093 285.161C682.004 285.424 681.908 285.686 681.806 285.944C680.779 288.507 678.38 292.402 675.784 293.538C675.275 293.76 675.49 293.711 674.948 293.678C674.909 293.05 675.232 292.747 675.625 292.283C679.539 287.652 681.904 285.068 681.573 278.555C681.326 273.7 678.294 268.799 674.774 265.572C674.639 265.448 674.494 265.335 674.352 265.22L673.057 263.964C670.839 261.677 667.983 259.959 665.886 257.611L666.571 256.874Z" fill="#325EA7"/>
<path d="M581.842 246.284C578.982 248.867 575.909 251.161 572.831 253.473L572.705 253.495C569.637 251.332 566.683 249.024 563.841 246.572C567.66 247.067 578.501 247.521 581.842 246.284Z" fill="#FFF7C7"/>
<path d="M560.19 264.123C560.297 264.1 560.406 264.081 560.512 264.053C561.279 263.852 561.976 262.595 562.592 262.553C562.03 263.196 561.468 263.835 560.882 264.458L561.14 264.811C557.583 269.887 555.33 274.883 556.475 281.205C557.942 289.314 565.694 295.192 571.956 299.816C572.217 300.387 572.34 300.351 572.861 300.654L573.534 301.631L572.564 302.218L572.055 301.937C569.297 303.038 564.476 307.659 562.134 309.768L561.588 308.779C564.519 305.908 567.687 303.349 570.911 300.817C567.891 298.412 564.896 295.937 562.089 293.285C557.736 289.171 554.828 284.256 554.697 278.139C554.59 273.124 556.695 267.731 560.19 264.123Z" fill="#325EA7"/>
<path d="M675.448 246.95C677.274 244.938 679.3 242.191 679.931 239.513C680.204 238.353 680.163 236.419 681.4 235.965C681.759 236.203 681.681 236.056 681.754 236.49C682.291 239.675 679.497 244.064 677.653 246.391C675.734 248.811 669.363 255.082 666.558 255.867L666.571 256.874L665.886 257.611L664.84 257.443C662.333 259.49 659.765 261.488 657.451 263.754L656.074 265.049C652.252 268.549 649.601 273.267 649.34 278.5C649.186 281.562 649.903 284.433 651.005 287.265C652.129 289.33 653.513 291.269 654.387 293.459C653.498 292.813 652.668 292.194 651.972 291.333C648.826 287.444 647.479 282.043 648.054 277.105C649.131 267.853 657.509 261.859 664.237 256.484C663.624 255.654 662.578 254.975 661.776 254.316C657.22 250.625 652.609 247.111 650.083 241.656C649.537 240.476 648.304 237.792 648.874 236.565C649.028 236.235 649.242 236.251 649.557 236.134C649.692 236.216 649.862 236.258 649.964 236.379C650.074 236.509 650.99 240.448 651.284 241.142C651.507 241.67 651.755 242.186 652.028 242.69C652.302 243.194 652.599 243.683 652.92 244.158C653.242 244.633 653.586 245.09 653.952 245.531C654.318 245.972 654.705 246.394 655.113 246.797L655.312 246.992L656.756 248.377C660.282 248.684 671.054 249.082 674.14 248.249L675.448 246.95Z" fill="#29549E"/>
<path d="M656.756 248.377C660.282 248.684 671.054 249.082 674.14 248.249C671.379 250.773 668.418 253.31 665.341 255.442C664.52 255.119 663.603 254.098 662.913 253.512C661.049 251.672 658.7 250.191 656.756 248.377Z" fill="#FFF7C7"/>
<path d="M570.63 257.005C571.244 256.566 571.853 256.119 572.456 255.663C573.408 255.65 573.769 256.076 574.547 256.598C575.538 257.312 576.519 258.072 577.56 258.709C579.373 260.16 581.146 261.59 582.786 263.24L583.646 264.168C585.933 266.571 587.343 268.995 588.597 272.062C589.252 274.272 589.466 276.394 589.368 278.701C588.907 282.791 587.586 285.738 585.092 288.979C583.843 290.261 582.615 291.569 581.255 292.737C580.386 293.439 578.87 294.386 578.222 295.249L579.02 296.089C577.087 297.612 575.038 299.52 572.861 300.654C572.34 300.351 572.217 300.387 571.956 299.816C565.694 295.192 557.942 289.314 556.475 281.205C555.33 274.883 557.583 269.887 561.14 264.811C564.079 261.916 567.262 259.376 570.63 257.005Z" fill="#FFF7C7"/>
<path d="M571.956 299.816C574.018 298.258 576.107 296.735 578.222 295.249L579.02 296.089C577.087 297.612 575.038 299.52 572.861 300.654C572.34 300.351 572.217 300.387 571.956 299.816Z" fill="#29549E"/>
<path d="M564.725 292.578C566.851 292.51 579.282 292.043 580.314 292.846L580.083 293.286C579.538 293.614 578.963 293.965 578.337 294.103C575.835 294.652 568.659 294.771 566.213 294.128C565.283 293.884 565.127 293.337 564.725 292.578Z" fill="#FFE01A"/>
<path d="M583.646 264.168C583.455 264.456 583.304 264.541 583.02 264.726C580.906 264.815 563.994 265.033 562.96 264.65C562.789 264.586 562.666 264.432 562.518 264.323C562.547 264.29 562.572 264.252 562.605 264.225C563.46 263.515 564.971 263.234 566.041 263.104C567.828 262.887 569.754 263.112 571.557 263.119C575.286 263.132 579.069 262.943 582.786 263.24L583.646 264.168Z" fill="#FFE01A"/>
<path d="M558.416 285.474C561.497 285.505 585.722 285.188 586.332 285.679L586.272 286.876C584.121 287.257 561.047 287.501 559.61 287.001C558.93 286.765 558.732 286.06 558.416 285.474Z" fill="#FFE01A"/>
<path d="M558.956 270.394C562.686 270.515 585.752 270.247 587.12 270.844C587.497 271.009 587.456 271.3 587.563 271.661L587.306 272.095L586.608 272.142C583.003 272.21 559.805 272.684 558.014 271.956L557.838 271.503C558.159 270.901 558.353 270.712 558.956 270.394Z" fill="#FFE01A"/>
<path d="M557.099 277.978L578.038 277.952C581.478 277.943 585.219 277.614 588.621 278.02C589.025 278.634 588.917 278.906 588.889 279.627L568.966 279.719C565.152 279.746 561.236 279.963 557.433 279.714C556.949 279.073 557.082 278.764 557.099 277.978Z" fill="#FFE01A"/>
<path d="M658.262 297.279C665.416 296.745 672.795 298.044 678.725 302.278C679.089 302.541 679.446 302.812 679.796 303.092C680.146 303.373 680.489 303.661 680.825 303.959C681.161 304.256 681.489 304.562 681.81 304.876C682.131 305.189 682.444 305.511 682.749 305.84C683.053 306.169 683.349 306.506 683.637 306.85C683.925 307.194 684.205 307.545 684.475 307.903C684.746 308.261 685.007 308.625 685.259 308.996C685.512 309.367 685.755 309.744 685.988 310.127C686.222 310.51 686.446 310.899 686.66 311.293C686.875 311.687 687.079 312.086 687.273 312.491C687.468 312.895 687.652 313.304 687.826 313.718C688 314.131 688.164 314.549 688.317 314.97C688.471 315.392 688.613 315.817 688.745 316.246C688.877 316.675 688.999 317.106 689.109 317.541C689.22 317.976 689.32 318.413 689.409 318.853C689.498 319.293 689.576 319.735 689.643 320.178C689.718 320.654 689.782 321.132 689.834 321.612C689.885 322.091 689.925 322.571 689.954 323.053C689.982 323.534 689.998 324.016 690.003 324.498C690.007 324.98 690 325.462 689.981 325.944C689.961 326.426 689.93 326.907 689.888 327.387C689.845 327.867 689.79 328.346 689.723 328.824C689.657 329.301 689.579 329.777 689.489 330.251C689.399 330.724 689.297 331.195 689.184 331.664C689.071 332.133 688.947 332.599 688.811 333.061C688.675 333.524 688.527 333.983 688.369 334.438C688.21 334.893 688.04 335.344 687.859 335.791C687.678 336.238 687.487 336.681 687.284 337.118C687.081 337.556 686.868 337.988 686.644 338.415C686.42 338.842 686.186 339.263 685.941 339.679C685.697 340.094 685.442 340.503 685.177 340.906C684.912 341.309 684.638 341.705 684.354 342.095C679.144 349.094 671.863 353.018 663.339 354.289C655.067 354.768 648.507 353.403 641.886 348.182C636.292 343.771 632.298 337.236 631.544 330.107C630.722 322.333 632.829 314.022 637.848 307.951C643.183 301.499 649.967 298.03 658.262 297.279Z" fill="#030304"/>
<path d="M658.746 300.202C664.765 299.378 671.951 301.523 676.867 304.979C681.926 308.535 685.423 314.348 686.401 320.431C687.491 327.212 685.879 334.532 681.843 340.103C677.331 346.331 670.75 349.877 663.251 351.077C656.467 351.771 649.727 350.335 644.325 345.974C639.215 341.85 635.479 335.884 634.784 329.285C634.068 322.485 636.113 315.254 640.419 309.931C645.056 304.198 651.478 300.97 658.746 300.202Z" fill="#FFF7C7"/>
<path d="M655.795 302.841C656.548 302.818 657.354 302.75 658.105 302.814C658.761 302.868 659.111 302.938 659.56 303.418C659.308 303.858 644.251 314.7 642.255 316.397C641.568 317.029 640.928 317.778 639.953 317.752C639.611 317.258 639.523 317.029 639.648 316.42C639.863 315.374 640.485 314.373 641.183 313.583C643.695 310.742 652.226 304.915 655.795 302.841Z" fill="#5484CC"/>
<path d="M682.731 324.708L683.067 324.975C683.353 325.723 683.686 326.693 683.366 327.497C682.938 328.569 657.283 348.027 656.006 348.499C655.651 348.629 654.916 348.201 654.556 348.058L652.799 347.16C657.599 342.803 663.285 339.159 668.474 335.263C673.081 331.805 677.786 327.632 682.731 324.708Z" fill="#5484CC"/>
<path d="M670.035 305.441C671.057 305.859 672.008 306.544 672.945 307.126C670.76 309.438 667.671 311.248 665.14 313.196C656.839 319.586 648.215 325.588 640.05 332.142C639.596 332.469 639.568 332.6 638.987 332.604C638.285 331.929 638.191 330.684 637.991 329.759C641.15 326.911 644.945 324.529 648.343 321.955C655.534 316.399 662.765 310.894 670.035 305.441Z" fill="#5484CC"/>
<path d="M678.926 313.001C679.713 313.872 680.194 314.818 680.736 315.847C677.372 318.633 673.556 321.021 670.066 323.673L653.456 336.363C651.251 338.066 647.784 341.32 645.375 342.427C644.501 341.688 643.786 340.871 643.038 340.009C655.208 331.294 666.899 321.91 678.926 313.001Z" fill="#5484CC"/>
</g>
<defs>
<clipPath id="clip0_1018_2333">
<rect x="350" y="65" width="500" height="500" rx="32" fill="white"/>
</clipPath>
</defs>
</svg>
