<svg width="1200" height="630" viewBox="0 0 1200 630" fill="none" xmlns="http://www.w3.org/2000/svg">
<rect width="1200" height="630" rx="26" fill="#C7F1FF"/>
<rect width="500" height="500" transform="translate(350 65)" fill="#C7F1FF"/>
<path d="M850 447.4H350V447.65H850V447.4Z" fill="#4B4B4B"/>
<path d="M799.9 463.49H766.78V463.74H799.9V463.49Z" fill="#4B4B4B"/>
<path d="M619.86 460.44H589.64V460.69H619.86V460.44Z" fill="#4B4B4B"/>
<path d="M765.78 454.21H695.89V454.46H765.78V454.21Z" fill="#4B4B4B"/>
<path d="M569.6 455.89H402.46V456.14H569.6V455.89Z" fill="#4B4B4B"/>
<path d="M584.83 455.89H578.5V456.14H584.83V455.89Z" fill="#4B4B4B"/>
<path d="M587 402.8H393.91C392.397 402.797 390.948 402.195 389.879 401.124C388.81 400.053 388.21 398.603 388.21 397.09V125.66C388.223 124.156 388.829 122.718 389.896 121.658C390.964 120.598 392.406 120.003 393.91 120H587C588.514 120 589.967 120.602 591.038 121.672C592.108 122.743 592.71 124.196 592.71 125.71V397.09C592.71 398.604 592.108 400.057 591.038 401.128C589.967 402.198 588.514 402.8 587 402.8ZM393.91 120.2C392.464 120.203 391.077 120.779 390.056 121.803C389.034 122.826 388.46 124.214 388.46 125.66V397.09C388.46 398.536 389.034 399.924 390.056 400.947C391.077 401.971 392.464 402.547 393.91 402.55H587C588.447 402.547 589.834 401.971 590.858 400.948C591.881 399.924 592.457 398.537 592.46 397.09V125.66C592.457 124.213 591.881 122.825 590.858 121.802C589.834 120.779 588.447 120.203 587 120.2H393.91Z" fill="#0C0C0D"/>
<path d="M803.31 402.8H610.21C608.696 402.797 607.246 402.195 606.175 401.125C605.105 400.054 604.503 398.604 604.5 397.09V125.66C604.516 124.155 605.124 122.717 606.193 121.658C607.262 120.598 608.705 120.003 610.21 120H803.31C804.812 120.005 806.252 120.602 807.317 121.662C808.382 122.721 808.987 124.158 809 125.66V397.09C809 398.601 808.401 400.05 807.335 401.121C806.268 402.191 804.821 402.795 803.31 402.8ZM610.21 120.2C608.763 120.203 607.375 120.779 606.352 121.802C605.329 122.825 604.753 124.213 604.75 125.66V397.09C604.753 398.537 605.329 399.924 606.352 400.948C607.375 401.971 608.763 402.547 610.21 402.55H803.31C804.757 402.547 806.145 401.971 807.168 400.948C808.191 399.924 808.767 398.537 808.77 397.09V125.66C808.767 124.213 808.191 122.825 807.168 121.802C806.145 120.779 804.757 120.203 803.31 120.2H610.21Z" fill="#0C0C0D"/>
<path d="M522.77 286.25H754.01V137.58L522.77 137.58V286.25Z" fill="#F0F0F0"/>
<path d="M522.78 137.58H520.7V286.25H522.78V137.58Z" fill="#E6E6E6"/>
<path d="M748.01 280.25V143.58H528.77V280.25H748.01Z" fill="#9DE6FF"/>
<path d="M623.86 319.25H594.81V447.4H623.86V319.25Z" fill="#E6E6E6"/>
<path d="M614.63 447.4H623.86V429.71H604.96L614.63 447.4Z" fill="#FAFAFA"/>
<path d="M429.62 319.25H400.57V447.4H429.62V319.25Z" fill="#DEDEDE"/>
<path d="M623.86 319.25H421.58V441.31H623.86V319.25Z" fill="#FAFAFA"/>
<path d="M430.8 447.4H421.58V429.71H440.47L430.8 447.4Z" fill="#FAFAFA"/>
<path d="M616.7 364.74H428.73V395.29H616.7V364.74Z" fill="#F0F0F0"/>
<path d="M616.7 401.81H428.73V432.36H616.7V401.81Z" fill="#F0F0F0"/>
<path d="M442.55 362.09H602.88V364C602.88 365.061 602.459 366.078 601.708 366.829C600.958 367.579 599.941 368 598.88 368H446.56C445.499 368 444.482 367.579 443.732 366.829C442.981 366.078 442.56 365.061 442.56 364V362.09H442.55Z" fill="#FAFAFA"/>
<path d="M616.7 327.66H428.73V358.21H616.7V327.66Z" fill="#F0F0F0"/>
<path d="M442.55 325H602.88V326.91C602.88 327.971 602.459 328.988 601.708 329.738C600.958 330.489 599.941 330.91 598.88 330.91H446.56C445.499 330.91 444.482 330.489 443.732 329.738C442.981 328.988 442.56 327.971 442.56 326.91V325H442.55Z" fill="#FAFAFA"/>
<path d="M442.55 399.16H602.88V401.07C602.88 402.131 602.459 403.148 601.708 403.898C600.958 404.648 599.941 405.07 598.88 405.07H446.56C445.499 405.07 444.482 404.648 443.732 403.898C442.981 403.148 442.56 402.131 442.56 401.07V399.16H442.55Z" fill="#FAFAFA"/>
<path d="M750.11 320.93C758.25 307.88 783.41 272.25 825.31 253.53C825.9 253.27 825.42 252.62 824.78 252.82C822.662 253.496 820.582 254.287 818.55 255.19C818.03 255.42 817.43 254.98 817.78 254.62C821.035 251.34 824.517 248.292 828.2 245.5C828.66 245.15 828 244.62 827.44 244.9C823.446 246.87 819.7 249.307 816.28 252.16C815.83 252.54 814.99 252.16 815.35 251.7C816.44 250.4 817.66 249.02 819.01 247.6C819.39 247.21 818.63 246.76 818.14 247.09C811.897 251.185 806.813 256.82 803.38 263.45H803.32C806.12 256.968 809.707 250.856 814 245.25C814.31 244.84 813.52 244.44 813.08 244.79C810.11 247.064 807.377 249.63 804.92 252.45C804.55 252.87 803.63 252.53 803.92 252.07C804.21 251.61 804.64 250.93 805.03 250.36C805.42 249.79 804.51 249.58 804.03 249.92C800.321 252.916 796.993 256.355 794.12 260.16C793.78 260.6 792.85 260.31 793.12 259.84C795.24 255.543 797.608 251.373 800.21 247.35C800.49 246.93 799.68 246.56 799.26 246.92C784.81 259.02 780.14 276.05 778.94 281.66C780.983 270.883 784.324 260.393 788.89 250.42C789.1 249.98 788.24 249.68 787.89 250.07C783.913 254.251 780.58 258.999 778 264.16C777.77 264.63 776.76 264.43 776.91 263.94C777.58 261.82 778.34 259.66 779.2 257.5C779.38 257.05 778.52 256.78 778.2 257.17C772.869 263.371 768.705 270.485 765.91 278.17C765.73 278.66 764.67 278.49 764.81 277.99C765.644 274.826 766.7 271.725 767.97 268.71C768.15 268.28 767.34 268 766.97 268.36C762.95 272.229 759.85 276.952 757.9 282.18C757.71 282.66 756.7 282.52 756.78 282.02C757.22 279.54 757.78 277.02 758.5 274.39C758.62 273.95 757.78 273.72 757.45 274.11C753.204 279.253 750.377 285.417 749.25 291.99C749.16 292.49 748.12 292.44 748.12 291.94C748.128 288.217 748.412 284.501 748.97 280.82C749.04 280.37 748.17 280.19 747.89 280.6C736.94 296.22 744.23 318.6 744.37 318.99L745.07 320.68C745.76 322.39 749.1 322.55 750.11 320.93Z" fill="#F5F5F5"/>
<path d="M731.24 321.68C724.99 313.68 706.13 292.06 678.42 284.2C678.03 284.08 678.27 283.58 678.69 283.64C680.067 283.85 681.429 284.144 682.77 284.52C683.11 284.62 683.44 284.24 683.19 284.04C680.889 282.192 678.452 280.521 675.9 279.04C675.58 278.85 675.9 278.41 676.31 278.54C678.989 279.424 681.54 280.654 683.9 282.2C684.22 282.41 684.7 282.02 684.44 281.77C683.64 281 682.76 280.2 681.79 279.38C681.52 279.16 681.95 278.75 682.29 278.92C686.628 281.088 690.305 284.379 692.94 288.45C690.66 284.35 687.883 280.548 684.67 277.13C684.44 276.88 684.89 276.51 685.2 276.69C687.281 277.917 689.225 279.361 691 281C691.27 281.25 691.81 280.9 691.59 280.62C691.37 280.34 691.04 279.92 690.75 279.57C690.46 279.22 691 278.96 691.3 279.15C693.902 280.802 696.285 282.778 698.39 285.03C698.63 285.29 699.19 284.98 699 284.68C697.302 281.987 695.453 279.393 693.46 276.91C693.25 276.65 693.71 276.3 694.01 276.49C704.08 283.11 708.53 294.31 709.79 298.05C707.582 290.927 704.562 284.083 700.79 277.65C700.63 277.37 701.13 277.06 701.39 277.29C704.259 279.75 706.741 282.629 708.75 285.83C708.94 286.13 709.54 285.83 709.4 285.55C708.79 284.17 708.13 282.77 707.4 281.37C707.25 281.09 707.75 280.8 708.01 281.03C711.945 284.753 715.174 289.157 717.54 294.03C717.71 294.35 718.35 294.11 718.22 293.77C717.413 291.712 716.475 289.707 715.41 287.77C715.26 287.5 715.73 287.2 716 287.41C718.906 289.669 721.262 292.558 722.89 295.86C723.05 296.17 723.67 295.95 723.57 295.62C723.07 293.96 722.49 292.25 721.81 290.55C721.69 290.26 722.19 290 722.43 290.23C725.606 293.383 727.919 297.298 729.15 301.6C729.26 301.93 729.9 301.77 729.85 301.42C729.505 298.862 728.991 296.33 728.31 293.84C728.23 293.54 728.75 293.31 728.96 293.55C737.18 303.03 734.69 319.36 734.64 319.67L734.37 320.92C734.264 321.222 734.084 321.493 733.847 321.708C733.61 321.922 733.322 322.074 733.011 322.15C732.7 322.225 732.375 322.222 732.066 322.14C731.757 322.058 731.473 321.9 731.24 321.68Z" fill="#FAFAFA"/>
<path d="M729.62 308C722.72 297.36 701.47 268.35 666.77 253.35C666.28 253.14 666.66 252.61 667.19 252.77C668.94 253.3 670.66 253.928 672.34 254.65C672.78 254.84 673.26 254.47 672.96 254.18C670.236 251.517 667.329 249.047 664.26 246.79C663.88 246.5 664.41 246.07 664.87 246.29C668.187 247.87 671.305 249.837 674.16 252.15C674.53 252.46 675.16 252.15 674.91 251.77C673.99 250.71 672.97 249.59 671.84 248.44C671.52 248.11 672.13 247.74 672.54 248.01C677.734 251.313 681.999 255.887 684.93 261.3H684.98C682.598 255.992 679.575 250.995 675.98 246.42C675.72 246.09 676.35 245.76 676.73 246.04C679.201 247.882 681.485 249.962 683.55 252.25C683.86 252.59 684.61 252.31 684.37 251.93C684.13 251.55 683.76 251.01 683.43 250.54C683.1 250.07 683.84 249.89 684.2 250.17C687.298 252.591 690.089 255.382 692.51 258.48C692.79 258.84 693.51 258.59 693.36 258.21C691.548 254.71 689.545 251.311 687.36 248.03C687.12 247.68 687.77 247.38 688.13 247.67C700.19 257.47 704.32 271.39 705.39 275.99C703.528 267.158 700.607 258.582 696.69 250.45C696.52 250.09 697.21 249.84 697.52 250.15C700.824 253.543 703.611 257.405 705.79 261.61C705.99 262 706.79 261.83 706.68 261.42C706.09 259.69 705.43 257.93 704.68 256.16C704.53 255.8 705.23 255.57 705.52 255.89C709.998 260.921 713.534 266.717 715.96 273C716.12 273.41 716.96 273.26 716.87 272.85C716.123 270.264 715.201 267.731 714.11 265.27C713.96 264.91 714.61 264.67 714.93 264.97C718.296 268.103 720.923 271.946 722.62 276.22C722.77 276.61 723.62 276.49 723.53 276.09C723.12 274.09 722.62 271.96 721.99 269.84C721.88 269.48 722.57 269.29 722.84 269.6C726.399 273.778 728.811 278.809 729.84 284.2C729.92 284.61 730.78 284.56 730.77 284.2C730.697 281.142 730.4 278.094 729.88 275.08C729.81 274.71 730.52 274.56 730.76 274.89C740.01 287.62 734.42 306.01 734.31 306.35L733.77 307.74C733.21 309.17 730.48 309.33 729.62 308Z" fill="#E6E6E6"/>
<path d="M759.41 310.13C765.68 304.96 784.15 291.13 806.96 286.65C807.28 286.59 807.19 286.25 806.85 286.28C805.742 286.374 804.64 286.531 803.55 286.75C803.26 286.8 803.07 286.54 803.31 286.42C805.427 285.24 807.61 284.185 809.85 283.26C810.13 283.14 809.93 282.84 809.62 282.91C807.379 283.439 805.195 284.185 803.1 285.14C802.82 285.27 802.52 285 802.76 284.84C803.52 284.36 804.34 283.84 805.24 283.33C805.49 283.18 805.24 282.91 804.94 283.01C801.241 284.288 797.854 286.333 795 289.01C797.56 286.302 800.384 283.856 803.43 281.71C803.65 281.55 803.37 281.3 803.1 281.41C801.288 282.168 799.542 283.074 797.88 284.12C797.62 284.28 797.27 284.03 797.49 283.85C797.71 283.67 798.04 283.4 798.33 283.17C798.62 282.94 798.25 282.77 797.98 282.88C795.685 283.9 793.497 285.146 791.45 286.6C791.21 286.76 790.84 286.54 791.04 286.35C792.68 284.75 794.59 283.04 796.72 281.35C796.93 281.18 796.63 280.94 796.37 281.06C789.866 284.21 784.306 289.018 780.25 295C783.344 290.217 786.915 285.761 790.91 281.7C791.09 281.51 790.76 281.3 790.52 281.44C787.899 282.97 785.471 284.809 783.29 286.92C783.09 287.11 782.67 286.92 782.84 286.71C783.56 285.81 784.32 284.9 785.14 283.99C785.31 283.8 784.97 283.6 784.73 283.74C781.094 286.046 777.818 288.876 775.01 292.14C774.83 292.35 774.38 292.14 774.54 291.95C775.553 290.58 776.641 289.268 777.8 288.02C777.97 287.84 777.65 287.63 777.41 287.76C774.814 289.135 772.492 290.976 770.56 293.19C770.38 293.39 769.94 293.19 770.08 293.01C770.77 291.92 771.53 290.81 772.36 289.69C772.5 289.5 772.16 289.32 771.93 289.46C769.011 291.367 766.541 293.885 764.69 296.84C764.55 297.05 764.08 296.93 764.18 296.7C764.926 294.98 765.781 293.31 766.74 291.7C766.86 291.5 766.5 291.34 766.3 291.5C758.23 297.57 757.19 308.5 757.18 308.7V309.54C757.14 310.38 758.63 310.77 759.41 310.13Z" fill="#E6E6E6"/>
<path d="M752 315.85C750.6 303.68 749 269.6 769.77 243.47C770.06 243.1 769.33 242.75 768.96 243.09C767.761 244.19 766.648 245.381 765.63 246.65C765.37 246.98 764.63 246.82 764.72 246.45C765.268 243.085 766.135 239.78 767.31 236.58C767.45 236.18 766.66 235.98 766.4 236.35C764.518 238.985 763.089 241.915 762.17 245.02C762.05 245.44 761.17 245.37 761.17 244.94C761.24 243.65 761.37 242.26 761.57 240.81C761.63 240.4 760.79 240.28 760.62 240.67C758.271 245.863 757.681 251.681 758.94 257.24C757.33 251.78 756.482 246.123 756.42 240.43C756.42 240.03 755.6 239.96 755.42 240.35C754.486 242.964 753.908 245.692 753.7 248.46C753.7 248.89 752.77 248.89 752.7 248.46C752.63 248.03 752.59 247.39 752.54 246.85C752.49 246.31 751.7 246.41 751.54 246.85C750.463 250.268 749.943 253.837 750 257.42C750 257.84 749.12 257.89 749 257.47C748.155 253.689 747.554 249.858 747.2 246C747.2 245.6 746.35 245.56 746.2 245.95C742.29 259.22 748.6 273.39 750.94 277.95C746.403 269.594 742.865 260.733 740.4 251.55C740.3 251.15 739.49 251.18 739.4 251.55C738.853 256.029 739.107 260.57 740.15 264.96C740.24 265.39 739.37 265.52 739.15 265.11C738.43 263.32 737.76 261.48 737.15 259.6C737.02 259.21 736.22 259.25 736.15 259.6C735.53 266.01 736.98 272.89 739.01 278.95C739.16 279.38 738.26 279.55 738.07 279.13C736.894 276.57 735.892 273.934 735.07 271.24C734.96 270.86 734.19 270.88 734.07 271.24C733.302 275.598 733.696 280.082 735.21 284.24C735.35 284.66 734.5 284.85 734.28 284.45C733.18 282.45 732.12 280.36 731.17 278.2C731 277.83 730.24 277.91 730.17 278.29C729.85 283.87 731.71 289.29 734.32 294.13C734.53 294.53 733.72 294.79 733.43 294.41C731.327 291.656 729.396 288.774 727.65 285.78C727.44 285.43 726.65 285.54 726.71 285.93C727.48 300.85 745.87 315.59 746.22 315.87L747.72 316.95C749.52 318.2 752.12 317.36 752 315.85Z" fill="#FFB9B9"/>
<path d="M771.92 300.43C773.18 300.43 774.426 300.685 775.585 301.18C776.743 301.675 777.789 302.399 778.66 303.31C779.531 304.22 780.208 305.297 780.652 306.476C781.095 307.655 781.295 308.911 781.24 310.17C780 337.41 773.83 346.83 743.47 346.83C713.11 346.83 706.94 337.41 705.71 310.17C705.653 308.911 705.852 307.654 706.295 306.474C706.738 305.295 707.415 304.217 708.287 303.306C709.158 302.396 710.205 301.672 711.364 301.177C712.523 300.683 713.77 300.429 715.03 300.43H771.92Z" fill="#4B4B4B"/>
<path d="M430.19 303.25C426.45 295.2 414.9 273.2 395.66 261.65C395.61 261.614 395.575 261.56 395.563 261.499C395.55 261.439 395.56 261.376 395.591 261.322C395.622 261.269 395.672 261.229 395.731 261.21C395.79 261.191 395.854 261.194 395.91 261.22C396.898 261.635 397.854 262.123 398.77 262.68C398.82 262.708 398.878 262.718 398.934 262.71C398.991 262.702 399.043 262.675 399.083 262.634C399.123 262.593 399.148 262.54 399.155 262.483C399.162 262.426 399.149 262.369 399.12 262.32C397.658 260.336 396.061 258.454 394.34 256.69C394.13 256.48 394.43 256.15 394.68 256.32C396.577 257.589 398.301 259.098 399.81 260.81C400.02 261.04 400.4 260.81 400.24 260.52C399.74 259.72 399.18 258.87 398.56 257.99C398.38 257.75 398.73 257.47 398.96 257.68C401.98 260.467 404.299 263.928 405.73 267.78C404.49 263.871 402.855 260.098 400.85 256.52C400.7 256.27 401.06 256.02 401.27 256.24C402.666 257.701 403.915 259.295 405 261C405.17 261.27 405.6 261.05 405.47 260.77L405 259.69C404.87 259.44 405.23 259.21 405.43 259.43C407.193 261.349 408.726 263.467 410 265.74C410.15 266.01 410.58 265.84 410.47 265.55C409.58 263.14 408.47 260.55 407.22 257.84C407.2 257.784 407.2 257.723 407.219 257.667C407.239 257.611 407.277 257.564 407.327 257.532C407.377 257.501 407.436 257.487 407.495 257.494C407.554 257.501 407.609 257.528 407.65 257.57C414.29 265.04 416.43 275.57 416.98 279.02C416.061 272.465 414.531 266.01 412.41 259.74C412.395 259.682 412.401 259.62 412.427 259.566C412.452 259.511 412.496 259.467 412.55 259.441C412.604 259.415 412.666 259.409 412.724 259.423C412.782 259.438 412.834 259.472 412.87 259.52C414.737 262.21 416.246 265.131 417.36 268.21C417.47 268.5 417.94 268.38 417.87 268.08C417.56 266.77 417.21 265.44 416.82 264.08C416.73 263.81 417.13 263.64 417.29 263.88C419.818 267.902 421.72 272.286 422.93 276.88C423.02 277.18 423.5 277.08 423.44 276.77C423.06 274.823 422.58 272.897 422 271C421.91 270.74 422.28 270.56 422.46 270.79C424.384 273.335 425.796 276.228 426.62 279.31C426.643 279.367 426.685 279.415 426.739 279.445C426.793 279.474 426.856 279.485 426.916 279.475C426.977 279.464 427.032 279.433 427.073 279.387C427.114 279.34 427.138 279.282 427.14 279.22C426.93 277.69 426.68 276.11 426.35 274.51C426.338 274.45 426.349 274.387 426.379 274.334C426.409 274.28 426.457 274.239 426.514 274.217C426.572 274.196 426.635 274.195 426.693 274.216C426.751 274.236 426.799 274.277 426.83 274.33C428.839 277.693 430.12 281.441 430.59 285.33C430.59 285.399 430.618 285.465 430.666 285.514C430.715 285.563 430.781 285.59 430.85 285.59C430.919 285.59 430.985 285.563 431.034 285.514C431.083 285.465 431.11 285.399 431.11 285.33C431.114 283.035 430.987 280.741 430.73 278.46C430.728 278.401 430.746 278.343 430.781 278.296C430.816 278.249 430.866 278.215 430.923 278.2C430.98 278.184 431.041 278.189 431.095 278.213C431.148 278.237 431.193 278.278 431.22 278.33C436.22 287.97 432.9 301.76 432.84 302.02L432.53 303.02C432.462 303.265 432.322 303.484 432.127 303.648C431.932 303.812 431.692 303.913 431.439 303.938C431.186 303.963 430.931 303.91 430.708 303.787C430.485 303.665 430.304 303.477 430.19 303.25Z" fill="#F5F5F5"/>
<path d="M440 303.59C442.24 298.08 449.2 283.07 461.19 275.59C461.22 275.563 461.24 275.528 461.248 275.488C461.255 275.449 461.249 275.408 461.231 275.373C461.212 275.337 461.183 275.309 461.146 275.292C461.11 275.275 461.069 275.271 461.03 275.28C460.409 275.541 459.81 275.852 459.24 276.21C459.09 276.31 458.91 276.11 459.01 275.96C459.898 274.628 460.881 273.362 461.95 272.17C462.08 272.02 461.89 271.79 461.73 271.9C460.537 272.748 459.467 273.758 458.55 274.9C458.43 275.06 458.18 274.9 458.28 274.69C458.58 274.15 458.92 273.57 459.28 272.98C459.39 272.81 459.16 272.61 459.03 272.75C457.121 274.667 455.704 277.017 454.9 279.6C455.612 276.938 456.59 274.355 457.82 271.89C457.9 271.72 457.67 271.54 457.54 271.68C456.672 272.664 455.904 273.733 455.25 274.87C455.15 275.05 454.88 274.87 454.95 274.7L455.26 273.97C455.33 273.8 455.1 273.63 454.98 273.78C453.887 275.088 452.954 276.521 452.2 278.05C452.11 278.24 451.83 278.1 451.89 277.9C452.42 276.25 453.06 274.45 453.83 272.62C453.91 272.44 453.67 272.27 453.55 272.42C449.47 277.42 448.28 284.71 447.99 287.11C448.461 282.602 449.331 278.144 450.59 273.79C450.64 273.6 450.39 273.47 450.29 273.63C449.135 275.482 448.224 277.475 447.58 279.56C447.52 279.76 447.22 279.66 447.26 279.45C447.44 278.55 447.64 277.63 447.87 276.71C447.87 276.52 447.66 276.39 447.56 276.56C446.007 279.334 444.874 282.323 444.2 285.43C444.15 285.65 443.84 285.56 443.87 285.34C444.08 284.07 444.35 282.74 444.7 281.34C444.7 281.16 444.51 281.03 444.41 281.18C443.205 282.942 442.346 284.917 441.88 287C441.88 287.2 441.54 287.13 441.56 286.92C441.66 285.86 441.8 284.76 441.99 283.65C441.99 283.47 441.77 283.36 441.68 283.52C440.437 285.874 439.685 288.456 439.47 291.11C439.461 291.147 439.44 291.18 439.41 291.203C439.38 291.226 439.343 291.239 439.305 291.239C439.267 291.239 439.23 291.226 439.2 291.203C439.17 291.18 439.149 291.147 439.14 291.11C439.103 289.515 439.15 287.92 439.28 286.33C439.28 286.14 439.04 286.05 438.97 286.22C435.97 292.81 438.26 302.51 438.3 302.69L438.51 303.43C438.539 303.597 438.622 303.749 438.746 303.864C438.869 303.98 439.027 304.052 439.195 304.07C439.363 304.088 439.532 304.051 439.678 303.965C439.823 303.878 439.936 303.747 440 303.59Z" fill="#F5F5F5"/>
<path d="M439.6 295.28C442.77 288.71 452.52 270.8 468.45 261.55C468.498 261.525 468.534 261.482 468.549 261.43C468.565 261.379 468.56 261.323 468.535 261.275C468.51 261.227 468.467 261.192 468.415 261.176C468.364 261.16 468.308 261.165 468.26 261.19C467.447 261.522 466.659 261.909 465.9 262.35C465.86 262.376 465.812 262.387 465.764 262.382C465.717 262.377 465.672 262.355 465.639 262.321C465.605 262.288 465.583 262.243 465.578 262.196C465.573 262.148 465.584 262.1 465.61 262.06C466.835 260.448 468.171 258.924 469.61 257.5C469.645 257.461 469.664 257.411 469.664 257.359C469.664 257.307 469.644 257.257 469.61 257.219C469.575 257.18 469.527 257.156 469.475 257.151C469.424 257.145 469.372 257.159 469.33 257.19C467.757 258.208 466.322 259.425 465.06 260.81C464.89 261 464.58 260.81 464.72 260.57C465.14 259.91 465.61 259.22 466.13 258.57C466.151 258.526 466.156 258.476 466.145 258.428C466.134 258.38 466.108 258.338 466.07 258.307C466.032 258.276 465.985 258.258 465.936 258.257C465.887 258.256 465.839 258.271 465.8 258.3C463.288 260.553 461.342 263.365 460.12 266.51C461.191 263.318 462.581 260.243 464.27 257.33C464.4 257.12 464.1 256.92 463.93 257.09C462.767 258.264 461.718 259.546 460.8 260.92C460.66 261.14 460.31 260.92 460.42 260.73C460.53 260.54 460.7 260.15 460.85 259.87C460.876 259.824 460.883 259.769 460.87 259.718C460.858 259.667 460.826 259.622 460.782 259.593C460.737 259.564 460.684 259.552 460.632 259.561C460.579 259.57 460.532 259.598 460.5 259.64C459.032 261.196 457.75 262.918 456.68 264.77C456.657 264.822 456.615 264.862 456.563 264.883C456.51 264.904 456.452 264.903 456.4 264.88C456.348 264.857 456.308 264.815 456.287 264.763C456.266 264.71 456.267 264.652 456.29 264.6C457.05 262.6 457.97 260.49 459.06 258.32C459.086 258.274 459.093 258.219 459.08 258.168C459.068 258.117 459.036 258.072 458.992 258.043C458.947 258.014 458.894 258.002 458.842 258.011C458.789 258.02 458.742 258.048 458.71 258.09C453.17 264.14 451.28 272.74 450.78 275.58C451.617 270.213 452.956 264.937 454.78 259.82C454.79 259.773 454.783 259.723 454.762 259.68C454.741 259.636 454.706 259.601 454.663 259.579C454.62 259.558 454.57 259.551 454.523 259.56C454.475 259.569 454.432 259.594 454.4 259.63C452.84 261.819 451.566 264.198 450.61 266.71C450.594 266.764 450.557 266.81 450.508 266.837C450.458 266.865 450.399 266.871 450.345 266.855C450.291 266.839 450.245 266.802 450.218 266.753C450.19 266.703 450.184 266.644 450.2 266.59C450.47 265.52 450.77 264.44 451.11 263.34C451.124 263.291 451.121 263.239 451.099 263.193C451.078 263.146 451.041 263.11 450.994 263.089C450.948 263.068 450.896 263.065 450.847 263.08C450.798 263.095 450.757 263.127 450.73 263.17C448.605 266.43 446.986 269.994 445.93 273.74C445.917 273.794 445.882 273.841 445.835 273.87C445.787 273.899 445.729 273.908 445.675 273.895C445.621 273.882 445.574 273.847 445.545 273.8C445.516 273.752 445.507 273.694 445.52 273.64C445.854 272.058 446.275 270.496 446.78 268.96C446.804 268.91 446.807 268.852 446.788 268.799C446.769 268.747 446.73 268.704 446.68 268.68C446.63 268.656 446.572 268.653 446.519 268.672C446.467 268.691 446.424 268.73 446.4 268.78C444.791 270.845 443.596 273.202 442.88 275.72C442.869 275.776 442.837 275.825 442.79 275.857C442.743 275.889 442.686 275.901 442.63 275.89C442.574 275.879 442.525 275.847 442.493 275.8C442.461 275.753 442.449 275.696 442.46 275.64C442.64 274.39 442.88 273.09 443.17 271.79C443.176 271.741 443.165 271.692 443.139 271.65C443.114 271.608 443.075 271.576 443.029 271.558C442.983 271.541 442.932 271.54 442.885 271.555C442.838 271.569 442.798 271.599 442.77 271.64C441.075 274.381 439.974 277.447 439.54 280.64C439.54 280.696 439.518 280.749 439.479 280.789C439.439 280.828 439.386 280.85 439.33 280.85C439.274 280.85 439.221 280.828 439.182 280.789C439.142 280.749 439.12 280.696 439.12 280.64C439.148 278.757 439.282 276.878 439.52 275.01C439.53 274.959 439.52 274.906 439.493 274.862C439.466 274.818 439.424 274.785 439.374 274.77C439.324 274.755 439.271 274.759 439.224 274.782C439.177 274.804 439.14 274.842 439.12 274.89C434.87 282.75 437.44 294.1 437.49 294.31L437.74 295.17C437.802 295.362 437.92 295.53 438.08 295.653C438.239 295.776 438.431 295.849 438.632 295.861C438.833 295.872 439.033 295.823 439.206 295.72C439.379 295.616 439.516 295.463 439.6 295.28Z" fill="#E6E6E6"/>
<path d="M425.92 296.59C423.04 293.4 414.56 284.86 404.09 282.09C403.94 282.09 403.99 281.85 404.09 281.86C404.602 281.929 405.11 282.029 405.61 282.16C405.637 282.169 405.667 282.168 405.693 282.158C405.72 282.147 405.742 282.127 405.755 282.102C405.768 282.077 405.772 282.048 405.765 282.02C405.759 281.992 405.743 281.967 405.72 281.95C404.767 281.231 403.764 280.58 402.72 280C402.697 279.983 402.681 279.958 402.675 279.93C402.668 279.903 402.672 279.873 402.685 279.848C402.699 279.823 402.72 279.803 402.747 279.792C402.774 279.782 402.803 279.781 402.83 279.79C403.882 280.122 404.89 280.582 405.83 281.16C405.96 281.24 406.1 281.08 405.99 280.98C405.64 280.68 405.26 280.36 404.85 280.04C404.73 279.95 404.85 279.78 404.99 279.85C406.777 280.725 408.338 282.002 409.55 283.58C408.41 281.957 407.114 280.45 405.68 279.08C405.655 279.06 405.639 279.031 405.635 278.999C405.631 278.967 405.64 278.935 405.66 278.91C405.68 278.885 405.709 278.869 405.741 278.865C405.773 278.861 405.805 278.87 405.83 278.89C406.678 279.374 407.482 279.933 408.23 280.56C408.34 280.66 408.51 280.51 408.41 280.4L408.02 279.98C407.92 279.88 408.02 279.73 408.18 279.8C409.262 280.45 410.268 281.218 411.18 282.09C411.29 282.19 411.46 282.09 411.37 281.94C410.61 280.94 409.74 279.89 408.76 278.84C408.66 278.74 408.76 278.59 408.92 278.66C413.04 281.21 415.55 285.73 416.3 287.24C414.919 284.36 413.279 281.612 411.4 279.03C411.39 279.018 411.381 279.004 411.376 278.99C411.371 278.975 411.369 278.959 411.37 278.943C411.371 278.927 411.375 278.912 411.382 278.898C411.389 278.883 411.398 278.871 411.41 278.86C411.422 278.85 411.436 278.842 411.451 278.836C411.466 278.831 411.481 278.829 411.497 278.83C411.513 278.831 411.528 278.835 411.543 278.842C411.557 278.849 411.57 278.858 411.58 278.87C412.859 279.847 414.008 280.983 415 282.25C415.09 282.37 415.29 282.25 415.21 282.13C414.88 281.57 414.53 281.01 414.15 280.45C414.139 280.424 414.137 280.396 414.143 280.369C414.15 280.342 414.165 280.318 414.186 280.3C414.207 280.282 414.234 280.272 414.261 280.27C414.289 280.268 414.317 280.275 414.34 280.29C416.074 281.791 417.577 283.54 418.8 285.48C418.89 285.6 419.09 285.48 419.02 285.36C418.58 284.57 418.09 283.75 417.52 282.93C417.44 282.82 417.59 282.69 417.7 282.77C418.946 283.684 420.014 284.82 420.85 286.12C420.868 286.125 420.887 286.125 420.905 286.121C420.923 286.117 420.941 286.109 420.955 286.098C420.97 286.086 420.981 286.071 420.989 286.054C420.997 286.037 421.001 286.019 421 286C420.68 285.33 420.33 284.64 420 284C419.93 283.89 420.09 283.77 420.19 283.86C421.603 285.13 422.737 286.679 423.52 288.41C423.59 288.55 423.8 288.47 423.75 288.33C423.417 287.283 423.026 286.255 422.58 285.25C422.567 285.224 422.564 285.193 422.571 285.165C422.579 285.136 422.597 285.112 422.622 285.096C422.647 285.079 422.676 285.073 422.706 285.078C422.735 285.082 422.761 285.097 422.78 285.12C426.49 288.87 426.96 295.61 426.97 295.73V296.25C426.959 296.367 426.915 296.479 426.841 296.57C426.768 296.662 426.669 296.731 426.557 296.767C426.445 296.803 426.325 296.806 426.212 296.774C426.099 296.743 425.997 296.679 425.92 296.59Z" fill="#E6E6E6"/>
<path d="M429.35 300.12C429.99 292.6 430.73 271.57 421.19 255.44C421.05 255.21 421.39 255 421.56 255.21C422.123 255.905 422.634 256.64 423.09 257.41C423.115 257.454 423.154 257.488 423.201 257.506C423.248 257.524 423.3 257.526 423.347 257.511C423.395 257.495 423.437 257.464 423.464 257.422C423.492 257.38 423.505 257.33 423.5 257.28C423.254 255.224 422.86 253.189 422.32 251.19C422.25 250.95 422.62 250.82 422.74 251.05C423.621 252.739 424.274 254.538 424.68 256.4C424.683 256.429 424.692 256.457 424.706 256.482C424.72 256.508 424.739 256.53 424.762 256.548C424.785 256.566 424.811 256.58 424.839 256.588C424.867 256.596 424.896 256.598 424.925 256.595C424.954 256.592 424.982 256.583 425.007 256.569C425.033 256.555 425.055 256.536 425.073 256.513C425.091 256.49 425.105 256.464 425.113 256.436C425.121 256.408 425.123 256.379 425.12 256.35C425.12 255.55 425.06 254.7 424.94 253.8C424.941 253.748 424.96 253.697 424.993 253.657C425.026 253.617 425.073 253.589 425.124 253.578C425.175 253.568 425.229 253.575 425.275 253.599C425.322 253.623 425.359 253.662 425.38 253.71C426.461 257.008 426.725 260.518 426.15 263.94C426.893 260.533 427.279 257.057 427.3 253.57C427.3 253.512 427.323 253.456 427.364 253.414C427.406 253.373 427.462 253.35 427.52 253.35C427.578 253.35 427.634 253.373 427.676 253.414C427.717 253.456 427.74 253.512 427.74 253.57C428.169 255.206 428.434 256.881 428.53 258.57C428.541 258.622 428.569 258.668 428.61 258.701C428.651 258.734 428.702 258.752 428.755 258.752C428.808 258.752 428.859 258.734 428.9 258.701C428.941 258.668 428.969 258.622 428.98 258.57C428.98 258.24 429.03 257.91 429.05 257.57C429.061 257.518 429.089 257.472 429.13 257.439C429.171 257.406 429.222 257.388 429.275 257.388C429.328 257.388 429.379 257.406 429.42 257.439C429.461 257.472 429.489 257.518 429.5 257.57C429.998 259.707 430.236 261.896 430.21 264.09C430.221 264.142 430.249 264.188 430.29 264.221C430.331 264.254 430.382 264.272 430.435 264.272C430.488 264.272 430.539 264.254 430.58 264.221C430.621 264.188 430.649 264.142 430.66 264.09C431.02 261.93 431.34 259.53 431.51 257.02C431.521 256.968 431.549 256.922 431.59 256.889C431.631 256.856 431.682 256.838 431.735 256.838C431.788 256.838 431.839 256.856 431.88 256.889C431.921 256.922 431.949 256.968 431.96 257.02C433.75 265.21 430.85 273.95 429.78 276.78C431.903 271.515 433.523 266.06 434.62 260.49C434.62 260.432 434.643 260.376 434.684 260.334C434.726 260.293 434.782 260.27 434.84 260.27C434.898 260.27 434.954 260.293 434.996 260.334C435.037 260.376 435.06 260.432 435.06 260.49C435.31 263.253 435.196 266.037 434.72 268.77C434.72 269.03 435.08 269.11 435.15 268.86C435.48 267.75 435.79 266.62 436.07 265.46C436.07 265.402 436.093 265.346 436.134 265.304C436.176 265.263 436.232 265.24 436.29 265.24C436.348 265.24 436.404 265.263 436.446 265.304C436.487 265.346 436.51 265.402 436.51 265.46C436.691 269.484 436.249 273.511 435.2 277.4C435.13 277.67 435.54 277.77 435.63 277.52C436.169 275.925 436.627 274.302 437 272.66C437.014 272.613 437.044 272.572 437.083 272.542C437.123 272.513 437.171 272.497 437.22 272.497C437.269 272.497 437.317 272.513 437.357 272.542C437.396 272.572 437.426 272.613 437.44 272.66C437.794 275.335 437.617 278.053 436.92 280.66C436.904 280.717 436.911 280.778 436.941 280.83C436.97 280.881 437.018 280.919 437.075 280.935C437.132 280.951 437.193 280.944 437.245 280.915C437.296 280.885 437.334 280.837 437.35 280.78C437.85 279.55 438.35 278.26 438.78 276.93C438.799 276.884 438.833 276.845 438.876 276.819C438.919 276.793 438.969 276.783 439.019 276.788C439.069 276.794 439.115 276.816 439.152 276.85C439.188 276.885 439.212 276.931 439.22 276.98C439.282 280.338 438.631 283.672 437.31 286.76C437.21 287 437.59 287.17 437.72 286.93C438.701 285.207 439.585 283.431 440.37 281.61C440.385 281.556 440.419 281.509 440.467 281.48C440.515 281.45 440.573 281.44 440.628 281.452C440.683 281.463 440.731 281.495 440.763 281.542C440.795 281.588 440.808 281.644 440.8 281.7C440.45 290.91 432.01 300.01 431.8 300.18L431.12 300.84C430.972 300.974 430.789 301.064 430.593 301.099C430.396 301.133 430.194 301.112 430.009 301.037C429.824 300.961 429.664 300.835 429.547 300.673C429.431 300.511 429.362 300.319 429.35 300.12Z" fill="#FFB9B9"/>
<path d="M416.12 290.6C415.343 290.599 414.575 290.756 413.86 291.06C413.146 291.365 412.5 291.811 411.963 292.372C411.426 292.932 411.008 293.596 410.734 294.323C410.46 295.05 410.336 295.824 410.37 296.6C411.13 313.41 414.94 319.22 433.68 319.22C452.42 319.22 456.22 313.41 456.98 296.6C457.014 295.824 456.89 295.05 456.616 294.323C456.342 293.596 455.924 292.932 455.387 292.372C454.849 291.811 454.204 291.365 453.49 291.06C452.775 290.756 452.007 290.599 451.23 290.6H416.12Z" fill="#4B4B4B"/>
<path d="M671.98 351.92H795.23V346.82H671.98V351.92Z" fill="#FFB9B9"/>
<path d="M671.99 346.83H646.17V351.93H671.99V346.83Z" fill="#FFB9B9"/>
<path d="M659.08 351.93H660.16L672.65 447.4H671.57L659.08 351.93Z" fill="#FFB9B9"/>
<path d="M659.08 351.93H658L645.51 447.4H646.59L659.08 351.93Z" fill="#FFB9B9"/>
<path d="M782.33 351.93H783.41L795.89 447.4H794.81L782.33 351.93Z" fill="#FFB9B9"/>
<path d="M782.33 351.93H781.25L768.76 447.4H769.84L782.33 351.93Z" fill="#FFB9B9"/>
<path d="M600 492.56C707.083 492.56 793.89 487.492 793.89 481.24C793.89 474.988 707.083 469.92 600 469.92C492.918 469.92 406.11 474.988 406.11 481.24C406.11 487.492 492.918 492.56 600 492.56Z" fill="#DBDBDB"/>
<path d="M747.65 208.67C745.15 205.33 737.26 202.42 733.19 207.34C727.76 213.91 734.33 216.4 731.74 222.41C729.15 228.42 730.08 231.17 731.49 234.01C732.9 236.85 730.66 237.18 730.49 242.01C730.32 246.84 735.24 248.01 739.16 247.18C736.99 244.92 740.91 244.67 744.49 241.51C748.07 238.35 755.15 215.25 747.65 208.67Z" fill="#636363"/>
<path d="M742.91 477C739.97 477.301 737.072 477.928 734.27 478.87C731.342 479.966 728.288 480.692 725.18 481.03C721.74 481.48 721.89 484.71 727.93 484.71C733.97 484.71 737.86 484.08 740.32 484.08C742.78 484.08 744.32 484.16 744.52 482.5C744.72 480.84 745 476.69 742.91 477Z" fill="#636363"/>
<path d="M729.14 303.23C729.14 303.23 731.97 365.46 732.51 390.66C733.08 416.88 737.08 478.1 737.08 478.1H743.69C743.69 478.1 750.5 427.22 747.37 390.66C752.1 362.59 755.29 303.23 755.29 303.23H729.14Z" fill="#FFC3BD"/>
<path d="M737.08 477.5C733.6 479.26 729.69 479.93 728.16 480.72C726.63 481.51 743.69 479.67 743.69 478.1L737.08 477.5Z" fill="#FFC3BD"/>
<path d="M786.23 473.53C784.41 474.73 783.56 474.22 781.95 476.07C780.34 477.92 778.67 480.68 775.72 481.6C773.32 482.35 773.19 484.77 777.53 484.67C781.87 484.57 786.96 481.27 788.38 480.23C789.8 479.19 790.51 478.66 789.8 477.15C789.09 475.64 787.49 472.71 786.23 473.53Z" fill="#636363"/>
<path d="M781.89 476.5C781.89 477.24 779.18 480.02 780.89 479.72C783.96 479.17 787.82 475.72 787.24 474.35L781.89 476.5Z" fill="#FFC3BD"/>
<path d="M737.91 303.23C737.91 303.23 753.67 368.4 760.11 392.77C766.88 418.36 781.11 474.88 781.94 476.61L787.2 474.35C787.2 474.35 783.6 411.28 774.54 388.55C774.54 360.09 762.7 303.23 762.7 303.23H737.91Z" fill="#FFC3BD"/>
<path d="M731.89 264.42C731.59 267.34 731.13 270.08 730.64 272.89C730.15 275.7 729.51 278.45 728.83 281.22C727.493 286.89 725.507 292.386 722.91 297.6L722.85 297.72C722.611 298.198 722.269 298.618 721.85 298.95C720.921 299.62 719.856 300.078 718.73 300.29C717.81 300.465 716.87 300.499 715.94 300.39C714.453 300.206 712.999 299.816 711.62 299.23C709.274 298.217 707.044 296.953 704.97 295.46C702.97 294.03 701.09 292.52 699.28 290.96C697.47 289.4 695.77 287.75 694.11 285.96C693.747 285.582 693.539 285.082 693.525 284.559C693.512 284.035 693.695 283.526 694.038 283.13C694.381 282.734 694.86 282.481 695.38 282.42C695.9 282.359 696.425 282.494 696.85 282.8C698.69 284.08 700.59 285.39 702.5 286.59C704.41 287.79 706.33 288.99 708.27 290.01C710.103 291.032 712.028 291.879 714.02 292.54C714.806 292.811 715.629 292.963 716.46 292.99C716.686 292.997 716.912 292.97 717.13 292.91C717.24 292.91 717.21 292.83 717.13 292.85L716.03 294.19C717.052 291.824 717.933 289.4 718.67 286.93C719.42 284.41 720.06 281.84 720.67 279.24C721.28 276.64 721.75 273.99 722.22 271.35C722.69 268.71 723.1 266 723.45 263.44V263.37C723.632 262.3 724.219 261.341 725.088 260.692C725.957 260.042 727.043 259.752 728.12 259.88C729.198 260.009 730.185 260.546 730.877 261.382C731.57 262.218 731.914 263.287 731.84 264.37L731.89 264.42Z" fill="#FFC3BD"/>
<path d="M727.69 253.2C718.14 257.2 719.74 270.86 719.74 270.86C724.372 273.957 729.366 276.476 734.61 278.36C739.11 271 738.54 248.67 727.69 253.2Z" fill="#636363"/>
<path d="M696.43 287.66L688.09 288.05L693.21 281.38C693.21 281.38 698.45 282.18 699.6 285.38L696.43 287.66Z" fill="#FFC3BD"/>
<path d="M682.43 284.03L687.01 278.68L693.2 281.38L688.09 288.05L682.43 284.03Z" fill="#FFC3BD"/>
<path d="M724.21 262.7C723.87 268.7 724.45 281.8 728.66 307.7H763.75C763.25 295.55 763.8 284.19 768.52 262.12C768.769 260.965 768.775 259.771 768.539 258.613C768.302 257.455 767.827 256.359 767.145 255.394C766.462 254.43 765.587 253.618 764.574 253.009C763.561 252.401 762.432 252.009 761.26 251.86C759.02 251.58 756.63 251.34 754.4 251.23C749.326 250.87 744.234 250.87 739.16 251.23C735.87 251.53 733.8 251.86 731.16 252.28C726.18 253.06 724.46 258.22 724.21 262.7Z" fill="#009DD2"/>
<path d="M739.16 251.23H754.4C749.486 255.529 744.346 259.562 739 263.31C737.757 261.534 737.104 259.412 737.132 257.244C737.161 255.076 737.87 252.973 739.16 251.23Z" fill="#C7F1FF"/>
<path d="M752.89 234.07C751.89 238.97 750.97 247.96 754.4 251.23C754.4 251.23 747.29 258.75 739.46 260.58C734.58 257.58 739.16 251.23 739.16 251.23C744.62 249.92 744.48 245.87 743.53 242.06L752.89 234.07Z" fill="#FFC3BD"/>
<path opacity="0.2" d="M749.07 237.33L743.54 242.05C743.768 242.939 743.926 243.846 744.01 244.76C746.09 244.45 748.96 242.16 749.19 239.97C749.313 239.09 749.272 238.195 749.07 237.33Z" fill="black"/>
<path d="M758.06 225.07C756.14 233.07 755.49 236.46 750.69 239.88C743.46 245.02 734.09 240.88 733.59 232.52C733.14 224.97 736.36 213.2 744.82 211.39C746.683 210.982 748.62 211.057 750.446 211.608C752.272 212.16 753.927 213.168 755.254 214.539C756.58 215.91 757.534 217.597 758.025 219.44C758.517 221.283 758.528 223.221 758.06 225.07Z" fill="#FFC3BD"/>
<path d="M759.18 229.62C758.557 231.078 757.392 232.237 755.93 232.85C753.98 233.63 752.77 231.94 753.12 229.98C753.44 228.22 754.83 225.68 756.88 225.73C757.328 225.75 757.764 225.882 758.148 226.113C758.533 226.344 758.854 226.667 759.082 227.053C759.31 227.439 759.439 227.876 759.456 228.324C759.473 228.772 759.378 229.218 759.18 229.62Z" fill="#FFC3BD"/>
<path d="M769.54 196C769.46 191.17 763.79 191.4 763.79 191.4C763.79 191.4 765.71 189.75 760.26 186.58C754.81 183.41 749.79 187.42 752.39 190.67C747.06 190.08 747.46 197.33 751.29 197.92C751.29 197.92 748.13 202.33 754.29 205.5L761.29 209.77C770.04 208.54 767.46 202.25 767.46 202.25C767.46 202.25 769.63 200.83 769.54 196Z" fill="#636363"/>
<path d="M750.38 204.38C748.92 202 753.21 200.63 758.17 202.5C763.13 204.37 765.83 211.5 761.25 211.92C753 207.13 750.38 204.38 750.38 204.38Z" fill="#009DD2"/>
<path d="M742.7 207.75C733.34 211 745.12 219.18 752.46 220.25C747.46 224.07 752.46 228.76 749.69 232.13C746.92 235.5 748.34 241.67 755.69 239C763.04 236.33 767.69 225.65 765.06 221.5C762.43 217.35 764.93 215.85 761.78 209.42C758.39 202.5 733 197.33 742.7 207.75Z" fill="#636363"/>
<path d="M744 225.16C743.89 225.82 743.45 226.29 743 226.21C742.55 226.13 742.31 225.54 742.43 224.88C742.55 224.22 742.99 223.76 743.43 223.88C743.87 224 744.07 224.5 744 225.16Z" fill="#636363"/>
<path d="M736.53 223.85C736.42 224.5 735.98 224.97 735.53 224.9C735.08 224.83 734.84 224.23 734.96 223.57C735.08 222.91 735.52 222.44 735.96 222.57C736.4 222.7 736.65 223.19 736.53 223.85Z" fill="#636363"/>
<path d="M736.15 222.59L734.65 221.86C734.65 221.86 735.25 223.23 736.15 222.59Z" fill="#636363"/>
<path d="M738.3 225.32C737.447 226.715 736.407 227.987 735.21 229.1C735.504 229.398 735.86 229.628 736.252 229.775C736.643 229.921 737.063 229.981 737.48 229.95L738.3 225.32Z" fill="#ED847E"/>
<path d="M741.4 233C741.024 233 740.65 232.966 740.28 232.9C740.255 232.896 740.231 232.888 740.209 232.875C740.187 232.862 740.168 232.844 740.154 232.824C740.139 232.803 740.128 232.78 740.122 232.755C740.116 232.731 740.116 232.705 740.12 232.68C740.13 232.629 740.159 232.583 740.202 232.553C740.245 232.523 740.298 232.511 740.35 232.52C741.163 232.681 742.003 232.648 742.802 232.426C743.601 232.204 744.336 231.798 744.95 231.24C744.967 231.222 744.987 231.207 745.01 231.196C745.033 231.186 745.058 231.18 745.083 231.179C745.108 231.178 745.133 231.182 745.156 231.191C745.18 231.2 745.202 231.213 745.22 231.23C745.238 231.247 745.253 231.268 745.264 231.29C745.274 231.313 745.28 231.338 745.281 231.363C745.282 231.388 745.278 231.413 745.269 231.437C745.26 231.46 745.247 231.482 745.23 231.5C744.199 232.483 742.824 233.022 741.4 233Z" fill="#636363"/>
<path d="M747.22 222.17C747.128 222.142 747.05 222.082 747 222C746.705 221.606 746.321 221.288 745.88 221.07C745.438 220.853 744.952 220.743 744.46 220.75C744.409 220.755 744.357 220.751 744.307 220.736C744.258 220.722 744.212 220.697 744.172 220.665C744.132 220.632 744.099 220.592 744.074 220.547C744.05 220.501 744.035 220.451 744.03 220.4C744.021 220.295 744.055 220.192 744.122 220.111C744.189 220.031 744.285 219.98 744.39 219.97C745.011 219.955 745.627 220.087 746.187 220.357C746.747 220.626 747.234 221.025 747.61 221.52C747.642 221.56 747.666 221.606 747.681 221.655C747.695 221.705 747.7 221.756 747.694 221.807C747.689 221.859 747.673 221.908 747.648 221.953C747.623 221.998 747.59 222.038 747.55 222.07C747.506 222.11 747.453 222.14 747.396 222.157C747.339 222.175 747.279 222.179 747.22 222.17Z" fill="#636363"/>
<path d="M735.15 219.74C735.079 219.71 735.018 219.66 734.975 219.596C734.933 219.532 734.91 219.457 734.91 219.38C734.91 219.303 734.933 219.228 734.975 219.164C735.018 219.1 735.079 219.05 735.15 219.02C735.702 218.735 736.314 218.586 736.935 218.586C737.556 218.586 738.168 218.735 738.72 219.02C738.81 219.073 738.875 219.16 738.902 219.261C738.928 219.362 738.913 219.47 738.86 219.56C738.807 219.65 738.72 219.715 738.619 219.742C738.518 219.768 738.41 219.753 738.32 219.7C737.883 219.474 737.397 219.356 736.905 219.356C736.413 219.356 735.927 219.474 735.49 219.7C735.441 219.735 735.385 219.757 735.325 219.764C735.266 219.771 735.205 219.763 735.15 219.74Z" fill="#636363"/>
<path d="M743.57 223.9L742.07 223.17C742.07 223.17 742.67 224.54 743.57 223.9Z" fill="#636363"/>
<path d="M728.66 307.7L730.1 395.17L776.57 386.83C778.37 341.09 770.49 317.39 763.75 307.7H728.66Z" fill="#636363"/>
<path opacity="0.2" d="M743.47 360.25L749.01 342.21L744.21 328.57L743.47 360.25Z" fill="black"/>
<path d="M769.42 258.81C770.42 260.94 771.26 262.99 772.1 265.11C772.94 267.23 773.74 269.33 774.47 271.48C776.011 275.807 777.27 280.23 778.24 284.72C778.45 285.89 778.72 287.01 778.86 288.21L779.11 289.98L779.26 291.81L779.33 292.73C779.354 293.265 779.323 293.801 779.24 294.33C779.08 295.31 778.741 296.252 778.24 297.11C777.433 298.436 776.385 299.599 775.15 300.54C773.135 302.034 770.916 303.23 768.56 304.09C766.358 304.93 764.086 305.572 761.77 306.01C761.273 306.106 760.758 306.02 760.319 305.767C759.88 305.515 759.547 305.113 759.38 304.636C759.212 304.158 759.222 303.636 759.408 303.165C759.593 302.694 759.942 302.305 760.39 302.07H760.49C762.33 301.07 764.24 300.07 765.98 298.92C767.646 297.92 769.187 296.725 770.57 295.36C771.061 294.898 771.453 294.34 771.72 293.72C771.76 293.603 771.76 293.477 771.72 293.36C771.72 293.36 771.72 293.36 771.72 293.31L771.62 292.57C771.336 290.549 770.939 288.546 770.43 286.57C769.37 282.51 768.02 278.42 766.53 274.37C765.04 270.32 763.4 266.25 761.73 262.37C761.331 261.358 761.338 260.231 761.748 259.224C762.159 258.217 762.942 257.406 763.934 256.961C764.926 256.516 766.052 256.47 767.077 256.833C768.103 257.196 768.949 257.94 769.44 258.91L769.42 258.81Z" fill="#FFC3BD"/>
<path d="M761.89 252C772.03 253.42 774.89 266.64 774.89 266.64C771.75 270.912 768.05 274.743 763.89 278.03C757.16 271.92 750.38 250.36 761.89 252Z" fill="#636363"/>
<path d="M761.37 301.72L752.46 302.31L758.29 308.36C758.29 308.36 763.42 306.98 764.2 303.64L761.37 301.72Z" fill="#FFC3BD"/>
<path d="M749.57 307L752.08 310.54C752.3 310.847 752.625 311.063 752.994 311.146C753.363 311.229 753.75 311.174 754.08 310.99L759.54 307.93L752.44 302.32L749.75 305C749.488 305.258 749.325 305.601 749.292 305.967C749.259 306.333 749.358 306.7 749.57 307Z" fill="#FFC3BD"/>
<path d="M702.3 179.13C702.021 175.493 700.391 172.093 697.732 169.597C695.073 167.101 691.577 165.689 687.93 165.64V164.64C691.831 164.693 695.57 166.203 698.414 168.873C701.258 171.543 703.001 175.18 703.3 179.07L702.3 179.13Z" fill="#B3B3B3"/>
<path d="M704.11 190.043L703.11 190.103L703.504 196.673L704.504 196.613L704.11 190.043Z" fill="#B3B3B3"/>
<path d="M698.94 339.19H435.74C432.723 339.139 429.834 337.963 427.638 335.893C425.443 333.824 424.099 331.009 423.87 328L414.3 179.3C414.19 177.867 414.38 176.427 414.856 175.072C415.332 173.716 416.085 172.474 417.067 171.425C418.048 170.376 419.237 169.542 420.558 168.976C421.879 168.411 423.303 168.126 424.74 168.14H687.93C690.944 168.188 693.832 169.358 696.029 171.422C698.226 173.486 699.574 176.295 699.81 179.3L709.38 328C709.494 329.435 709.308 330.878 708.833 332.237C708.359 333.596 707.607 334.842 706.625 335.895C705.643 336.947 704.452 337.784 703.129 338.351C701.806 338.918 700.379 339.204 698.94 339.19Z" fill="#B3B3B3"/>
<path d="M695.08 333.51H480.39C477.917 333.459 475.551 332.493 473.748 330.8C471.946 329.106 470.835 326.805 470.63 324.34L462.7 201.07C462.61 199.892 462.765 198.709 463.157 197.595C463.548 196.481 464.167 195.461 464.974 194.598C465.78 193.736 466.758 193.051 467.843 192.586C468.929 192.122 470.099 191.888 471.28 191.9H686C688.477 191.937 690.851 192.898 692.656 194.595C694.461 196.291 695.568 198.6 695.76 201.07L703.69 324.34C703.782 325.52 703.627 326.707 703.234 327.823C702.841 328.94 702.22 329.963 701.41 330.826C700.599 331.689 699.618 332.373 698.528 332.835C697.438 333.298 696.264 333.527 695.08 333.51Z" fill="#C7F1FF"/>
<path d="M495.3 182.81H465C464.052 182.793 463.145 182.425 462.453 181.776C461.762 181.127 461.337 180.245 461.26 179.3C461.225 178.848 461.285 178.394 461.435 177.967C461.585 177.539 461.822 177.148 462.132 176.817C462.441 176.486 462.816 176.223 463.232 176.044C463.648 175.866 464.097 175.776 464.55 175.78H494.81C495.76 175.795 496.67 176.164 497.362 176.815C498.054 177.466 498.478 178.352 498.55 179.3C498.585 179.748 498.526 180.198 498.378 180.622C498.231 181.046 497.997 181.435 497.692 181.765C497.387 182.094 497.017 182.357 496.605 182.537C496.194 182.717 495.749 182.81 495.3 182.81Z" fill="#C7F1FF"/>
<path d="M535.59 182.81H515.5C514.553 182.795 513.645 182.427 512.955 181.778C512.265 181.128 511.842 180.245 511.77 179.3C511.734 178.849 511.792 178.395 511.941 177.968C512.09 177.54 512.326 177.148 512.634 176.817C512.943 176.486 513.317 176.223 513.733 176.044C514.149 175.866 514.597 175.776 515.05 175.78H535.14C536.089 175.795 536.998 176.164 537.688 176.816C538.379 177.467 538.8 178.353 538.87 179.3C538.906 179.751 538.848 180.204 538.699 180.631C538.55 181.058 538.314 181.449 538.005 181.779C537.696 182.11 537.322 182.372 536.906 182.549C536.49 182.727 536.042 182.816 535.59 182.81Z" fill="#C7F1FF"/>
<path d="M575.87 182.81H555.79C554.842 182.793 553.934 182.425 553.243 181.776C552.552 181.127 552.127 180.245 552.05 179.3C552.015 178.848 552.075 178.394 552.225 177.967C552.375 177.539 552.612 177.148 552.921 176.817C553.231 176.486 553.605 176.223 554.022 176.044C554.438 175.866 554.887 175.776 555.34 175.78H575.42C576.369 175.797 577.278 176.167 577.97 176.818C578.661 177.468 579.085 178.353 579.16 179.3C579.193 179.751 579.132 180.204 578.982 180.63C578.831 181.056 578.594 181.446 578.284 181.776C577.975 182.106 577.601 182.368 577.186 182.546C576.77 182.724 576.322 182.814 575.87 182.81Z" fill="#C7F1FF"/>
<path opacity="0.2" d="M427.71 330.21H427.64C427.077 330.201 426.537 329.982 426.128 329.595C425.719 329.208 425.47 328.682 425.43 328.12L415.85 179.21C415.827 178.938 415.862 178.664 415.953 178.406C416.045 178.149 416.19 177.914 416.379 177.717C416.568 177.52 416.797 177.366 417.051 177.265C417.305 177.164 417.577 177.118 417.85 177.13H417.91C418.473 177.136 419.014 177.353 419.425 177.738C419.836 178.123 420.087 178.648 420.13 179.21L429.71 328.12C429.731 328.392 429.695 328.666 429.603 328.923C429.511 329.18 429.366 329.415 429.177 329.612C428.989 329.81 428.76 329.965 428.507 330.068C428.255 330.171 427.983 330.219 427.71 330.21Z" fill="#C7F1FF"/>
<path d="M678.52 184.61C677.091 184.592 675.72 184.04 674.676 183.063C673.633 182.087 672.992 180.755 672.88 179.33C672.832 178.645 672.926 177.957 673.155 177.309C673.385 176.661 673.745 176.068 674.215 175.566C674.684 175.064 675.251 174.664 675.882 174.391C676.513 174.118 677.193 173.978 677.88 173.98C679.307 174.001 680.676 174.553 681.717 175.53C682.759 176.506 683.398 177.837 683.51 179.26C683.562 179.949 683.471 180.642 683.242 181.294C683.013 181.947 682.652 182.545 682.18 183.05C681.709 183.547 681.141 183.941 680.512 184.21C679.882 184.478 679.204 184.614 678.52 184.61ZM677.89 174.91C677.327 174.897 676.768 175.002 676.249 175.22C675.73 175.437 675.262 175.762 674.877 176.172C674.492 176.583 674.198 177.07 674.014 177.602C673.83 178.134 673.761 178.699 673.81 179.26C673.902 180.452 674.436 181.566 675.308 182.383C676.179 183.201 677.325 183.664 678.52 183.68C679.082 183.692 679.64 183.585 680.158 183.367C680.676 183.149 681.142 182.824 681.526 182.414C681.91 182.003 682.203 181.517 682.387 180.985C682.57 180.454 682.639 179.89 682.59 179.33C682.502 178.139 681.971 177.023 681.101 176.205C680.23 175.386 679.085 174.924 677.89 174.91Z" fill="#C7F1FF"/>
<path d="M664.34 184.61C662.912 184.589 661.544 184.037 660.503 183.06C659.461 182.083 658.822 180.753 658.71 179.33C658.662 178.645 658.756 177.957 658.985 177.309C659.215 176.661 659.576 176.068 660.045 175.566C660.514 175.064 661.082 174.664 661.712 174.391C662.343 174.118 663.023 173.978 663.71 173.98C665.138 174.001 666.506 174.553 667.547 175.53C668.589 176.506 669.228 177.837 669.34 179.26C669.388 179.945 669.294 180.633 669.065 181.281C668.835 181.929 668.474 182.522 668.005 183.024C667.536 183.526 666.969 183.926 666.338 184.199C665.707 184.472 665.027 184.612 664.34 184.61ZM663.72 174.91C663.157 174.897 662.598 175.002 662.079 175.22C661.56 175.437 661.092 175.762 660.707 176.172C660.322 176.583 660.028 177.07 659.844 177.602C659.66 178.134 659.591 178.699 659.64 179.26C659.732 180.45 660.265 181.562 661.134 182.38C662.004 183.198 663.147 183.661 664.34 183.68C664.903 183.693 665.462 183.588 665.981 183.37C666.5 183.153 666.968 182.828 667.353 182.418C667.738 182.007 668.032 181.52 668.216 180.988C668.4 180.456 668.469 179.891 668.42 179.33C668.328 178.14 667.795 177.028 666.926 176.21C666.056 175.392 664.913 174.929 663.72 174.91Z" fill="#C7F1FF"/>
<path opacity="0.2" d="M449.78 176.71C450.54 176.732 451.266 177.032 451.819 177.554C452.372 178.075 452.714 178.782 452.78 179.54L462.45 329.87C462.479 330.218 462.436 330.568 462.321 330.898C462.207 331.228 462.025 331.531 461.786 331.786C461.548 332.042 461.259 332.244 460.937 332.381C460.616 332.518 460.269 332.585 459.92 332.58H441.3C440.54 332.558 439.814 332.258 439.261 331.736C438.708 331.214 438.366 330.507 438.3 329.75L428.62 179.42C428.591 179.072 428.635 178.721 428.749 178.391C428.863 178.061 429.045 177.759 429.284 177.504C429.522 177.248 429.811 177.046 430.133 176.909C430.454 176.772 430.801 176.704 431.15 176.71H449.78ZM449.78 175.78H431.15C430.674 175.776 430.202 175.871 429.764 176.058C429.327 176.246 428.933 176.522 428.608 176.87C428.282 177.218 428.033 177.63 427.875 178.079C427.717 178.528 427.654 179.005 427.69 179.48L437.36 329.81C437.435 330.808 437.881 331.741 438.611 332.426C439.34 333.111 440.3 333.498 441.3 333.51H459.93C460.407 333.516 460.879 333.422 461.318 333.235C461.756 333.048 462.15 332.771 462.476 332.423C462.802 332.075 463.051 331.663 463.208 331.213C463.366 330.763 463.428 330.285 463.39 329.81L453.72 179.48C453.645 178.482 453.199 177.549 452.469 176.864C451.74 176.179 450.781 175.792 449.78 175.78Z" fill="#C7F1FF"/>
<path opacity="0.3" d="M518.48 262.7H482.71C481.512 262.682 480.364 262.218 479.489 261.399C478.615 260.58 478.077 259.464 477.98 258.27L475.12 213.8C475.079 213.23 475.156 212.657 475.346 212.119C475.537 211.58 475.837 211.086 476.228 210.669C476.619 210.252 477.092 209.921 477.617 209.695C478.142 209.47 478.708 209.356 479.28 209.36H515C516.199 209.381 517.347 209.847 518.221 210.668C519.096 211.488 519.633 212.605 519.73 213.8L522.59 258.27C522.633 258.836 522.558 259.404 522.371 259.94C522.184 260.475 521.888 260.966 521.502 261.382C521.116 261.798 520.649 262.13 520.129 262.356C519.609 262.583 519.047 262.7 518.48 262.7Z" fill="#B3B3B3"/>
<path fill-rule="evenodd" clip-rule="evenodd" d="M502.42 228C503.23 228 504.03 228 504.85 228H505.18L504.91 223.79C504.48 223.79 504.02 223.68 503.57 223.66C502.73 223.66 501.9 223.58 501.07 223.6C499.833 223.583 498.623 223.965 497.62 224.69C497.074 225.108 496.623 225.637 496.298 226.242C495.972 226.847 495.778 227.514 495.73 228.2C495.69 228.803 495.69 229.407 495.73 230.01C495.73 231.01 495.85 231.9 495.91 232.85V233.2H491.91L492.22 237.91H496.22L496.97 249.52H501.89L501.12 237.92H505.12C505.23 236.36 505.33 234.81 505.44 233.2H500.79C500.79 233.2 500.65 230.86 500.61 229.85C500.52 228.47 501.31 228.05 502.42 228Z" fill="#C7F1FF"/>
<path opacity="0.3" d="M573.54 262.7H537.77C536.572 262.682 535.424 262.218 534.549 261.399C533.675 260.58 533.137 259.464 533.04 258.27L530.18 213.8C530.138 213.23 530.215 212.657 530.406 212.119C530.597 211.58 530.897 211.086 531.288 210.669C531.679 210.252 532.152 209.921 532.677 209.695C533.202 209.47 533.768 209.356 534.34 209.36H570.1C571.299 209.381 572.447 209.847 573.321 210.668C574.195 211.488 574.733 212.605 574.83 213.8L577.69 258.27C577.734 258.839 577.66 259.412 577.471 259.951C577.282 260.49 576.982 260.983 576.592 261.4C576.201 261.817 575.728 262.148 575.203 262.372C574.677 262.595 574.111 262.707 573.54 262.7Z" fill="#B3B3B3"/>
<path fill-rule="evenodd" clip-rule="evenodd" d="M549.91 240.57C548.949 240.536 548.02 240.221 547.236 239.665C546.453 239.109 545.849 238.335 545.5 237.44C546.143 237.566 546.806 237.545 547.44 237.38H547.5C546.244 237.12 545.141 236.376 544.43 235.31C543.945 234.599 543.665 233.769 543.62 232.91C544.236 233.242 544.92 233.43 545.62 233.46C544.649 232.813 543.941 231.842 543.62 230.72C543.28 229.637 543.376 228.463 543.89 227.45C545.101 228.834 546.575 229.964 548.227 230.774C549.878 231.584 551.674 232.059 553.51 232.17C553.51 231.99 553.43 231.83 553.4 231.67C553.192 230.662 553.36 229.613 553.87 228.72C554.171 228.184 554.593 227.724 555.101 227.377C555.609 227.031 556.191 226.806 556.8 226.72C557.519 226.6 558.256 226.652 558.951 226.871C559.646 227.09 560.279 227.47 560.8 227.98C560.83 228.014 560.87 228.039 560.915 228.052C560.959 228.064 561.006 228.064 561.05 228.05C561.953 227.86 562.818 227.522 563.61 227.05H563.67C563.405 228.004 562.814 228.836 562 229.4C562.853 229.302 563.687 229.073 564.47 228.72C564.31 228.95 564.16 229.18 564 229.4C563.559 229.987 563.041 230.512 562.46 230.96C562.435 230.973 562.414 230.993 562.401 231.018C562.389 231.044 562.385 231.072 562.39 231.1C562.445 231.766 562.445 232.434 562.39 233.1C562.313 234.474 562.009 235.826 561.49 237.1C560.971 238.409 560.223 239.614 559.28 240.66C557.696 242.419 555.596 243.631 553.28 244.12C552.457 244.295 551.621 244.396 550.78 244.42C548.198 244.491 545.65 243.818 543.44 242.48L543.32 242.41C544.842 242.593 546.385 242.379 547.8 241.79C548.559 241.489 549.27 241.078 549.91 240.57Z" fill="#C7F1FF"/>
<path opacity="0.9" d="M628.6 262.7H592.83C591.632 262.682 590.484 262.218 589.609 261.399C588.735 260.58 588.197 259.464 588.1 258.27L585.24 213.8C585.198 213.23 585.276 212.657 585.466 212.119C585.657 211.58 585.957 211.086 586.348 210.669C586.739 210.252 587.212 209.921 587.737 209.695C588.262 209.47 588.828 209.356 589.4 209.36H625.16C626.359 209.379 627.509 209.844 628.384 210.665C629.258 211.486 629.795 212.604 629.89 213.8L632.75 258.27C632.794 258.839 632.72 259.412 632.531 259.951C632.342 260.49 632.042 260.983 631.652 261.4C631.261 261.817 630.788 262.148 630.263 262.372C629.737 262.595 629.171 262.707 628.6 262.7Z" fill="#B3B3B3"/>
<path d="M620.22 229.64C619.978 228.097 619.212 226.684 618.05 225.64C616.819 224.549 615.244 223.925 613.6 223.88C609.705 223.655 605.799 223.698 601.91 224.01C600.715 224.141 599.596 224.662 598.725 225.491C597.854 226.32 597.28 227.412 597.09 228.6C596.65 230.6 597.36 239.89 597.82 241.88C598.069 243.138 598.684 244.295 599.588 245.206C600.491 246.117 601.643 246.741 602.9 247C604.8 247.48 613.96 247.42 616 247.08C617.224 246.95 618.369 246.413 619.252 245.556C620.135 244.698 620.705 243.569 620.87 242.35C621.28 240.29 620.53 231.5 620.22 229.64ZM618.8 241.45C618.771 242.381 618.391 243.268 617.736 243.931C617.082 244.595 616.201 244.987 615.27 245.03C613.37 245.24 604.86 245.35 603.06 244.86C602.267 244.665 601.546 244.246 600.986 243.651C600.425 243.057 600.048 242.313 599.9 241.51C599.347 237.558 599.089 233.57 599.13 229.58C599.162 228.653 599.542 227.771 600.194 227.112C600.846 226.452 601.723 226.062 602.65 226.02C606.529 225.75 610.421 225.75 614.3 226.02C615.264 226.133 616.162 226.566 616.85 227.249C617.539 227.933 617.979 228.827 618.1 229.79C618.604 233.655 618.837 237.552 618.8 241.45ZM608.58 229.45C607.798 229.439 607.023 229.591 606.304 229.897C605.584 230.203 604.937 230.656 604.402 231.226C603.868 231.796 603.458 232.472 603.199 233.209C602.941 233.947 602.839 234.731 602.9 235.51C603.022 237.144 603.752 238.674 604.946 239.798C606.14 240.921 607.711 241.557 609.35 241.58C610.132 241.591 610.907 241.438 611.626 241.132C612.346 240.826 612.993 240.374 613.528 239.804C614.062 239.233 614.472 238.558 614.731 237.82C614.989 237.083 615.091 236.299 615.03 235.52C614.905 233.887 614.174 232.36 612.981 231.238C611.787 230.117 610.217 229.483 608.58 229.46V229.45ZM609.18 239.45C608.121 239.43 607.107 239.012 606.341 238.281C605.574 237.55 605.11 236.557 605.04 235.5C605.004 234.996 605.073 234.49 605.244 234.014C605.414 233.538 605.682 233.103 606.03 232.737C606.379 232.371 606.8 232.082 607.266 231.887C607.733 231.693 608.235 231.599 608.74 231.61C609.807 231.633 610.825 232.058 611.593 232.8C612.36 233.541 612.82 234.544 612.88 235.61C612.908 236.109 612.832 236.609 612.657 237.077C612.483 237.546 612.214 237.973 611.866 238.333C611.519 238.692 611.101 238.976 610.639 239.167C610.176 239.357 609.68 239.45 609.18 239.44V239.45ZM616.28 229.24C616.294 229.422 616.27 229.605 616.209 229.778C616.148 229.951 616.052 230.109 615.927 230.242C615.802 230.376 615.651 230.482 615.482 230.554C615.314 230.626 615.133 230.662 614.95 230.66C614.567 230.653 614.2 230.504 613.92 230.242C613.641 229.979 613.47 229.622 613.44 229.24C613.426 229.057 613.45 228.874 613.511 228.702C613.572 228.529 613.668 228.371 613.793 228.237C613.918 228.104 614.069 227.998 614.238 227.926C614.406 227.854 614.587 227.818 614.77 227.82C615.152 227.824 615.519 227.97 615.799 228.231C616.078 228.492 616.25 228.849 616.28 229.23V229.24Z" fill="#C7F1FF"/>
<path opacity="0.3" d="M683.66 262.7H647.89C646.692 262.684 645.544 262.22 644.671 261.4C643.798 260.581 643.262 259.464 643.17 258.27L640.3 213.8C640.259 213.23 640.336 212.657 640.526 212.119C640.717 211.58 641.017 211.086 641.408 210.669C641.799 210.252 642.272 209.921 642.797 209.695C643.322 209.47 643.888 209.356 644.46 209.36H680.22C681.428 209.366 682.59 209.826 683.475 210.648C684.361 211.471 684.905 212.595 685 213.8L687.86 258.27C687.905 258.844 687.829 259.42 687.637 259.963C687.445 260.505 687.141 261.001 686.745 261.419C686.349 261.837 685.87 262.166 685.339 262.387C684.807 262.608 684.235 262.714 683.66 262.7Z" fill="#B3B3B3"/>
<path fill-rule="evenodd" clip-rule="evenodd" d="M655.23 244.7C654.765 244.561 654.337 244.319 653.978 243.992C653.62 243.665 653.34 243.261 653.16 242.81C652.16 240.49 651.29 230.81 652.79 228.86C653.03 228.546 653.33 228.284 653.674 228.09C654.018 227.896 654.397 227.773 654.79 227.73C659.15 227.26 672.7 227.32 674.29 227.89C674.735 228.036 675.144 228.276 675.489 228.594C675.834 228.911 676.107 229.298 676.29 229.73C677.37 232.13 677.96 240.87 677.03 243.18C676.784 243.782 676.329 244.275 675.75 244.57C674.26 245.42 657.43 245.41 655.23 244.7ZM661.9 240.15L669.53 236.06L661.37 231.94C661.55 234.68 661.72 237.4 661.9 240.15Z" fill="#C7F1FF"/>
<path d="M626.57 275.26C628.283 275.285 629.925 275.949 631.174 277.122C632.422 278.295 633.188 279.892 633.32 281.6L635.69 318.41C635.747 319.21 635.638 320.014 635.372 320.771C635.105 321.528 634.686 322.222 634.14 322.81C633.592 323.391 632.93 323.853 632.195 324.166C631.46 324.479 630.669 324.637 629.87 324.63H489.52C487.808 324.605 486.167 323.941 484.92 322.767C483.673 321.594 482.91 319.997 482.78 318.29L480.41 281.48C480.346 280.681 480.449 279.877 480.714 279.12C480.978 278.363 481.398 277.669 481.946 277.084C482.493 276.498 483.157 276.034 483.895 275.72C484.633 275.406 485.428 275.249 486.23 275.26H626.57ZM626.57 274.33H486.23C485.301 274.32 484.381 274.504 483.527 274.869C482.673 275.234 481.904 275.773 481.269 276.451C480.635 277.129 480.148 277.931 479.84 278.807C479.532 279.683 479.409 280.614 479.48 281.54L481.85 318.35C482.002 320.291 482.872 322.105 484.29 323.439C485.709 324.772 487.573 325.529 489.52 325.56H629.87C630.798 325.568 631.717 325.384 632.57 325.018C633.423 324.652 634.19 324.113 634.824 323.436C635.457 322.758 635.943 321.956 636.251 321.08C636.558 320.205 636.681 319.275 636.61 318.35L634.25 281.54C634.096 279.598 633.224 277.784 631.804 276.45C630.384 275.117 628.518 274.361 626.57 274.33Z" fill="#B3B3B3"/>
<g opacity="0.2">
<path d="M505.239 274.769L504.44 274.821L507.676 325.127L508.474 325.076L505.239 274.769Z" fill="#B3B3B3"/>
<path d="M531.025 274.764L530.227 274.815L533.463 325.121L534.261 325.07L531.025 274.764Z" fill="#B3B3B3"/>
<path d="M556.832 274.768L556.034 274.82L559.269 325.126L560.068 325.074L556.832 274.768Z" fill="#B3B3B3"/>
<path d="M582.619 274.773L581.821 274.824L585.056 325.13L585.854 325.079L582.619 274.773Z" fill="#B3B3B3"/>
<path d="M608.416 274.767L607.617 274.818L610.853 325.124L611.651 325.073L608.416 274.767Z" fill="#B3B3B3"/>
</g>
<path d="M493 314.69C490.895 314.563 488.898 313.712 487.35 312.28C486.59 311.63 485.87 310.94 485.16 310.28C484.034 309.134 482.809 308.09 481.5 307.16L482.02 306.38C483.37 307.347 484.637 308.424 485.81 309.6C486.5 310.27 487.21 310.95 487.95 311.6C489.74 313.11 492.41 314.4 494.56 313.5C496.71 312.6 497.39 310.05 497.65 308.59C497.77 307.88 497.86 307.15 497.93 306.44C498.034 304.93 498.336 303.441 498.83 302.01C499.247 300.894 499.924 299.893 500.803 299.09C501.683 298.287 502.741 297.704 503.89 297.39C505.104 297.095 506.375 297.131 507.571 297.493C508.767 297.855 509.844 298.531 510.69 299.45C511.7 300.735 512.485 302.182 513.01 303.73C513.88 305.9 514.7 307.94 516.67 308.54C517.098 308.671 517.55 308.708 517.993 308.648C518.437 308.587 518.863 308.431 519.24 308.19C520.834 307.057 521.913 305.338 522.24 303.41C522.57 301.527 522.753 299.621 522.79 297.71C522.81 295.3 523.112 292.9 523.69 290.56C524.068 289.244 524.706 288.017 525.564 286.951C526.423 285.885 527.485 285 528.69 284.35C529.47 283.938 530.328 283.694 531.209 283.635C532.089 283.577 532.972 283.704 533.8 284.01C536.67 285.08 538.2 287.95 538.8 289.56C539.298 290.866 539.712 292.202 540.04 293.56C540.3 294.56 540.57 295.56 540.92 296.56C542.072 299.842 544.016 302.789 546.58 305.14C547.218 305.785 547.985 306.29 548.83 306.62C551.64 307.52 554.05 304.62 555.25 302.76C556.66 300.59 558.82 297.29 562.17 297.54C564.54 297.7 566.42 299.64 567.57 301.23C567.93 301.72 568.26 302.23 568.57 302.74C569.324 304.019 570.261 305.181 571.35 306.19C572.82 307.43 575.11 308.02 576.41 306.84C577.122 306.026 577.556 305.007 577.65 303.93L577.92 302.48C578.54 298.99 579.19 295.38 581.49 292.72C582.75 291.26 584.86 290.35 586.49 291.42C587.224 291.988 587.779 292.755 588.09 293.63C588.36 294.23 588.62 294.82 588.88 295.42C589.842 297.9 591.109 300.252 592.65 302.42C594.43 304.7 597.5 307.01 600.77 306.61C601.854 306.426 602.912 306.11 603.92 305.67C605.6 305.01 607.33 304.33 609.21 304.83C610.76 305.388 612.138 306.339 613.21 307.59C613.62 307.99 614.04 308.39 614.47 308.76C615.466 309.668 616.763 310.174 618.11 310.18C618.364 310.167 618.613 310.102 618.841 309.991C619.07 309.879 619.273 309.722 619.44 309.53C619.933 308.732 620.154 307.795 620.07 306.86C620.23 302.86 620.74 298.37 623.39 295C625.87 291.84 630.78 290.17 634.71 292.83L634.18 293.6C630.71 291.24 626.34 292.75 624.12 295.6C621.64 298.76 621.12 303.09 621 306.91C621.083 308.054 620.784 309.194 620.15 310.15C619.904 310.446 619.599 310.688 619.255 310.86C618.911 311.032 618.534 311.131 618.15 311.15C616.559 311.168 615.02 310.586 613.84 309.52C613.39 309.14 612.96 308.72 612.53 308.3C611.558 307.167 610.316 306.297 608.92 305.77C607.33 305.36 605.81 305.95 604.19 306.58C603.113 307.054 601.981 307.39 600.82 307.58C597.15 308.01 593.82 305.52 591.82 303.04C590.222 300.805 588.915 298.375 587.93 295.81L587.15 294.04C586.901 293.326 586.462 292.693 585.88 292.21C584.59 291.35 582.88 292.42 582.12 293.35C579.99 295.82 579.36 299.35 578.76 302.66C578.67 303.15 578.59 303.66 578.49 304.12C578.369 305.401 577.836 306.608 576.97 307.56C575.29 309.07 572.45 308.42 570.68 306.92C569.512 305.852 568.502 304.623 567.68 303.27C567.35 302.77 567.03 302.27 566.68 301.8C565.68 300.37 563.98 298.63 561.96 298.49C559.36 298.32 557.54 300.76 555.89 303.29C553.58 306.83 550.89 308.29 548.41 307.52C547.434 307.155 546.548 306.585 545.81 305.85C543.13 303.381 541.101 300.29 539.9 296.85C539.54 295.85 539.27 294.78 539 293.77C538.682 292.462 538.281 291.177 537.8 289.92C537.2 288.45 535.8 285.83 533.29 284.92C532.581 284.66 531.826 284.552 531.073 284.604C530.32 284.656 529.586 284.866 528.92 285.22C526.74 286.437 525.128 288.463 524.43 290.86C523.877 293.129 523.588 295.455 523.57 297.79C523.53 299.752 523.339 301.707 523 303.64C522.641 305.789 521.457 307.712 519.7 309C519.21 309.305 518.66 309.502 518.087 309.578C517.515 309.654 516.933 309.607 516.38 309.44C513.99 308.72 513.04 306.36 512.12 304.09C511.63 302.649 510.907 301.297 509.98 300.09C509.246 299.298 508.315 298.716 507.281 298.405C506.247 298.094 505.149 298.065 504.1 298.32C503.093 298.599 502.167 299.112 501.397 299.818C500.627 300.523 500.035 301.401 499.67 302.38C499.208 303.733 498.929 305.143 498.84 306.57C498.76 307.29 498.67 308.05 498.55 308.78C498.04 311.63 496.75 313.62 494.9 314.39C494.292 314.614 493.647 314.715 493 314.69Z" fill="#B3B3B3"/>
<path d="M682.86 320H656.06C654.267 319.971 652.549 319.274 651.242 318.046C649.934 316.819 649.131 315.148 648.99 313.36L647.27 286.56C647.205 285.708 647.317 284.851 647.601 284.045C647.884 283.238 648.332 282.499 648.916 281.875C649.5 281.251 650.207 280.755 650.992 280.418C651.778 280.082 652.625 279.912 653.48 279.92H680.28C682.073 279.949 683.791 280.646 685.098 281.873C686.406 283.101 687.208 284.772 687.35 286.56L689.07 313.36C689.135 314.212 689.022 315.069 688.739 315.875C688.456 316.682 688.008 317.42 687.424 318.045C686.84 318.669 686.133 319.165 685.347 319.502C684.562 319.838 683.715 320.008 682.86 320Z" fill="#B3B3B3"/>
<path d="M669.24 291.56L671.43 295.5C671.505 295.634 671.61 295.748 671.737 295.835C671.863 295.922 672.008 295.978 672.16 296L676.59 296.64C676.771 296.668 676.941 296.745 677.081 296.862C677.221 296.98 677.326 297.134 677.385 297.307C677.444 297.48 677.454 297.666 677.414 297.845C677.374 298.024 677.287 298.188 677.16 298.32L674.3 301.32C674.182 301.44 674.096 301.589 674.05 301.751C674.005 301.914 674.001 302.086 674.04 302.25L675.04 306.37C675.084 306.556 675.074 306.751 675.011 306.931C674.948 307.111 674.834 307.27 674.684 307.388C674.533 307.506 674.352 307.578 674.162 307.596C673.972 307.614 673.78 307.577 673.61 307.49L669.73 305.49C669.587 305.415 669.427 305.375 669.265 305.375C669.103 305.375 668.943 305.415 668.8 305.49L665.08 307.49C664.919 307.578 664.736 307.619 664.553 307.61C664.369 307.601 664.192 307.541 664.04 307.438C663.888 307.335 663.768 307.192 663.692 307.024C663.616 306.857 663.588 306.672 663.61 306.49L664.07 302.14C664.087 301.985 664.068 301.829 664.014 301.683C663.961 301.538 663.873 301.406 663.76 301.3L660.46 298.3C660.319 298.172 660.218 298.006 660.169 297.822C660.119 297.639 660.123 297.445 660.179 297.263C660.236 297.081 660.343 296.92 660.489 296.797C660.634 296.674 660.811 296.595 661 296.57L665.08 295.97C665.248 295.945 665.407 295.878 665.541 295.775C665.676 295.671 665.782 295.536 665.85 295.38L667.46 291.62C667.538 291.453 667.661 291.311 667.815 291.21C667.969 291.108 668.148 291.051 668.332 291.045C668.516 291.039 668.698 291.084 668.858 291.175C669.019 291.265 669.151 291.399 669.24 291.56Z" fill="#C7F1FF"/>
</svg>
