<svg width="1200" height="630" viewBox="0 0 1200 630" fill="none" xmlns="http://www.w3.org/2000/svg">
<rect width="1200" height="630" rx="26" fill="#FFC7E2"/>
<rect width="500" height="500" transform="translate(350 65)" fill="#FFC7E2"/>
<path d="M799.9 463.49H766.78V463.74H799.9V463.49Z" fill="black"/>
<path d="M681.22 466.21H672.53V466.46H681.22V466.21Z" fill="black"/>
<path d="M765.78 454.21H746.59V454.46H765.78V454.21Z" fill="black"/>
<path d="M445.65 455.89H402.46V456.14H445.65V455.89Z" fill="black"/>
<path d="M460.89 455.89H454.56V456.14H460.89V455.89Z" fill="black"/>
<path d="M575.15 460.11H481.47V460.36H575.15V460.11Z" fill="black"/>
<path d="M587 402.8H393.92C392.406 402.8 390.953 402.198 389.882 401.128C388.812 400.057 388.21 398.604 388.21 397.09V125.66C388.223 124.154 388.831 122.715 389.9 121.655C390.969 120.595 392.414 120 393.92 120H587C588.514 120 589.967 120.602 591.038 121.672C592.108 122.743 592.71 124.196 592.71 125.71V397.09C592.71 398.604 592.108 400.057 591.038 401.128C589.967 402.198 588.514 402.8 587 402.8ZM393.92 120.2C392.473 120.203 391.085 120.779 390.062 121.802C389.039 122.825 388.463 124.213 388.46 125.66V397.09C388.463 398.537 389.039 399.924 390.062 400.948C391.085 401.971 392.473 402.547 393.92 402.55H587C588.447 402.547 589.834 401.971 590.858 400.948C591.881 399.924 592.457 398.537 592.46 397.09V125.66C592.457 124.213 591.881 122.825 590.858 121.802C589.834 120.779 588.447 120.203 587 120.2H393.92Z" fill="black"/>
<path d="M803.31 402.8H610.21C608.696 402.797 607.246 402.195 606.175 401.125C605.105 400.054 604.503 398.604 604.5 397.09V125.66C604.516 124.155 605.124 122.717 606.193 121.658C607.262 120.598 608.705 120.003 610.21 120H803.31C804.812 120.005 806.252 120.602 807.317 121.662C808.382 122.721 808.987 124.158 809 125.66V397.09C809 398.601 808.401 400.05 807.335 401.121C806.268 402.191 804.821 402.795 803.31 402.8ZM610.21 120.2C608.763 120.203 607.375 120.779 606.352 121.802C605.329 122.825 604.753 124.213 604.75 125.66V397.09C604.753 398.537 605.329 399.924 606.352 400.948C607.375 401.971 608.763 402.547 610.21 402.55H803.31C804.757 402.547 806.145 401.971 807.168 400.948C808.191 399.924 808.767 398.537 808.77 397.09V125.66C808.767 124.213 808.191 122.825 807.168 121.802C806.145 120.779 804.757 120.203 803.31 120.2H610.21Z" fill="black"/>
<path d="M850 447.4H350V447.65H850V447.4Z" fill="black"/>
<path d="M729.18 195.27C744.246 195.27 756.46 183.056 756.46 167.99C756.46 152.924 744.246 140.71 729.18 140.71C714.114 140.71 701.9 152.924 701.9 167.99C701.9 183.056 714.114 195.27 729.18 195.27Z" fill="#FFFDF4"/>
<path d="M729.25 195.88C725.542 195.95 721.858 195.281 718.412 193.91C714.966 192.54 711.828 190.496 709.181 187.899C706.534 185.302 704.432 182.203 702.996 178.784C701.561 175.364 700.822 171.693 700.822 167.985C700.822 164.277 701.561 160.606 702.996 157.186C704.432 153.767 706.534 150.668 709.181 148.071C711.828 145.474 714.966 143.43 718.412 142.06C721.858 140.689 725.542 140.02 729.25 140.09V141.31C722.265 141.445 715.611 144.315 710.719 149.303C705.827 154.291 703.086 160.998 703.086 167.985C703.086 174.971 705.827 181.679 710.719 186.667C715.611 191.655 722.265 194.525 729.25 194.66V195.88Z" fill="#FFFDF4"/>
<path d="M729.25 195.88V194.66C736.235 194.525 742.889 191.655 747.781 186.667C752.673 181.679 755.413 174.971 755.413 167.985C755.413 160.998 752.673 154.291 747.781 149.303C742.889 144.315 736.235 141.445 729.25 141.31V140.09C732.958 140.02 736.642 140.689 740.088 142.06C743.534 143.43 746.672 145.474 749.319 148.071C751.966 150.668 754.068 153.767 755.504 157.186C756.939 160.606 757.678 164.277 757.678 167.985C757.678 171.693 756.939 175.364 755.504 178.784C754.068 182.203 751.966 185.302 749.319 187.899C746.672 190.496 743.534 192.54 740.088 193.91C736.642 195.281 732.958 195.95 729.25 195.88Z" fill="#FFFDF4"/>
<path d="M743.51 168H742.28C742.28 159 737.69 146.86 728.92 141.23L729.58 140.23C738.73 146.06 743.51 158.62 743.51 168Z" fill="#FFFDF4"/>
<path d="M729.58 195L728.92 194C737.69 188.37 742.28 176.27 742.28 167.23H743.51C743.51 176.53 738.73 189.1 729.58 195Z" fill="#FFFDF4"/>
<path d="M716.23 168H715C715 158.62 719.78 146.06 728.92 140.19L729.58 141.19C720.81 146.85 716.23 158.94 716.23 168Z" fill="#FFFDF4"/>
<path d="M728.92 195C719.78 189.14 715 176.58 715 167.2H716.23C716.23 176.2 720.81 188.34 729.58 193.97L728.92 195Z" fill="#FFFDF4"/>
<path d="M729.87 140.7H728.64V195.27H729.87V140.7Z" fill="#FFFDF4"/>
<path d="M752.35 152.84H706.16V154.07H752.35V152.84Z" fill="#FFFDF4"/>
<path d="M756.53 167.84H701.98V169.07H756.53V167.84Z" fill="#FFFDF4"/>
<path d="M751.74 182.82H706.77V184.05H751.74V182.82Z" fill="#FFFDF4"/>
<path d="M416.9 424.9H403.12V428.52H416.9V424.9Z" fill="#E6E6E6"/>
<path d="M523.82 424.9H510.04V428.52H523.82V424.9Z" fill="#E6E6E6"/>
<path d="M428.63 426.71H425.01V448.01H428.63V426.71Z" fill="#E0E0E0"/>
<path d="M513.58 326.73H414.85V334.45H513.58V326.73Z" fill="#E6E6E6"/>
<path d="M513.58 422.85H414.85V430.57H513.58V422.85Z" fill="#E6E6E6"/>
<path d="M418.62 438.13L418.31 438.45C418.045 438.725 417.727 438.944 417.376 439.093C417.025 439.242 416.647 439.319 416.265 439.319C415.883 439.319 415.505 439.242 415.154 439.093C414.803 438.944 414.485 438.725 414.22 438.45L413.92 438.13C413 437.178 412.487 435.904 412.49 434.58V328.79C412.491 327.467 413.003 326.195 413.92 325.24L414.22 324.92C414.485 324.645 414.803 324.426 415.154 324.277C415.505 324.128 415.883 324.051 416.265 324.051C416.647 324.051 417.025 324.128 417.376 324.277C417.727 324.426 418.045 324.645 418.31 324.92L418.62 325.24C419.533 326.197 420.045 327.467 420.05 328.79V434.58C420.048 435.903 419.536 437.175 418.62 438.13Z" fill="#FFFDF4"/>
<path d="M429.17 438.13L428.86 438.45C428.595 438.725 428.277 438.944 427.926 439.093C427.575 439.242 427.197 439.319 426.815 439.319C426.433 439.319 426.055 439.242 425.704 439.093C425.353 438.944 425.035 438.725 424.77 438.45L424.47 438.13C423.535 437.184 423.007 435.91 423 434.58V328.79C423.001 327.467 423.513 326.195 424.43 325.24L424.73 324.92C424.995 324.645 425.313 324.426 425.664 324.277C426.015 324.128 426.393 324.051 426.775 324.051C427.157 324.051 427.535 324.128 427.886 324.277C428.237 324.426 428.555 324.645 428.82 324.92L429.13 325.24C430.047 326.195 430.559 327.467 430.56 328.79V434.58C430.574 435.899 430.076 437.172 429.17 438.13Z" fill="#FFFDF4"/>
<path d="M439.72 438.13L439.41 438.45C439.145 438.725 438.827 438.944 438.476 439.093C438.125 439.242 437.747 439.319 437.365 439.319C436.983 439.319 436.605 439.242 436.254 439.093C435.902 438.944 435.585 438.725 435.32 438.45L435.02 438.13C434.1 437.178 433.587 435.904 433.59 434.58V328.79C433.585 327.469 434.09 326.198 435 325.24L435.3 324.92C435.565 324.645 435.882 324.426 436.234 324.277C436.585 324.128 436.963 324.051 437.345 324.051C437.727 324.051 438.105 324.128 438.456 324.277C438.807 324.426 439.125 324.645 439.39 324.92L439.7 325.24C440.617 326.195 441.129 327.467 441.13 328.79V434.58C441.139 435.902 440.633 437.175 439.72 438.13Z" fill="#FFFDF4"/>
<path d="M450.27 438.13L449.96 438.45C449.695 438.725 449.377 438.944 449.026 439.093C448.675 439.242 448.297 439.319 447.915 439.319C447.533 439.319 447.155 439.242 446.804 439.093C446.452 438.944 446.135 438.725 445.87 438.45L445.57 438.13C444.65 437.178 444.137 435.904 444.14 434.58V328.79C444.141 327.467 444.653 326.195 445.57 325.24L445.87 324.92C446.135 324.645 446.452 324.426 446.804 324.277C447.155 324.128 447.533 324.051 447.915 324.051C448.297 324.051 448.675 324.128 449.026 324.277C449.377 324.426 449.695 324.645 449.96 324.92L450.27 325.24C451.187 326.195 451.699 327.467 451.7 328.79V434.58C451.703 435.904 451.19 437.178 450.27 438.13Z" fill="#FFFDF4"/>
<path d="M460.82 438.13L460.51 438.45C460.245 438.725 459.927 438.944 459.576 439.093C459.225 439.242 458.847 439.319 458.465 439.319C458.083 439.319 457.705 439.242 457.354 439.093C457.003 438.944 456.685 438.725 456.42 438.45L456.12 438.13C455.2 437.178 454.687 435.904 454.69 434.58V328.79C454.691 327.467 455.203 326.195 456.12 325.24L456.42 324.92C456.685 324.645 457.003 324.426 457.354 324.277C457.705 324.128 458.083 324.051 458.465 324.051C458.847 324.051 459.225 324.128 459.576 324.277C459.927 324.426 460.245 324.645 460.51 324.92L460.82 325.24C461.737 326.195 462.249 327.467 462.25 328.79V434.58C462.253 435.904 461.74 437.178 460.82 438.13Z" fill="#FFFDF4"/>
<path d="M471.37 438.13L471.07 438.45C470.804 438.725 470.486 438.944 470.134 439.093C469.781 439.243 469.403 439.32 469.02 439.32C468.637 439.32 468.259 439.243 467.907 439.093C467.554 438.944 467.236 438.725 466.97 438.45L466.67 438.13C465.75 437.178 465.237 435.904 465.24 434.58V328.79C465.241 327.466 465.753 326.194 466.67 325.24L466.97 324.92C467.236 324.645 467.554 324.426 467.907 324.276C468.259 324.127 468.637 324.05 469.02 324.05C469.403 324.05 469.781 324.127 470.134 324.276C470.486 324.426 470.804 324.645 471.07 324.92L471.37 325.24C472.287 326.194 472.799 327.466 472.8 328.79V434.58C472.803 435.904 472.29 437.178 471.37 438.13Z" fill="#FFFDF4"/>
<path d="M481.92 438.13L481.62 438.45C481.354 438.725 481.036 438.944 480.684 439.093C480.331 439.243 479.953 439.32 479.57 439.32C479.187 439.32 478.809 439.243 478.457 439.093C478.104 438.944 477.786 438.725 477.52 438.45L477.22 438.13C476.3 437.178 475.787 435.904 475.79 434.58V328.79C475.791 327.466 476.303 326.194 477.22 325.24L477.52 324.92C477.786 324.645 478.104 324.426 478.457 324.276C478.809 324.127 479.187 324.05 479.57 324.05C479.953 324.05 480.331 324.127 480.684 324.276C481.036 324.426 481.354 324.645 481.62 324.92L481.92 325.24C482.837 326.194 483.349 327.466 483.35 328.79V434.58C483.353 435.904 482.84 437.178 481.92 438.13Z" fill="#FFFDF4"/>
<path d="M492.47 438.13L492.17 438.45C491.905 438.725 491.588 438.944 491.236 439.093C490.885 439.242 490.507 439.319 490.125 439.319C489.743 439.319 489.365 439.242 489.014 439.093C488.663 438.944 488.345 438.725 488.08 438.45L487.77 438.13C486.85 437.178 486.337 435.904 486.34 434.58V328.79C486.341 327.467 486.853 326.195 487.77 325.24L488.08 324.92C488.345 324.645 488.663 324.426 489.014 324.277C489.365 324.128 489.743 324.051 490.125 324.051C490.507 324.051 490.885 324.128 491.236 324.277C491.588 324.426 491.905 324.645 492.17 324.92L492.47 325.24C493.387 326.195 493.899 327.467 493.9 328.79V434.58C493.903 435.904 493.39 437.178 492.47 438.13Z" fill="#FFFDF4"/>
<path d="M500.51 426.71H496.89V448.01H500.51V426.71Z" fill="#E0E0E0"/>
<path d="M503 438.13L502.7 438.45C502.435 438.725 502.117 438.944 501.766 439.093C501.415 439.242 501.037 439.319 500.655 439.319C500.273 439.319 499.895 439.242 499.544 439.093C499.192 438.944 498.875 438.725 498.61 438.45L498.3 438.13C497.38 437.178 496.867 435.904 496.87 434.58V328.79C496.871 327.467 497.383 326.195 498.3 325.24L498.61 324.92C498.875 324.645 499.192 324.426 499.544 324.277C499.895 324.128 500.273 324.051 500.655 324.051C501.037 324.051 501.415 324.128 501.766 324.277C502.117 324.426 502.435 324.645 502.7 324.92L503 325.24C503.917 326.195 504.429 327.467 504.43 328.79V434.58C504.433 435.904 503.92 437.178 503 438.13Z" fill="#FFFDF4"/>
<path d="M513.57 438.13L513.27 438.45C513.005 438.725 512.687 438.944 512.336 439.093C511.985 439.242 511.607 439.319 511.225 439.319C510.843 439.319 510.465 439.242 510.114 439.093C509.763 438.944 509.445 438.725 509.18 438.45L508.87 438.13C507.95 437.178 507.437 435.904 507.44 434.58V328.79C507.441 327.467 507.953 326.195 508.87 325.24L509.18 324.92C509.445 324.645 509.763 324.426 510.114 324.277C510.465 324.128 510.843 324.051 511.225 324.051C511.607 324.051 511.985 324.128 512.336 324.277C512.687 324.426 513.005 324.645 513.27 324.92L513.57 325.24C514.487 326.195 514.999 327.467 515 328.79V434.58C515.003 435.904 514.49 437.178 513.57 438.13Z" fill="#FFFDF4"/>
<path d="M524.6 414.76H520.98V447.83H524.6V414.76Z" fill="#F5F5F5"/>
<path d="M738.61 393.29C738.61 393.29 734 341 709.66 290.79C709.66 290.79 745.52 324.26 746.78 393.29H738.61Z" fill="#F5F5F5"/>
<path d="M744.27 401.39C744.27 401.39 724.75 310.39 728.27 262.15C728.27 262.15 754.38 315.82 753.12 396.93L744.27 401.39Z" fill="#F5F5F5"/>
<path d="M758.68 395.64C758.68 395.64 760.54 336.21 770.08 306.86C770.08 306.86 778.08 344.13 764.82 394.23L758.68 395.64Z" fill="#E6E6E6"/>
<path d="M753.07 396.93C753.07 396.93 746.78 317.68 764.39 282.17C764.39 282.17 766.28 354.17 761.87 396.93H753.07Z" fill="#E6E6E6"/>
<path d="M773.17 447.61H733.37L727.68 388.88H778.87L773.17 447.61Z" fill="#FFFDF4"/>
<path d="M767.94 397.38C767.94 397.38 772.59 345.09 796.88 294.87C796.88 294.87 761.02 328.35 759.76 397.38H767.94Z" fill="#F5F5F5"/>
<path d="M595.18 488.71C702.263 488.71 789.07 483.642 789.07 477.39C789.07 471.138 702.263 466.07 595.18 466.07C488.098 466.07 401.29 471.138 401.29 477.39C401.29 483.642 488.098 488.71 595.18 488.71Z" fill="#444444" fill-opacity="0.42"/>
<path d="M513.89 465.72V468.64C513.893 469.365 514.183 470.059 514.696 470.571C515.21 471.083 515.905 471.37 516.63 471.37H621.24C621.571 471.371 621.9 471.307 622.206 471.181C622.512 471.055 622.791 470.869 623.025 470.635C623.259 470.401 623.445 470.122 623.571 469.816C623.697 469.51 623.761 469.181 623.76 468.85V466.05C623.761 465.719 623.697 465.39 623.571 465.084C623.445 464.778 623.259 464.499 623.025 464.265C622.791 464.031 622.512 463.845 622.206 463.719C621.9 463.593 621.571 463.529 621.24 463.53H595.24C594.545 463.53 593.859 463.378 593.229 463.085C592.599 462.792 592.04 462.364 591.593 461.833C591.145 461.301 590.819 460.679 590.637 460.008C590.455 459.337 590.422 458.635 590.54 457.95L599.67 405.23H540.24L514.8 461.53C514.199 462.845 513.889 464.274 513.89 465.72Z" fill="#263238"/>
<path opacity="0.2" d="M623.76 466V468.82C623.761 469.15 623.697 469.477 623.572 469.782C623.446 470.087 623.261 470.364 623.028 470.598C622.794 470.831 622.517 471.016 622.212 471.142C621.907 471.267 621.58 471.331 621.25 471.33H516.63C515.905 471.33 515.21 471.043 514.696 470.531C514.182 470.019 513.893 469.325 513.89 468.6V465.68C513.887 464.906 513.975 464.134 514.15 463.38C514.303 462.728 514.517 462.092 514.79 461.48L540.24 405.19H599.67L590.54 458C590.477 458.306 590.453 458.618 590.47 458.93C590.494 460.001 590.88 461.032 591.564 461.856C592.249 462.681 593.192 463.249 594.24 463.47C594.567 463.549 594.903 463.585 595.24 463.58H621.24C621.892 463.577 622.52 463.828 622.99 464.28C623.46 464.731 623.737 465.348 623.76 466Z" fill="#FFFDF4"/>
<path d="M511.43 461.53L536.88 405.23H540.24L514.8 461.53C514.199 462.845 513.889 464.274 513.89 465.72V468.64C513.893 469.365 514.183 470.059 514.696 470.571C515.21 471.083 515.905 471.37 516.63 471.37H513.27C512.911 471.371 512.555 471.302 512.222 471.165C511.89 471.028 511.588 470.828 511.333 470.574C511.079 470.32 510.877 470.019 510.739 469.687C510.601 469.355 510.53 468.999 510.53 468.64V465.72C510.53 464.275 510.837 462.847 511.43 461.53Z" fill="#263238"/>
<path opacity="0.3" d="M540.24 405.23H599.66L597.33 418.68H534.16L540.24 405.23Z" fill="black"/>
<path d="M702.73 411.14H449.21C446.687 411.094 444.268 410.126 442.411 408.418C440.554 406.71 439.386 404.38 439.13 401.87L423.13 218.67C423.001 217.49 423.124 216.295 423.492 215.167C423.86 214.038 424.465 213 425.265 212.123C426.066 211.246 427.044 210.55 428.134 210.08C429.225 209.611 430.403 209.379 431.59 209.4H685.08C687.604 209.443 690.024 210.411 691.882 212.12C693.739 213.828 694.906 216.159 695.16 218.67L711.16 401.87C711.289 403.048 711.167 404.24 710.8 405.366C710.434 406.493 709.832 407.529 709.035 408.405C708.238 409.282 707.263 409.979 706.177 410.451C705.09 410.922 703.915 411.157 702.73 411.14Z" fill="#263238"/>
<path d="M709.46 382.06L711.19 401.87C711.32 403.05 711.196 404.244 710.828 405.373C710.46 406.502 709.855 407.54 709.055 408.417C708.255 409.294 707.277 409.99 706.186 410.46C705.095 410.929 703.917 411.161 702.73 411.14H449.21C446.687 411.094 444.268 410.126 442.411 408.418C440.554 406.71 439.386 404.38 439.13 401.87L437.4 382.06H709.46Z" fill="#F19EDC"/>
<path opacity="0.6" d="M709.46 382.06L711.19 401.87C711.32 403.05 711.196 404.244 710.828 405.373C710.46 406.502 709.855 407.54 709.055 408.417C708.255 409.294 707.277 409.99 706.186 410.46C705.095 410.929 703.917 411.161 702.73 411.14H449.21C446.687 411.094 444.268 410.126 442.411 408.418C440.554 406.71 439.386 404.38 439.13 401.87L437.4 382.06H709.46Z" fill="#FFFDF4"/>
<path d="M446.34 376.46H699.53C700.172 376.472 700.808 376.347 701.398 376.095C701.988 375.842 702.518 375.467 702.952 374.994C703.386 374.521 703.714 373.962 703.916 373.352C704.117 372.743 704.187 372.098 704.12 371.46L690.87 220C690.726 218.644 690.092 217.387 689.086 216.466C688.081 215.546 686.773 215.024 685.41 215H432.22C431.578 214.988 430.942 215.112 430.352 215.365C429.762 215.618 429.232 215.993 428.798 216.466C428.364 216.938 428.036 217.498 427.834 218.107C427.633 218.716 427.563 219.362 427.63 220L440.88 371.44C441.019 372.799 441.651 374.061 442.658 374.986C443.664 375.911 444.974 376.435 446.34 376.46Z" fill="#F19EDC"/>
<path opacity="0.6" d="M446.34 376.46H699.53C700.172 376.472 700.808 376.347 701.398 376.095C701.988 375.842 702.518 375.467 702.952 374.994C703.386 374.521 703.714 373.962 703.916 373.352C704.117 372.743 704.187 372.098 704.12 371.46L690.87 220C690.726 218.644 690.092 217.387 689.086 216.466C688.081 215.546 686.773 215.024 685.41 215H432.22C431.578 214.988 430.942 215.112 430.352 215.365C429.762 215.618 429.232 215.993 428.798 216.466C428.364 216.938 428.036 217.498 427.834 218.107C427.633 218.716 427.563 219.362 427.63 220L440.88 371.44C441.019 372.799 441.651 374.061 442.658 374.986C443.664 375.911 444.974 376.435 446.34 376.46Z" fill="#FFFDF4"/>
<path d="M426 209.4H431.61C430.423 209.379 429.245 209.61 428.154 210.08C427.064 210.55 426.086 211.246 425.285 212.123C424.485 213 423.88 214.038 423.512 215.166C423.144 216.295 423.021 217.49 423.15 218.67L439.15 401.87C439.406 404.38 440.574 406.71 442.431 408.418C444.288 410.126 446.707 411.094 449.23 411.14H443.6C441.077 411.094 438.658 410.126 436.801 408.418C434.944 406.71 433.776 404.38 433.52 401.87L417.52 218.67C417.389 217.488 417.511 216.291 417.88 215.16C418.249 214.029 418.855 212.99 419.658 212.112C420.461 211.234 421.442 210.538 422.536 210.07C423.63 209.603 424.811 209.374 426 209.4Z" fill="#F19EDC"/>
<path opacity="0.3" d="M426 209.4H431.61C430.423 209.379 429.245 209.61 428.154 210.08C427.064 210.55 426.086 211.246 425.285 212.123C424.485 213 423.88 214.038 423.512 215.166C423.144 216.295 423.021 217.49 423.15 218.67L439.15 401.87C439.406 404.38 440.574 406.71 442.431 408.418C444.288 410.126 446.707 411.094 449.23 411.14H443.6C441.077 411.094 438.658 410.126 436.801 408.418C434.944 406.71 433.776 404.38 433.52 401.87L417.52 218.67C417.389 217.488 417.511 216.291 417.88 215.16C418.249 214.029 418.855 212.99 419.658 212.112C420.461 211.234 421.442 210.538 422.536 210.07C423.63 209.603 424.811 209.374 426 209.4Z" fill="#FFFDF4"/>
<path opacity="0.2" d="M650.31 343.29H509.62L502.34 260.18H643.04L650.31 343.29Z" fill="#263238"/>
<path d="M592.91 292.56C593.157 294.791 592.924 297.049 592.228 299.183C591.532 301.317 590.389 303.278 588.874 304.934C587.36 306.591 585.509 307.905 583.446 308.789C581.382 309.673 579.154 310.106 576.91 310.06C572.151 309.969 567.591 308.139 564.09 304.915C560.589 301.69 558.391 297.295 557.91 292.56C557.663 290.329 557.896 288.071 558.592 285.937C559.288 283.803 560.431 281.842 561.946 280.186C563.46 278.529 565.311 277.215 567.374 276.331C569.438 275.447 571.666 275.014 573.91 275.06C578.668 275.153 583.227 276.984 586.728 280.208C590.228 283.432 592.427 287.826 592.91 292.56Z" fill="#FFFDF4"/>
<path d="M585.01 293.21L569.7 284.79L571.18 301.62L585.01 293.21Z" fill="#263238"/>
<path d="M647.02 326.98H510.05L509.81 324.28H646.78L647.02 326.98Z" fill="#FFFDF4"/>
<path d="M586.83 326.98H510.05L509.81 324.28H586.59L586.83 326.98Z" fill="#F19EDC"/>
<path d="M512.4 336.97H511.08L510.63 331.78H511.95L512.4 336.97Z" fill="#FFFDF4"/>
<path d="M514.71 336.97H513.39L512.94 331.78H514.26L514.71 336.97Z" fill="#FFFDF4"/>
<path d="M526.58 336.97H521.39L520.94 331.78H526.13L526.58 336.97Z" fill="#FFFDF4"/>
<path d="M533.47 334.37L537.74 331.78L538.19 336.97L533.47 334.37Z" fill="#FFFDF4"/>
<path d="M533.7 336.97H532.37L531.92 331.78H533.24L533.7 336.97Z" fill="#FFFDF4"/>
<path d="M548.05 334.37L543.32 331.78L543.78 336.97L548.05 334.37Z" fill="#FFFDF4"/>
<path d="M548.27 336.97H549.6L549.14 331.78H547.82L548.27 336.97Z" fill="#FFFDF4"/>
<path d="M557.7 331.68L555.38 334.81H560.57L557.7 331.68Z" fill="#FFFDF4"/>
<path d="M560.87 337.07L560.75 335.74H555.37L555.48 337.07H560.87Z" fill="#FFFDF4"/>
<path d="M648 337.39H638L637.46 331.26H647.46L648 337.39ZM638.75 336.54H647.07L646.68 332.11H638.37L638.75 336.54Z" fill="#FFFDF4"/>
<path d="M630.6 337.39H628.57L628.41 335.59L629.26 335.52L629.35 336.54H630.6V337.39Z" fill="#FFFDF4"/>
<path d="M635.09 337.39H633.05V336.54H634.16L634.08 335.59L634.93 335.52L635.09 337.39Z" fill="#FFFDF4"/>
<path d="M633.87 333.21L633.78 332.11H632.59V331.26H634.56L634.72 333.14L633.87 333.21Z" fill="#FFFDF4"/>
<path d="M628.2 333.21L628.03 331.26H630.13V332.11H628.96L629.05 333.14L628.2 333.21Z" fill="#FFFDF4"/>
<g opacity="0.1">
<path d="M631.56 324.29L630.94 326.98L629.86 331.68L628.87 336.01L627.2 343.29H631.35L633.98 331.68L635.05 326.98L635.66 324.29L645.03 282.97" fill="#FFFDF4"/>
<path d="M631.35 343.79H627.21C627.133 343.79 627.058 343.774 626.988 343.741C626.919 343.708 626.858 343.66 626.81 343.6C626.764 343.541 626.732 343.473 626.717 343.4C626.701 343.328 626.702 343.252 626.72 343.18L631.07 324.18C631.101 324.047 631.183 323.932 631.298 323.86C631.413 323.788 631.553 323.764 631.685 323.795C631.818 323.825 631.933 323.907 632.005 324.023C632.077 324.138 632.101 324.277 632.07 324.41L627.86 342.8H631L644.59 282.87C644.605 282.804 644.632 282.742 644.67 282.687C644.709 282.632 644.758 282.585 644.814 282.549C644.871 282.512 644.934 282.488 645 282.476C645.067 282.464 645.135 282.466 645.2 282.48C645.266 282.494 645.328 282.522 645.383 282.56C645.438 282.599 645.485 282.648 645.521 282.704C645.558 282.761 645.582 282.824 645.594 282.89C645.606 282.956 645.605 283.024 645.59 283.09L631.84 343.4C631.813 343.51 631.751 343.608 631.662 343.679C631.573 343.75 631.464 343.789 631.35 343.79Z" fill="#263238"/>
</g>
<path d="M643.04 260.18H502.34L501.69 252.66H642.38L643.04 260.18Z" fill="#F19EDC"/>
<path d="M512.31 256.47C512.344 256.766 512.315 257.067 512.223 257.351C512.132 257.635 511.981 257.896 511.78 258.117C511.579 258.338 511.333 258.513 511.059 258.631C510.785 258.748 510.488 258.806 510.19 258.8C509.557 258.788 508.951 258.544 508.486 258.115C508.022 257.685 507.731 257.1 507.67 256.47C507.639 256.175 507.671 255.876 507.764 255.594C507.856 255.312 508.008 255.052 508.208 254.833C508.409 254.614 508.653 254.44 508.926 254.322C509.198 254.204 509.493 254.145 509.79 254.15C510.421 254.161 511.026 254.404 511.491 254.831C511.955 255.259 512.247 255.842 512.31 256.47Z" fill="#FFFDF4"/>
<path d="M519.27 256.47C519.303 256.766 519.272 257.066 519.18 257.349C519.088 257.633 518.936 257.893 518.736 258.113C518.535 258.334 518.29 258.509 518.017 258.627C517.743 258.746 517.448 258.805 517.15 258.8C516.516 258.791 515.907 258.548 515.44 258.118C514.973 257.688 514.681 257.101 514.62 256.47C514.589 256.175 514.621 255.876 514.713 255.594C514.806 255.312 514.958 255.052 515.158 254.833C515.359 254.614 515.603 254.44 515.876 254.322C516.148 254.204 516.443 254.145 516.74 254.15C517.372 254.163 517.977 254.406 518.442 254.833C518.908 255.26 519.202 255.842 519.27 256.47Z" fill="#FFFDF4"/>
<path d="M526.22 256.47C526.253 256.766 526.222 257.066 526.13 257.349C526.038 257.633 525.887 257.893 525.686 258.113C525.486 258.334 525.24 258.509 524.967 258.627C524.694 258.746 524.398 258.805 524.1 258.8C523.467 258.786 522.861 258.542 522.395 258.113C521.929 257.684 521.636 257.1 521.57 256.47C521.539 256.175 521.571 255.876 521.664 255.594C521.756 255.312 521.908 255.052 522.108 254.833C522.309 254.614 522.553 254.44 522.826 254.322C523.099 254.204 523.393 254.145 523.69 254.15C524.322 254.163 524.927 254.406 525.392 254.833C525.858 255.26 526.152 255.842 526.22 256.47Z" fill="#FFFDF4"/>
<g opacity="0.1">
<path d="M536.59 215H526.85L492.53 376.46H502.27L536.59 215Z" fill="#FFFDF4"/>
<path d="M482.69 376.46L517.01 215H480.42L446.1 376.46H482.69Z" fill="#FFFDF4"/>
</g>
<path opacity="0.2" d="M532 466.06V468.74C532.003 469.438 532.282 470.107 532.777 470.6C533.272 471.093 533.942 471.37 534.64 471.37H621.28C621.61 471.371 621.938 471.307 622.244 471.182C622.549 471.056 622.827 470.872 623.061 470.638C623.295 470.405 623.481 470.128 623.608 469.823C623.735 469.518 623.8 469.19 623.8 468.86V466.05C623.8 465.382 623.535 464.741 623.062 464.268C622.589 463.795 621.948 463.53 621.28 463.53H595.28C594.944 463.531 594.608 463.494 594.28 463.42H534.61C533.915 463.428 533.251 463.709 532.763 464.204C532.274 464.698 532 465.365 532 466.06Z" fill="#FFFDF4"/>
<path opacity="0.2" d="M514.16 463.42H594.25C593.197 463.204 592.248 462.636 591.561 461.809C590.874 460.982 590.489 459.945 590.47 458.87H516.2L514.16 463.42Z" fill="black"/>
<path d="M682.06 292.36H581.96L581.25 284.32H681.36L682.06 292.36Z" fill="#263238"/>
<path d="M592.61 288.4C592.646 288.716 592.614 289.035 592.516 289.338C592.418 289.64 592.256 289.918 592.042 290.153C591.828 290.387 591.567 290.574 591.275 290.699C590.983 290.825 590.668 290.886 590.35 290.88C589.675 290.869 589.026 290.61 588.529 290.153C588.031 289.696 587.719 289.072 587.65 288.4C587.614 288.084 587.647 287.765 587.744 287.463C587.842 287.16 588.004 286.882 588.218 286.648C588.432 286.413 588.693 286.226 588.985 286.101C589.277 285.975 589.592 285.914 589.91 285.92C590.586 285.931 591.234 286.19 591.731 286.647C592.229 287.104 592.542 287.728 592.61 288.4Z" fill="#1E1E1E"/>
<path d="M600 288.4C600.036 288.716 600.003 289.035 599.906 289.338C599.808 289.64 599.646 289.918 599.432 290.153C599.218 290.387 598.957 290.574 598.665 290.699C598.373 290.825 598.058 290.886 597.74 290.88C597.064 290.869 596.416 290.61 595.919 290.153C595.421 289.696 595.108 289.072 595.04 288.4C595.004 288.084 595.036 287.765 595.134 287.463C595.232 287.16 595.394 286.882 595.608 286.648C595.822 286.413 596.083 286.226 596.375 286.101C596.667 285.975 596.982 285.914 597.3 285.92C597.976 285.931 598.624 286.19 599.121 286.647C599.619 287.104 599.932 287.728 600 288.4Z" fill="#1E1E1E"/>
<path d="M607.47 288.4C607.506 288.716 607.474 289.035 607.376 289.338C607.278 289.64 607.117 289.918 606.903 290.153C606.689 290.387 606.427 290.574 606.135 290.699C605.843 290.825 605.528 290.886 605.21 290.88C604.535 290.869 603.887 290.61 603.389 290.153C602.891 289.696 602.579 289.072 602.51 288.4C602.475 288.084 602.507 287.765 602.605 287.463C602.703 287.16 602.864 286.882 603.078 286.648C603.292 286.413 603.554 286.226 603.845 286.101C604.137 285.975 604.453 285.914 604.77 285.92C605.446 285.931 606.094 286.19 606.591 286.647C607.089 287.104 607.402 287.728 607.47 288.4Z" fill="#1E1E1E"/>
<path opacity="0.2" d="M585.1 391.01L576.34 290.91H676.45L685.21 391.01H585.1Z" fill="black"/>
<path d="M690.12 384.43H590.01L581.25 284.32H681.36L690.12 384.43Z" fill="#FCF1FD"/>
<path d="M660.68 342.63C662.19 359.9 651.93 366.9 638.53 366.9C625.13 366.9 613.31 356 612.14 342.63C610.97 329.26 620.34 312.13 633.74 312.13C633.74 312.13 659.29 326.83 660.68 342.63Z" fill="#FCF1FD"/>
<path d="M644.83 345.44C645.13 348.93 642.53 351.26 638.18 351.63L637.86 354.51H635.24L635.56 351.63C633.359 351.475 631.228 350.789 629.35 349.63L630.83 346.38C632.357 347.414 634.116 348.053 635.95 348.24L636.45 343.81C633.95 343.07 631.19 342.1 630.91 338.93C630.6 335.44 633.26 333.08 637.69 332.77L638.01 329.88H640.63L640.31 332.8C642.065 332.929 643.771 333.437 645.31 334.29L644 337.52C642.788 336.767 641.42 336.302 640 336.16L639.49 340.77C641.89 341.48 644.56 342.42 644.83 345.44ZM636.83 340.04L637.25 336.26C635.79 336.55 635.02 337.36 635.08 338.36C635.18 339.17 635.88 339.64 636.86 340L636.83 340.04ZM640.61 346.12C640.54 345.36 639.9 344.89 638.95 344.55L638.56 348.14C640 347.85 640.73 347.12 640.64 346.12H640.61Z" fill="#FCF1FD"/>
<path d="M658.492 341.472C658.925 332.812 651.248 325.391 641.346 324.896C631.443 324.401 623.065 331.019 622.632 339.679C622.199 348.339 629.875 355.761 639.778 356.256C649.68 356.751 658.059 350.132 658.492 341.472Z" fill="#263238"/>
<path d="M621.28 343.57C625.78 351.33 636.57 354.51 645.39 350.67C654.21 346.83 657.71 337.42 653.21 329.67C648.71 321.92 637.91 318.73 629.09 322.57C620.27 326.41 616.78 335.81 621.28 343.57Z" fill="#FCF1FD"/>
<path opacity="0.4" d="M621.28 343.57C625.78 351.33 636.57 354.51 645.39 350.67C654.21 346.83 657.71 337.42 653.21 329.67C648.71 321.92 637.91 318.73 629.09 322.57C620.27 326.41 616.78 335.81 621.28 343.57Z" fill="#1E1E1E"/>
<path d="M625.13 341.58C625.34 341.95 625.59 342.31 625.81 342.64C625.81 342.64 625.81 342.7 625.86 342.72C629.62 347.72 637.06 349.58 643.19 346.91C649.32 344.24 652.08 337.91 649.7 332.34C649.7 332.34 649.64 332.34 649.65 332.26C649.47 331.9 649.29 331.52 649.07 331.15C645.7 325.34 637.59 322.96 630.98 325.84C624.37 328.72 621.76 335.77 625.13 341.58Z" fill="#FCF1FD"/>
<path opacity="0.3" d="M625.81 342.64C625.81 342.64 625.81 342.7 625.86 342.72C629.62 347.72 637.06 349.58 643.19 346.91C649.32 344.24 652.08 337.91 649.7 332.34C649.7 332.34 649.64 332.34 649.65 332.26C645.9 327.26 638.45 325.4 632.28 328.09C626.11 330.78 623.44 337.07 625.81 342.64Z" fill="#1E1E1E"/>
<g opacity="0.4">
<path d="M641.93 339.39C642.33 341.69 640.75 343.23 637.93 343.47L637.88 345.37H636.15L636.2 343.47C634.711 343.365 633.269 342.909 631.99 342.14L632.77 340C633.818 340.674 635.01 341.092 636.25 341.22L636.33 338.3C634.64 337.82 632.76 337.18 632.39 335.08C631.99 332.78 633.6 331.23 636.51 331.02V329.12H638.24V331.04C639.412 331.145 640.552 331.485 641.59 332.04L640.92 334.19C640.082 333.697 639.147 333.39 638.18 333.29L638.11 336.29C639.76 336.78 641.58 337.4 641.93 339.39ZM636.36 335.83L636.43 333.34C635.43 333.53 635.01 334.06 635.11 334.72C635.21 335.38 635.69 335.57 636.36 335.83ZM639.21 339.83C639.12 339.33 638.67 339.02 638.02 338.83V341.2C638.87 341 639.32 340.5 639.21 339.84V339.83Z" fill="#1E1E1E"/>
</g>
<path d="M622.99 310.794C622.267 310.794 621.59 310.678 620.959 310.447C620.328 310.215 619.765 309.89 619.272 309.47C618.786 309.042 618.393 308.545 618.093 307.98C617.792 307.415 617.612 306.794 617.551 306.117C617.49 305.44 617.559 304.819 617.757 304.254C617.956 303.689 618.26 303.196 618.669 302.776C619.086 302.348 619.59 302.018 620.18 301.787C620.769 301.556 621.426 301.44 622.148 301.44C622.879 301.44 623.556 301.556 624.179 301.787C624.81 302.018 625.369 302.348 625.854 302.776C626.339 303.196 626.732 303.689 627.032 304.254C627.341 304.819 627.526 305.44 627.587 306.117C627.648 306.794 627.575 307.419 627.369 307.993C627.17 308.558 626.866 309.051 626.457 309.47C626.047 309.89 625.548 310.215 624.958 310.447C624.377 310.678 623.721 310.794 622.99 310.794ZM622.8 308.686C623.144 308.686 623.457 308.627 623.739 308.507C624.029 308.387 624.271 308.215 624.466 307.993C624.669 307.761 624.816 307.487 624.908 307.17C625.009 306.853 625.042 306.502 625.007 306.117C624.971 305.723 624.875 305.372 624.719 305.063C624.57 304.746 624.373 304.477 624.13 304.254C623.894 304.023 623.62 303.847 623.308 303.727C623.005 303.607 622.682 303.547 622.338 303.547C621.994 303.547 621.676 303.607 621.386 303.727C621.105 303.847 620.862 304.023 620.66 304.254C620.465 304.477 620.317 304.746 620.217 305.063C620.124 305.372 620.095 305.723 620.131 306.117C620.165 306.502 620.257 306.853 620.406 307.17C620.564 307.487 620.76 307.761 620.996 307.993C621.24 308.215 621.513 308.387 621.816 308.507C622.128 308.627 622.456 308.686 622.8 308.686ZM633.13 303.534C633.672 303.534 634.172 303.646 634.631 303.868C635.088 304.083 635.462 304.417 635.753 304.871C636.052 305.325 636.233 305.911 636.298 306.631L636.657 310.614H634.206L633.883 307.029C633.838 306.532 633.703 306.173 633.476 305.95C633.258 305.719 632.968 305.603 632.607 305.603C632.349 305.603 632.117 305.663 631.913 305.783C631.708 305.894 631.556 306.07 631.458 306.31C631.359 306.549 631.327 306.862 631.361 307.247L631.664 310.614H629.213L628.587 303.65H630.921L631.1 305.629L630.596 305.05C630.817 304.545 631.149 304.168 631.591 303.92C632.032 303.663 632.545 303.534 633.13 303.534ZM638.195 310.614L637.337 301.08H639.788L640.646 310.614H638.195ZM643.674 313.222C643.304 313.222 642.924 313.162 642.535 313.042C642.155 312.931 641.841 312.781 641.592 312.592L642.289 310.883C642.447 311.012 642.624 311.11 642.819 311.179C643.024 311.256 643.221 311.295 643.41 311.295C643.677 311.295 643.882 311.235 644.026 311.115C644.17 310.995 644.286 310.806 644.375 310.549L644.625 309.74L644.796 309.496L646.644 303.65H648.978L646.612 310.896C646.425 311.496 646.188 311.963 645.9 312.297C645.621 312.639 645.294 312.879 644.919 313.016C644.553 313.153 644.138 313.222 643.674 313.222ZM644.42 310.909L640.684 303.65H643.199L645.976 309.277L644.42 310.909Z" fill="#1E1E1E"/>
<path d="M612.203 370.039L611.683 364.255L612.535 365.009H610.55L610.424 363.602H613.452L614.032 370.039H612.203ZM617.619 370.168C617.09 370.168 616.573 370.103 616.069 369.975C615.57 369.84 615.158 369.668 614.831 369.46L615.311 368.117C615.617 368.301 615.963 368.454 616.349 368.577C616.741 368.693 617.125 368.751 617.501 368.751C617.753 368.751 617.954 368.73 618.104 368.687C618.254 368.638 618.359 368.577 618.42 368.503C618.487 368.424 618.516 368.332 618.506 368.227C618.493 368.08 618.415 367.964 618.272 367.878C618.128 367.792 617.947 367.722 617.726 367.666C617.506 367.611 617.261 367.556 616.991 367.501C616.728 367.446 616.46 367.375 616.187 367.289C615.921 367.203 615.674 367.093 615.447 366.958C615.218 366.817 615.027 366.636 614.871 366.416C614.716 366.189 614.622 365.904 614.591 365.56C614.557 365.174 614.63 364.825 614.811 364.512C614.998 364.199 615.296 363.948 615.703 363.758C616.111 363.568 616.632 363.473 617.266 363.473C617.69 363.473 618.11 363.522 618.525 363.62C618.946 363.712 619.325 363.85 619.662 364.034L619.22 365.386C618.897 365.22 618.582 365.098 618.273 365.018C617.963 364.932 617.667 364.889 617.384 364.889C617.132 364.889 616.931 364.917 616.782 364.972C616.633 365.021 616.528 365.088 616.468 365.174C616.408 365.26 616.383 365.358 616.393 365.468C616.405 365.609 616.48 365.723 616.617 365.809C616.76 365.888 616.941 365.956 617.162 366.011C617.388 366.06 617.633 366.112 617.896 366.167C618.166 366.223 618.434 366.293 618.7 366.379C618.972 366.459 619.222 366.569 619.45 366.71C619.677 366.845 619.866 367.026 620.016 367.253C620.171 367.473 620.264 367.752 620.294 368.089C620.328 368.463 620.251 368.81 620.065 369.129C619.883 369.441 619.589 369.693 619.181 369.883C618.78 370.073 618.259 370.168 617.619 370.168ZM617.319 371.143L617.201 369.827H618.309L618.427 371.143H617.319ZM616.658 363.804L616.541 362.498H617.649L617.766 363.804H616.658ZM620.409 370.959L622.676 362.296H624.237L621.969 370.959H620.409ZM630.549 364.972C630.937 364.972 631.289 365.052 631.605 365.211C631.926 365.364 632.188 365.603 632.389 365.928C632.597 366.253 632.724 366.673 632.771 367.188L633.027 370.039H631.273L631.042 367.473C631.01 367.118 630.919 366.86 630.769 366.701C630.619 366.535 630.427 366.452 630.193 366.452C630.027 366.452 629.879 366.492 629.751 366.572C629.623 366.652 629.529 366.774 629.47 366.94C629.411 367.099 629.393 367.308 629.416 367.565L629.638 370.039H627.884L627.653 367.473C627.621 367.118 627.53 366.86 627.381 366.701C627.236 366.535 627.044 366.452 626.804 366.452C626.632 366.452 626.482 366.492 626.353 366.572C626.231 366.652 626.138 366.774 626.072 366.94C626.013 367.099 625.995 367.308 626.018 367.565L626.241 370.039H624.486L624.038 365.055H625.709L625.834 366.443L625.466 366.048C625.619 365.692 625.847 365.426 626.151 365.248C626.455 365.064 626.803 364.972 627.197 364.972C627.647 364.972 628.051 365.088 628.411 365.321C628.776 365.548 629.039 365.904 629.199 366.388L628.616 366.269C628.758 365.864 628.997 365.548 629.334 365.321C629.676 365.088 630.081 364.972 630.549 364.972ZM636.716 370.122C636.169 370.122 635.672 370.011 635.228 369.791C634.783 369.57 634.42 369.266 634.139 368.88C633.864 368.488 633.704 368.04 633.658 367.538C633.613 367.035 633.693 366.59 633.899 366.204C634.11 365.818 634.418 365.518 634.824 365.303C635.229 365.082 635.705 364.972 636.253 364.972C636.801 364.972 637.297 365.082 637.742 365.303C638.192 365.518 638.554 365.818 638.829 366.204C639.104 366.59 639.264 367.035 639.309 367.538C639.355 368.04 639.275 368.488 639.07 368.88C638.865 369.266 638.557 369.57 638.146 369.791C637.741 370.011 637.264 370.122 636.716 370.122ZM636.591 368.733C636.795 368.733 636.969 368.687 637.115 368.595C637.266 368.503 637.38 368.368 637.457 368.191C637.533 368.007 637.559 367.789 637.536 367.538C637.514 367.286 637.449 367.075 637.341 366.903C637.233 366.725 637.094 366.59 636.926 366.498C636.764 366.406 636.581 366.36 636.378 366.36C636.181 366.36 636.007 366.406 635.855 366.498C635.709 366.59 635.595 366.725 635.513 366.903C635.436 367.075 635.409 367.286 635.431 367.538C635.454 367.789 635.52 368.007 635.629 368.191C635.743 368.368 635.881 368.503 636.043 368.595C636.212 368.687 636.394 368.733 636.591 368.733ZM643.15 364.972C643.538 364.972 643.896 365.052 644.225 365.211C644.552 365.364 644.82 365.603 645.028 365.928C645.242 366.253 645.372 366.673 645.418 367.188L645.675 370.039H643.92L643.689 367.473C643.657 367.118 643.56 366.86 643.398 366.701C643.242 366.535 643.034 366.452 642.776 366.452C642.591 366.452 642.426 366.495 642.28 366.581C642.133 366.661 642.024 366.787 641.953 366.958C641.883 367.13 641.86 367.354 641.885 367.63L642.101 370.039H640.347L639.898 365.055H641.57L641.697 366.471L641.337 366.057C641.495 365.695 641.732 365.426 642.049 365.248C642.365 365.064 642.732 364.972 643.15 364.972ZM649.018 370.122C648.378 370.122 647.865 369.965 647.48 369.653C647.094 369.334 646.873 368.856 646.815 368.218L646.431 363.942H648.185L648.568 368.2C648.584 368.378 648.646 368.519 648.754 368.623C648.861 368.721 648.992 368.77 649.146 368.77C649.355 368.77 649.529 368.718 649.667 368.614L650.211 369.837C650.072 369.935 649.897 370.005 649.685 370.048C649.474 370.097 649.252 370.122 649.018 370.122ZM645.935 366.544L645.818 365.239H649.447L649.564 366.544H645.935ZM653.709 364.972C654.097 364.972 654.455 365.052 654.783 365.211C655.111 365.364 655.379 365.603 655.587 365.928C655.801 366.253 655.931 366.673 655.977 367.188L656.234 370.039H654.479L654.248 367.473C654.216 367.118 654.119 366.86 653.957 366.701C653.801 366.535 653.593 366.452 653.335 366.452C653.15 366.452 652.985 366.495 652.838 366.581C652.692 366.661 652.583 366.787 652.512 366.958C652.442 367.13 652.419 367.354 652.443 367.63L652.66 370.039H650.906L650.292 363.215H652.046L652.339 366.471L651.896 366.057C652.054 365.695 652.291 365.426 652.608 365.248C652.923 365.064 653.291 364.972 653.709 364.972ZM659.94 367.694L659.23 363.602H661.317L661.335 367.694H659.94ZM660.861 370.122C660.553 370.122 660.292 370.027 660.078 369.837C659.864 369.647 659.745 369.42 659.721 369.156C659.697 368.886 659.775 368.663 659.956 368.485C660.136 368.301 660.381 368.209 660.688 368.209C660.996 368.209 661.254 368.301 661.461 368.485C661.674 368.663 661.793 368.886 661.817 369.156C661.841 369.42 661.763 369.647 661.583 369.837C661.409 370.027 661.168 370.122 660.861 370.122ZM662.717 367.694L662.008 363.602H664.094L664.112 367.694H662.717ZM663.638 370.122C663.33 370.122 663.069 370.027 662.855 369.837C662.641 369.647 662.522 369.42 662.498 369.156C662.474 368.886 662.552 368.663 662.733 368.485C662.914 368.301 663.158 368.209 663.466 368.209C663.773 368.209 664.031 368.301 664.238 368.485C664.451 368.663 664.57 368.886 664.594 369.156C664.618 369.42 664.54 369.647 664.36 369.837C664.186 370.027 663.946 370.122 663.638 370.122ZM665.495 367.694L664.785 363.602H666.872L666.889 367.694H665.495ZM666.415 370.122C666.107 370.122 665.846 370.027 665.632 369.837C665.418 369.647 665.299 369.42 665.275 369.156C665.251 368.886 665.33 368.663 665.51 368.485C665.691 368.301 665.935 368.209 666.243 368.209C666.551 368.209 666.808 368.301 667.016 368.485C667.229 368.663 667.347 368.886 667.371 369.156C667.395 369.42 667.317 369.647 667.137 369.837C666.963 370.027 666.723 370.122 666.415 370.122Z" fill="#1E1E1E"/>
<path d="M682.06 291.81H581.96L581.25 283.77H681.36L682.06 291.81Z" fill="#263238"/>
<path d="M592.61 287.85C592.646 288.166 592.614 288.485 592.516 288.788C592.418 289.09 592.256 289.368 592.042 289.603C591.828 289.837 591.567 290.024 591.275 290.149C590.983 290.275 590.668 290.336 590.35 290.33C589.675 290.319 589.026 290.06 588.529 289.603C588.031 289.146 587.719 288.522 587.65 287.85C587.614 287.534 587.647 287.215 587.744 286.912C587.842 286.61 588.004 286.332 588.218 286.098C588.432 285.863 588.693 285.676 588.985 285.551C589.277 285.425 589.592 285.364 589.91 285.37C590.586 285.381 591.234 285.64 591.731 286.097C592.229 286.554 592.542 287.178 592.61 287.85Z" fill="#1E1E1E"/>
<path d="M600 287.85C600.036 288.166 600.003 288.485 599.906 288.788C599.808 289.09 599.646 289.368 599.432 289.603C599.218 289.837 598.957 290.024 598.665 290.149C598.373 290.275 598.058 290.336 597.74 290.33C597.064 290.319 596.416 290.06 595.919 289.603C595.421 289.146 595.108 288.522 595.04 287.85C595.004 287.534 595.036 287.215 595.134 286.912C595.232 286.61 595.394 286.332 595.608 286.098C595.822 285.863 596.083 285.676 596.375 285.551C596.667 285.425 596.982 285.364 597.3 285.37C597.976 285.381 598.624 285.64 599.121 286.097C599.619 286.554 599.932 287.178 600 287.85Z" fill="#1E1E1E"/>
<path d="M607.47 287.85C607.506 288.166 607.474 288.485 607.376 288.788C607.278 289.09 607.117 289.368 606.903 289.603C606.689 289.837 606.427 290.024 606.135 290.149C605.843 290.275 605.528 290.336 605.21 290.33C604.535 290.319 603.887 290.06 603.389 289.603C602.891 289.146 602.579 288.522 602.51 287.85C602.475 287.534 602.507 287.215 602.605 286.912C602.703 286.61 602.864 286.332 603.078 286.098C603.292 285.863 603.554 285.676 603.845 285.551C604.137 285.425 604.453 285.364 604.77 285.37C605.446 285.381 606.094 285.64 606.591 286.097C607.089 286.554 607.402 287.178 607.47 287.85Z" fill="#1E1E1E"/>
<path opacity="0.2" d="M586.5 271.34L578.31 177.68H671.98L680.17 271.34H586.5Z" fill="black"/>
<path d="M684.77 265.19H591.1L582.91 171.52H676.57L684.77 265.19Z" fill="#FCF1FD"/>
<path d="M625.19 199.21L620.73 192C620.73 192 623.2 186.71 626.73 186.52C630.26 186.33 634.23 189.45 634.23 189.45L638.57 187.57L636.29 200.3C636.29 200.3 630.52 205.29 625.19 199.21Z" fill="#1E1E1E"/>
<path d="M657.22 226.08C658.63 242.23 649.04 248.78 636.5 248.78C630.321 248.67 624.396 246.3 619.846 242.117C615.297 237.934 612.438 232.228 611.81 226.08C610.71 213.54 619.48 197.54 632.02 197.54C632 197.54 655.93 211.29 657.22 226.08Z" fill="#FCF1FD"/>
<path d="M657.22 226.08C658.63 242.23 649.04 248.78 636.5 248.78C630.321 248.67 624.396 246.3 619.846 242.117C615.297 237.934 612.438 232.228 611.81 226.08C610.71 213.54 619.48 197.54 632.02 197.54C632 197.54 655.93 211.29 657.22 226.08Z" fill="#1E1E1E"/>
<path d="M643 227.7C644.14 230.97 642.28 233.15 638.3 233.49L638.7 236.19H636.25L635.85 233.49C633.637 233.314 631.486 232.669 629.54 231.6L630.12 228.6C631.726 229.547 633.516 230.14 635.37 230.34L634.75 226.2C632.23 225.51 629.41 224.6 628.37 221.63C627.23 218.37 629.13 216.16 633.2 215.87L632.79 213.17H635.25L635.66 215.89C637.399 216.045 639.094 216.519 640.66 217.29L640.23 220.29C638.961 219.599 637.567 219.168 636.13 219.02L636.78 223.34C639.29 224 642 224.88 643 227.7ZM634.21 222.7L633.69 219.17C632.38 219.44 631.86 220.17 632.16 221.17C632.45 221.84 633.22 222.28 634.23 222.65L634.21 222.7ZM639.21 228.39C639.024 228.012 638.753 227.683 638.418 227.428C638.083 227.173 637.694 226.999 637.28 226.92L637.79 230.28C639.07 230 639.59 229.27 639.26 228.34L639.21 228.39Z" fill="#FCF1FD"/>
<path opacity="0.1" d="M633.56 199.76C632.71 196.99 631.95 194.19 631.11 191.42C630.659 191.039 630.129 190.762 629.559 190.61C628.988 190.458 628.391 190.434 627.81 190.54C627.284 190.658 626.798 190.914 626.403 191.281C626.008 191.648 625.717 192.114 625.56 192.63C626.327 194.982 627.371 197.235 628.67 199.34C628.93 198.982 629.282 198.7 629.688 198.524C630.095 198.348 630.541 198.284 630.98 198.34C631.487 198.378 631.979 198.525 632.424 198.77C632.869 199.015 633.257 199.353 633.56 199.76Z" fill="black"/>
<path opacity="0.1" d="M634.67 198.78C635.04 196.65 635.22 194.4 635.6 192.27C635.14 192.51 634.81 192.74 634.36 192.98C634.3 194.61 633.92 198.53 634.04 198.77" fill="black"/>
<path d="M677.23 179.04H583.56L582.91 171.52H676.57L677.23 179.04Z" fill="#263238"/>
<path d="M593.53 175.33C593.564 175.625 593.535 175.924 593.444 176.207C593.353 176.49 593.203 176.75 593.003 176.97C592.803 177.19 592.558 177.364 592.285 177.482C592.012 177.599 591.717 177.656 591.42 177.65C590.787 177.641 590.18 177.4 589.713 176.972C589.247 176.544 588.954 175.96 588.89 175.33C588.858 175.035 588.888 174.736 588.98 174.453C589.071 174.171 589.221 173.911 589.421 173.69C589.62 173.47 589.864 173.295 590.136 173.176C590.409 173.057 590.703 172.997 591 173C591.635 173.009 592.243 173.252 592.71 173.682C593.177 174.112 593.469 174.699 593.53 175.33Z" fill="#1E1E1E"/>
<path d="M600.49 175.33C600.521 175.625 600.489 175.924 600.397 176.206C600.304 176.488 600.152 176.748 599.952 176.967C599.752 177.186 599.507 177.36 599.234 177.478C598.962 177.596 598.667 177.655 598.37 177.65C597.737 177.641 597.13 177.4 596.663 176.972C596.197 176.544 595.904 175.96 595.84 175.33C595.807 175.03 595.839 174.727 595.933 174.441C596.027 174.155 596.182 173.892 596.387 173.671C596.592 173.45 596.842 173.276 597.121 173.16C597.399 173.044 597.699 172.99 598 173C598.626 173.023 599.223 173.272 599.681 173.7C600.138 174.128 600.426 174.707 600.49 175.33Z" fill="#1E1E1E"/>
<path d="M607.44 175.33C607.471 175.625 607.439 175.924 607.347 176.206C607.254 176.488 607.102 176.748 606.902 176.967C606.702 177.186 606.457 177.36 606.184 177.478C605.912 177.596 605.617 177.654 605.32 177.65C604.689 177.637 604.083 177.394 603.618 176.967C603.152 176.54 602.858 175.958 602.79 175.33C602.759 175.035 602.791 174.736 602.884 174.454C602.976 174.172 603.128 173.912 603.328 173.693C603.529 173.474 603.773 173.3 604.046 173.182C604.319 173.064 604.613 173.006 604.91 173.01C605.542 173.021 606.149 173.263 606.615 173.691C607.081 174.118 607.374 174.701 607.44 175.33Z" fill="#1E1E1E"/>
<g opacity="0.2">
<path d="M560.9 411.51H455.25L441.47 254.04H547.12L560.9 411.51Z" fill="black"/>
</g>
<path d="M567.44 403.16H461.79L448.02 245.69H553.66L567.44 403.16Z" fill="#FCF1FD"/>
<g opacity="0.1">
<path d="M567.44 403.16H461.79L448.02 245.69H553.66L567.44 403.16Z" fill="#FFFDF4"/>
</g>
<path d="M505.29 290.15L516.43 277.56L522.23 294.59L538.7 289.82L535.41 306.73L552.8 311.05L541.3 323.31L554.94 335.56L538.31 339.88L544.56 356.79L527.26 352.02L524.43 369.05L511.09 356.46L499.95 369.05L494.15 352.02L477.68 356.79L480.97 339.88L463.58 335.56L475.09 323.31L461.44 311.05L478.07 306.73L471.82 289.82L489.13 294.59L491.95 277.56L505.29 290.15Z" fill="#1E1E1E"/>
<path d="M496.4 314.28C496.89 314.72 497.266 315.271 497.497 315.887C497.729 316.503 497.809 317.166 497.73 317.82C497.668 318.759 497.354 319.665 496.82 320.44C496.233 321.266 495.43 321.916 494.5 322.32C493.344 322.825 492.091 323.068 490.83 323.03C489.735 323.035 488.644 322.887 487.59 322.59C486.639 322.348 485.743 321.928 484.95 321.35L486.59 318.56C487.188 319.028 487.865 319.383 488.59 319.61C489.367 319.87 490.181 320.002 491 320C491.77 320.036 492.534 319.848 493.2 319.46C493.458 319.3 493.674 319.081 493.829 318.819C493.984 318.558 494.074 318.263 494.09 317.96C494.131 317.664 494.085 317.362 493.96 317.091C493.834 316.819 493.633 316.59 493.38 316.43C492.505 316.012 491.536 315.833 490.57 315.91H486.57L488 307.07H497.59L497.38 309.99H490.82L490.37 312.99H491.65C493.823 312.996 495.407 313.426 496.4 314.28Z" fill="#FCF1FD"/>
<path d="M502.16 322.07C501.16 321.383 500.395 320.406 499.97 319.27C499.458 317.877 499.27 316.386 499.42 314.91C499.494 313.387 499.893 311.897 500.59 310.54C501.188 309.392 502.082 308.425 503.18 307.74C504.248 307.084 505.477 306.737 506.73 306.74C507.941 306.725 509.129 307.073 510.14 307.74C511.14 308.426 511.905 309.404 512.33 310.54C512.845 311.935 513.037 313.43 512.89 314.91C512.813 316.431 512.411 317.918 511.71 319.27C511.115 320.42 510.22 321.388 509.12 322.07C508.053 322.727 506.823 323.074 505.57 323.07C504.359 323.084 503.172 322.735 502.16 322.07ZM508.16 318.72C508.859 317.571 509.236 316.255 509.25 314.91C509.443 313.61 509.252 312.282 508.7 311.09C508.489 310.702 508.174 310.381 507.791 310.162C507.408 309.943 506.971 309.835 506.53 309.85C506.071 309.849 505.619 309.962 505.214 310.178C504.809 310.395 504.464 310.708 504.21 311.09C503.5 312.238 503.123 313.56 503.12 314.91C502.928 316.206 503.119 317.531 503.67 318.72C503.874 319.107 504.184 319.428 504.562 319.647C504.94 319.867 505.373 319.975 505.81 319.96C506.271 319.962 506.724 319.849 507.131 319.633C507.538 319.417 507.884 319.103 508.14 318.72H508.16Z" fill="#FCF1FD"/>
<path d="M515.52 314.36C515.173 313.917 514.917 313.41 514.767 312.867C514.618 312.325 514.578 311.758 514.65 311.2C514.685 310.025 515.152 308.904 515.96 308.05C516.338 307.664 516.792 307.361 517.292 307.158C517.793 306.955 518.33 306.857 518.87 306.87C519.383 306.846 519.896 306.939 520.367 307.144C520.839 307.348 521.257 307.658 521.59 308.05C521.935 308.492 522.187 308.998 522.333 309.539C522.479 310.08 522.516 310.645 522.44 311.2C522.411 312.378 521.948 313.503 521.14 314.36C520.764 314.743 520.314 315.044 519.817 315.246C519.32 315.447 518.786 315.544 518.25 315.53C517.736 315.554 517.224 315.46 516.751 315.258C516.278 315.055 515.857 314.748 515.52 314.36ZM519.63 313.07C519.993 312.513 520.191 311.865 520.2 311.2C520.291 310.563 520.183 309.913 519.89 309.34C519.773 309.141 519.604 308.977 519.402 308.867C519.199 308.756 518.971 308.702 518.74 308.71C518.497 308.708 518.257 308.766 518.041 308.877C517.825 308.989 517.639 309.151 517.5 309.35C517.13 309.897 516.929 310.54 516.92 311.2C516.826 311.835 516.938 312.483 517.24 313.05C517.354 313.25 517.521 313.415 517.721 313.528C517.922 313.641 518.15 313.697 518.38 313.69C518.623 313.694 518.863 313.64 519.08 313.532C519.298 313.424 519.486 313.266 519.63 313.07ZM528.22 307.07H530.89L519 322.76H516.33L528.22 307.07ZM526.42 322.44C525.848 322.076 525.401 321.546 525.14 320.92C524.85 320.194 524.736 319.409 524.81 318.63C524.856 317.827 525.082 317.044 525.47 316.34C525.821 315.717 526.335 315.202 526.957 314.849C527.579 314.497 528.285 314.321 529 314.34C529.516 314.315 530.032 314.409 530.506 314.613C530.981 314.818 531.403 315.128 531.74 315.52C532.088 315.96 532.344 316.466 532.492 317.007C532.64 317.548 532.677 318.114 532.6 318.67C532.569 319.846 532.103 320.969 531.29 321.82C530.914 322.206 530.462 322.51 529.963 322.713C529.464 322.916 528.929 323.014 528.39 323C527.691 323 527.007 322.798 526.42 322.42V322.44ZM529.77 320.44C530.132 319.89 530.33 319.248 530.34 318.59C530.425 317.956 530.317 317.312 530.03 316.74C529.914 316.537 529.745 316.37 529.54 316.257C529.335 316.144 529.104 316.09 528.87 316.1C528.63 316.1 528.393 316.156 528.179 316.266C527.965 316.376 527.78 316.535 527.64 316.73C527.269 317.28 527.067 317.927 527.06 318.59C526.964 319.228 527.076 319.881 527.38 320.45C527.495 320.648 527.662 320.811 527.863 320.922C528.064 321.033 528.291 321.088 528.52 321.08C528.763 321.087 529.004 321.033 529.222 320.925C529.44 320.817 529.628 320.658 529.77 320.46V320.44Z" fill="#FCF1FD"/>
<path d="M488.43 345.17C487.207 344.51 486.208 343.5 485.56 342.27C484.893 340.987 484.608 339.54 484.74 338.1C484.832 336.613 485.319 335.177 486.15 333.94C486.975 332.704 488.104 331.701 489.43 331.03C490.821 330.34 492.358 329.997 493.91 330.03C495.416 329.983 496.908 330.327 498.24 331.03C499.458 331.701 500.456 332.712 501.11 333.94C501.781 335.218 502.069 336.662 501.94 338.1C501.843 339.591 501.353 341.03 500.52 342.27C499.688 343.497 498.56 344.494 497.24 345.17C495.856 345.886 494.318 346.25 492.76 346.23C491.249 346.262 489.756 345.896 488.43 345.17ZM495.54 342.49C496.316 342.073 496.968 341.459 497.43 340.71C497.92 339.923 498.202 339.025 498.25 338.1C498.336 337.209 498.18 336.311 497.8 335.5C497.443 334.754 496.872 334.131 496.16 333.71C495.409 333.278 494.556 333.057 493.69 333.07C492.8 333.064 491.922 333.285 491.14 333.71C490.367 334.135 489.716 334.751 489.25 335.5C488.757 336.282 488.471 337.177 488.42 338.1C488.336 338.995 488.495 339.897 488.88 340.71C489.231 341.454 489.799 342.075 490.51 342.49C491.259 342.926 492.114 343.148 492.98 343.13C493.874 343.14 494.756 342.92 495.54 342.49Z" fill="#FCF1FD"/>
<path d="M508.66 333.16L508.37 337.32H515.64L515.43 340.24H508.16L507.75 345.96H504.12L505.23 330.24H517.11L516.9 333.16H508.66Z" fill="#FCF1FD"/>
<path d="M523 333.16L522.7 337.32H530L529.79 340.24H522.52L522.1 346H518.46L519.58 330.28H531.45L531.25 333.2L523 333.16Z" fill="#FCF1FD"/>
<path d="M554.59 256.23H448.92L448 245.69H553.66L554.59 256.23Z" fill="#263238"/>
<path d="M462.89 251C462.936 251.417 462.892 251.839 462.761 252.237C462.63 252.635 462.415 253.001 462.131 253.309C461.846 253.617 461.499 253.86 461.112 254.023C460.726 254.185 460.309 254.263 459.89 254.25C459.006 254.233 458.159 253.893 457.509 253.294C456.859 252.695 456.45 251.879 456.36 251C456.314 250.583 456.358 250.161 456.489 249.762C456.62 249.363 456.835 248.997 457.119 248.688C457.403 248.379 457.75 248.135 458.137 247.971C458.523 247.808 458.94 247.729 459.36 247.74C460.245 247.758 461.093 248.099 461.744 248.7C462.394 249.301 462.802 250.119 462.89 251Z" fill="#FFFDF4"/>
<path d="M472.64 251C472.686 251.417 472.642 251.839 472.511 252.237C472.38 252.635 472.165 253.001 471.881 253.309C471.596 253.617 471.249 253.86 470.862 254.023C470.476 254.185 470.059 254.263 469.64 254.25C468.755 254.233 467.907 253.893 467.255 253.295C466.603 252.696 466.192 251.88 466.1 251C466.054 250.583 466.098 250.161 466.229 249.762C466.36 249.363 466.575 248.997 466.859 248.688C467.143 248.379 467.49 248.135 467.877 247.971C468.263 247.808 468.68 247.729 469.1 247.74C469.986 247.757 470.836 248.099 471.488 248.699C472.14 249.3 472.55 250.118 472.64 251Z" fill="#FFFDF4"/>
<path d="M482.39 251C482.436 251.417 482.392 251.839 482.261 252.237C482.13 252.635 481.915 253.001 481.631 253.309C481.346 253.617 480.999 253.86 480.612 254.023C480.226 254.185 479.809 254.263 479.39 254.25C478.504 254.235 477.655 253.896 477.003 253.297C476.35 252.698 475.94 251.881 475.85 251C475.804 250.583 475.848 250.161 475.979 249.762C476.11 249.363 476.325 248.997 476.609 248.688C476.893 248.379 477.24 248.135 477.627 247.971C478.013 247.808 478.43 247.729 478.85 247.74C479.736 247.757 480.586 248.099 481.238 248.699C481.89 249.3 482.3 250.118 482.39 251Z" fill="#FFFDF4"/>
<path opacity="0.2" d="M590.86 233.02H439.87L437.81 209.4H588.8L590.86 233.02Z" fill="black"/>
<path d="M595.96 226.9H444.96L437.25 138.69H588.25L595.96 226.9Z" fill="#FCF1FD"/>
<path opacity="0.1" d="M595.96 226.9H444.96L437.25 138.69H588.25L595.96 226.9Z" fill="#FFFDF4"/>
<path d="M588.86 145.75H437.87L437.25 138.69H588.25L588.86 145.75Z" fill="#263238"/>
<path d="M447.25 142.27C447.275 142.547 447.242 142.827 447.153 143.091C447.063 143.354 446.92 143.597 446.732 143.802C446.544 144.007 446.314 144.171 446.059 144.282C445.804 144.394 445.528 144.451 445.25 144.45C444.656 144.441 444.087 144.213 443.65 143.811C443.213 143.409 442.939 142.861 442.88 142.27C442.855 141.992 442.888 141.713 442.977 141.449C443.066 141.185 443.21 140.943 443.398 140.738C443.586 140.533 443.815 140.369 444.071 140.257C444.326 140.146 444.601 140.089 444.88 140.09C445.473 140.101 446.041 140.329 446.478 140.731C446.914 141.132 447.189 141.68 447.25 142.27Z" fill="#FFFDF4"/>
<path d="M453.78 142.27C453.805 142.547 453.772 142.827 453.683 143.091C453.593 143.354 453.45 143.597 453.262 143.802C453.074 144.007 452.844 144.171 452.589 144.282C452.334 144.394 452.058 144.451 451.78 144.45C451.186 144.441 450.617 144.213 450.18 143.811C449.743 143.409 449.469 142.861 449.41 142.27C449.385 141.992 449.418 141.713 449.507 141.449C449.596 141.185 449.74 140.943 449.928 140.738C450.116 140.533 450.345 140.369 450.601 140.257C450.856 140.146 451.131 140.089 451.41 140.09C452.004 140.097 452.575 140.324 453.012 140.726C453.45 141.128 453.723 141.678 453.78 142.27Z" fill="#FFFDF4"/>
<path d="M460.32 142.27C460.345 142.547 460.312 142.827 460.223 143.091C460.134 143.354 459.99 143.597 459.802 143.802C459.614 144.007 459.385 144.171 459.129 144.282C458.874 144.394 458.599 144.451 458.32 144.45C457.734 144.431 457.176 144.199 456.749 143.797C456.322 143.396 456.056 142.853 456 142.27C455.975 141.992 456.008 141.713 456.097 141.449C456.187 141.185 456.33 140.943 456.518 140.738C456.706 140.533 456.936 140.369 457.191 140.257C457.446 140.146 457.722 140.089 458 140.09C458.585 140.111 459.142 140.344 459.569 140.745C459.996 141.146 460.262 141.687 460.32 142.27Z" fill="#FFFDF4"/>
<path d="M547.44 158.89L553.49 152.05L556.64 161.3L565.59 158.71L563.8 167.89L573.25 170.24L567 176.9L574.41 183.56L565.38 185.9L568.77 195.09L559.37 192.5L557.84 201.75L550.59 194.91L544.54 201.75L541.39 192.5L532.44 195.09L534.23 185.9L524.78 183.56L531.03 176.9L523.62 170.24L532.65 167.89L529.26 158.71L538.66 161.3L540.19 152.05L547.44 158.89Z" fill="#1E1E1E"/>
<path d="M543.14 177.1H544.74L544.97 179.75C544.203 180.288 543.287 180.571 542.35 180.56C541.411 180.6 540.492 180.278 539.783 179.66C539.074 179.042 538.629 178.176 538.54 177.24C538.489 176.796 538.538 176.345 538.683 175.922C538.828 175.499 539.066 175.113 539.38 174.794C539.693 174.475 540.074 174.23 540.495 174.077C540.915 173.924 541.365 173.867 541.81 173.91C542.347 173.889 542.883 173.982 543.381 174.184C543.879 174.386 544.329 174.691 544.7 175.08L543.64 176.08C543.435 175.857 543.187 175.678 542.909 175.556C542.632 175.434 542.333 175.371 542.03 175.37C541.791 175.349 541.551 175.384 541.328 175.471C541.105 175.558 540.905 175.696 540.743 175.873C540.582 176.05 540.463 176.261 540.397 176.492C540.33 176.722 540.318 176.964 540.36 177.2C540.386 177.706 540.611 178.181 540.985 178.522C541.36 178.863 541.854 179.042 542.36 179.02C542.705 179.032 543.049 178.96 543.36 178.81L543.14 177.1Z" fill="#FCF1FD"/>
<path d="M551.19 179L551.32 180.39H546.18L545.62 174H550.62L550.74 175.4H547.51L547.61 176.47H550.45L550.57 177.83H547.73L547.83 179H551.19Z" fill="#FCF1FD"/>
<path d="M553.25 175.47H551.25L551.12 174.04H556.85L556.97 175.47H555.02L555.45 180.47H553.64L553.25 175.47Z" fill="#FCF1FD"/>
<path d="M552.45 187.38L552.57 188.81H547.57L547.47 187.68L549.66 185.44C550.13 184.97 550.18 184.67 550.16 184.44C550.14 184.21 549.83 183.78 549.28 183.78C549.058 183.771 548.839 183.824 548.646 183.933C548.453 184.043 548.295 184.205 548.19 184.4L546.78 183.65C547.033 183.21 547.406 182.851 547.856 182.615C548.306 182.38 548.814 182.277 549.32 182.32C550.79 182.32 551.87 183.08 551.97 184.26C551.994 184.642 551.923 185.025 551.764 185.374C551.606 185.722 551.364 186.027 551.06 186.26L550 187.38H552.45Z" fill="#FCF1FD"/>
<path d="M543.31 170.16C543.39 171.02 542.73 171.52 541.4 171.52H538.74L538.31 166.59H540.83C542.13 166.59 542.83 167.11 542.83 167.87C542.868 168.086 542.834 168.31 542.733 168.505C542.632 168.7 542.469 168.856 542.27 168.95C542.549 169.016 542.799 169.169 542.986 169.386C543.173 169.604 543.286 169.874 543.31 170.16ZM539.78 167.59L539.86 168.59H540.86C541.327 168.59 541.547 168.43 541.52 168.11C541.52 167.8 541.24 167.64 540.78 167.64L539.78 167.59ZM541.89 170.01C541.89 169.67 541.6 169.51 541.12 169.51H540L540.08 170.51H541.25C541.68 170.51 541.92 170.35 541.89 170V170.01Z" fill="#FCF1FD"/>
<path d="M543.92 169.32L543.68 166.59H545.08L545.31 169.28C545.38 170.12 545.77 170.46 546.31 170.46C546.85 170.46 547.21 170.12 547.14 169.28L546.9 166.59H548.27L548.51 169.32C548.575 169.618 548.568 169.928 548.488 170.223C548.408 170.518 548.258 170.79 548.051 171.014C547.844 171.239 547.586 171.411 547.299 171.514C547.011 171.618 546.703 171.651 546.4 171.61C546.085 171.632 545.768 171.589 545.47 171.484C545.172 171.379 544.898 171.214 544.666 171C544.434 170.785 544.248 170.526 544.119 170.237C543.991 169.948 543.923 169.636 543.92 169.32Z" fill="#FCF1FD"/>
<path d="M552.1 169.75L552.26 171.52H550.86L550.71 169.73L548.55 166.59H550L551.34 168.59L552.34 166.59H553.69L552.1 169.75Z" fill="#FCF1FD"/>
<path d="M558 166.59L558.43 171.52H557L556.67 167.66H555.75L555.66 166.59H558Z" fill="#FCF1FD"/>
<path d="M493.13 183.4L492.13 181.16C480.76 181.68 479.13 177.38 478.87 176.01C478.43 173.47 480.52 171.16 483.53 170.86C487.68 170.43 490.8 174.18 492.43 176.65C493.53 175.276 494.903 174.145 496.463 173.329C498.022 172.514 499.734 172.03 501.49 171.91C502.587 171.832 503.679 172.127 504.586 172.748C505.494 173.369 506.165 174.279 506.49 175.33C506.75 175.932 506.841 176.594 506.753 177.244C506.664 177.894 506.401 178.508 505.99 179.02C503.6 182.02 495.89 181.43 493.56 181.19L493.13 183.4ZM494.13 178.85C497.63 179.16 502.65 178.93 503.93 177.33C504.13 177.08 504.34 176.82 504.07 176C503.938 175.496 503.623 175.058 503.187 174.772C502.752 174.486 502.225 174.371 501.71 174.45C500.192 174.574 498.721 175.033 497.402 175.794C496.082 176.555 494.948 177.598 494.08 178.85H494.13ZM484.4 173.37C484.27 173.36 484.14 173.36 484.01 173.37C482.3 173.54 481.21 174.78 481.38 175.78C481.55 176.78 483.85 178.78 490.89 178.63C489.82 176.89 487.38 173.37 484.35 173.37H484.4Z" fill="#263238"/>
<path d="M520.33 213.87H470.77L467.79 179.82H517.35L520.33 213.87Z" fill="#FCF1FD"/>
<path opacity="0.1" d="M520.33 213.87H470.77L467.79 179.82H517.35L520.33 213.87Z" fill="#FFFDF4"/>
<path opacity="0.2" d="M520.33 213.87H470.77L468.82 191.59H518.38L520.33 213.87Z" fill="black"/>
<path d="M504.84 179.82H500.82L503.8 213.87H507.82L504.84 179.82Z" fill="#263238"/>
<path d="M480.68 213.87H477.73L474.75 179.82H477.71L480.68 213.87Z" fill="#263238"/>
<path opacity="0.2" d="M490.46 213.87H470.77L467.79 179.82H487.48L490.46 213.87Z" fill="black"/>
<path d="M534.61 191.76C533.06 191.93 527.92 192.32 525.94 190.29C525.616 189.971 525.376 189.577 525.241 189.142C525.107 188.707 525.083 188.246 525.17 187.8C525.213 187.45 525.325 187.112 525.5 186.806C525.674 186.499 525.908 186.231 526.187 186.015C526.466 185.799 526.784 185.641 527.125 185.549C527.465 185.457 527.821 185.434 528.17 185.48C530.717 185.698 533.096 186.84 534.86 188.69C535.67 187.01 537.34 184.48 540.19 184.77C542.27 184.97 543.96 186.54 543.96 188.26C543.96 189.18 543.35 192.09 535.6 191.74L535.15 193.26L534.61 191.76ZM528.29 187.17C527.44 187.17 527 187.45 526.88 188.23C526.83 188.39 526.827 188.56 526.871 188.722C526.915 188.883 527.005 189.028 527.13 189.14C528.18 190.22 531.61 190.37 533.94 190.14C532.504 188.466 530.483 187.403 528.29 187.17ZM536.11 190.04C540.89 190.16 542.2 188.87 542.2 188.11C542.2 187.35 541.32 186.6 540.14 186.48H539.87C537.82 186.47 536.59 188.85 536.11 190V190.04Z" fill="#263238"/>
<path d="M520.33 213.87H553.85L551.84 190.84H518.31L520.33 213.87Z" fill="#FCF1FD"/>
<path opacity="0.6" d="M520.33 213.87H553.85L551.84 190.84H518.31L520.33 213.87Z" fill="#FFFDF4"/>
<path opacity="0.1" d="M520.33 213.87H553.85L552.54 198.79H519.01L520.33 213.87Z" fill="black"/>
<path opacity="0.2" d="M540.53 213.87H553.85L551.84 190.84H538.52L540.53 213.87Z" fill="#FFFDF4"/>
<path d="M526.77 190.84H529.5L531.51 213.87H528.79L526.77 190.84Z" fill="#263238"/>
<path d="M547.15 213.87H549.15L547.13 190.84H545.13L547.15 213.87Z" fill="#263238"/>
<path d="M698.3 459.71L691.09 452.63L682.08 472.55L687.36 475.98L698.3 459.71Z" fill="#FF8B7B"/>
<path opacity="0.2" d="M696.85 461.84L693.31 467.11L686.11 463.61L689.81 455.43L696.85 461.84Z" fill="black"/>
<path d="M736 480.6H735.85C734.47 480.497 733.127 480.109 731.905 479.46C730.682 478.811 729.608 477.915 728.75 476.83C721.44 467.51 717.19 453.4 712.54 444.14C712.004 443.041 711.386 441.985 710.69 440.98C710.515 441.712 710.298 442.433 710.04 443.14C707.154 451.193 702.682 458.585 696.89 464.88L687.63 458.71C687.63 458.71 699.2 430.23 700.45 427.43C710.57 404.64 734.96 432.32 744.01 448.58C745.236 450.726 746.318 452.951 747.25 455.24L768.89 455.95C770.45 468.37 764.9 482.87 736 480.6Z" fill="#5484CC"/>
<g opacity="0.4">
<path d="M736 480.6C734.585 480.496 733.208 480.099 731.955 479.435C730.701 478.77 729.6 477.853 728.72 476.74C721.46 467.41 717.22 453.36 712.58 444.13C712.044 443.031 711.426 441.975 710.73 440.97C710.555 441.702 710.338 442.423 710.08 443.13C707.194 451.183 702.722 458.575 696.93 464.87L687.67 458.7C687.67 458.7 699.24 430.22 700.49 427.42C710.61 404.63 735 432.31 744.05 448.57C745.276 450.716 746.358 452.941 747.29 455.23L768.93 455.94C770.45 468.37 764.9 482.87 736 480.6Z" fill="black"/>
</g>
<path d="M701.93 461.94L688.42 454.43L686.71 459.13L698.36 466.13L701.93 461.94Z" fill="#263238"/>
<path d="M683 467C679.87 468 676.3 468.94 668.73 467.63C667.05 467.32 665.62 471.28 669.34 472.79C673.06 474.3 688.87 479.09 688.93 479.1C689.321 479.209 689.739 479.159 690.094 478.963C690.45 478.767 690.714 478.439 690.83 478.05L692.9 469.71C692.941 469.523 692.912 469.329 692.82 469.161C692.729 468.994 692.579 468.866 692.4 468.8L684.66 467.05C684.129 466.844 683.543 466.826 683 467Z" fill="#263238"/>
<path d="M682.7 467.39C682.726 467.352 682.74 467.306 682.74 467.26C682.74 467.213 682.726 467.168 682.7 467.13C682.681 467.086 682.648 467.05 682.607 467.027C682.565 467.003 682.517 466.994 682.47 467C681.99 467.06 677.74 467.58 677.13 468.77C677.069 468.878 677.036 469 677.036 469.125C677.036 469.249 677.069 469.372 677.13 469.48C677.218 469.666 677.35 469.826 677.517 469.947C677.683 470.067 677.876 470.144 678.08 470.17C678.906 470.169 679.706 469.879 680.34 469.35C681.184 468.768 681.973 468.112 682.7 467.39ZM677.86 468.65C679.121 468.057 680.474 467.681 681.86 467.54C680.3 469.02 678.95 469.83 678.17 469.72C678.038 469.702 677.912 469.651 677.803 469.573C677.695 469.494 677.608 469.39 677.55 469.27C677.525 469.225 677.513 469.176 677.513 469.125C677.513 469.074 677.525 469.024 677.55 468.98C677.627 468.853 677.733 468.747 677.86 468.67V468.65Z" fill="#5484CC"/>
<path d="M682.77 467.28C682.789 467.247 682.799 467.209 682.799 467.17C682.799 467.131 682.789 467.093 682.77 467.06C682.7 466.98 681.07 464.96 679.51 464.81C679.287 464.786 679.061 464.807 678.846 464.873C678.631 464.938 678.432 465.046 678.26 465.19C677.77 465.59 677.76 465.99 677.91 466.19C678.37 467.19 681.4 467.63 682.63 467.41L682.71 467.36C682.736 467.339 682.757 467.311 682.77 467.28ZM678.58 465.45C678.824 465.279 679.124 465.204 679.42 465.24C680.469 465.535 681.399 466.15 682.08 467C680.73 467.06 678.55 466.58 678.27 466C678.27 465.95 678.18 465.8 678.5 465.53L678.61 465.46L678.58 465.45Z" fill="#5484CC"/>
<path d="M739.21 481C737.92 480.9 736.57 480.77 735.21 480.62C705.68 477.37 656.84 462.89 650.91 446.18C650.91 446.18 643.91 426.18 669.14 430.99C676.79 432.45 690.26 435.35 702.38 438.8C707.64 440.27 726.67 448.15 727.66 449.92L744.59 450.67L769.33 451.78C769.904 453.651 770.316 455.568 770.56 457.51C772 469.3 766.72 483.12 739.21 481Z" fill="#5484CC"/>
<g opacity="0.3">
<path d="M739.21 481C737.92 480.9 736.57 480.77 735.21 480.62C705.68 477.37 656.84 462.89 650.91 446.18C650.91 446.18 643.91 426.18 669.14 430.99C676.79 432.45 690.26 435.35 702.38 438.8C707.64 440.27 726.67 448.15 727.66 449.92L744.59 450.67L769.33 451.78C769.904 453.651 770.316 455.568 770.56 457.51C772 469.3 766.72 483.12 739.21 481Z" fill="black"/>
</g>
<path d="M756.13 347C764.22 380.36 758.34 377.61 756.33 378.65C757.21 380.24 759.76 381.1 761.21 380C761.899 379.402 762.439 378.651 762.787 377.807C763.134 376.963 763.279 376.05 763.21 375.14C763.16 373.33 762.03 354.23 759.21 347.14C759.038 346.496 758.627 345.941 758.06 345.59C757.47 345.29 756 346.38 756.13 347Z" fill="#263238"/>
<path d="M748.84 376.36C750.31 380.61 750.69 383.13 744.55 385.17C744.55 385.17 737.6 395.05 747.55 408.7C753.308 400.951 758.15 392.562 761.98 383.7C757.73 380.3 758.13 372.03 758.74 366.32L748.84 376.36Z" fill="#FF8B7B"/>
<path d="M738.69 386.08C739.92 384.181 741.801 382.798 743.98 382.19C747.7 381.11 761.87 381.74 763.2 382.83C764.573 383.868 765.559 385.336 766 387L738.69 386.08Z" fill="#263238"/>
<path opacity="0.2" d="M765.71 404C767.015 407.366 768.65 410.595 770.59 413.64L777.77 408.91C777.118 407.577 776.348 406.306 775.47 405.11C772.3 401.15 768.61 401.85 765.71 404Z" fill="black"/>
<path d="M765.8 424.15C765.8 424.15 766.16 419.67 766.34 416.93C766.52 414.19 766.69 411.45 766.79 408.7C766.89 405.95 766.95 403.18 767.03 400.43C767.03 399.7 767.03 398.95 767.08 398.21C767.099 396.592 767.738 395.043 768.866 393.882C769.993 392.721 771.523 392.036 773.14 391.97C774.039 391.932 774.935 392.087 775.77 392.424C776.604 392.761 777.356 393.272 777.976 393.923C778.597 394.575 779.071 395.352 779.366 396.201C779.662 397.051 779.772 397.954 779.69 398.85C779.31 403.17 778.8 408 778.69 409.68C778.49 412.56 778.15 415.43 777.81 418.32C777.47 421.21 776.99 424.08 776.44 426.97L776.2 427.89L765.8 424.15Z" fill="#FF8B7B"/>
<path d="M737.84 428.23L729.49 424.33C729.149 424.164 728.774 424.078 728.395 424.078C728.016 424.078 727.641 424.164 727.3 424.33L719.61 428.33C719.278 428.501 718.989 428.746 718.765 429.046C718.542 429.346 718.39 429.692 718.32 430.06C718.244 430.411 718.246 430.775 718.325 431.126C718.403 431.477 718.557 431.806 718.776 432.092C718.995 432.377 719.273 432.612 719.592 432.779C719.91 432.946 720.261 433.042 720.62 433.06L728.01 433.46L739.12 435.58C739.12 435.58 742.9 430.6 737.84 428.23Z" fill="#FF8B7B"/>
<path d="M766.66 422.82L737.84 428.23C737.84 428.23 738.15 436.06 739.12 435.55C739.78 435.21 756.58 434.92 767.45 434.77C769.903 434.734 772.247 433.75 773.991 432.024C775.734 430.297 776.741 427.963 776.8 425.51L766.66 422.82Z" fill="#FF8B7B"/>
<path d="M765.34 393.93C761.93 398.38 764.68 411.58 764.68 411.58L781.68 407.87C781.68 407.87 782 392.02 778.68 389.09C774.9 385.75 768.84 389.31 765.34 393.93Z" fill="#5484CC"/>
<g opacity="0.1">
<path d="M765.34 393.93C761.93 398.38 764.68 411.58 764.68 411.58L781.68 407.87C781.68 407.87 782 392.02 778.68 389.09C774.9 385.75 768.84 389.31 765.34 393.93Z" fill="black"/>
</g>
<path d="M732 437.1H735.1C735.175 437.104 735.25 437.093 735.321 437.068C735.391 437.043 735.457 437.005 735.512 436.954C735.568 436.904 735.613 436.844 735.646 436.776C735.678 436.708 735.696 436.635 735.7 436.56V433.56C735.696 433.485 735.678 433.412 735.646 433.344C735.613 433.276 735.568 433.216 735.512 433.165C735.457 433.115 735.391 433.077 735.321 433.052C735.25 433.027 735.175 433.016 735.1 433.02H732.88C732.753 433.015 732.628 433.052 732.524 433.124C732.419 433.196 732.341 433.3 732.3 433.42L731.43 436.42C731.41 436.504 731.409 436.591 731.429 436.676C731.448 436.76 731.487 436.838 731.543 436.904C731.598 436.971 731.669 437.023 731.748 437.057C731.828 437.091 731.914 437.106 732 437.1Z" fill="#263238"/>
<path d="M727.7 437.1H730.8C730.875 437.104 730.95 437.093 731.021 437.068C731.091 437.043 731.156 437.005 731.212 436.954C731.268 436.904 731.313 436.844 731.345 436.776C731.378 436.708 731.396 436.635 731.4 436.56V433.56C731.396 433.485 731.378 433.412 731.345 433.344C731.313 433.276 731.268 433.216 731.212 433.165C731.156 433.115 731.091 433.077 731.021 433.052C730.95 433.027 730.875 433.016 730.8 433.02H728.58C728.453 433.015 728.328 433.052 728.224 433.124C728.119 433.196 728.041 433.3 728 433.42L727.13 436.42C727.11 436.504 727.109 436.591 727.129 436.676C727.148 436.76 727.187 436.838 727.243 436.904C727.298 436.971 727.369 437.023 727.448 437.057C727.528 437.091 727.614 437.106 727.7 437.1Z" fill="#263238"/>
<path d="M723.41 437.1H726.52C726.67 437.105 726.815 437.052 726.926 436.951C727.036 436.85 727.102 436.709 727.11 436.56V433.56C727.102 433.41 727.036 433.27 726.926 433.169C726.815 433.068 726.67 433.014 726.52 433.02H724.29C724.165 433.016 724.041 433.053 723.938 433.125C723.836 433.197 723.759 433.301 723.72 433.42L722.84 436.42C722.819 436.504 722.819 436.591 722.839 436.676C722.858 436.76 722.897 436.838 722.953 436.904C723.008 436.971 723.079 437.023 723.158 437.057C723.238 437.091 723.324 437.106 723.41 437.1Z" fill="#263238"/>
<path d="M719.12 437.1H722.23C722.304 437.104 722.379 437.093 722.449 437.068C722.519 437.043 722.584 437.004 722.638 436.954C722.693 436.904 722.738 436.843 722.769 436.775C722.8 436.708 722.818 436.634 722.82 436.56V433.56C722.818 433.485 722.8 433.412 722.769 433.345C722.738 433.277 722.693 433.216 722.638 433.166C722.584 433.116 722.519 433.077 722.449 433.052C722.379 433.027 722.304 433.016 722.23 433.02H720C719.875 433.016 719.751 433.053 719.648 433.125C719.546 433.197 719.469 433.3 719.43 433.42L718.55 436.42C718.529 436.504 718.529 436.591 718.548 436.676C718.568 436.76 718.607 436.838 718.663 436.904C718.718 436.971 718.789 437.023 718.868 437.057C718.947 437.091 719.034 437.106 719.12 437.1Z" fill="#263238"/>
<path d="M714.84 437.1H717.94C718.014 437.104 718.089 437.093 718.159 437.068C718.229 437.043 718.294 437.004 718.348 436.954C718.403 436.904 718.448 436.843 718.479 436.775C718.51 436.708 718.527 436.634 718.53 436.56V433.56C718.527 433.485 718.51 433.412 718.479 433.345C718.448 433.277 718.403 433.216 718.348 433.166C718.294 433.116 718.229 433.077 718.159 433.052C718.089 433.027 718.014 433.016 717.94 433.02H715.71C715.585 433.016 715.461 433.053 715.358 433.125C715.256 433.197 715.179 433.3 715.14 433.42L714.26 436.42C714.241 436.504 714.242 436.592 714.263 436.676C714.284 436.76 714.325 436.838 714.381 436.904C714.437 436.97 714.508 437.022 714.587 437.056C714.667 437.09 714.754 437.105 714.84 437.1Z" fill="#263238"/>
<path d="M710.55 437.1H713.65C713.725 437.104 713.799 437.093 713.869 437.068C713.939 437.043 714.004 437.004 714.059 436.954C714.114 436.904 714.158 436.843 714.189 436.775C714.22 436.708 714.238 436.634 714.24 436.56V433.56C714.238 433.485 714.22 433.412 714.189 433.345C714.158 433.277 714.114 433.216 714.059 433.166C714.004 433.116 713.939 433.077 713.869 433.052C713.799 433.027 713.725 433.016 713.65 433.02H711.42C711.295 433.017 711.172 433.055 711.07 433.127C710.967 433.199 710.891 433.301 710.85 433.42L709.98 436.42C709.96 436.504 709.959 436.591 709.979 436.676C709.998 436.76 710.037 436.838 710.093 436.904C710.148 436.971 710.219 437.023 710.298 437.057C710.378 437.091 710.464 437.106 710.55 437.1Z" fill="#263238"/>
<path d="M706.26 437.1H709.36C709.435 437.104 709.51 437.093 709.581 437.068C709.651 437.043 709.717 437.005 709.772 436.954C709.828 436.904 709.873 436.844 709.906 436.776C709.938 436.708 709.956 436.635 709.96 436.56V433.56C709.956 433.485 709.938 433.412 709.906 433.344C709.873 433.276 709.828 433.216 709.772 433.165C709.717 433.115 709.651 433.077 709.581 433.052C709.51 433.027 709.435 433.016 709.36 433.02H707.13C707.005 433.017 706.882 433.055 706.78 433.127C706.677 433.199 706.6 433.301 706.56 433.42L705.69 436.42C705.67 436.504 705.669 436.591 705.689 436.676C705.708 436.76 705.747 436.838 705.803 436.904C705.858 436.971 705.929 437.023 706.008 437.057C706.088 437.091 706.174 437.106 706.26 437.1Z" fill="#263238"/>
<path d="M702 437.1H705.1C705.175 437.104 705.25 437.093 705.321 437.068C705.391 437.043 705.457 437.005 705.512 436.954C705.568 436.904 705.613 436.844 705.646 436.776C705.678 436.708 705.696 436.635 705.7 436.56V433.56C705.696 433.485 705.678 433.412 705.646 433.344C705.613 433.276 705.568 433.216 705.512 433.165C705.457 433.115 705.391 433.077 705.321 433.052C705.25 433.027 705.175 433.016 705.1 433.02H702.88C702.753 433.015 702.628 433.052 702.524 433.124C702.419 433.196 702.341 433.3 702.3 433.42L701.43 436.42C701.41 436.504 701.409 436.591 701.429 436.676C701.448 436.76 701.487 436.838 701.543 436.904C701.598 436.971 701.669 437.023 701.748 437.057C701.828 437.091 701.914 437.106 702 437.1Z" fill="#263238"/>
<path d="M697.68 437.1H700.79C700.94 437.105 701.085 437.052 701.196 436.951C701.306 436.85 701.372 436.709 701.38 436.56V433.56C701.372 433.41 701.306 433.27 701.196 433.169C701.085 433.068 700.94 433.014 700.79 433.02H698.56C698.435 433.016 698.311 433.053 698.208 433.125C698.106 433.197 698.029 433.301 697.99 433.42L697.11 436.42C697.089 436.504 697.089 436.591 697.109 436.676C697.128 436.76 697.167 436.838 697.223 436.904C697.278 436.971 697.349 437.023 697.428 437.057C697.508 437.091 697.594 437.106 697.68 437.1Z" fill="#263238"/>
<path d="M693.39 437.1H696.5C696.574 437.104 696.649 437.093 696.719 437.068C696.789 437.043 696.854 437.004 696.908 436.954C696.963 436.904 697.008 436.843 697.039 436.775C697.07 436.708 697.088 436.634 697.09 436.56V433.56C697.088 433.485 697.07 433.412 697.039 433.345C697.008 433.277 696.963 433.216 696.908 433.166C696.854 433.116 696.789 433.077 696.719 433.052C696.649 433.027 696.574 433.016 696.5 433.02H694.27C694.145 433.016 694.021 433.053 693.918 433.125C693.816 433.197 693.739 433.3 693.7 433.42L692.82 436.42C692.799 436.504 692.799 436.591 692.818 436.676C692.838 436.76 692.877 436.838 692.933 436.904C692.988 436.971 693.059 437.023 693.138 437.057C693.217 437.091 693.304 437.106 693.39 437.1Z" fill="#263238"/>
<path d="M689.11 437.1H692.21C692.285 437.104 692.359 437.093 692.429 437.068C692.499 437.043 692.564 437.004 692.619 436.954C692.674 436.904 692.718 436.843 692.749 436.775C692.78 436.708 692.798 436.634 692.8 436.56V433.56C692.798 433.485 692.78 433.412 692.749 433.345C692.718 433.277 692.674 433.216 692.619 433.166C692.564 433.116 692.499 433.077 692.429 433.052C692.359 433.027 692.285 433.016 692.21 433.02H690C689.875 433.016 689.751 433.053 689.648 433.125C689.546 433.197 689.469 433.3 689.43 433.42L688.55 436.42C688.532 436.503 688.533 436.589 688.553 436.671C688.573 436.754 688.611 436.831 688.665 436.896C688.719 436.962 688.787 437.014 688.864 437.049C688.941 437.085 689.025 437.102 689.11 437.1Z" fill="#263238"/>
<path d="M684.82 437.1H687.92C687.994 437.104 688.069 437.093 688.139 437.068C688.209 437.043 688.273 437.004 688.328 436.954C688.383 436.904 688.428 436.843 688.459 436.775C688.49 436.708 688.507 436.634 688.51 436.56V433.56C688.507 433.485 688.49 433.412 688.459 433.345C688.428 433.277 688.383 433.216 688.328 433.166C688.273 433.116 688.209 433.077 688.139 433.052C688.069 433.027 687.994 433.016 687.92 433.02H685.69C685.564 433.016 685.441 433.053 685.338 433.125C685.236 433.197 685.159 433.3 685.12 433.42L684.25 436.42C684.229 436.504 684.229 436.591 684.248 436.676C684.268 436.76 684.307 436.838 684.363 436.904C684.418 436.971 684.488 437.023 684.568 437.057C684.647 437.091 684.734 437.106 684.82 437.1Z" fill="#263238"/>
<path d="M680.53 437.1H683.63C683.705 437.104 683.78 437.093 683.851 437.068C683.921 437.043 683.987 437.005 684.042 436.954C684.098 436.904 684.143 436.844 684.176 436.776C684.208 436.708 684.226 436.635 684.23 436.56V433.56C684.226 433.485 684.208 433.412 684.176 433.344C684.143 433.276 684.098 433.216 684.042 433.165C683.987 433.115 683.921 433.077 683.851 433.052C683.78 433.027 683.705 433.016 683.63 433.02H681.4C681.275 433.017 681.152 433.055 681.05 433.127C680.947 433.199 680.87 433.301 680.83 433.42L679.96 436.42C679.94 436.504 679.939 436.591 679.959 436.676C679.978 436.76 680.017 436.838 680.073 436.904C680.128 436.971 680.199 437.023 680.278 437.057C680.358 437.091 680.444 437.106 680.53 437.1Z" fill="#263238"/>
<path d="M676.24 437.1H679.34C679.415 437.104 679.49 437.093 679.561 437.068C679.631 437.043 679.696 437.005 679.752 436.954C679.808 436.904 679.853 436.844 679.885 436.776C679.918 436.708 679.936 436.635 679.94 436.56V433.56C679.936 433.485 679.918 433.412 679.885 433.344C679.853 433.276 679.808 433.216 679.752 433.165C679.696 433.115 679.631 433.077 679.561 433.052C679.49 433.027 679.415 433.016 679.34 433.02H677.12C676.993 433.015 676.868 433.052 676.764 433.124C676.659 433.196 676.581 433.3 676.54 433.42L675.67 436.42C675.65 436.504 675.649 436.591 675.669 436.676C675.688 436.76 675.727 436.838 675.783 436.904C675.838 436.971 675.909 437.023 675.988 437.057C676.068 437.091 676.154 437.106 676.24 437.1Z" fill="#263238"/>
<path d="M672 437.1H675.11C675.26 437.105 675.405 437.052 675.516 436.951C675.626 436.85 675.692 436.709 675.7 436.56V433.56C675.692 433.41 675.626 433.27 675.516 433.169C675.405 433.068 675.26 433.014 675.11 433.02H672.88C672.754 433.014 672.63 433.05 672.527 433.123C672.424 433.195 672.348 433.3 672.31 433.42L671.43 436.42C671.41 436.504 671.409 436.591 671.429 436.676C671.448 436.76 671.487 436.838 671.543 436.904C671.598 436.971 671.669 437.023 671.748 437.057C671.828 437.091 671.914 437.106 672 437.1Z" fill="#263238"/>
<path d="M668.83 437.43C668.864 438.083 669.153 438.697 669.636 439.139C670.119 439.58 670.756 439.814 671.41 439.79H735.62C736.275 439.817 736.913 439.584 737.397 439.142C737.88 438.7 738.169 438.084 738.2 437.43C738.2 437.114 738.134 436.802 738.004 436.514C737.875 436.226 737.686 435.969 737.45 435.76C736.963 435.323 736.334 435.078 735.68 435.07H671.41C671.171 435.073 670.933 435.103 670.7 435.16C670.182 435.279 669.717 435.566 669.379 435.977C669.04 436.387 668.848 436.898 668.83 437.43Z" fill="#263238"/>
<path opacity="0.2" d="M668.83 437.43C668.864 438.083 669.153 438.697 669.636 439.139C670.119 439.58 670.756 439.814 671.41 439.79H735.62C736.275 439.817 736.913 439.584 737.397 439.142C737.88 438.7 738.169 438.084 738.2 437.43C738.2 437.114 738.134 436.802 738.004 436.514C737.875 436.226 737.686 435.969 737.45 435.76C736.963 435.323 736.334 435.078 735.68 435.07H671.41C671.171 435.073 670.933 435.103 670.7 435.16C670.182 435.279 669.717 435.566 669.379 435.977C669.04 436.387 668.848 436.898 668.83 437.43Z" fill="#FFFDF4"/>
<path d="M668.83 437.43C668.864 438.083 669.153 438.697 669.636 439.139C670.119 439.58 670.756 439.814 671.41 439.79H693.15C693.653 439.657 694.1 439.365 694.424 438.958C694.749 438.551 694.933 438.05 694.95 437.53C694.96 437.39 694.96 437.25 694.95 437.11C694.85 436.624 694.594 436.185 694.22 435.86C694.051 435.711 693.867 435.58 693.67 435.47L693.37 435.34C693.051 435.218 692.712 435.156 692.37 435.16H670.7C670.182 435.279 669.717 435.566 669.379 435.976C669.04 436.387 668.848 436.898 668.83 437.43Z" fill="#263238"/>
<path d="M743.33 384C749.652 383.881 755.975 384.216 762.25 385C766.159 385.461 770.041 386.128 773.88 387L774.23 387.08C775.674 387.494 776.895 388.463 777.627 389.774C778.36 391.085 778.544 392.633 778.14 394.08C769.63 423.92 769.14 434.13 768.85 450.14L727.22 447.74C726.51 441.03 729.39 434.19 728.57 424.15C726.47 398.52 723.93 399.28 724.63 394.29C724 387.31 738.24 384.13 743.33 384Z" fill="#5484CC"/>
<path d="M738.93 354.89C738.43 354.84 737.93 355.43 737.93 356.19C737.93 356.95 738.23 357.6 738.72 357.65C739.21 357.7 739.72 357.14 739.72 356.34C739.72 355.54 739.42 354.93 738.93 354.89Z" fill="#263238"/>
<path d="M737.36 354.27L739.14 354.95C738.18 355.78 737.36 354.27 737.36 354.27Z" fill="#263238"/>
<path d="M738.66 362.88C738.18 362.88 737.706 362.775 737.271 362.573C736.836 362.371 736.45 362.076 736.14 361.71C737.603 360.562 738.899 359.216 739.99 357.71L738.66 362.88Z" fill="#A02724"/>
<path d="M739.34 351.93C739.904 351.958 740.453 352.118 740.943 352.398C741.432 352.678 741.85 353.069 742.16 353.54V353.62C742.192 353.672 742.234 353.717 742.284 353.752C742.334 353.787 742.391 353.812 742.45 353.825C742.51 353.837 742.572 353.838 742.632 353.826C742.692 353.814 742.749 353.79 742.799 353.755C742.849 353.72 742.892 353.676 742.925 353.624C742.957 353.572 742.979 353.515 742.988 353.454C742.998 353.394 742.995 353.332 742.98 353.273C742.964 353.214 742.937 353.158 742.9 353.11C742.521 352.506 742.003 352.001 741.389 351.639C740.774 351.277 740.082 351.068 739.37 351.03C739.25 351.024 739.133 351.064 739.042 351.142C738.95 351.221 738.893 351.331 738.88 351.45C738.877 351.528 738.893 351.606 738.928 351.676C738.963 351.746 739.015 351.806 739.08 351.85C739.155 351.905 739.247 351.933 739.34 351.93Z" fill="#263238"/>
<path d="M765.68 355.73C764.32 365 764 369 758.83 373.44C757.507 374.62 755.96 375.523 754.282 376.095C752.604 376.667 750.828 376.896 749.06 376.77H749C747.948 376.682 746.912 376.453 745.92 376.09C745.066 375.767 744.248 375.355 743.48 374.86C742.124 373.961 740.975 372.782 740.113 371.402C739.25 370.022 738.694 368.473 738.48 366.86C737.16 358.26 739.59 344.47 749.06 341.5C751.147 340.836 753.369 340.715 755.515 341.15C757.661 341.585 759.661 342.561 761.325 343.985C762.988 345.409 764.26 347.235 765.021 349.288C765.781 351.342 766.005 353.556 765.67 355.72L765.68 355.73Z" fill="#FF8B7B"/>
<path d="M755.33 374.57C755.828 374.977 756.452 375.199 757.095 375.199C757.738 375.199 758.362 374.977 758.86 374.57C762.48 371.64 770.45 364.45 771.56 356.99C773 347.32 769.14 341.12 762.01 339.19C754.88 337.26 743.8 338.92 740.29 344.19C736.78 349.46 740.29 350.44 746.76 359.09C745.35 365.32 752 371.81 755.33 374.57Z" fill="#263238"/>
<path d="M746.79 355.73C744.49 356.18 743.54 359.37 743.62 361.42C743.71 363.71 745.48 365.31 747.47 363.95C748.213 363.437 748.846 362.782 749.336 362.024C749.825 361.265 750.159 360.418 750.32 359.53C750.449 359.03 750.45 358.505 750.323 358.005C750.197 357.504 749.946 357.043 749.594 356.665C749.243 356.286 748.802 356.002 748.312 355.839C747.822 355.676 747.298 355.638 746.79 355.73Z" fill="#FF8B7B"/>
<path d="M768.84 447.33L727.27 444.94C726.86 444.94 726.52 445.12 726.54 445.38L726 448.8C726 449.43 726.24 449.63 726.62 449.66L769.72 452.03C770.19 452.03 770.56 451.78 770.42 451.48L769.56 447.67C769.485 447.551 769.377 447.455 769.25 447.395C769.122 447.335 768.98 447.312 768.84 447.33Z" fill="#263238"/>
<path d="M764.14 451.82L763.89 446.94C763.89 446.8 764.06 446.72 764.28 446.7L765.41 446.77C765.504 446.763 765.597 446.788 765.675 446.841C765.753 446.893 765.811 446.97 765.84 447.06L766.08 451.92C766.08 452.07 765.91 452.15 765.69 452.16L764.56 452.1C764.468 452.115 764.373 452.095 764.295 452.043C764.217 451.991 764.162 451.911 764.14 451.82Z" fill="#5484CC"/>
<path d="M730.3 449.81L730.68 444.92C730.707 444.82 730.766 444.731 730.846 444.667C730.927 444.602 731.027 444.565 731.13 444.56L732.22 444.66C732.317 444.676 732.406 444.722 732.474 444.793C732.542 444.863 732.586 444.953 732.6 445.05L732.27 449.94C732.243 450.03 732.185 450.109 732.107 450.161C732.028 450.214 731.934 450.238 731.84 450.23L730.68 450.14C730.46 450.1 730.29 450 730.3 449.81Z" fill="#5484CC"/>
<path d="M747.11 450.85L747.2 445.7C747.2 445.55 747.38 445.49 747.61 445.48L748.72 445.62C748.95 445.62 749.12 445.79 749.13 445.93V451.04C749.13 451.18 748.94 451.24 748.72 451.24L747.54 451.17C747.29 451.14 747.1 451 747.11 450.85Z" fill="#5484CC"/>
<path d="M724.73 421.43C724.73 421.43 724.73 416.77 724.66 413.93C724.59 411.09 724.56 408.24 724.42 405.39C724.28 402.54 724.11 399.67 723.96 396.82C723.96 396.06 723.87 395.29 723.82 394.52C723.694 392.841 724.219 391.177 725.286 389.874C726.352 388.571 727.879 387.728 729.55 387.52C730.475 387.405 731.414 387.488 732.304 387.765C733.194 388.041 734.014 388.504 734.711 389.123C735.408 389.743 735.964 390.503 736.343 391.354C736.723 392.206 736.916 393.128 736.91 394.06C736.91 398.57 736.77 403.6 736.79 405.35C736.79 408.35 736.73 411.35 736.63 414.35C736.53 417.35 736.27 420.35 735.95 423.4L735.78 424.4L724.73 421.43Z" fill="#FF8B7B"/>
<path d="M696.57 427.51L688.88 424.66C688.561 424.543 688.22 424.501 687.882 424.535C687.544 424.57 687.219 424.681 686.93 424.86L680.4 429C680.122 429.179 679.888 429.419 679.715 429.701C679.542 429.983 679.434 430.301 679.4 430.63C679.364 430.945 679.396 431.264 679.494 431.565C679.592 431.866 679.754 432.143 679.968 432.376C680.183 432.609 680.445 432.794 680.737 432.917C681.028 433.04 681.343 433.099 681.66 433.09L688.25 432.9L698.25 433.97C698.25 433.97 701.25 429.24 696.57 427.51Z" fill="#FF8B7B"/>
<path d="M725.49 420L696.18 428.06C696.18 428.06 697.29 434.54 698.26 433.93C698.91 433.51 716.12 433.36 727.34 432.27C729.871 432.026 732.21 430.81 733.864 428.878C735.518 426.947 736.359 424.449 736.21 421.91L725.49 420Z" fill="#FF8B7B"/>
<path d="M728.24 387.23C721.9 389.75 719.87 401.99 722.96 408.62C735.56 406.07 740.19 408.79 740.05 409.12C740.658 406.16 740.809 403.125 740.5 400.12C740.404 396.363 738.951 392.768 736.41 390C733.77 387.34 731.64 385.68 728.24 387.23Z" fill="#263238"/>
<path d="M728.24 387.23C721.9 389.75 719.87 401.99 722.96 408.62C735.56 406.07 740.19 408.79 740.05 409.12C740.658 406.16 740.809 403.125 740.5 400.12C740.404 396.363 738.951 392.768 736.41 390C733.77 387.34 731.64 385.68 728.24 387.23Z" fill="#5484CC"/>
<path opacity="0.2" d="M749 376.77C747.948 376.681 746.912 376.453 745.92 376.09C745.066 375.767 744.248 375.355 743.48 374.86V374.79C744.668 375.151 745.941 375.119 747.11 374.7C747.413 374.528 747.771 374.478 748.11 374.56C748.46 374.71 748.59 375.13 748.68 375.51C748.77 375.89 748.88 376.35 749 376.77Z" fill="black"/>
<path d="M740.57 346.38C748.66 379.75 742.78 377 740.77 378.04C741.65 379.63 744.2 380.48 745.66 379.39C746.349 378.792 746.889 378.041 747.237 377.197C747.584 376.353 747.729 375.44 747.66 374.53C747.66 372.71 746.48 353.62 743.66 346.53C743.492 345.884 743.08 345.329 742.51 344.98C741.91 344.66 740.42 345.74 740.57 346.38Z" fill="#263238"/>
<path d="M771.53 350.09C770.16 351.47 767.88 351.01 766.03 350.43C764.045 349.898 762.149 349.08 760.4 348C759.532 347.449 758.782 346.731 758.194 345.888C757.605 345.046 757.189 344.094 756.97 343.09C756.77 341.583 757.145 340.056 758.019 338.813C758.894 337.569 760.204 336.701 761.69 336.38C761.758 335.124 762.209 333.92 762.984 332.929C763.758 331.938 764.818 331.209 766.02 330.84C767.264 330.536 768.57 330.614 769.769 331.064C770.968 331.513 772.003 332.313 772.74 333.36C779.66 334.84 777.74 341.67 777.51 342.56C777.389 343.018 777.133 343.428 776.777 343.74C776.421 344.052 775.98 344.25 775.51 344.31C775.86 346.36 773.61 349.77 771.53 350.09Z" fill="#263238"/>
</svg>
