<svg width="1200" height="630" viewBox="0 0 1200 630" fill="none" xmlns="http://www.w3.org/2000/svg">
<rect width="1200" height="630" rx="26" fill="#C7D5FF"/>
<path d="M799.9 463.49H766.78V463.74H799.9V463.49Z" fill="#1E1E1E"/>
<path d="M681.22 466.21H672.53V466.46H681.22V466.21Z" fill="#1E1E1E"/>
<path d="M765.78 454.21H746.59V454.46H765.78V454.21Z" fill="#1E1E1E"/>
<path d="M445.65 455.89H402.46V456.14H445.65V455.89Z" fill="#1E1E1E"/>
<path d="M460.89 455.89H454.56V456.14H460.89V455.89Z" fill="#1E1E1E"/>
<path d="M575.15 460.11H481.47V460.36H575.15V460.11Z" fill="#1E1E1E"/>
<path d="M587 402.8H393.92C392.406 402.8 390.953 402.198 389.882 401.128C388.812 400.057 388.21 398.604 388.21 397.09V125.66C388.223 124.154 388.831 122.715 389.9 121.655C390.969 120.595 392.414 120 393.92 120H587C588.514 120 589.967 120.602 591.038 121.672C592.108 122.743 592.71 124.196 592.71 125.71V397.09C592.71 398.604 592.108 400.057 591.038 401.128C589.967 402.198 588.514 402.8 587 402.8ZM393.92 120.2C392.473 120.203 391.085 120.779 390.062 121.802C389.039 122.825 388.463 124.213 388.46 125.66V397.09C388.463 398.537 389.039 399.924 390.062 400.948C391.085 401.971 392.473 402.547 393.92 402.55H587C588.447 402.547 589.834 401.971 590.858 400.948C591.881 399.924 592.457 398.537 592.46 397.09V125.66C592.457 124.213 591.881 122.825 590.858 121.802C589.834 120.779 588.447 120.203 587 120.2H393.92Z" fill="#1E1E1E"/>
<path d="M803.31 402.8H610.21C608.696 402.797 607.246 402.195 606.175 401.125C605.105 400.054 604.503 398.604 604.5 397.09V125.66C604.516 124.155 605.124 122.717 606.193 121.658C607.262 120.598 608.705 120.003 610.21 120H803.31C804.812 120.005 806.252 120.602 807.317 121.662C808.382 122.721 808.987 124.158 809 125.66V397.09C809 398.601 808.401 400.05 807.335 401.121C806.268 402.191 804.821 402.795 803.31 402.8ZM610.21 120.2C608.763 120.203 607.375 120.779 606.352 121.802C605.329 122.825 604.753 124.213 604.75 125.66V397.09C604.753 398.537 605.329 399.924 606.352 400.948C607.375 401.971 608.763 402.547 610.21 402.55H803.31C804.757 402.547 806.145 401.971 807.168 400.948C808.191 399.924 808.767 398.537 808.77 397.09V125.66C808.767 124.213 808.191 122.825 807.168 121.802C806.145 120.779 804.757 120.203 803.31 120.2H610.21Z" fill="#1E1E1E"/>
<path d="M850 447.4H350V447.65H850V447.4Z" fill="#1E1E1E"/>
<path d="M605.2 345.83C604.049 345.834 602.922 345.496 601.962 344.86C601.003 344.223 600.254 343.316 599.81 342.253C599.366 341.191 599.247 340.021 599.469 338.891C599.69 337.761 600.242 336.722 601.054 335.905C601.866 335.089 602.902 334.532 604.031 334.305C605.16 334.077 606.331 334.19 607.396 334.628C608.461 335.067 609.371 335.811 610.013 336.767C610.655 337.723 610.998 338.849 611 340C611 341.541 610.39 343.019 609.303 344.112C608.216 345.204 606.741 345.822 605.2 345.83ZM605.2 337.19C604.641 337.186 604.094 337.348 603.627 337.656C603.16 337.964 602.796 338.404 602.58 338.919C602.363 339.435 602.305 340.003 602.413 340.552C602.52 341.1 602.788 341.604 603.183 342C603.577 342.396 604.08 342.666 604.629 342.776C605.177 342.885 605.745 342.829 606.262 342.614C606.778 342.4 607.219 342.037 607.528 341.572C607.838 341.106 608.002 340.559 608 340C607.995 339.258 607.699 338.548 607.175 338.022C606.651 337.497 605.942 337.198 605.2 337.19Z" fill="#263238"/>
<path d="M609.234 342.089L607.111 344.209L614 351.108L616.123 348.988L609.234 342.089Z" fill="#263238"/>
<path d="M795.625 173.895C798.278 157.551 787.18 142.151 770.836 139.498C754.492 136.845 739.093 147.944 736.44 164.288C733.787 180.631 744.885 196.031 761.229 198.684C777.572 201.337 792.972 190.238 795.625 173.895Z" fill="#E0E0E0"/>
<path d="M766.1 199.73C758.066 199.585 750.409 196.291 744.779 190.558C739.148 184.825 735.994 177.111 735.994 169.075C735.994 161.039 739.148 153.325 744.779 147.592C750.409 141.859 758.066 138.565 766.1 138.42V139.77C758.422 139.912 751.106 143.062 745.725 148.542C740.345 154.022 737.331 161.395 737.331 169.075C737.331 176.755 740.345 184.128 745.725 189.608C751.106 195.088 758.422 198.238 766.1 198.38V199.73Z" fill="white"/>
<path d="M766.1 199.73V198.38C769.994 198.452 773.863 197.747 777.482 196.307C781.1 194.866 784.395 192.719 787.174 189.991C789.954 187.262 792.161 184.008 793.668 180.416C795.175 176.825 795.951 172.97 795.951 169.075C795.951 165.18 795.175 161.325 793.668 157.734C792.161 154.142 789.954 150.888 787.174 148.159C784.395 145.431 781.1 143.284 777.482 141.843C773.863 140.403 769.994 139.698 766.1 139.77V138.42C770.172 138.346 774.218 139.085 778.002 140.593C781.786 142.1 785.231 144.346 788.137 147.2C791.043 150.054 793.351 153.458 794.927 157.214C796.502 160.97 797.314 165.002 797.314 169.075C797.314 173.148 796.502 177.18 794.927 180.936C793.351 184.692 791.043 188.096 788.137 190.95C785.231 193.804 781.786 196.05 778.002 197.557C774.218 199.065 770.172 199.804 766.1 199.73Z" fill="white"/>
<path d="M781.77 169.08H780.42C780.42 159.15 775.42 145.85 765.74 139.67L766.47 138.53C776.51 145 781.77 158.78 781.77 169.08Z" fill="white"/>
<path d="M766.47 198.72L765.74 197.58C775.38 191.4 780.42 178.1 780.42 168.17H781.77C781.77 178.47 776.51 192.27 766.47 198.72Z" fill="white"/>
<path d="M751.79 169.08H750.44C750.44 158.77 755.69 144.97 765.74 138.53L766.47 139.66C756.83 145.85 751.79 159.14 751.79 169.08Z" fill="white"/>
<path d="M765.74 198.71C755.69 192.26 750.44 178.46 750.44 168.16H751.79C751.79 178.1 756.79 191.39 766.47 197.57L765.74 198.71Z" fill="white"/>
<path d="M766.78 139.09H765.43V199.05H766.78V139.09Z" fill="white"/>
<path d="M791.49 152.43H740.73V153.78H791.49V152.43Z" fill="white"/>
<path d="M796.08 168.91H736.14V170.26H796.08V168.91Z" fill="white"/>
<path d="M790.81 185.38H741.4V186.73H790.81V185.38Z" fill="white"/>
<path d="M445.59 158C445.601 155.967 445.304 153.944 444.71 152L449.94 147.41L446.65 141.71L440.06 144C437.292 141.025 433.704 138.937 429.75 138L428.38 131.19H421.81L420.45 138C416.493 138.936 412.902 141.024 410.13 144L403.54 141.77L400.26 147.47L405.48 152.06C404.307 155.943 404.307 160.087 405.48 163.97L400.26 168.55L403.54 174.25L410.13 172C412.902 174.976 416.493 177.064 420.45 178L421.81 184.82H428.38L429.75 178C433.704 177.063 437.292 174.975 440.06 172L446.65 174.23L449.94 168.53L444.71 164C445.303 162.055 445.599 160.033 445.59 158ZM425.1 169.08C422.991 169.082 420.929 168.458 419.175 167.288C417.421 166.118 416.053 164.454 415.244 162.506C414.436 160.559 414.223 158.415 414.634 156.346C415.044 154.278 416.058 152.378 417.549 150.886C419.039 149.394 420.939 148.378 423.007 147.966C425.075 147.553 427.219 147.764 429.167 148.57C431.116 149.377 432.781 150.743 433.953 152.497C435.125 154.25 435.75 156.311 435.75 158.42C435.751 159.819 435.477 161.205 434.942 162.499C434.408 163.792 433.623 164.967 432.634 165.957C431.645 166.947 430.471 167.733 429.178 168.268C427.885 168.804 426.499 169.08 425.1 169.08Z" fill="#E0E0E0"/>
<path d="M473.79 186.34C473.788 184.805 473.563 183.279 473.12 181.81L477.12 178.31L474.62 173.98L469.62 175.68C467.511 173.422 464.779 171.842 461.77 171.14L460.77 165.95H455.77L454.77 171.14C451.758 171.841 449.022 173.422 446.91 175.68L441.91 173.98L439.4 178.31L443.4 181.81C442.506 184.767 442.506 187.923 443.4 190.88L439.4 194.37L441.91 198.71L446.91 197.01C449.022 199.268 451.758 200.849 454.77 201.55L455.77 206.74H460.77L461.77 201.55C464.779 200.849 467.511 199.268 469.62 197.01L474.62 198.71L477.12 194.37L473.12 190.88C473.563 189.407 473.788 187.878 473.79 186.34ZM458.18 194.77C456.573 194.772 455.002 194.297 453.665 193.406C452.328 192.514 451.286 191.246 450.67 189.762C450.054 188.278 449.892 186.644 450.205 185.068C450.518 183.492 451.292 182.045 452.428 180.908C453.564 179.772 455.012 178.999 456.588 178.686C458.164 178.373 459.798 178.534 461.282 179.15C462.766 179.766 464.034 180.808 464.926 182.145C465.817 183.482 466.292 185.053 466.29 186.66C466.29 188.811 465.435 190.874 463.915 192.395C462.394 193.916 460.331 194.77 458.18 194.77Z" fill="#E0E0E0"/>
<path d="M548.61 160.56L551.26 155.17L553.92 160.55L559.86 161.41L555.56 165.6L556.58 171.51L551.27 168.72L545.97 171.52L546.98 165.61L542.68 161.42L548.61 160.56Z" fill="#C7D5FF"/>
<path d="M572.78 160.56L575.43 155.17L578.09 160.55L584.02 161.41L579.73 165.6L580.75 171.51L575.44 168.72L570.13 171.52L571.14 165.61L566.84 161.42L572.78 160.56Z" fill="#C7D5FF"/>
<path d="M596.94 160.56L599.59 155.17L602.25 160.55L608.19 161.41L603.9 165.6L604.92 171.51L599.61 168.72L594.3 171.52L595.31 165.61L591.01 161.42L596.94 160.56Z" fill="#C7D5FF"/>
<path d="M621.11 160.56L623.76 155.17L626.42 160.55L632.36 161.41L628.06 165.6L629.08 171.51L623.77 168.72L618.47 171.52L619.48 165.61L615.18 161.42L621.11 160.56Z" fill="#C7D5FF"/>
<path d="M645.28 160.56L647.93 155.17L650.59 160.55L656.52 161.41L652.23 165.6L653.25 171.51L647.94 168.72L642.63 171.52L643.64 165.61L639.34 161.42L645.28 160.56Z" fill="#F3F3F3"/>
<path d="M595.18 488.71C702.263 488.71 789.07 483.642 789.07 477.39C789.07 471.138 702.263 466.07 595.18 466.07C488.098 466.07 401.29 471.138 401.29 477.39C401.29 483.642 488.098 488.71 595.18 488.71Z" fill="#E5E5E5"/>
<path d="M529.66 467.43L529.46 469.73C529.439 470.013 529.469 470.298 529.55 470.57C529.587 470.697 529.641 470.818 529.71 470.93C529.783 471.041 529.864 471.148 529.95 471.25C530.038 471.352 530.139 471.443 530.25 471.52C530.589 471.761 530.994 471.89 531.41 471.89H613.81C614.007 471.89 614.202 471.86 614.39 471.8C614.52 471.76 614.648 471.71 614.77 471.65C615.205 471.437 615.557 471.085 615.77 470.65C615.897 470.408 615.975 470.143 616 469.87L616.19 467.66C616.221 467.397 616.19 467.129 616.1 466.88C616.062 466.765 616.012 466.654 615.95 466.55C615.795 466.288 615.574 466.071 615.31 465.92C615.197 465.858 615.08 465.805 614.96 465.76C614.776 465.7 614.583 465.67 614.39 465.67H593.87C593.612 465.673 593.354 465.649 593.1 465.6L592.81 465.52C592.7 465.489 592.593 465.449 592.49 465.4C592.39 465.368 592.295 465.321 592.21 465.26C592.066 465.185 591.929 465.098 591.8 465C591.645 464.876 591.501 464.739 591.37 464.59C591.3 464.5 591.23 464.42 591.16 464.32L591.02 464.12L590.97 464.04C590.91 463.949 590.86 463.852 590.82 463.75L590.7 463.48C590.704 463.46 590.704 463.44 590.7 463.42C590.706 463.397 590.706 463.373 590.7 463.35C590.671 463.273 590.65 463.192 590.64 463.11C590.63 462.997 590.63 462.883 590.64 462.77C590.64 462.67 590.64 462.56 590.64 462.45C590.64 462.34 590.64 462.24 590.64 462.13V462C590.634 461.893 590.634 461.787 590.64 461.68C590.64 461.56 590.69 461.46 590.71 461.35L598.77 430.43L600.32 424.49L601.53 419.84H554.73L552.22 424.49L549.02 430.43L530.82 464.17C530.76 464.29 530.7 464.41 530.63 464.53L530.45 464.94C530.4 465.08 530.34 465.21 530.29 465.36L530.2 465.64C529.954 466.215 529.773 466.815 529.66 467.43Z" fill="#263238"/>
<path opacity="0.2" d="M616.16 467.68L615.97 469.91C615.919 470.451 615.67 470.953 615.271 471.322C614.873 471.691 614.353 471.9 613.81 471.91H531.43C531.153 471.911 530.879 471.854 530.626 471.744C530.372 471.634 530.144 471.472 529.956 471.269C529.768 471.066 529.624 470.826 529.534 470.565C529.443 470.303 529.408 470.026 529.43 469.75L529.63 467.45C529.682 466.835 529.803 466.228 529.99 465.64C530.16 465.126 530.374 464.627 530.63 464.15L554.55 419.82H601.35L590.53 461.33C590.459 461.568 590.415 461.813 590.4 462.06C590.331 462.88 590.565 463.696 591.057 464.356C591.549 465.015 592.265 465.472 593.07 465.64C593.322 465.698 593.581 465.725 593.84 465.72H614.33C614.583 465.713 614.835 465.76 615.069 465.858C615.303 465.956 615.514 466.103 615.687 466.288C615.86 466.473 615.991 466.693 616.073 466.933C616.154 467.173 616.184 467.428 616.16 467.68Z" fill="white"/>
<path d="M528 464.13L551.91 419.79H554.56L530.64 464.13C530.086 465.15 529.745 466.273 529.64 467.43L529.44 469.73C529.41 470.007 529.439 470.287 529.527 470.552C529.615 470.816 529.758 471.059 529.948 471.263C530.138 471.467 530.369 471.627 530.627 471.734C530.884 471.84 531.162 471.89 531.44 471.88H528.79C528.512 471.89 528.234 471.84 527.977 471.734C527.719 471.627 527.488 471.467 527.298 471.263C527.108 471.059 526.965 470.816 526.877 470.552C526.789 470.287 526.76 470.007 526.79 469.73L526.99 467.43C527.094 466.272 527.438 465.148 528 464.13Z" fill="#263238"/>
<path opacity="0.3" d="M554.58 419.79H601.37L598.61 430.39H548.86L554.58 419.79Z" fill="black"/>
<path d="M475.18 272.88V417.15C475.179 418.108 475.366 419.057 475.732 419.943C476.098 420.828 476.635 421.633 477.312 422.311C477.989 422.989 478.793 423.527 479.678 423.894C480.563 424.261 481.512 424.45 482.47 424.45H682.14C683.098 424.45 684.047 424.261 684.932 423.894C685.817 423.527 686.621 422.989 687.298 422.311C687.975 421.633 688.512 420.828 688.878 419.943C689.244 419.057 689.431 418.108 689.43 417.15V272.88C689.431 271.921 689.243 270.971 688.877 270.085C688.511 269.199 687.973 268.393 687.295 267.715C686.617 267.037 685.811 266.499 684.925 266.133C684.039 265.767 683.089 265.579 682.13 265.58H482.49C480.884 265.581 479.324 266.112 478.05 267.09C477.871 267.222 477.701 267.366 477.54 267.52C477.048 267.966 476.624 268.482 476.28 269.05C476.039 269.424 475.837 269.823 475.68 270.24C475.355 271.083 475.185 271.977 475.18 272.88Z" fill="#263238"/>
<path d="M689.43 401.55V417.15C689.43 419.086 688.661 420.943 687.292 422.312C685.923 423.681 684.066 424.45 682.13 424.45H482.49C480.554 424.45 478.697 423.681 477.328 422.312C475.959 420.943 475.19 419.086 475.19 417.15V401.55H689.43Z" fill="#C7D5FF"/>
<path opacity="0.6" d="M689.43 401.55V417.15C689.43 419.086 688.661 420.943 687.292 422.312C685.923 423.681 684.066 424.45 682.13 424.45H482.49C480.554 424.45 478.697 423.681 477.328 422.312C475.959 420.943 475.19 419.086 475.19 417.15V401.55H689.43Z" fill="white"/>
<path d="M482.62 397.14H682C683.061 397.14 684.078 396.719 684.829 395.968C685.579 395.218 686 394.201 686 393.14V274C686 272.939 685.579 271.922 684.829 271.172C684.078 270.421 683.061 270 682 270H482.62C481.559 270 480.542 270.421 479.792 271.172C479.042 271.922 478.62 272.939 478.62 274V393.18C478.631 394.234 479.057 395.241 479.806 395.983C480.555 396.724 481.566 397.14 482.62 397.14Z" fill="#C7D5FF"/>
<path d="M478.07 265.58H482.49C480.554 265.58 478.697 266.349 477.328 267.718C475.959 269.087 475.19 270.944 475.19 272.88V417.15C475.19 419.086 475.959 420.943 477.328 422.312C478.697 423.681 480.554 424.45 482.49 424.45H478.07C476.134 424.45 474.277 423.681 472.908 422.312C471.539 420.943 470.77 419.086 470.77 417.15V272.88C470.77 270.944 471.539 269.087 472.908 267.718C474.277 266.349 476.134 265.58 478.07 265.58Z" fill="#263238"/>
<g opacity="0.2">
<path d="M478.07 265.58H482.49C480.554 265.58 478.697 266.349 477.328 267.718C475.959 269.087 475.19 270.944 475.19 272.88V417.15C475.19 419.086 475.959 420.943 477.328 422.312C478.697 423.681 480.554 424.45 482.49 424.45H478.07C476.134 424.45 474.277 423.681 472.908 422.312C471.539 420.943 470.77 419.086 470.77 417.15V272.88C470.77 270.944 471.539 269.087 472.908 267.718C474.277 266.349 476.134 265.58 478.07 265.58Z" fill="white"/>
</g>
<path opacity="0.5" d="M687.18 345.92C682.04 344.92 673.9 348.25 672.38 353.25C672.551 351.723 672.279 350.18 671.596 348.804C670.913 347.428 669.849 346.277 668.53 345.49C665.88 343.96 662.41 342.88 659.97 344.72C661.127 339.806 660.892 334.666 659.291 329.878C657.691 325.09 654.789 320.842 650.91 317.61C643.09 311.28 631.68 310.61 622.65 315.02C623.955 312.513 624.695 309.75 624.819 306.926C624.943 304.102 624.447 301.285 623.366 298.673C622.286 296.061 620.646 293.717 618.564 291.806C616.481 289.895 614.005 288.463 611.31 287.61C598.75 283.236 585.318 281.963 572.16 283.9C564.55 285.02 556.79 287.4 551.26 292.74C545.73 298.08 544.26 307.74 547.98 314.47C543.687 313.084 539.097 312.899 534.707 313.938C530.318 314.976 526.296 317.197 523.08 320.36C519.979 323.599 517.831 327.631 516.873 332.011C515.915 336.392 516.184 340.952 517.65 345.19C516.47 344.49 515.134 344.095 513.763 344.043C512.392 343.991 511.03 344.282 509.8 344.89C508.589 345.504 507.554 346.417 506.793 347.542C506.032 348.667 505.57 349.967 505.45 351.32C503.851 349.21 501.768 347.514 499.378 346.376C496.987 345.239 494.358 344.692 491.712 344.782C489.065 344.872 486.479 345.597 484.172 346.894C481.864 348.192 479.902 350.026 478.45 352.24V397.14H686L687.18 345.92Z" fill="white"/>
<path d="M640.93 326.21H534.01C528.57 326.21 524.16 330.62 524.16 336.06C524.16 341.5 528.57 345.91 534.01 345.91H640.93C646.37 345.91 650.78 341.5 650.78 336.06C650.78 330.62 646.37 326.21 640.93 326.21Z" fill="white"/>
<path d="M533.4 339.83C532.249 339.83 531.124 339.489 530.167 338.849C529.21 338.21 528.464 337.301 528.023 336.237C527.583 335.174 527.467 334.003 527.692 332.875C527.916 331.746 528.471 330.709 529.285 329.895C530.099 329.081 531.136 328.526 532.265 328.302C533.394 328.077 534.564 328.192 535.627 328.633C536.691 329.073 537.6 329.819 538.239 330.777C538.879 331.734 539.22 332.859 539.22 334.01C539.217 335.553 538.603 337.031 537.513 338.122C536.422 339.213 534.943 339.827 533.4 339.83ZM533.4 331.19C532.842 331.19 532.297 331.355 531.833 331.665C531.37 331.975 531.008 332.416 530.795 332.931C530.581 333.446 530.525 334.013 530.634 334.56C530.743 335.107 531.012 335.61 531.406 336.004C531.8 336.398 532.303 336.667 532.85 336.776C533.397 336.885 533.964 336.829 534.479 336.615C534.995 336.402 535.435 336.04 535.745 335.577C536.055 335.113 536.22 334.568 536.22 334.01C536.217 333.263 535.919 332.547 535.391 332.019C534.863 331.491 534.147 331.193 533.4 331.19Z" fill="#263238"/>
<path d="M537.428 336.078L535.305 338.198L542.195 345.097L544.318 342.977L537.428 336.078Z" fill="#263238"/>
<g opacity="0.1">
<path d="M618.47 269.99H626.13L642.04 397.14H634.37L618.47 269.99Z" fill="white"/>
<path d="M649.79 397.14L633.89 269.99H662.7L678.6 397.14H649.79Z" fill="white"/>
</g>
<path opacity="0.2" d="M543.87 467.7L543.69 469.81C543.66 470.074 543.687 470.342 543.769 470.595C543.851 470.848 543.985 471.081 544.164 471.278C544.343 471.475 544.562 471.631 544.806 471.737C545.05 471.842 545.314 471.895 545.58 471.89H613.81C614.353 471.88 614.873 471.671 615.272 471.302C615.67 470.933 615.919 470.43 615.97 469.89L616.16 467.68C616.192 467.426 616.168 467.168 616.091 466.924C616.014 466.68 615.885 466.455 615.714 466.265C615.542 466.075 615.331 465.925 615.096 465.824C614.86 465.723 614.606 465.674 614.35 465.68H593.86C593.604 465.681 593.349 465.651 593.1 465.59H546.1C545.535 465.61 544.997 465.835 544.586 466.223C544.176 466.612 543.921 467.137 543.87 467.7Z" fill="white"/>
<path opacity="0.2" d="M530 465.62H593.1C592.293 465.456 591.576 465 591.085 464.339C590.594 463.678 590.364 462.86 590.44 462.04H532L530 465.62Z" fill="black"/>
<path d="M562.27 314.39L563.65 311.32C565.359 312.501 567.383 313.142 569.46 313.16C571.87 313.16 572.85 312.35 572.85 311.27C572.85 307.98 562.62 310.27 562.62 303.71C562.62 300.71 565.03 298.23 570.03 298.23C572.171 298.186 574.283 298.725 576.14 299.79L574.88 302.88C573.401 302.004 571.719 301.528 570 301.5C567.59 301.5 566.66 302.4 566.66 303.5C566.66 306.74 576.89 304.5 576.89 310.96C576.89 313.9 574.45 316.42 569.42 316.42C566.886 316.483 564.393 315.775 562.27 314.39Z" fill="#263238"/>
<path d="M593.31 312.86V316.12H579.69V298.53H593V301.8H583.75V305.62H591.92V308.79H583.75V312.86H593.31Z" fill="#263238"/>
<path d="M595.4 307.33C595.4 302.1 599.47 298.23 605.02 298.23C610.57 298.23 614.65 302.08 614.65 307.33C614.65 312.58 610.55 316.43 605.02 316.43C599.49 316.43 595.4 312.56 595.4 307.33ZM610.53 307.33C610.498 306.248 610.149 305.2 609.526 304.316C608.903 303.431 608.033 302.75 607.025 302.357C606.017 301.964 604.915 301.876 603.858 302.105C602.8 302.333 601.833 302.868 601.078 303.643C600.322 304.417 599.812 305.397 599.609 306.46C599.407 307.523 599.522 308.622 599.941 309.62C600.359 310.618 601.062 311.471 601.961 312.072C602.861 312.673 603.918 312.996 605 313C605.744 313.023 606.486 312.892 607.177 312.613C607.867 312.335 608.493 311.915 609.013 311.382C609.533 310.849 609.936 310.213 610.198 309.516C610.459 308.818 610.572 308.074 610.53 307.33Z" fill="#263238"/>
<path opacity="0.8" d="M582.22 358.84H540.02C537.894 358.84 536.17 360.564 536.17 362.69V371.61C536.17 373.736 537.894 375.46 540.02 375.46H582.22C584.346 375.46 586.07 373.736 586.07 371.61V362.69C586.07 360.564 584.346 358.84 582.22 358.84Z" fill="white"/>
<path opacity="0.8" d="M643.42 358.84H601.22C599.094 358.84 597.37 360.564 597.37 362.69V371.61C597.37 373.736 599.094 375.46 601.22 375.46H643.42C645.546 375.46 647.27 373.736 647.27 371.61V362.69C647.27 360.564 645.546 358.84 643.42 358.84Z" fill="white"/>
<path d="M559.92 275.66L584.71 231.66C584.797 231.506 584.924 231.378 585.077 231.289C585.229 231.2 585.403 231.153 585.58 231.153C585.757 231.153 585.931 231.2 586.084 231.289C586.236 231.378 586.363 231.506 586.45 231.66L611.24 275.66C611.323 275.812 611.365 275.982 611.363 276.155C611.36 276.328 611.313 276.498 611.225 276.647C611.137 276.796 611.012 276.92 610.863 277.006C610.713 277.093 610.543 277.139 610.37 277.14H560.8C560.626 277.141 560.455 277.096 560.304 277.01C560.153 276.924 560.027 276.801 559.938 276.651C559.849 276.502 559.801 276.332 559.798 276.158C559.794 275.984 559.837 275.813 559.92 275.66Z" fill="#C7D5FF"/>
<path opacity="0.3" d="M559.92 275.66L584.71 231.66C584.797 231.506 584.924 231.378 585.077 231.289C585.229 231.2 585.403 231.153 585.58 231.153C585.757 231.153 585.931 231.2 586.084 231.289C586.236 231.378 586.363 231.506 586.45 231.66L611.24 275.66C611.323 275.812 611.365 275.982 611.363 276.155C611.36 276.328 611.313 276.498 611.225 276.647C611.137 276.796 611.012 276.92 610.863 277.006C610.713 277.093 610.543 277.139 610.37 277.14H560.8C560.626 277.141 560.455 277.096 560.304 277.01C560.153 276.924 560.027 276.801 559.938 276.651C559.849 276.502 559.801 276.332 559.798 276.158C559.794 275.984 559.837 275.813 559.92 275.66Z" fill="black"/>
<path d="M573.8 283.73L572.59 278.79H568.25L567.05 283.73C569.211 284.625 571.639 284.625 573.8 283.73Z" fill="#263238"/>
<path opacity="0.2" d="M568.25 278.79L567.97 279.94C569.569 280.41 571.27 280.41 572.87 279.94L572.59 278.79H568.25Z" fill="white"/>
<path opacity="0.4" d="M567.67 281.18C567.59 281.5 567.51 281.81 567.44 282.11C569.393 282.724 571.487 282.724 573.44 282.11L573.22 281.18C571.388 281.55 569.501 281.55 567.67 281.18Z" fill="white"/>
<path d="M575 278.44C572.067 279.651 568.773 279.651 565.84 278.44V241.74C565.837 239.686 566.24 237.651 567.026 235.753C567.812 233.855 568.966 232.131 570.42 230.68C571.875 232.131 573.028 233.855 573.814 235.753C574.6 237.651 575.003 239.686 575 241.74V278.44Z" fill="#C7D5FF"/>
<path d="M565.84 241.74V276.33C568.806 277.365 572.034 277.365 575 276.33V241.74C575.003 239.686 574.6 237.651 573.814 235.753C573.028 233.855 571.875 232.131 570.42 230.68C568.966 232.131 567.812 233.855 567.026 235.753C566.24 237.651 565.837 239.686 565.84 241.74Z" fill="#C7D5FF"/>
<path opacity="0.4" d="M565.84 241.74V276.33C568.806 277.365 572.034 277.365 575 276.33V241.74C575.003 239.686 574.6 237.651 573.814 235.753C573.028 233.855 571.875 232.131 570.42 230.68C568.966 232.131 567.812 233.855 567.026 235.753C566.24 237.651 565.837 239.686 565.84 241.74Z" fill="white"/>
<path d="M565.84 241.74V267.74C568.834 268.595 572.007 268.595 575 267.74V241.74C575.003 239.686 574.6 237.651 573.814 235.753C573.028 233.855 571.875 232.131 570.42 230.68C568.966 232.131 567.812 233.855 567.026 235.753C566.24 237.651 565.837 239.686 565.84 241.74Z" fill="#C7D5FF"/>
<path opacity="0.6" d="M565.84 241.74V267.74C568.834 268.595 572.007 268.595 575 267.74V241.74C575.003 239.686 574.6 237.651 573.814 235.753C573.028 233.855 571.875 232.131 570.42 230.68C568.966 232.131 567.812 233.855 567.026 235.753C566.24 237.651 565.837 239.686 565.84 241.74Z" fill="white"/>
<path d="M565.84 241.74V255.34C568.833 256.2 572.007 256.2 575 255.34V241.74C575.003 239.686 574.6 237.651 573.814 235.753C573.028 233.855 571.875 232.131 570.42 230.68C568.966 232.131 567.812 233.855 567.026 235.753C566.24 237.651 565.837 239.686 565.84 241.74Z" fill="#C7D5FF"/>
<path opacity="0.8" d="M565.84 241.74V255.34C568.833 256.2 572.007 256.2 575 255.34V241.74C575.003 239.686 574.6 237.651 573.814 235.753C573.028 233.855 571.875 232.131 570.42 230.68C568.966 232.131 567.812 233.855 567.026 235.753C566.24 237.651 565.837 239.686 565.84 241.74Z" fill="white"/>
<path d="M565.84 241.74V243.33C568.834 244.185 572.007 244.185 575 243.33V241.74C575.003 239.686 574.6 237.651 573.814 235.753C573.028 233.855 571.875 232.131 570.42 230.68C568.966 232.131 567.812 233.855 567.026 235.753C566.24 237.651 565.837 239.686 565.84 241.74Z" fill="#C7D5FF"/>
<path opacity="0.4" d="M565.84 241.74V243.33C568.834 244.185 572.007 244.185 575 243.33V241.74C575.003 239.686 574.6 237.651 573.814 235.753C573.028 233.855 571.875 232.131 570.42 230.68C568.966 232.131 567.812 233.855 567.026 235.753C566.24 237.651 565.837 239.686 565.84 241.74Z" fill="white"/>
<path d="M603.27 283.73L602.07 278.79H597.73L596.52 283.73C598.681 284.625 601.109 284.625 603.27 283.73Z" fill="#263238"/>
<path opacity="0.2" d="M597.73 278.79L597.45 279.94C599.049 280.41 600.75 280.41 602.35 279.94L602.07 278.79H597.73Z" fill="white"/>
<path opacity="0.4" d="M597.14 281.18C597.07 281.5 596.99 281.81 596.92 282.11C598.873 282.724 600.967 282.724 602.92 282.11L602.69 281.18C600.858 281.55 598.971 281.55 597.14 281.18Z" fill="white"/>
<path d="M604.48 278.44C601.547 279.651 598.253 279.651 595.32 278.44V241.74C595.317 239.686 595.72 237.651 596.506 235.753C597.292 233.855 598.446 232.131 599.9 230.68C601.355 232.131 602.508 233.855 603.294 235.753C604.08 237.651 604.483 239.686 604.48 241.74V278.44Z" fill="#C7D5FF"/>
<path d="M595.32 241.74V276.33C598.286 277.365 601.514 277.365 604.48 276.33V241.74C604.483 239.686 604.08 237.651 603.294 235.753C602.508 233.855 601.355 232.131 599.9 230.68C598.446 232.131 597.292 233.855 596.506 235.753C595.72 237.651 595.317 239.686 595.32 241.74Z" fill="#C7D5FF"/>
<path opacity="0.4" d="M595.32 241.74V276.33C598.286 277.365 601.514 277.365 604.48 276.33V241.74C604.483 239.686 604.08 237.651 603.294 235.753C602.508 233.855 601.355 232.131 599.9 230.68C598.446 232.131 597.292 233.855 596.506 235.753C595.72 237.651 595.317 239.686 595.32 241.74Z" fill="white"/>
<path d="M595.32 241.74V267.74C598.314 268.595 601.487 268.595 604.48 267.74V241.74C604.483 239.686 604.08 237.651 603.294 235.753C602.508 233.855 601.355 232.131 599.9 230.68C598.446 232.131 597.292 233.855 596.506 235.753C595.72 237.651 595.317 239.686 595.32 241.74Z" fill="#C7D5FF"/>
<path opacity="0.6" d="M595.32 241.74V267.74C598.314 268.595 601.487 268.595 604.48 267.74V241.74C604.483 239.686 604.08 237.651 603.294 235.753C602.508 233.855 601.355 232.131 599.9 230.68C598.446 232.131 597.292 233.855 596.506 235.753C595.72 237.651 595.317 239.686 595.32 241.74Z" fill="white"/>
<path d="M595.32 241.74V255.34C598.313 256.2 601.487 256.2 604.48 255.34V241.74C604.483 239.686 604.08 237.651 603.294 235.753C602.508 233.855 601.355 232.131 599.9 230.68C598.446 232.131 597.292 233.855 596.506 235.753C595.72 237.651 595.317 239.686 595.32 241.74Z" fill="#C7D5FF"/>
<path opacity="0.8" d="M595.32 241.74V255.34C598.313 256.2 601.487 256.2 604.48 255.34V241.74C604.483 239.686 604.08 237.651 603.294 235.753C602.508 233.855 601.355 232.131 599.9 230.68C598.446 232.131 597.292 233.855 596.506 235.753C595.72 237.651 595.317 239.686 595.32 241.74Z" fill="white"/>
<path d="M595.32 241.74V243.33C598.314 244.185 601.487 244.185 604.48 243.33V241.74C604.483 239.686 604.08 237.651 603.294 235.753C602.508 233.855 601.355 232.131 599.9 230.68C598.446 232.131 597.292 233.855 596.506 235.753C595.72 237.651 595.317 239.686 595.32 241.74Z" fill="#C7D5FF"/>
<path opacity="0.4" d="M595.32 241.74V243.33C598.314 244.185 601.487 244.185 604.48 243.33V241.74C604.483 239.686 604.08 237.651 603.294 235.753C602.508 233.855 601.355 232.131 599.9 230.68C598.446 232.131 597.292 233.855 596.506 235.753C595.72 237.651 595.317 239.686 595.32 241.74Z" fill="white"/>
<path d="M590.61 286.56L588.61 278.56H581.61L579.66 286.56C581.394 287.288 583.255 287.662 585.135 287.662C587.015 287.662 588.876 287.288 590.61 286.56Z" fill="#263238"/>
<path opacity="0.2" d="M581.66 278.59C581.66 278.59 581.37 279.79 581.2 280.45C583.786 281.205 586.534 281.205 589.12 280.45L588.66 278.58L581.66 278.59Z" fill="white"/>
<path opacity="0.4" d="M580.71 282.46L580.35 283.96C583.483 284.93 586.837 284.93 589.97 283.96L589.61 282.46C586.672 283.039 583.648 283.039 580.71 282.46Z" fill="white"/>
<path d="M592.56 278C590.216 278.978 587.7 279.482 585.16 279.482C582.62 279.482 580.105 278.978 577.76 278V218.78C577.757 215.464 578.409 212.18 579.679 209.117C580.949 206.053 582.812 203.271 585.16 200.93C587.509 203.271 589.371 206.053 590.641 209.117C591.911 212.18 592.563 215.464 592.56 218.78V278Z" fill="#C7D5FF"/>
<path d="M577.76 218.78V274.63C582.554 276.29 587.766 276.29 592.56 274.63V218.78C592.563 215.464 591.911 212.18 590.641 209.117C589.371 206.053 587.509 203.271 585.16 200.93C582.812 203.271 580.949 206.053 579.679 209.117C578.409 212.18 577.757 215.464 577.76 218.78Z" fill="#C7D5FF"/>
<path opacity="0.4" d="M577.76 218.78V274.63C582.554 276.29 587.766 276.29 592.56 274.63V218.78C592.563 215.464 591.911 212.18 590.641 209.117C589.371 206.053 587.509 203.271 585.16 200.93C582.812 203.271 580.949 206.053 579.679 209.117C578.409 212.18 577.757 215.464 577.76 218.78Z" fill="white"/>
<path d="M577.76 218.78V260.72C582.597 262.098 587.723 262.098 592.56 260.72V218.78C592.563 215.464 591.911 212.18 590.641 209.117C589.371 206.053 587.509 203.271 585.16 200.93C582.812 203.271 580.949 206.053 579.679 209.117C578.409 212.18 577.757 215.464 577.76 218.78Z" fill="#C7D5FF"/>
<path opacity="0.6" d="M577.76 218.78V260.72C582.597 262.098 587.723 262.098 592.56 260.72V218.78C592.563 215.464 591.911 212.18 590.641 209.117C589.371 206.053 587.509 203.271 585.16 200.93C582.812 203.271 580.949 206.053 579.679 209.117C578.409 212.18 577.757 215.464 577.76 218.78Z" fill="white"/>
<path d="M577.76 218.78V240.78C582.597 242.158 587.723 242.158 592.56 240.78V218.78C592.563 215.464 591.911 212.18 590.641 209.117C589.371 206.053 587.509 203.271 585.16 200.93C582.812 203.271 580.949 206.053 579.679 209.117C578.409 212.18 577.757 215.464 577.76 218.78Z" fill="#C7D5FF"/>
<path opacity="0.8" d="M577.76 218.78V240.78C582.597 242.158 587.723 242.158 592.56 240.78V218.78C592.563 215.464 591.911 212.18 590.641 209.117C589.371 206.053 587.509 203.271 585.16 200.93C582.812 203.271 580.949 206.053 579.679 209.117C578.409 212.18 577.757 215.464 577.76 218.78Z" fill="white"/>
<path d="M577.76 218.78V221.35C582.597 222.728 587.723 222.728 592.56 221.35V218.78C592.563 215.464 591.911 212.18 590.641 209.117C589.371 206.053 587.509 203.271 585.16 200.93C582.812 203.271 580.949 206.053 579.679 209.117C578.409 212.18 577.757 215.464 577.76 218.78Z" fill="#C7D5FF"/>
<path opacity="0.1" d="M577.76 218.78V221.35C582.597 222.728 587.723 222.728 592.56 221.35V218.78C592.563 215.464 591.911 212.18 590.641 209.117C589.371 206.053 587.509 203.271 585.16 200.93C582.812 203.271 580.949 206.053 579.679 209.117C578.409 212.18 577.757 215.464 577.76 218.78Z" fill="white"/>
<path d="M589.47 230.63C589.472 231.483 589.221 232.317 588.749 233.027C588.276 233.737 587.604 234.291 586.816 234.619C586.029 234.947 585.162 235.034 584.325 234.868C583.489 234.703 582.72 234.294 582.116 233.691C581.512 233.089 581.101 232.321 580.934 231.485C580.767 230.648 580.851 229.781 581.177 228.993C581.503 228.205 582.056 227.531 582.765 227.057C583.474 226.583 584.307 226.33 585.16 226.33C586.301 226.33 587.396 226.783 588.204 227.589C589.012 228.395 589.467 229.489 589.47 230.63Z" fill="#C7D5FF"/>
<path d="M585.16 234.94C584.071 234.942 583.021 234.531 582.225 233.788C581.428 233.045 580.944 232.027 580.87 230.94C580.87 231.05 580.87 231.16 580.87 231.26C580.87 232.403 581.324 233.499 582.132 234.308C582.941 235.116 584.037 235.57 585.18 235.57C586.323 235.57 587.419 235.116 588.228 234.308C589.036 233.499 589.49 232.403 589.49 231.26C589.49 231.16 589.49 231.05 589.49 230.94C589.414 232.033 588.923 233.055 588.118 233.799C587.314 234.542 586.256 234.95 585.16 234.94Z" fill="#C7D5FF"/>
<path opacity="0.3" d="M585.16 234.94C584.071 234.942 583.021 234.531 582.225 233.788C581.428 233.045 580.944 232.027 580.87 230.94C580.87 231.05 580.87 231.16 580.87 231.26C580.87 232.403 581.324 233.499 582.132 234.308C582.941 235.116 584.037 235.57 585.18 235.57C586.323 235.57 587.419 235.116 588.228 234.308C589.036 233.499 589.49 232.403 589.49 231.26C589.49 231.16 589.49 231.05 589.49 230.94C589.414 232.033 588.923 233.055 588.118 233.799C587.314 234.542 586.256 234.95 585.16 234.94Z" fill="black"/>
<path d="M585.16 233.68C586.845 233.68 588.21 232.314 588.21 230.63C588.21 228.946 586.845 227.58 585.16 227.58C583.476 227.58 582.11 228.946 582.11 230.63C582.11 232.314 583.476 233.68 585.16 233.68Z" fill="white"/>
<path d="M585 233.66L586.25 227.8C585.931 227.674 585.593 227.607 585.25 227.6L584 233.45C584.318 233.58 584.657 233.651 585 233.66Z" fill="#C7D5FF"/>
<path d="M586.14 233.51L587.22 228.4C587.081 228.273 586.93 228.159 586.77 228.06L585.58 233.64C585.77 233.612 585.957 233.569 586.14 233.51Z" fill="#C7D5FF"/>
<g opacity="0.7">
<path d="M585 233.66L586.25 227.8C585.931 227.674 585.593 227.607 585.25 227.6L584 233.45C584.318 233.58 584.657 233.651 585 233.66Z" fill="white"/>
<path d="M586.14 233.51L587.22 228.4C587.081 228.273 586.93 228.159 586.77 228.06L585.58 233.64C585.77 233.612 585.957 233.569 586.14 233.51Z" fill="white"/>
</g>
<path d="M695.57 346.26L694.42 346.51C693.905 346.614 693.436 346.876 693.077 347.26C692.719 347.643 692.489 348.129 692.42 348.65L692.32 349.46C692.268 349.864 692.315 350.275 692.458 350.657C692.601 351.039 692.835 351.379 693.14 351.65C695.03 353.3 699.49 356.36 704.89 354.39L709.2 351.14L708.49 345.32L699.49 344.02C698.946 344.04 698.423 344.237 698 344.58L695.57 346.26Z" fill="#FAB27B"/>
<path d="M709.23 351.14L721.2 350.54L719.35 344.03L708.52 345.32L709.23 351.14Z" fill="#FAB27B"/>
<path d="M716.36 344.08C715.869 344.998 715.7 346.054 715.88 347.08C716.098 348.741 716.765 350.311 717.81 351.62C715.793 351.65 713.81 352.139 712.01 353.05L711.91 353.1C705.67 348.84 709.27 343.79 709.27 343.79L709.68 343.85C711.893 344.156 714.131 344.233 716.36 344.08Z" fill="#C7D5FF"/>
<path d="M740.87 349.45C729.75 352.01 715.92 351.76 715.92 351.76C715.465 350.992 715.258 350.101 715.33 349.21C715.43 347.35 715.68 345.02 716.33 344.08C716.98 343.14 721.79 342.64 721.79 342.64C721.79 342.64 731.08 338.33 732.84 336.92C734.6 335.51 734.53 328.92 734.2 324.59C732.43 301.32 736.52 299.59 740.2 298.52C748 296.35 750.71 347.18 740.87 349.45Z" fill="#C7D5FF"/>
<path d="M664.68 354.44H695.76C696.76 354.44 697.23 353.62 696.76 352.61L689 335.08C688.758 334.569 688.386 334.131 687.92 333.81C687.455 333.489 686.914 333.296 686.35 333.25H655.26C654.26 333.25 653.79 334.07 654.26 335.08L662.06 352.61C662.299 353.117 662.667 353.553 663.126 353.874C663.586 354.195 664.122 354.39 664.68 354.44Z" fill="#C7D5FF"/>
<path opacity="0.2" d="M664.68 354.44H695.76C696.76 354.44 697.23 353.62 696.76 352.61L689 335.08C688.758 334.569 688.386 334.131 687.92 333.81C687.455 333.489 686.914 333.296 686.35 333.25H655.26C654.26 333.25 653.79 334.07 654.26 335.08L662.06 352.61C662.299 353.117 662.667 353.553 663.126 353.874C663.586 354.195 664.122 354.39 664.68 354.44Z" fill="black"/>
<path d="M653.91 333.25H655.26C654.26 333.25 653.79 334.07 654.26 335.08L662.06 352.61C662.3 353.12 662.671 353.558 663.135 353.879C663.598 354.2 664.138 354.394 664.7 354.44H663.36C662.796 354.394 662.255 354.201 661.79 353.88C661.325 353.559 660.952 353.121 660.71 352.61L652.92 335.08C652.45 334.07 652.9 333.25 653.91 333.25Z" fill="#C7D5FF"/>
<path opacity="0.4" d="M653.91 333.25H655.26C654.26 333.25 653.79 334.07 654.26 335.08L662.06 352.61C662.3 353.12 662.671 353.558 663.135 353.879C663.598 354.2 664.138 354.394 664.7 354.44H663.36C662.796 354.394 662.255 354.201 661.79 353.88C661.325 353.559 660.952 353.121 660.71 352.61L652.92 335.08C652.45 334.07 652.9 333.25 653.91 333.25Z" fill="black"/>
<path d="M665.26 352.43H693.39L685.76 335.26H657.63L665.26 352.43Z" fill="#263238"/>
<path opacity="0.8" d="M665.26 352.43H693.39L685.76 335.26H657.63L665.26 352.43Z" fill="white"/>
<path d="M757.82 353.07C757.82 353.07 758.59 363.33 758.7 366.93C759.45 390.98 739.82 392.81 725.38 390.16L673.08 375.54C671.01 382.49 646.83 420.76 646.83 420.76L634.12 413.46C634.12 413.46 647.3 381.87 655.81 359.88C660.66 347.33 700.19 356.01 714.75 358.6C719.17 359.79 718.32 352.88 718.32 352.88L757.82 353.07Z" fill="#263238"/>
<path d="M643.59 420.04L638.73 428.13L629.68 423.63L634.39 414.42L643.59 420.04Z" fill="#FAB27B"/>
<path d="M624.86 422C623.67 421.45 622.53 420.67 622.37 420C622.341 419.806 622.371 419.607 622.454 419.429C622.538 419.251 622.672 419.102 622.84 419C622.985 418.902 623.148 418.833 623.32 418.799C623.492 418.764 623.668 418.765 623.84 418.8C625.65 419.09 628.13 422.54 628.23 422.69C628.262 422.732 628.279 422.783 628.279 422.835C628.279 422.887 628.262 422.938 628.23 422.98C628.198 423.02 628.156 423.05 628.109 423.067C628.061 423.085 628.01 423.089 627.96 423.08C626.897 422.812 625.86 422.451 624.86 422ZM624.19 419.43C624.045 419.359 623.89 419.312 623.73 419.29C623.63 419.263 623.525 419.259 623.422 419.278C623.32 419.297 623.224 419.338 623.14 419.4C622.84 419.61 622.83 419.77 622.86 419.88C623.02 420.71 625.44 421.83 627.33 422.43C626.486 421.229 625.42 420.2 624.19 419.4V419.43Z" fill="#C7D5FF"/>
<path d="M627.89 423C627.861 423.012 627.829 423.012 627.8 423C626.89 422 625.53 418.83 626.23 417.84C626.37 417.59 626.71 417.36 627.37 417.59C627.61 417.674 627.83 417.806 628.017 417.978C628.205 418.15 628.355 418.358 628.46 418.59C629.22 420.16 628.29 422.87 628.25 422.99C628.235 423.033 628.209 423.071 628.173 423.099C628.138 423.127 628.095 423.145 628.05 423.15C628.014 423.139 627.98 423.119 627.953 423.093C627.925 423.067 627.904 423.036 627.89 423ZM627.32 418L627.2 417.93C626.77 417.77 626.67 417.93 626.63 417.98C626.27 418.6 627.04 420.92 627.91 422.17C628.293 421.028 628.318 419.796 627.98 418.64C627.846 418.353 627.611 418.125 627.32 418Z" fill="#C7D5FF"/>
<path d="M629.52 422.15L640 426.94C640.186 427.025 640.339 427.169 640.435 427.35C640.53 427.531 640.564 427.738 640.53 427.94L638.53 437.34C638.49 437.539 638.41 437.729 638.296 437.897C638.182 438.066 638.035 438.21 637.865 438.322C637.695 438.433 637.505 438.51 637.305 438.547C637.105 438.585 636.899 438.582 636.7 438.54C636.593 438.52 636.489 438.487 636.39 438.44C632.64 436.65 629.39 434.9 624.66 432.76C619.11 430.22 620.21 431.53 613.66 428.63C609.66 426.88 611.03 422.08 612.79 422.63C620.87 425.17 622.72 423.22 626.92 421.84C627.795 421.614 628.723 421.725 629.52 422.15Z" fill="#263238"/>
<path opacity="0.2" d="M641.12 424.15L643.59 420.04L634.39 414.42L632.11 418.87L641.12 424.15Z" fill="black"/>
<path d="M648.85 420L633.09 410.17C632.373 410.57 631.797 411.181 631.439 411.92C631.081 412.659 630.959 413.49 631.09 414.3L646.25 424C646.25 424 648.28 423.87 648.85 420Z" fill="#C7D5FF"/>
<path d="M670.41 460.29L668.5 469.26L658.76 467.98L660.18 458.02L670.41 460.29Z" fill="#FAB27B"/>
<path d="M653.81 468C652.54 467.87 651.25 467.51 650.88 466.92C650.8 466.76 650.768 466.58 650.789 466.402C650.811 466.224 650.884 466.056 651 465.92C651.2 465.657 651.494 465.481 651.82 465.43C653.57 465.13 656.94 467.51 657.09 467.62C657.13 467.649 657.16 467.689 657.176 467.736C657.192 467.782 657.194 467.833 657.18 467.88C657.165 467.928 657.136 467.971 657.097 468.003C657.058 468.035 657.01 468.055 656.96 468.06C655.91 468.13 654.857 468.11 653.81 468ZM652.38 465.85C652.225 465.825 652.066 465.825 651.91 465.85C651.809 465.858 651.711 465.888 651.623 465.938C651.535 465.988 651.459 466.057 651.4 466.14C651.19 466.43 651.24 466.58 651.3 466.67C651.71 467.38 654.3 467.67 656.21 467.6C655.057 466.773 653.757 466.173 652.38 465.83V465.85Z" fill="#C7D5FF"/>
<path d="M656.93 468C656.898 468.011 656.863 468.011 656.83 468C655.66 467.33 653.42 464.88 653.75 463.75C653.8 463.47 654.04 463.16 654.75 463.16C654.992 463.156 655.232 463.202 655.456 463.295C655.68 463.388 655.882 463.526 656.05 463.7C657.25 464.9 657.25 467.7 657.25 467.81C657.251 467.854 657.239 467.897 657.216 467.934C657.193 467.971 657.159 468.001 657.12 468.02C657.09 468.035 657.056 468.041 657.022 468.037C656.989 468.034 656.957 468.021 656.93 468ZM654.83 463.62H654.7C654.26 463.62 654.21 463.79 654.19 463.85C654.06 464.54 655.5 466.43 656.69 467.3C656.684 466.131 656.317 464.993 655.64 464.04C655.425 463.818 655.138 463.68 654.83 463.65V463.62Z" fill="#C7D5FF"/>
<path d="M658.15 466.66L669.3 467.76C669.505 467.779 669.697 467.868 669.845 468.012C669.992 468.156 670.086 468.346 670.11 468.55L671.24 477.82C671.288 478.215 671.179 478.613 670.935 478.927C670.692 479.242 670.334 479.448 669.94 479.5C669.834 479.51 669.727 479.51 669.62 479.5C665.62 479.03 662.05 478.5 657.05 477.98C651.14 477.4 652.57 478.25 645.61 477.67C641.42 477.31 641.12 472.48 642.92 472.42C651.14 472.2 652.23 469.83 655.64 467.23C656.38 466.742 657.272 466.539 658.15 466.66Z" fill="#263238"/>
<path opacity="0.2" d="M659.43 463.26L669.61 464.05L670.41 460.29L660.18 458.02L659.43 463.26Z" fill="black"/>
<path d="M673.3 456.74L673.01 457.87L658.08 456.69L658.24 455.56L673.3 456.74Z" fill="#263238"/>
<path d="M673.91 461.42L670.23 461.09L659.87 460.16L656.53 459.86C656.055 459.222 655.787 458.454 655.76 457.658C655.733 456.863 655.949 456.079 656.38 455.41L658.24 455.56L673.3 456.74L674.38 456.83C675.63 460.42 673.91 461.42 673.91 461.42Z" fill="#C7D5FF"/>
<path d="M734.53 399.08C721.02 400.27 689.86 400.77 685.64 400.15L673.3 456.74L658.24 455.56C658.24 455.56 659.83 406.63 666.47 386.4C671.81 370.14 757.23 373.51 757.23 373.51L757.53 378.09C758.12 393.87 750 397.71 734.53 399.08Z" fill="#263238"/>
<path opacity="0.1" d="M734.53 399.08C721.02 400.27 689.86 400.77 685.64 400.15L673.3 456.74L658.24 455.56C658.24 455.56 659.83 406.63 666.47 386.4C671.81 370.14 757.23 373.51 757.23 373.51L757.53 378.09C758.12 393.87 750 397.71 734.53 399.08Z" fill="black"/>
<path d="M666.23 392.31C666.225 392.22 666.225 392.13 666.23 392.04V392.31Z" fill="#263238"/>
<path d="M667.24 385L667.09 386.11C667.119 385.737 667.169 385.367 667.24 385Z" fill="#263238"/>
<path d="M715.06 296.59L719.21 302.65L728.54 294.67L722.71 287.51L715.06 296.59Z" fill="#FAB27B"/>
<path opacity="0.2" d="M717.14 299.46C718.94 296.81 718.14 292.7 718.14 292.7L716.5 294.79L715.08 296.59L717.14 299.46Z" fill="black"/>
<path d="M699.1 283.24C699.3 283.83 699.78 284.24 700.17 284.06C700.56 283.88 700.73 283.29 700.52 282.72C700.31 282.15 699.85 281.72 699.45 281.91C699.05 282.1 698.91 282.65 699.1 283.24Z" fill="#263238"/>
<path d="M701.26 283.42L699.94 289.08C700.608 289.219 701.298 289.201 701.958 289.028C702.617 288.854 703.227 288.53 703.74 288.08L701.26 283.42Z" fill="#ED893E"/>
<path d="M698.51 279.11C698.558 279.085 698.611 279.073 698.665 279.073C698.719 279.073 698.772 279.085 698.82 279.11C699.198 279.269 699.608 279.335 700.017 279.304C700.425 279.273 700.821 279.145 701.17 278.93C701.204 278.903 701.242 278.884 701.284 278.873C701.325 278.862 701.368 278.86 701.41 278.867C701.453 278.873 701.493 278.888 701.529 278.911C701.565 278.934 701.596 278.965 701.62 279C701.668 279.072 701.686 279.16 701.671 279.246C701.657 279.331 701.61 279.408 701.54 279.46C701.102 279.752 700.598 279.93 700.074 279.977C699.55 280.024 699.023 279.939 698.54 279.73C698.499 279.715 698.462 279.691 698.43 279.661C698.398 279.631 698.373 279.595 698.355 279.555C698.337 279.515 698.328 279.472 698.327 279.428C698.326 279.384 698.334 279.341 698.35 279.3C698.384 279.223 698.44 279.157 698.51 279.11Z" fill="#263238"/>
<path d="M721.27 273C724.27 280.73 725.76 283.94 723.7 289.65C719.65 296.4 710.32 300.5 705 293.88C700.22 287.88 696.07 276.31 702.13 269.68C704.154 267.409 706.993 266.029 710.029 265.842C713.065 265.654 716.053 266.675 718.34 268.68C719.649 269.864 720.654 271.346 721.27 273Z" fill="#FAB27B"/>
<path d="M728.59 275.3C728.168 277.895 727.911 280.513 727.82 283.14C727.748 285.564 726.956 287.913 725.543 289.884C724.131 291.856 722.162 293.362 719.89 294.21C719.89 294.21 708.99 294.08 704.36 280.37C703.079 280.491 701.788 280.295 700.601 279.799C699.414 279.303 698.367 278.523 697.553 277.527C696.738 276.531 696.182 275.349 695.932 274.087C695.682 272.825 695.747 271.521 696.12 270.29C697.01 267.37 700.7 265.55 703.75 265.44C704.75 264.141 706.053 263.108 707.546 262.432C709.038 261.755 710.674 261.456 712.31 261.56C715.609 261.827 718.795 262.884 721.6 264.64C724.132 265.907 726.274 267.835 727.8 270.22C728.615 271.78 728.893 273.566 728.59 275.3Z" fill="#263238"/>
<path d="M706.63 282C706.285 282.773 706.096 283.607 706.075 284.453C706.055 285.299 706.203 286.141 706.51 286.93C707.35 289.02 709.59 288.67 710.88 286.93C712.05 285.34 713 282.36 711.42 280.82C709.84 279.28 707.5 280.1 706.63 282Z" fill="#FAB27B"/>
<path d="M728.62 290.16C725.62 290.29 721.19 292.32 715.27 296.4C714.961 296.669 714.725 297.011 714.585 297.396C714.445 297.781 714.406 298.196 714.47 298.6C714.54 299.4 715.34 300.15 716.1 299.9C716.49 300.9 716.75 302 717.1 302.96C718.95 302.017 720.869 301.215 722.84 300.56C725.825 299.37 728.88 298.368 731.99 297.56C731.16 296.29 730.05 295.05 729.72 293.56C730.07 293.405 730.355 293.132 730.525 292.788C730.695 292.445 730.739 292.053 730.65 291.68C730.48 291.267 730.201 290.908 729.844 290.641C729.487 290.373 729.064 290.207 728.62 290.16Z" fill="#C7D5FF"/>
<path d="M728.62 290.16C725.62 290.29 721.19 292.32 715.27 296.4C714.961 296.669 714.725 297.011 714.585 297.396C714.445 297.781 714.406 298.196 714.47 298.6C714.54 299.4 715.34 300.15 716.1 299.9C716.49 300.9 716.75 302 717.1 302.96C718.95 302.017 720.869 301.215 722.84 300.56C725.825 299.37 728.88 298.368 731.99 297.56C731.16 296.29 730.05 295.05 729.72 293.56C730.07 293.405 730.355 293.132 730.525 292.788C730.695 292.445 730.739 292.053 730.65 291.68C730.48 291.267 730.201 290.908 729.844 290.641C729.487 290.373 729.064 290.207 728.62 290.16Z" fill="#C7D5FF"/>
<path d="M719.84 366.76C713.494 351.572 708.094 336.005 703.67 320.15C699.03 302.83 712.28 302.53 728.27 298.23C740.95 294.82 746.37 297.87 749.99 304.3C753.61 310.73 759.45 365.15 759.45 365.15L719.84 366.76Z" fill="#C7D5FF"/>
<path d="M719.84 366.76C713.494 351.572 708.094 336.005 703.67 320.15C699.03 302.83 712.28 302.53 728.27 298.23C740.95 294.82 746.37 297.87 749.99 304.3C753.61 310.73 759.45 365.15 759.45 365.15L719.84 366.76Z" fill="#C7D5FF"/>
<path opacity="0.3" d="M719.84 366.76C713.494 351.572 708.094 336.005 703.67 320.15C699.03 302.83 712.28 302.53 728.27 298.23C740.95 294.82 746.37 297.87 749.99 304.3C753.61 310.73 759.45 365.15 759.45 365.15L719.84 366.76Z" fill="black"/>
<path d="M662 341.8H660.88C660.381 341.819 659.9 341.993 659.504 342.298C659.108 342.603 658.817 343.023 658.67 343.5L658.44 344.24C658.321 344.611 658.296 345.006 658.366 345.39C658.435 345.774 658.598 346.134 658.84 346.44C660.35 348.31 664.03 351.93 669.44 350.97L674.05 348.63L674.35 343.03L666.13 340.32C665.613 340.25 665.087 340.348 664.63 340.6L662 341.8Z" fill="#FAB27B"/>
<path d="M674.07 348.67L685.43 350.1L684.77 343.66L674.37 343.07L674.07 348.67Z" fill="#FAB27B"/>
<path d="M682 343.21C681.365 343.999 681.013 344.978 681 345.99C680.931 347.591 681.297 349.181 682.06 350.59C680.156 350.28 678.206 350.41 676.36 350.97H676.26C671.1 345.92 675.33 341.77 675.33 341.77L675.71 341.89C677.755 342.547 679.863 342.989 682 343.21Z" fill="#C7D5FF"/>
<path d="M704.12 352.34C693.23 352.9 680.26 350.34 680.26 350.34C679.957 349.541 679.908 348.668 680.12 347.84C680.53 346.1 681.12 343.95 681.95 343.18C682.78 342.41 687.33 342.74 687.33 342.74C687.33 342.74 696.79 340.22 698.68 339.19C700.57 338.16 701.6 332 702 327.84C704.21 305.64 708.35 304.68 712 304.31C719.65 303.55 713.76 351.85 704.12 352.34Z" fill="#C7D5FF"/>
<path d="M740 478.8L732.45 415.7C732.081 412.615 730.593 409.773 728.27 407.711C725.946 405.649 722.947 404.51 719.84 404.51H694.93C691.91 404.499 688.986 405.569 686.686 407.526C684.387 409.482 682.863 412.197 682.39 415.18L672.23 478L670.23 477.68L680.4 414.88C680.947 411.428 682.71 408.286 685.371 406.021C688.032 403.756 691.415 402.518 694.91 402.53H719.86C723.455 402.533 726.925 403.852 729.615 406.238C732.304 408.623 734.028 411.911 734.46 415.48L742.01 478.58L740 478.8Z" fill="#263238"/>
<path d="M774.94 478.8L767.39 415.7C767.021 412.615 765.533 409.773 763.21 407.711C760.886 405.649 757.887 404.51 754.78 404.51H729.83C726.81 404.497 723.885 405.566 721.585 407.523C719.284 409.48 717.761 412.197 717.29 415.18L707.12 478L705.12 477.68L715.29 414.88C715.835 411.428 717.597 408.284 720.259 406.019C722.92 403.754 726.305 402.516 729.8 402.53H754.75C758.345 402.533 761.815 403.852 764.505 406.238C767.194 408.623 768.918 411.911 769.35 415.48L776.9 478.58L774.94 478.8Z" fill="#263238"/>
<path d="M708.26 460.42H673.91V462.42H708.26V460.42Z" fill="#263238"/>
<path d="M769 414.58H733.49V416.58H769V414.58Z" fill="#263238"/>
<path d="M740 404.94H766.13C770.988 404.94 775.668 403.109 779.236 399.812C782.804 396.514 784.998 391.993 785.38 387.15L789.1 340.21C789.242 338.414 789.011 336.608 788.423 334.905C787.835 333.202 786.901 331.639 785.681 330.314C784.461 328.988 782.98 327.929 781.331 327.202C779.683 326.476 777.902 326.097 776.1 326.09H761.6C753.396 326.09 745.411 328.738 738.833 333.641C732.255 338.543 727.435 345.438 725.09 353.3L715.09 386.81C714.275 389.548 712.598 391.949 710.307 393.655C708.017 395.362 705.236 396.282 702.38 396.28H684.1C681.805 396.283 679.605 397.196 677.983 398.82C676.361 400.444 675.45 402.645 675.45 404.94H740Z" fill="#C7D5FF"/>
<path opacity="0.7" d="M740 404.94H766.13C770.988 404.94 775.668 403.109 779.236 399.812C782.804 396.514 784.998 391.993 785.38 387.15L789.1 340.21C789.242 338.414 789.011 336.608 788.423 334.905C787.835 333.202 786.901 331.639 785.681 330.314C784.461 328.988 782.98 327.929 781.331 327.202C779.683 326.476 777.902 326.097 776.1 326.09H761.6C753.396 326.09 745.411 328.738 738.833 333.641C732.255 338.543 727.435 345.438 725.09 353.3L715.09 386.81C714.275 389.548 712.598 391.949 710.307 393.655C708.017 395.362 705.236 396.282 702.38 396.28H684.1C681.805 396.283 679.605 397.196 677.983 398.82C676.361 400.444 675.45 402.645 675.45 404.94H740Z" fill="white"/>
<path d="M714.09 242.94V242.83C714.095 242.866 714.095 242.903 714.09 242.94Z" fill="#C7D5FF"/>
<path d="M667 230.28C663.577 233.434 661.071 237.457 659.75 241.92H657.92C658.553 236.896 660.433 232.111 663.39 228L667 230.28Z" fill="#C7D5FF"/>
<path opacity="0.6" d="M667 230.28C663.577 233.434 661.071 237.457 659.75 241.92H657.92C658.553 236.896 660.433 232.111 663.39 228L667 230.28Z" fill="white"/>
<path d="M677.6 224.29C673.639 225.417 670.005 227.474 667 230.29L663.39 228C666.336 223.878 670.215 220.509 674.71 218.17L677.6 224.29Z" fill="#C7D5FF"/>
<path opacity="0.5" d="M677.6 224.29C673.639 225.417 670.005 227.474 667 230.29L663.39 228C666.336 223.878 670.215 220.509 674.71 218.17L677.6 224.29Z" fill="white"/>
<path d="M688.83 214.8L687.94 223.73C686.662 223.507 685.367 223.397 684.07 223.4C681.883 223.402 679.706 223.701 677.6 224.29L674.71 218.19C678.938 215.975 683.637 214.812 688.41 214.8H688.83Z" fill="#C7D5FF"/>
<path opacity="0.4" d="M688.83 214.8L687.94 223.73C686.662 223.507 685.367 223.397 684.07 223.4C681.883 223.402 679.706 223.701 677.6 224.29L674.71 218.19C678.938 215.975 683.637 214.812 688.41 214.8H688.83Z" fill="white"/>
<path d="M702.21 218.59L696.38 227.14C693.85 225.4 690.969 224.236 687.94 223.73L688.83 214.8C693.55 214.834 698.173 216.143 702.21 218.59Z" fill="#C7D5FF"/>
<path opacity="0.3" d="M702.21 218.59L696.38 227.14C693.85 225.4 690.969 224.236 687.94 223.73L688.83 214.8C693.55 214.834 698.173 216.143 702.21 218.59Z" fill="white"/>
<path d="M711.46 228.67L702.36 233.54C700.847 230.997 698.8 228.814 696.36 227.14L702.19 218.59C706.158 221.022 709.368 224.513 711.46 228.67Z" fill="#C7D5FF"/>
<path opacity="0.2" d="M711.46 228.67L702.36 233.54C700.847 230.997 698.8 228.814 696.36 227.14L702.19 218.59C706.158 221.022 709.368 224.513 711.46 228.67Z" fill="white"/>
<path d="M714.12 242.57L705.22 242.47C704.941 239.318 703.964 236.267 702.36 233.54L711.46 228.67C713.594 232.975 714.513 237.781 714.12 242.57Z" fill="#C7D5FF"/>
<path opacity="0.1" d="M714.12 242.57L705.22 242.47C704.941 239.318 703.964 236.267 702.36 233.54L711.46 228.67C713.594 232.975 714.513 237.781 714.12 242.57Z" fill="white"/>
<path d="M714.1 242.83C714.105 242.866 714.105 242.903 714.1 242.94C713.741 246.069 712.943 249.133 711.73 252.04L704.52 250.41L705.1 247.66C705.15 247.3 705.2 246.94 705.23 246.58V246.36C705.345 245.066 705.345 243.764 705.23 242.47L714.13 242.57C714.13 242.63 714.13 242.67 714.13 242.72C714.126 242.758 714.116 242.795 714.1 242.83Z" fill="#C7D5FF"/>
<path d="M659 251.47L658.47 251.59C658.3 250.9 658.16 250.2 658.04 249.49C657.703 247.324 657.622 245.125 657.8 242.94V242.83C657.795 242.793 657.795 242.756 657.8 242.72C657.8 242.45 657.85 242.17 657.89 241.9H659.72C659.295 243.35 659.007 244.836 658.86 246.34C658.86 246.34 658.86 246.41 658.86 246.45C658.86 246.49 658.86 246.52 658.86 246.56C658.793 247.448 658.777 248.34 658.81 249.23C658.85 250 658.91 250.74 659 251.47Z" fill="#C7D5FF"/>
<path opacity="0.7" d="M659 251.47L658.47 251.59C658.3 250.9 658.16 250.2 658.04 249.49C657.703 247.324 657.622 245.125 657.8 242.94V242.83C657.795 242.793 657.795 242.756 657.8 242.72C657.8 242.45 657.85 242.17 657.89 241.9H659.72C659.295 243.35 659.007 244.836 658.86 246.34C658.86 246.34 658.86 246.41 658.86 246.45C658.86 246.49 658.86 246.52 658.86 246.56C658.793 247.448 658.777 248.34 658.81 249.23C658.85 250 658.91 250.74 659 251.47Z" fill="white"/>
<path d="M713.52 250L712.76 251.88L711.22 251.54L696.87 248.29L690.69 246.89C691.119 246.334 691.475 245.726 691.75 245.08C692.064 244.326 692.253 243.525 692.31 242.71L706.01 247.42L713.52 250Z" fill="#263238"/>
<path d="M692.31 242.73C692.195 244.253 691.631 245.708 690.69 246.91L685.14 245.65L686.89 240.87L692.31 242.73Z" fill="#263238"/>
<path d="M692.31 242.73C692.195 244.253 691.632 245.708 690.69 246.91C690.001 247.79 689.136 248.515 688.15 249.04C684.58 250.95 680.37 249.75 678.76 246.34C678.021 244.585 677.976 242.615 678.633 240.828C679.29 239.04 680.6 237.569 682.3 236.71C685.87 234.8 690.08 236.01 691.7 239.41C692.186 240.446 692.396 241.589 692.31 242.73Z" fill="#C7D5FF"/>
<path d="M464.48 238.5H470.21V243.3H463.91L463.03 250.3H458.03L458.91 243.3H452.44L451.56 250.3H446.66L447.54 243.3H441.77V238.5H448.11L449.03 231.37H443.27V226.57H449.61L450.49 219.57H455.42L454.54 226.57H461L461.88 219.57H466.81L465.93 226.57H471.65V231.37H465.31L464.48 238.5ZM459.48 238.5L460.4 231.37H454L453 238.5H459.48Z" fill="#C7D5FF"/>
<path d="M486.18 219.52V250.34H479.05V225.25H472.89V219.52H486.18Z" fill="#C7D5FF"/>
<path d="M459.46 347.69H410.15V381.64H459.46V347.69Z" fill="#263238"/>
<path d="M459.46 347.69H410.15V350.8H459.46V347.69Z" fill="#C7D5FF"/>
<path d="M419.18 366.47L427.25 370.94C427.552 371.088 427.824 371.291 428.05 371.54C428.191 371.738 428.262 371.977 428.25 372.22C428.252 372.389 428.221 372.556 428.157 372.712C428.094 372.869 427.999 373.011 427.88 373.13C427.767 373.25 427.631 373.346 427.48 373.412C427.328 373.477 427.165 373.51 427 373.51C426.644 373.468 426.302 373.344 426 373.15L415.6 367.36C415.436 367.276 415.299 367.149 415.203 366.991C415.107 366.834 415.056 366.654 415.056 366.47C415.056 366.286 415.107 366.105 415.203 365.948C415.299 365.791 415.436 365.664 415.6 365.58L426 359.79C426.304 359.602 426.645 359.483 427 359.44C427.334 359.445 427.653 359.581 427.889 359.818C428.124 360.056 428.257 360.376 428.26 360.71C428.279 360.953 428.207 361.195 428.06 361.39C427.837 361.645 427.565 361.853 427.26 362L419.18 366.47Z" fill="white"/>
<path d="M439.93 358.14L431.93 375.33C431.809 375.646 431.622 375.933 431.38 376.17C431.165 376.344 430.896 376.436 430.62 376.43C430.456 376.43 430.294 376.397 430.143 376.334C429.991 376.27 429.854 376.177 429.74 376.06C429.624 375.957 429.532 375.83 429.468 375.689C429.404 375.548 429.371 375.395 429.37 375.24C429.399 374.891 429.498 374.551 429.66 374.24L437.66 357.06C437.782 356.747 437.965 356.461 438.2 356.22C438.438 356.036 438.734 355.945 439.034 355.964C439.333 355.982 439.616 356.109 439.83 356.32C439.946 356.423 440.039 356.549 440.103 356.69C440.166 356.832 440.199 356.985 440.2 357.14C440.177 357.488 440.085 357.828 439.93 358.14Z" fill="white"/>
<path d="M450 366.47L441.9 362C441.59 361.855 441.314 361.648 441.09 361.39C440.95 361.192 440.88 360.952 440.89 360.71C440.887 360.543 440.92 360.378 440.985 360.225C441.051 360.071 441.148 359.933 441.27 359.82C441.383 359.7 441.519 359.604 441.67 359.538C441.822 359.473 441.985 359.439 442.15 359.44C442.505 359.481 442.846 359.601 443.15 359.79L453.55 365.58C453.714 365.664 453.851 365.791 453.947 365.948C454.043 366.105 454.094 366.286 454.094 366.47C454.094 366.654 454.043 366.834 453.947 366.991C453.851 367.149 453.714 367.276 453.55 367.36L443.15 373.15C442.849 373.345 442.507 373.469 442.15 373.51C441.984 373.51 441.819 373.476 441.666 373.411C441.513 373.346 441.375 373.25 441.26 373.13C441.022 372.887 440.889 372.56 440.89 372.22C440.883 371.978 440.953 371.74 441.09 371.54C441.318 371.289 441.593 371.085 441.9 370.94L450 366.47Z" fill="white"/>
</svg>
