<svg width="1200" height="630" viewBox="0 0 1200 630" fill="none" xmlns="http://www.w3.org/2000/svg">
<rect width="1200" height="630" rx="26" fill="#CFC7FF"/>
<path d="M608.418 304.726L602.441 312.539C602.441 312.539 580.43 276.133 593.262 260.098C601.074 247.969 620.762 258.144 620.762 258.144C620.762 258.144 631.27 238.32 650.332 242.91C669.395 247.5 674.219 263.242 684.102 263.437C684.102 263.437 678.242 283.926 657.207 287.207L658.32 275.098C646.916 275.166 635.618 272.906 625.117 268.457C625.117 268.457 624.043 289.766 616.289 290.391C608.535 291.016 610.547 289.355 608.906 291.387C607.266 293.418 606.68 299.492 608.418 304.726Z" fill="#F2CC8F"/>
<path d="M557.031 368.73C557.031 368.73 569.375 368.73 575.547 385.781L592.461 371.66L626.602 370.918C626.602 370.918 628.086 347.48 647.734 339.668C654.844 337.285 664.375 340.488 664.375 340.488C663.146 337.489 660.921 335.006 658.075 333.455C655.23 331.904 651.936 331.38 648.75 331.973C643.511 332.83 638.218 333.306 632.91 333.398C632.91 333.398 634.336 341.211 618.652 342.363C602.969 343.516 595.371 338.281 595.508 333.379C595.488 333.379 567.637 354.297 557.031 368.73Z" fill="#444444"/>
<path d="M627.168 370.176C627.168 370.176 629.785 344.902 648.652 339.355C663.008 335.156 670.137 344.453 670.137 344.453L675.469 350.84C675.469 350.84 665.312 349.375 660.781 353.086C656.25 356.797 648.574 370.176 648.574 370.176H627.168Z" fill="#FCF1FD"/>
<path d="M684.102 414.941L698.32 439.004L739.277 415.469L712.559 410.547L706.484 401.562L684.102 414.941Z" fill="#444444"/>
<path d="M722.793 383.574L754.727 387.754L760.234 339.512L737.441 356.621L725.313 355.762L722.793 383.574Z" fill="#444444"/>
<path d="M583.574 380.566L592.441 371.66L649.277 370.176L683.125 413.633L694.316 432.207L693.574 475.625L588.516 477.695L583.574 380.566Z" fill="#D4D6DD"/>
<path d="M411.133 318.086C417.988 316.133 432.793 312.383 440.176 268.594C447.559 224.805 446.504 189.023 433.32 193.535C409.688 199.395 419.883 215.391 415.059 227.754C411.777 240.41 409.199 245.723 393.574 245.176C393.574 245.176 386.992 235.039 391.621 201.172C394.922 178.867 365.625 186.094 365.625 196.074C365.625 196.074 359.199 228.789 359.512 241.973C359.824 255.156 357.813 276.074 376.758 278.945C398.242 282.207 398.242 276.445 404.102 280.449C409.961 284.453 399.902 304.629 400.391 309.941C400.879 315.254 402.344 320.586 411.133 318.086Z" fill="#FCF1FD"/>
<path d="M509.336 189.785C477.754 175 460.84 206.719 460.84 206.719C454.746 220.723 441.797 280.801 470.449 291.562C499.102 302.324 511.973 278.75 514.121 275.508C516.27 272.266 540.918 204.551 509.336 189.785ZM481.582 261.66C481.582 261.66 473.281 264.648 475.098 239.18C476.914 213.711 487.735 213.008 487.735 213.008C489.904 213.852 491.7 215.444 492.8 217.496C493.899 219.548 494.229 221.925 493.731 224.199C494.922 254.453 489.785 262.266 481.582 261.66Z" fill="#FCF1FD"/>
<path d="M554.082 300C571.66 305.645 597.774 251.172 602.442 240.723C607.11 230.273 616.992 206.992 614.16 197.891C611.328 188.789 595.781 187.422 593.242 189.766C590.703 192.109 583.223 238.262 571.504 233.457C559.785 228.652 577.735 197.246 576.953 189.062C576.172 180.879 556.699 171.484 547.09 184.023C537.481 196.562 534.981 237.422 536.016 242.207C537.051 246.992 555.723 251.66 559.141 258.223C562.559 264.785 543.36 296.543 554.082 300Z" fill="#FCF1FD"/>
<path d="M705.762 282.227C705.762 282.227 720.82 264.648 731.152 258.496V277.5C731.152 277.5 747.422 271.758 751.738 265.332C745.59 279.771 734.63 291.635 720.723 298.906C722.461 287.871 724.453 277.832 722.676 273.965C722.07 273.457 705.762 282.227 705.762 282.227Z" fill="#D4D6DD"/>
<path d="M735.645 239.199C735.645 239.199 752.09 207.031 794.844 189.277C783.483 206.464 777.102 226.46 776.406 247.051L841.191 222.09C841.191 222.09 782.207 258.359 766.504 289.609C766.504 289.609 758.262 249.082 766.504 224.355L735.645 239.199Z" fill="#D4D6DD"/>
<path d="M672.383 320.605C674.573 320.605 676.348 318.83 676.348 316.641C676.348 314.451 674.573 312.676 672.383 312.676C670.193 312.676 668.418 314.451 668.418 316.641C668.418 318.83 670.193 320.605 672.383 320.605Z" fill="#D4D6DD"/>
<path d="M698.125 312.891C701.825 312.891 704.824 309.891 704.824 306.191C704.824 302.491 701.825 299.492 698.125 299.492C694.425 299.492 691.426 302.491 691.426 306.191C691.426 309.891 694.425 312.891 698.125 312.891Z" fill="#D4D6DD"/>
<path d="M656.172 287.148C656.172 287.148 650.313 319.043 641.758 321.875C633.203 324.707 617.266 323.437 610.684 322.656C604.102 321.875 615.391 328.515 618.496 331.074C621.602 333.633 618.711 342.363 618.711 342.363C618.711 342.363 629.824 340.41 631.133 338.262C631.921 336.893 632.388 335.364 632.5 333.789L629.043 334.297C629.043 334.297 626.25 328.437 627.637 327.031C629.024 325.625 639.356 325.664 642.852 324.121C651.406 318.457 656.074 295.586 656.172 287.148Z" fill="#D4D6DD"/>
<path d="M572.383 379.277C572.383 379.277 558.926 394.902 548.359 398.008C537.793 401.113 519.824 390.195 519.824 390.195C519.824 390.195 539.805 408.027 549.824 405.43C559.844 402.832 575.742 386.348 575.742 386.348L572.383 379.277Z" fill="#D4D6DD"/>
<path d="M680.664 346.836C680.664 346.836 694.766 371.328 698.848 374.18C702.93 377.031 722.793 379.453 722.793 379.453V383.633L693.906 379.062L676.641 352.109L670.605 344.922L680.664 346.836Z" fill="#D4D6DD"/>
<path d="M671.563 351.562C671.563 351.562 653.77 362.344 654.609 369.629C655.449 376.914 670.234 394.395 670.234 394.395L649.219 370.176C649.219 370.176 654.902 351.973 663.203 351.777L671.563 351.562Z" fill="#D4D6DD"/>
<path d="M497.461 359.688C504.844 356.934 511.133 349.922 510.43 347.969C509.727 346.016 504.57 341.094 504.57 341.094C504.57 341.094 508.691 345 507.695 346.953C506.699 348.906 496.484 358.281 496.484 358.281L497.461 359.688Z" fill="#D4D6DD"/>
<path d="M593.262 334.629C588.965 338.431 584.746 342.292 580.605 346.211C576.465 350.117 572.344 354.023 568.359 358.184C564.375 362.344 560.391 366.348 556.504 370.527C552.617 374.707 548.867 379.023 545.02 383.281C546.608 380.872 548.249 378.516 549.941 376.211C551.68 373.926 553.438 371.66 555.273 369.453C558.906 365 562.832 360.781 566.855 356.68C570.879 352.578 575.117 348.691 579.512 344.961C581.719 343.125 583.965 341.328 586.211 339.551C588.457 337.773 590.82 336.172 593.262 334.629Z" fill="#3D405B"/>
<path d="M595.488 368.652C592.306 372.401 588.936 375.987 585.391 379.395C581.875 382.813 578.262 386.152 574.512 389.336C570.762 392.52 566.953 395.645 563.008 398.574C559.062 401.504 555.059 404.434 550.977 407.148C550.573 407.411 550.086 407.516 549.609 407.441C543.569 406.339 537.754 404.24 532.402 401.23C527.109 398.318 522.195 394.762 517.773 390.645C513.427 386.51 509.561 381.897 506.25 376.895L505.02 375.039L503.926 373.086L501.758 369.18C500.43 366.523 499.316 363.77 498.145 361.074C499.766 363.555 501.23 366.094 502.852 368.535L505.391 372.09L506.66 373.867L508.047 375.566L510.801 378.926C511.758 380.02 512.754 381.035 513.77 382.09C515.76 384.146 517.853 386.102 520.039 387.949C524.417 391.647 529.184 394.856 534.258 397.52C539.228 400.175 544.557 402.096 550.078 403.223L548.672 403.555C552.715 400.859 556.738 398.145 560.723 395.352C564.707 392.559 568.535 389.668 572.441 386.758C580.352 381.055 588.008 375 595.488 368.652Z" fill="#3D405B"/>
<path d="M547.109 380.566C544.076 378.744 541.113 376.836 538.223 374.844C535.332 372.891 532.363 370.938 529.609 368.691C523.965 364.492 518.477 360.059 513.164 355.449C513.062 355.358 512.98 355.247 512.923 355.122C512.866 354.998 512.835 354.863 512.832 354.727C512.832 350.176 513.125 345.625 513.281 341.055L513.652 341.563C511.152 340.645 508.613 339.805 506.133 338.828C508.75 339.336 511.328 339.98 513.945 340.566C514.047 340.591 514.138 340.649 514.205 340.73C514.272 340.811 514.311 340.911 514.316 341.016C514.473 345.586 514.707 350.137 514.746 354.688L514.414 353.945L530.801 367.188L538.965 373.828C541.699 376.055 544.395 378.301 547.109 380.566Z" fill="#3D405B"/>
<path d="M658.379 274.805C658.073 281.202 657.375 287.575 656.289 293.887C655.295 300.251 653.732 306.512 651.621 312.598C650.523 315.698 649.033 318.645 647.188 321.367C646.169 322.81 644.832 323.999 643.281 324.844C641.712 325.464 640.06 325.852 638.379 325.996C635.215 326.484 631.953 326.797 628.809 326.973C628.464 326.976 628.122 327.028 627.793 327.129C627.617 327.129 627.52 327.402 627.48 327.754C627.495 328.518 627.593 329.277 627.773 330.02C628.125 331.563 628.555 333.105 629.023 334.629C628.324 333.18 627.724 331.686 627.227 330.156C626.946 329.374 626.763 328.561 626.68 327.734C626.654 327.457 626.705 327.178 626.825 326.927C626.945 326.676 627.131 326.462 627.363 326.309C627.777 326.117 628.219 325.992 628.672 325.938C631.875 325.547 634.98 325.078 638.086 324.395C639.563 324.154 641.011 323.755 642.402 323.203C643.644 322.437 644.699 321.403 645.488 320.176C647.193 317.588 648.559 314.792 649.551 311.855C651.655 305.859 653.371 299.733 654.688 293.516C655.391 290.41 656.016 287.285 656.641 284.16C657.266 281.035 657.793 277.891 658.379 274.805Z" fill="#3D405B"/>
<path d="M668.203 272.5C666.551 273.392 664.783 274.049 662.949 274.453C661.12 274.898 659.259 275.198 657.383 275.352C653.626 275.645 649.85 275.547 646.113 275.059C642.372 274.588 638.666 273.87 635.02 272.91L629.59 271.328L624.258 269.375L625.859 268.301C625.861 270.612 625.724 272.92 625.449 275.215C625.176 277.533 624.719 279.825 624.082 282.07C623.45 284.428 622.383 286.647 620.938 288.613C620.146 289.713 619.128 290.631 617.952 291.305C616.777 291.978 615.47 292.393 614.121 292.519C613.928 292.557 613.729 292.557 613.535 292.519C612.532 292.121 611.414 292.121 610.41 292.519C610.031 292.835 609.733 293.238 609.543 293.694C609.352 294.15 609.275 294.645 609.316 295.137C609.237 296.558 609.296 297.984 609.492 299.394C609.588 300.055 609.731 300.708 609.922 301.348C610.086 301.9 610.302 302.437 610.566 302.949C610.75 303.271 610.838 303.638 610.821 304.008C610.804 304.378 610.682 304.736 610.469 305.039L603.906 313.613C603.723 313.841 603.491 314.025 603.228 314.152C602.964 314.278 602.675 314.344 602.383 314.344C602.09 314.344 601.802 314.278 601.538 314.152C601.274 314.025 601.042 313.841 600.859 313.613C596.639 307.33 593.202 300.554 590.625 293.437C587.865 286.238 586.654 278.538 587.07 270.84C587.442 266.857 588.562 262.981 590.371 259.414C591.374 257.502 592.757 255.814 594.434 254.453C596.122 253.125 598.083 252.184 600.176 251.699C604.162 250.89 608.288 251.105 612.168 252.324C615.907 253.402 619.491 254.958 622.832 256.953L619.844 258.086C621.018 254.827 622.816 251.829 625.137 249.258C627.429 246.687 630.229 244.619 633.359 243.184C636.432 241.775 639.748 240.972 643.125 240.82C644.79 240.703 646.46 240.703 648.125 240.82C649.766 241.035 651.406 241.211 653.027 241.582C656.318 242.272 659.459 243.542 662.305 245.332C665.05 247.161 667.54 249.349 669.707 251.836C671.724 254.201 673.932 256.396 676.309 258.398C678.689 260.275 681.398 261.692 684.297 262.578H684.395C684.641 262.659 684.846 262.833 684.967 263.062C685.087 263.292 685.113 263.56 685.039 263.809C683.859 266.859 682.318 269.757 680.449 272.441C678.613 275.1 676.448 277.515 674.004 279.629C671.584 281.764 668.833 283.493 665.859 284.746C662.904 285.971 659.785 286.755 656.602 287.07C659.722 286.543 662.749 285.562 665.586 284.16C668.402 282.787 670.985 280.981 673.242 278.809C675.49 276.647 677.459 274.213 679.102 271.562C680.728 268.939 682.039 266.134 683.008 263.203L683.731 264.512C680.511 263.673 677.482 262.228 674.805 260.254C672.257 258.261 669.873 256.066 667.676 253.691C665.603 251.442 663.246 249.472 660.664 247.832C658.096 246.298 655.27 245.245 652.324 244.726C650.838 244.453 649.339 244.258 647.832 244.141C646.33 244.033 644.822 244.033 643.32 244.141C640.384 244.417 637.531 245.266 634.922 246.641C632.28 247.896 629.931 249.693 628.027 251.914C626.127 254.093 624.656 256.611 623.691 259.336C623.618 259.599 623.489 259.844 623.315 260.054C623.141 260.265 622.924 260.436 622.679 260.558C622.434 260.679 622.167 260.748 621.894 260.76C621.621 260.771 621.348 260.725 621.094 260.625L620.723 260.469C617.686 258.713 614.446 257.335 611.074 256.367C607.872 255.357 604.466 255.169 601.172 255.82C599.647 256.185 598.22 256.88 596.992 257.855C595.764 258.83 594.764 260.062 594.063 261.465C592.561 264.529 591.616 267.836 591.27 271.23C590.869 278.326 591.967 285.427 594.492 292.07C596.903 298.881 600.095 305.389 604.004 311.465L600.938 311.367L607.578 302.93V305.039C607.078 304.213 606.703 303.318 606.465 302.383C606.248 301.561 606.085 300.726 605.977 299.883C605.821 298.233 605.821 296.572 605.977 294.922L606.172 293.535C606.288 293.045 606.451 292.567 606.66 292.109C607.102 291.06 607.887 290.193 608.887 289.648C609.826 289.159 610.876 288.923 611.934 288.965C612.888 288.993 613.832 289.178 614.727 289.512L614.082 289.394C614.993 289.339 615.881 289.082 616.681 288.643C617.481 288.204 618.174 287.594 618.711 286.855C619.968 285.191 620.926 283.32 621.543 281.328C622.832 277.134 623.548 272.785 623.672 268.398C623.692 268.093 623.829 267.807 624.054 267.599C624.28 267.392 624.577 267.279 624.883 267.285C625.012 267.265 625.144 267.265 625.274 267.285L630.43 269.238L635.664 271.074C639.19 272.187 642.785 273.068 646.426 273.711C650.072 274.372 653.777 274.653 657.481 274.551C659.334 274.504 661.181 274.321 663.008 274.004C664.801 273.744 666.549 273.238 668.203 272.5Z" fill="#3D405B"/>
<path d="M602.442 312.461C602.977 315.851 603.115 319.293 602.852 322.715C602.698 326.149 602.134 329.552 601.172 332.852C600.17 326.04 600.603 319.095 602.442 312.461Z" fill="#3D405B"/>
<path d="M632.852 332.852C633.136 333.853 633.2 334.905 633.038 335.933C632.876 336.962 632.493 337.943 631.914 338.809C630.686 340.583 628.95 341.945 626.934 342.715C623.12 344.137 619.035 344.685 614.981 344.316C610.983 344.196 607.029 343.451 603.262 342.109C601.327 341.424 599.524 340.413 597.93 339.121C597.133 338.443 596.47 337.622 595.977 336.699C595.451 335.797 595.284 334.731 595.508 333.711C595.788 334.561 596.26 335.336 596.886 335.976C597.512 336.616 598.277 337.104 599.121 337.402C600.771 338.107 602.494 338.624 604.258 338.945C607.866 339.586 611.514 339.971 615.176 340.098C618.743 340.433 622.338 340.269 625.86 339.609C627.511 339.268 629.049 338.516 630.332 337.422C631.681 336.241 632.573 334.623 632.852 332.852Z" fill="#3D405B"/>
<path d="M627.168 370.176C627.343 364.834 628.501 359.57 630.586 354.648C632.62 349.483 635.933 344.92 640.215 341.387C642.48 339.608 645.066 338.282 647.832 337.48C650.587 336.739 653.46 336.546 656.289 336.914C658.991 337.31 661.622 338.093 664.102 339.238C666.613 340.318 668.752 342.111 670.254 344.394C668.234 342.821 665.883 341.725 663.379 341.191C660.954 340.597 658.472 340.263 655.977 340.195C651.194 340.133 646.534 341.711 642.773 344.668C638.966 347.804 635.813 351.66 633.496 356.016C631.033 360.569 628.917 365.303 627.168 370.176Z" fill="#3D405B"/>
<path d="M643.535 368.73C644.314 365.445 645.515 362.274 647.109 359.297C648.683 356.263 650.653 353.452 652.969 350.937C655.32 348.365 658.225 346.361 661.465 345.078C663.094 344.478 664.808 344.141 666.543 344.082C668.254 344.089 669.953 344.359 671.582 344.883C668.322 344.609 665.047 345.202 662.09 346.602C659.226 348.073 656.657 350.06 654.512 352.461C652.297 354.882 650.303 357.497 648.555 360.273C646.758 362.891 645.059 365.781 643.535 368.73Z" fill="#3D405B"/>
<path d="M648.535 370.117C648.945 368.672 649.375 367.207 649.824 365.742C650.273 364.277 650.977 362.91 651.621 361.504C653.045 358.69 654.896 356.114 657.109 353.867C659.334 351.401 662.234 349.642 665.449 348.809C668.695 348.054 672.107 348.593 674.961 350.312C674.999 350.355 675.021 350.411 675.021 350.469C675.021 350.526 674.999 350.582 674.961 350.625C674.91 350.64 674.856 350.64 674.805 350.625C671.986 351.042 669.222 351.769 666.562 352.793C663.993 353.655 661.545 354.843 659.277 356.328C657.023 358.077 655.047 360.158 653.418 362.5C652.598 363.691 651.816 364.941 651.016 366.191C650.215 367.441 649.648 368.828 648.926 370.098C648.886 370.135 648.834 370.155 648.779 370.155C648.725 370.155 648.673 370.135 648.633 370.098C648.603 370.113 648.569 370.12 648.535 370.117Z" fill="#3D405B"/>
<path d="M649.277 368.73C652.402 372.402 655.508 376.113 658.496 379.902C661.484 383.691 664.531 387.422 667.461 391.25C670.391 395.078 673.32 398.906 676.23 402.754C679.141 406.601 682.09 410.566 684.844 414.473L683.633 414.238C687.324 412.07 691.055 409.961 694.785 407.832C698.516 405.703 702.266 403.652 706.074 401.641C702.539 404.101 698.984 406.484 695.391 408.828C691.797 411.172 688.203 413.516 684.59 415.801C684.402 415.922 684.177 415.969 683.956 415.933C683.736 415.897 683.537 415.78 683.398 415.605C680.43 411.699 677.539 407.969 674.59 404.121C671.641 400.273 668.73 396.308 665.957 392.519C663.184 388.73 660.313 384.707 657.52 380.801C654.727 376.894 651.953 372.734 649.277 368.73Z" fill="#3D405B"/>
<path d="M676.367 351.562C679.199 355.195 681.855 358.965 684.473 362.734C687.09 366.504 689.609 370.371 692.109 374.219C694.609 378.066 697.012 382.031 699.316 385.938L702.793 391.797C703.887 393.75 705.039 395.82 706.074 397.891C704.629 396.074 703.301 394.199 701.914 392.363L698.008 386.719C695.371 382.949 692.871 379.102 690.391 375.234C687.91 371.367 685.469 367.422 683.164 363.516C680.859 359.609 678.477 355.684 676.367 351.562Z" fill="#3D405B"/>
<path d="M689.062 423.34C690.801 425.84 692.422 428.398 694.102 430.937C695.781 433.477 697.363 436.055 698.984 438.613L697.949 438.34C704.805 434.141 711.816 430.176 718.75 426.094C725.684 422.012 732.715 418.125 739.707 414.141L740.02 415.879C735.436 415.137 730.846 414.336 726.25 413.477C721.66 412.637 717.07 411.875 712.578 410.937C712.483 410.916 712.4 410.861 712.344 410.781C710.273 407.715 708.203 404.668 706.191 401.562C708.496 404.453 710.723 407.422 712.988 410.312L712.734 410.156C717.363 410.703 721.973 411.406 726.602 412.012C731.23 412.617 735.84 413.301 740.449 413.965C740.571 413.984 740.688 414.027 740.793 414.091C740.899 414.155 740.99 414.24 741.063 414.34C741.135 414.44 741.188 414.553 741.216 414.673C741.245 414.793 741.25 414.917 741.23 415.039C741.201 415.176 741.145 415.305 741.064 415.419C740.983 415.533 740.881 415.63 740.762 415.703C733.809 419.727 726.895 423.867 719.863 427.793C712.832 431.719 705.898 435.781 698.828 439.609C698.657 439.7 698.457 439.721 698.27 439.666C698.084 439.611 697.927 439.486 697.832 439.316C696.367 436.641 694.883 434.004 693.437 431.328C691.992 428.652 690.43 426.055 689.062 423.34Z" fill="#3D405B"/>
<path d="M693.906 379.004C698.77 379.531 703.672 380.176 708.438 380.762L722.93 382.715L721.973 383.457C722.266 378.809 722.734 374.18 723.086 369.531L724.258 355.625L725.098 356.758L711.074 353.848C706.406 352.871 701.699 351.895 697.051 350.898L683.066 347.793C678.418 346.699 673.75 345.664 669.121 344.492C673.848 345.176 678.555 346.016 683.262 346.777L697.363 349.297C702.07 350.117 706.758 351.074 711.445 351.953L725.508 354.688C725.765 354.731 725.996 354.869 726.156 355.076C726.315 355.282 726.39 355.541 726.367 355.801L725 369.687C724.531 374.316 724.141 378.965 723.594 383.594C723.565 383.805 723.454 383.996 723.287 384.127C723.119 384.258 722.907 384.319 722.695 384.297L708.301 381.719C703.516 380.859 698.691 380 693.906 379.004Z" fill="#3D405B"/>
<path d="M736.875 385.41C739.883 385.566 742.871 385.84 745.879 386.055L754.844 386.934L753.906 387.656C754.258 383.555 754.746 379.453 755.156 375.351L756.465 363.047C757.305 354.824 758.418 346.641 759.297 338.457L760.801 339.277C757.012 342.285 753.145 345.137 749.297 348.164C745.449 351.191 741.602 354.023 737.695 356.953C737.652 356.972 737.606 356.983 737.559 356.983C737.511 356.983 737.465 356.972 737.422 356.953C733.398 356.543 729.355 356.152 725.332 355.684C729.395 355.684 733.438 355.976 737.48 356.133H737.207C740.879 352.988 744.668 349.961 748.398 346.855C752.129 343.75 755.879 340.684 759.668 337.656C759.865 337.51 760.11 337.444 760.353 337.473C760.597 337.502 760.82 337.624 760.977 337.812C761.125 338.008 761.195 338.252 761.172 338.496C760.273 346.699 759.512 354.922 758.516 363.105L757.07 375.41C756.562 379.492 756.133 383.594 755.586 387.695C755.574 387.801 755.541 387.903 755.489 387.995C755.437 388.088 755.367 388.169 755.284 388.235C755.2 388.3 755.105 388.348 755.002 388.377C754.9 388.405 754.793 388.412 754.687 388.398L745.801 386.914C742.773 386.543 739.824 386.055 736.875 385.41Z" fill="#3D405B"/>
<path d="M628.965 334.297C632.018 333.098 635.185 332.215 638.418 331.66C641.67 331.063 644.976 330.808 648.281 330.898C651.645 330.94 654.966 331.658 658.047 333.008C659.602 333.724 660.997 334.747 662.148 336.016C663.252 337.292 664.005 338.833 664.336 340.488C663.64 339.083 662.67 337.832 661.483 336.809C660.295 335.786 658.914 335.011 657.422 334.531C654.446 333.551 651.336 333.037 648.203 333.008C645.01 332.921 641.815 333.018 638.633 333.301C635.43 333.574 632.207 333.887 628.965 334.297Z" fill="#3D405B"/>
<path d="M557.031 368.73C559.369 368.616 561.698 369.086 563.809 370.098C565.981 371.037 567.965 372.36 569.668 374.004C571.306 375.682 572.67 377.606 573.711 379.707C574.222 380.745 574.666 381.815 575.039 382.91C575.357 384.016 575.618 385.137 575.82 386.269C575.176 385.293 574.668 384.316 574.082 383.34C573.496 382.363 572.949 381.387 572.285 380.527C571.058 378.733 569.679 377.047 568.164 375.488C565.035 372.393 561.221 370.078 557.031 368.73Z" fill="#3D405B"/>
<path d="M593.262 371.641C597.91 371.074 602.578 370.742 607.246 370.469C611.914 370.195 616.582 370 621.23 369.844C625.879 369.687 630.586 369.648 635.254 369.727L642.266 369.824C644.609 369.941 646.934 369.98 649.277 370.156C646.953 370.469 644.609 370.625 642.285 370.859L635.293 371.348C630.625 371.66 625.957 371.816 621.289 371.953C616.621 372.09 611.953 372.148 607.285 372.07C602.617 371.992 597.93 371.973 593.262 371.641Z" fill="#3D405B"/>
<path d="M581.836 385.078C588.418 384.316 595.02 384.141 601.602 383.867C608.184 383.594 614.785 383.496 621.367 383.418C627.949 383.34 634.551 383.418 641.152 383.516L651.035 383.73C654.336 383.887 657.637 383.965 660.938 384.18C657.637 384.453 654.336 384.57 651.055 384.766L641.172 385.137C634.57 385.371 627.988 385.449 621.387 385.527C614.785 385.605 608.203 385.527 601.621 385.527L591.738 385.371C588.437 385.312 585.137 385.098 581.836 385.078Z" fill="#3D405B"/>
<path d="M642.773 296.133C643.116 297.704 643.267 299.311 643.223 300.918C643.207 302.539 642.997 304.152 642.598 305.723C642.381 306.56 642.06 307.368 641.641 308.125C641.368 308.568 641.017 308.959 640.605 309.277C640.337 309.47 640.031 309.603 639.707 309.668C639.435 309.711 639.158 309.711 638.887 309.668C637.23 309.472 635.668 308.793 634.395 307.715C635.903 307.977 637.436 308.069 638.965 307.988C639.687 308.144 640.195 306.543 640.566 305.176C641.328 302.305 641.797 299.219 642.773 296.133Z" fill="#3D405B"/>
<path d="M624.121 291.387C625.858 293.086 627.963 294.363 630.273 295.117C631.39 295.451 632.546 295.634 633.711 295.664C634.902 295.664 636.152 295.664 637.617 295.664C636.536 296.533 635.263 297.131 633.903 297.406C632.544 297.681 631.138 297.626 629.805 297.246C628.435 296.846 627.195 296.091 626.211 295.059C625.154 294.078 624.425 292.796 624.121 291.387Z" fill="#3D405B"/>
<path d="M654.824 297.734C654.538 298.417 653.999 298.963 653.32 299.258C652.676 299.57 651.966 299.724 651.25 299.707C650.545 299.701 649.852 299.52 649.235 299.179C648.618 298.838 648.095 298.348 647.715 297.754C648.358 297.631 649.013 297.578 649.668 297.598C650.254 297.598 650.781 297.598 651.309 297.598L654.824 297.734Z" fill="#3D405B"/>
<path d="M626.582 311.094C627.784 311.963 629.098 312.666 630.488 313.184C631.152 313.437 631.836 313.613 632.578 313.828C633.388 314.016 634.184 314.257 634.961 314.551C634.206 315.059 633.342 315.381 632.439 315.489C631.535 315.598 630.619 315.491 629.766 315.176C628.885 314.856 628.099 314.318 627.481 313.613C626.894 312.905 626.576 312.013 626.582 311.094Z" fill="#3D405B"/>
<path d="M584.551 385.078C585.547 401.016 586.387 416.934 587.188 432.832C587.656 440.781 588.008 448.75 588.613 456.66C588.926 460.566 589.199 464.57 589.688 468.379C589.688 469.355 589.941 470.332 590.098 471.23C590.22 472.079 590.416 472.916 590.684 473.73C590.684 473.73 590.684 473.945 590.684 473.867C590.684 473.789 590.488 473.691 590.527 473.711C590.852 473.833 591.185 473.931 591.523 474.004C592.412 474.204 593.312 474.347 594.219 474.434C602.076 475.002 609.958 475.159 617.832 474.902C625.781 474.902 633.731 474.492 641.699 474.277C657.624 473.73 673.561 473.242 689.512 472.812C673.678 474.857 657.793 476.445 641.855 477.578C633.906 478.184 625.918 478.574 617.93 478.906C609.871 479.273 601.798 479.182 593.75 478.633C592.673 478.517 591.604 478.341 590.547 478.105C589.878 477.959 589.224 477.75 588.594 477.48C588.084 477.223 587.632 476.864 587.266 476.426C587.017 476.058 586.807 475.665 586.641 475.254C586.024 473.172 585.625 471.031 585.449 468.867C585 464.824 584.707 460.84 584.492 456.836C584.121 448.828 583.848 440.859 583.77 432.871C583.626 416.973 583.887 401.042 584.551 385.078Z" fill="#3D405B"/>
<path d="M693.574 470.156C692.826 463.673 692.474 457.151 692.52 450.625C692.465 444.099 692.817 437.576 693.574 431.094C694.331 437.576 694.684 444.099 694.629 450.625C694.675 457.151 694.322 463.673 693.574 470.156Z" fill="#3D405B"/>
<path d="M501.777 481.328C522.116 479.909 542.461 478.757 562.813 477.871C583.164 476.914 603.516 476.23 623.867 475.586C644.219 474.941 664.59 474.492 684.961 474.238C705.332 473.984 725.703 473.848 746.094 474.063C725.742 475.482 705.397 476.641 685.059 477.539C664.707 478.477 644.355 479.16 624.004 479.805C603.652 480.449 583.281 480.879 562.91 481.152C542.539 481.426 522.168 481.523 501.777 481.328Z" fill="#3D405B"/>
<path d="M497.461 334.629C495.143 336.973 492.76 339.232 490.312 341.406C487.91 343.633 485.391 345.742 483.145 347.988C482.871 348.262 482.598 348.555 482.402 348.789L482.305 348.926C482.555 349.571 482.897 350.176 483.32 350.723C484.263 352.017 485.281 353.256 486.367 354.434C487.441 355.645 488.555 356.836 489.707 357.988C490.254 358.574 490.84 359.141 491.445 359.688C491.74 359.969 492.053 360.23 492.383 360.469C492.661 360.76 493.023 360.958 493.418 361.035C492.582 360.954 491.784 360.643 491.113 360.137C490.391 359.707 489.707 359.238 489.023 358.77C487.668 357.782 486.365 356.726 485.117 355.605C483.907 354.517 482.772 353.349 481.719 352.109C481.114 351.382 480.638 350.556 480.313 349.668C480.197 349.293 480.197 348.891 480.313 348.516C480.356 348.326 480.435 348.147 480.547 347.988L480.781 347.637C481.068 347.275 481.375 346.93 481.699 346.602C484.1 344.319 486.644 342.192 489.316 340.234C491.934 338.229 494.653 336.358 497.461 334.629Z" fill="#3D405B"/>
<path d="M495.645 358.945C497.422 356.855 499.258 354.844 501.172 352.91C503.086 350.977 505.078 349.004 506.699 347.187C506.826 346.868 506.826 346.511 506.699 346.191C506.506 345.615 506.257 345.059 505.957 344.531C505.321 343.381 504.624 342.266 503.867 341.191L499.082 334.629C501.293 336.263 503.328 338.122 505.156 340.176C506.099 341.219 506.949 342.343 507.695 343.535C508.093 344.148 508.42 344.803 508.672 345.488C508.869 345.952 508.952 346.457 508.915 346.96C508.878 347.462 508.721 347.949 508.457 348.379C506.582 350.441 504.537 352.342 502.344 354.062C500.216 355.83 497.979 357.461 495.645 358.945Z" fill="#3D405B"/>
<path d="M397.344 279.512C392.988 279.375 388.652 280.059 384.258 280C379.822 280.108 375.405 279.393 371.231 277.891C369.12 277.076 367.192 275.851 365.559 274.285C363.926 272.719 362.621 270.844 361.719 268.769C360.022 264.628 358.987 260.245 358.652 255.781C357.823 247.002 357.744 238.168 358.418 229.375C358.955 220.583 360.057 211.834 361.719 203.184C362.168 201.016 362.656 198.848 363.262 196.68C363.574 195.586 363.906 194.492 364.336 193.379C364.531 192.832 364.824 192.246 365.078 191.68C365.391 191.092 365.75 190.53 366.152 190C367.8 188.119 369.839 186.62 372.126 185.608C374.413 184.596 376.894 184.095 379.395 184.141C381.867 184.097 384.322 184.569 386.602 185.527C389.076 186.523 391.141 188.326 392.461 190.644C393.056 191.865 393.395 193.194 393.457 194.551C393.555 195.742 393.555 196.894 393.457 198.027C393.457 200.273 393.223 202.48 393.008 204.668C391.843 213.275 391.178 221.941 391.016 230.625C390.932 234.894 391.627 239.144 393.066 243.164C393.841 245.136 395.073 246.897 396.66 248.301C398.34 249.695 400.364 250.612 402.52 250.957C400.294 250.844 398.143 250.113 396.309 248.848C394.486 247.495 393.013 245.728 392.012 243.691C390.153 239.611 389.073 235.219 388.828 230.742C388.448 221.967 388.677 213.177 389.512 204.434C389.649 202.266 389.785 200.117 389.766 198.027C389.924 196.169 389.684 194.298 389.063 192.539C387.441 189.629 383.34 188.223 379.531 188.281C377.648 188.246 375.78 188.615 374.052 189.363C372.323 190.111 370.775 191.221 369.512 192.617C368.454 194.203 367.681 195.961 367.227 197.812C366.641 199.766 366.133 201.914 365.703 204.004C364.007 212.487 362.762 221.053 361.973 229.668C361.06 238.269 360.76 246.923 361.074 255.566C361.181 257.711 361.396 259.849 361.719 261.973C361.969 264.067 362.44 266.13 363.125 268.125C363.883 270.082 365.033 271.865 366.504 273.363C367.975 274.86 369.736 276.042 371.68 276.836C375.69 278.436 379.96 279.283 384.277 279.336C386.445 279.336 388.613 279.336 390.801 279.336C392.983 279.277 395.168 279.336 397.344 279.512Z" fill="#3D405B"/>
<path d="M393.477 244.023C396.172 244.394 398.906 244.394 401.602 244.023C404.247 243.716 406.728 242.581 408.691 240.781C410.568 238.929 411.916 236.609 412.598 234.062C413.33 231.51 413.82 228.894 414.062 226.25C414.648 220.879 414.707 215.41 415.508 209.863C415.851 206.999 416.635 204.206 417.832 201.582C418.453 200.201 419.29 198.929 420.312 197.812C421.398 196.795 422.575 195.879 423.828 195.078C426.344 193.393 429.221 192.323 432.227 191.953C433.849 191.77 435.492 191.958 437.032 192.503C438.571 193.047 439.967 193.935 441.113 195.098C445.703 199.629 446.445 206.113 446.484 211.484C446.664 222.492 446.286 233.503 445.352 244.473C444.435 255.462 442.824 266.382 440.527 277.168C439.325 282.595 437.792 287.943 435.938 293.183C434.11 298.508 431.581 303.566 428.418 308.223C426.76 310.581 424.789 312.704 422.559 314.531C420.276 316.426 417.611 317.806 414.746 318.574C411.99 319.428 409.115 319.836 406.23 319.785C404.633 319.701 403.088 319.188 401.758 318.301C401.11 317.796 400.568 317.169 400.162 316.456C399.757 315.742 399.496 314.955 399.395 314.14C399.113 311.281 399.398 308.394 400.234 305.644C400.918 302.949 401.758 300.332 402.598 297.832C403.438 295.332 404.258 292.637 404.883 290.019C405.22 288.706 405.442 287.367 405.547 286.016C405.689 284.685 405.488 283.34 404.961 282.109C405.595 283.311 405.905 284.657 405.859 286.016C405.86 287.397 405.743 288.775 405.508 290.137C405.039 292.851 404.355 295.527 403.672 298.164C402.988 300.801 402.305 303.457 401.719 306.094C401.103 308.651 400.984 311.303 401.367 313.906C401.543 315.004 402.138 315.992 403.027 316.66C404.022 317.227 405.145 317.529 406.289 317.539C408.88 317.443 411.441 316.956 413.887 316.094C418.781 314.352 422.921 310.971 425.605 306.523C431.27 297.617 434.297 286.992 436.562 276.543C438.739 265.918 440.252 255.168 441.094 244.355C442.051 233.535 442.539 222.617 442.461 211.816C442.561 209.175 442.338 206.532 441.797 203.945C441.261 201.595 440.139 199.418 438.535 197.617C437.78 196.806 436.848 196.182 435.811 195.792C434.774 195.402 433.661 195.258 432.559 195.371C430.105 195.65 427.747 196.485 425.664 197.812C424.594 198.463 423.575 199.194 422.617 200C421.776 200.857 421.071 201.839 420.527 202.91C419.404 205.248 418.622 207.734 418.203 210.293C417.207 215.527 416.934 221.015 416.074 226.484C415.684 229.249 415.03 231.97 414.121 234.609C413.218 237.327 411.615 239.759 409.473 241.66C407.252 243.469 404.519 244.535 401.66 244.707C398.914 244.851 396.161 244.621 393.477 244.023Z" fill="#3D405B"/>
<path d="M458.184 217.012C455.996 228.574 453.516 240.117 453.047 251.816C452.729 257.616 453.163 263.432 454.336 269.121C454.959 271.923 455.889 274.648 457.109 277.246C458.356 279.802 459.975 282.158 461.914 284.238C463.833 286.336 466.083 288.104 468.574 289.473C471.066 290.878 473.732 291.948 476.504 292.656C482.02 294.268 487.882 294.268 493.398 292.656C496.164 291.8 498.794 290.557 501.211 288.965C503.592 287.314 505.792 285.415 507.773 283.301C511.77 279.001 515.155 274.17 517.832 268.945C515.498 274.394 512.371 279.468 508.555 284.004C506.577 286.246 504.371 288.275 501.973 290.059C499.505 291.803 496.811 293.203 493.965 294.219C488.174 296.133 481.943 296.269 476.074 294.609C473.128 293.897 470.29 292.794 467.637 291.328C464.918 289.872 462.462 287.97 460.371 285.703C458.313 283.457 456.601 280.916 455.293 278.164C454.032 275.414 453.082 272.531 452.461 269.57C451.27 263.712 450.921 257.714 451.426 251.758C451.871 245.849 452.712 239.976 453.945 234.18C455.195 228.398 456.66 222.695 458.184 217.012Z" fill="#3D405B"/>
<path d="M519.355 258.223C521.442 247.612 522.521 236.829 522.578 226.016C522.485 220.714 521.83 215.437 520.625 210.273C519.503 205.285 517.274 200.612 514.102 196.601C510.887 192.76 506.431 190.162 501.504 189.258C496.396 188.422 491.172 188.641 486.152 189.902C480.955 190.811 475.949 192.594 471.348 195.176C469.085 196.484 467.026 198.116 465.234 200.019C463.442 202.029 461.937 204.277 460.762 206.699C462.172 201.234 465.455 196.437 470.039 193.144C474.644 189.902 479.829 187.574 485.312 186.289C490.836 184.657 496.653 184.27 502.344 185.156C508.256 186.143 513.604 189.254 517.383 193.906C520.973 198.468 523.412 203.827 524.492 209.531C525.599 214.965 526.032 220.515 525.781 226.055C525.158 237.025 522.995 247.854 519.355 258.223Z" fill="#3D405B"/>
<path d="M475.293 214.433C477.578 212.989 480.139 212.037 482.813 211.641C484.225 211.4 485.672 211.473 487.053 211.855C488.433 212.236 489.713 212.916 490.801 213.848C492.759 215.885 494.059 218.464 494.531 221.25C495.051 223.933 495.293 226.662 495.254 229.394C495.254 234.648 495.059 239.922 494.551 245.234C494.284 247.932 493.827 250.608 493.184 253.242C492.585 256.205 491.187 258.947 489.141 261.172C487.891 262.348 486.333 263.147 484.649 263.476C483.854 263.599 483.05 263.644 482.246 263.613H481.094C480.568 263.534 480.051 263.403 479.551 263.223C477.931 262.39 476.663 261.004 475.977 259.316C475.311 258.022 474.806 256.651 474.473 255.234C473.287 249.931 472.918 244.477 473.379 239.062C473.728 233.718 474.86 228.453 476.738 223.437C477.712 220.917 479.105 218.579 480.86 216.523C481.714 215.472 482.788 214.62 484.006 214.026C485.223 213.433 486.556 213.112 487.91 213.086C486.651 213.324 485.457 213.827 484.407 214.561C483.356 215.295 482.474 216.243 481.817 217.344C480.439 219.466 479.404 221.793 478.75 224.238C477.456 229.186 476.8 234.28 476.797 239.394C476.662 244.44 477.22 249.481 478.457 254.375C478.748 255.5 479.167 256.588 479.707 257.617C480.01 258.428 480.573 259.114 481.309 259.57C481.446 259.57 481.309 259.57 481.66 259.57H482.461C482.971 259.572 483.481 259.533 483.985 259.453C484.88 259.27 485.701 258.829 486.348 258.183C487.829 256.521 488.852 254.502 489.317 252.324C489.925 249.88 490.388 247.401 490.703 244.902C491.406 239.824 491.699 234.609 492.09 229.414C492.264 226.908 492.211 224.391 491.934 221.894C491.734 219.506 490.807 217.236 489.278 215.391C488.457 214.511 487.451 213.824 486.334 213.378C485.216 212.932 484.014 212.739 482.813 212.812C480.227 212.881 477.677 213.43 475.293 214.433Z" fill="#3D405B"/>
<path d="M545.02 249.394C543.489 248.943 542.005 248.348 540.586 247.617C539.125 246.814 537.899 245.642 537.031 244.219C535.552 241.262 534.879 237.968 535.078 234.668C535.276 228.282 535.929 221.918 537.031 215.625C538.008 209.336 539.297 203.105 540.762 196.894C541.504 193.789 542.344 190.723 543.379 187.617C543.62 186.82 543.907 186.037 544.238 185.273C544.383 184.844 544.559 184.426 544.766 184.023C545.009 183.556 545.283 183.106 545.586 182.676C546.782 181.223 548.265 180.033 549.942 179.18C553.088 177.671 556.531 176.883 560.02 176.875C563.477 176.775 566.917 177.4 570.117 178.711C573.583 180.03 576.39 182.661 577.93 186.035C578.252 186.918 578.5 187.826 578.672 188.75C578.791 189.676 578.83 190.61 578.789 191.543C578.473 193.26 577.948 194.933 577.227 196.523C574.673 202.26 572.424 208.128 570.488 214.101C569.553 217.074 568.899 220.128 568.535 223.223C568.246 226.348 568.457 229.5 569.16 232.559C568.006 229.568 567.417 226.389 567.422 223.184C567.444 219.963 567.771 216.752 568.399 213.594C569.852 207.386 571.745 201.29 574.063 195.351C574.568 194.031 574.941 192.664 575.176 191.269C575.176 190.703 575.059 189.98 575.02 189.316C574.869 188.693 574.68 188.08 574.453 187.48C573.24 185.086 571.136 183.263 568.594 182.402C565.92 181.37 563.067 180.883 560.203 180.971C557.338 181.058 554.52 181.717 551.914 182.91C550.762 183.478 549.733 184.268 548.887 185.234C548.558 185.742 548.289 186.286 548.086 186.855C547.784 187.536 547.523 188.234 547.305 188.945C546.289 191.816 545.469 194.805 544.649 197.871C543.008 203.926 541.621 210.059 540.293 216.191C538.92 222.307 537.89 228.495 537.207 234.726C536.705 237.734 537.008 240.82 538.086 243.672C539.258 246.445 542.207 248.047 545.02 249.394Z" fill="#3D405B"/>
<path d="M560.937 232.559C566.133 234.18 572.246 234.004 576.426 230.605C580.605 227.207 581.875 221.543 583.086 216.309C584.297 211.074 585.039 205.508 586.211 200.039C586.773 197.222 587.733 194.5 589.062 191.953C589.876 190.477 591.087 189.259 592.559 188.437C593.353 188.044 594.214 187.806 595.098 187.734C595.82 187.734 596.523 187.598 597.246 187.559C600.193 187.334 603.158 187.604 606.016 188.359C607.512 188.81 608.939 189.467 610.254 190.312C611.547 191.149 612.701 192.184 613.672 193.379C615.523 195.829 616.756 198.69 617.266 201.719C617.361 202.117 617.426 202.522 617.461 202.93C617.489 203.359 617.489 203.789 617.461 204.219C617.461 205.019 617.324 205.762 617.207 206.504C616.977 207.925 616.67 209.334 616.289 210.723C614.796 216.121 612.976 221.424 610.84 226.601C608.77 231.777 606.523 236.855 604.18 241.894C599.447 251.943 594.166 261.723 588.359 271.191C585.41 275.918 582.305 280.547 578.906 285C575.559 289.574 571.662 293.719 567.305 297.344C564.97 299.266 562.212 300.604 559.258 301.25C557.6 301.545 555.892 301.334 554.355 300.644C552.85 299.932 551.577 298.808 550.684 297.402C549.267 294.629 548.92 291.431 549.707 288.418C550.282 285.645 551.113 282.932 552.187 280.312C554.141 275.137 556.68 270.176 558.184 264.961C559.099 262.449 559.181 259.71 558.418 257.148C557.857 255.925 556.891 254.931 555.684 254.336L552.148 252.207L555.859 254.16C557.199 254.702 558.305 255.697 558.984 256.973C560.006 259.656 560.109 262.603 559.277 265.351C558.027 270.84 555.82 275.957 554.141 281.152C553.229 283.691 552.543 286.305 552.09 288.965C551.547 291.364 551.879 293.879 553.027 296.055C553.661 296.964 554.532 297.68 555.547 298.125C556.555 298.539 557.666 298.635 558.73 298.398C561.149 297.735 563.378 296.511 565.234 294.824C569.241 291.241 572.831 287.219 575.937 282.832C579.16 278.437 582.129 273.848 584.941 269.16C590.584 259.763 595.728 250.075 600.352 240.137C605.158 230.333 609.2 220.172 612.441 209.746C612.793 208.457 613.125 207.148 613.34 205.84C613.454 205.233 613.532 204.62 613.574 204.004C613.594 203.744 613.594 203.483 613.574 203.223C613.553 202.947 613.514 202.673 613.457 202.402C613.103 199.954 612.172 197.624 610.742 195.605C607.949 191.699 602.559 190.547 597.344 190.742C596.68 190.742 596.016 190.742 595.391 190.742C594.897 190.764 594.412 190.883 593.965 191.094C592.998 191.607 592.199 192.387 591.66 193.34C590.4 195.631 589.454 198.081 588.848 200.625C587.441 205.859 586.504 211.328 585.059 216.719C584.33 219.435 583.396 222.093 582.266 224.668C581.123 227.318 579.329 229.636 577.051 231.406C574.709 233.055 571.926 233.96 569.062 234.004C566.286 234.06 563.525 233.569 560.937 232.559Z" fill="#3D405B"/>
<path d="M610.488 394.453C611.841 394.215 613.231 394.322 614.531 394.766C615.821 395.365 616.848 396.414 617.422 397.715C618.504 400.258 619.107 402.98 619.199 405.742C619.355 408.477 619.199 411.23 619.199 413.926L619.062 422.031C619.062 427.461 618.887 432.891 618.613 438.32C618.477 441.035 618.281 443.77 617.91 446.504C617.73 447.902 617.45 449.286 617.07 450.644C616.855 451.377 616.56 452.085 616.191 452.754C615.944 453.146 615.641 453.502 615.293 453.809C614.941 454.062 614.648 454.258 614.316 454.453C613.008 455.198 611.557 455.657 610.059 455.801C608.514 455.986 606.948 455.75 605.527 455.117C605.083 454.948 604.679 454.686 604.342 454.349C604.005 454.013 603.744 453.609 603.574 453.164C603.405 452.388 603.327 451.595 603.34 450.801C603.34 449.414 603.34 448.047 603.34 446.699C603.457 441.25 603.633 435.82 603.984 430.41C604.609 419.59 605.312 408.769 606.406 397.969L605.605 430.488C605.605 435.898 605.293 441.309 605.273 446.719C605.273 448.047 605.273 449.414 605.273 450.625C605.273 451.289 605.273 452.012 605.273 452.305C605.273 452.598 605.703 452.93 606.191 453.164C607.309 453.569 608.504 453.717 609.687 453.599C610.87 453.481 612.012 453.098 613.027 452.48C613.281 452.344 613.555 452.148 613.77 452.012C613.929 451.869 614.067 451.705 614.18 451.523C614.468 451.01 614.697 450.467 614.863 449.902C615.225 448.62 615.499 447.315 615.684 445.996C616.074 443.379 616.289 440.684 616.465 437.988C616.816 432.617 616.914 427.187 617.207 421.777L617.637 413.652C617.793 410.918 617.969 408.262 617.93 405.566C618.009 402.907 617.584 400.256 616.68 397.754C616.218 396.523 615.331 395.498 614.18 394.863C612.997 394.443 611.734 394.303 610.488 394.453Z" fill="#3D405B"/>
<path d="M638.711 395.488C641.363 394.684 644.124 394.295 646.895 394.336C647.604 394.297 648.314 394.297 649.024 394.336C649.407 394.375 649.786 394.447 650.156 394.551L650.488 394.668C650.488 394.668 650.488 394.668 650.781 394.863C650.86 394.937 650.926 395.022 650.977 395.117V395.234C651.069 395.453 651.135 395.683 651.172 395.918C651.375 397.316 651.505 398.725 651.563 400.137C651.758 405.644 651.719 411.133 651.563 416.621C651.406 422.109 651.152 427.578 650.82 433.066C650.664 435.801 650.41 438.535 650.176 441.289C649.941 444.043 649.668 446.719 649.102 449.668C649.023 450.13 648.892 450.583 648.711 451.016C648.668 451.13 648.615 451.241 648.555 451.348V451.523C648.451 451.671 648.333 451.808 648.203 451.934C648.069 452.07 647.918 452.188 647.754 452.285H647.598L647.031 452.578C646.309 452.91 645.625 453.164 644.941 453.418C643.573 453.913 642.177 454.33 640.762 454.668C639.978 454.846 639.181 454.963 638.379 455.019C637.712 455.08 637.041 454.973 636.426 454.707L636.055 454.531C635.849 454.367 635.665 454.176 635.508 453.965C635.326 453.731 635.187 453.466 635.098 453.184C635.087 453.099 635.087 453.014 635.098 452.93C635.098 452.695 635.098 452.402 634.981 452.207C634.834 450.779 634.763 449.345 634.766 447.91C634.766 442.383 634.766 436.914 635.039 431.426C635.43 420.488 636.094 409.551 637.227 398.633C637.852 409.59 638.125 420.527 638.34 431.465C638.496 436.914 638.516 442.402 638.77 447.793C638.77 449.121 638.887 450.527 639.024 451.699C639.016 451.797 639.016 451.895 639.024 451.992C638.972 451.792 638.879 451.606 638.75 451.445C638.614 451.312 638.463 451.194 638.301 451.094H638.164C637.734 450.957 638.066 451.094 638.164 451.094C638.723 451.032 639.278 450.934 639.824 450.801C641.064 450.498 642.283 450.119 643.477 449.668C644.082 449.434 644.688 449.199 645.195 448.945C645.318 448.899 645.436 448.84 645.547 448.77C645.42 448.839 645.302 448.924 645.195 449.023C645.101 449.12 645.016 449.224 644.941 449.336V449.453C644.941 449.453 645.039 449.102 645.098 448.828C646.035 443.789 646.426 438.184 647.051 432.812L648.477 416.504C648.906 411.074 649.414 405.625 649.688 400.195C649.753 398.894 649.753 397.59 649.688 396.289C649.681 396.185 649.681 396.081 649.688 395.977C649.688 395.977 649.688 396.094 649.805 396.133H649.668C649.388 396.029 649.101 395.944 648.809 395.879C648.184 395.762 647.52 395.644 646.856 395.566C645.507 395.406 644.151 395.315 642.793 395.293C641.43 395.191 640.059 395.256 638.711 395.488Z" fill="#3D405B"/>
<path d="M667.305 396.113V408.867L667.168 421.582C667.168 430.059 666.797 438.594 667.168 446.973C667.201 447.945 667.319 448.912 667.52 449.863C667.485 449.803 667.438 449.75 667.383 449.707C667.24 449.603 667.071 449.542 666.895 449.531L667.695 449.414L669.258 449.199C670.27 449.05 671.274 448.848 672.266 448.594C673.184 448.359 674.219 447.949 674.004 447.656C674.492 443.75 674.512 439.297 674.766 435.117L675.313 422.383L675.977 409.668C676.348 418.164 676.445 426.66 676.406 435.059C676.406 437.168 676.406 439.297 676.289 441.426C676.172 443.555 676.191 445.625 675.899 447.93C675.762 448.34 675.742 448.828 675.371 449.141C675.102 449.404 674.792 449.622 674.453 449.785C673.923 450.05 673.366 450.259 672.793 450.41C671.731 450.692 670.655 450.92 669.57 451.094L667.988 451.348L667.207 451.465H667.012C667.012 451.465 667.012 451.465 666.68 451.465C666.442 451.455 666.215 451.366 666.035 451.211C665.928 451.123 665.83 451.025 665.742 450.918L665.645 450.723C665.584 450.619 665.538 450.507 665.508 450.391C665.221 449.272 665.05 448.127 665 446.973C664.805 442.656 664.883 438.418 665 434.16C665.117 429.902 665.195 425.664 665.449 421.426C665.918 413.066 666.406 404.59 667.305 396.113Z" fill="#3D405B"/>
<path d="M676.367 316.641C676.367 317.635 676.007 318.597 675.354 319.347C674.701 320.097 673.798 320.586 672.813 320.723C672.25 320.799 671.678 320.757 671.133 320.599C670.588 320.441 670.083 320.17 669.649 319.805C669.194 319.412 668.829 318.927 668.579 318.381C668.329 317.835 668.2 317.241 668.2 316.641C668.2 316.04 668.329 315.447 668.579 314.901C668.829 314.355 669.194 313.869 669.649 313.476C670.083 313.111 670.588 312.84 671.133 312.682C671.678 312.524 672.25 312.482 672.813 312.559C673.798 312.695 674.701 313.184 675.354 313.934C676.007 314.684 676.367 315.646 676.367 316.641ZM676.367 316.641C676.362 316.18 676.255 315.727 676.056 315.312C675.857 314.897 675.57 314.531 675.215 314.238C674.885 313.963 674.499 313.765 674.084 313.657C673.668 313.549 673.234 313.534 672.813 313.613C672.109 313.749 671.475 314.126 671.019 314.678C670.563 315.23 670.313 315.924 670.313 316.641C670.306 317.359 670.553 318.057 671.01 318.611C671.467 319.164 672.106 319.539 672.813 319.668C673.234 319.747 673.668 319.732 674.084 319.624C674.499 319.516 674.885 319.318 675.215 319.043C675.57 318.75 675.857 318.384 676.056 317.969C676.255 317.554 676.362 317.101 676.367 316.641Z" fill="#3D405B"/>
<path d="M704.805 306.191C704.808 307.55 704.417 308.881 703.678 310.021C702.939 311.162 701.885 312.063 700.644 312.615C699.402 313.168 698.027 313.348 696.685 313.133C695.344 312.918 694.093 312.318 693.086 311.406C692.354 310.747 691.769 309.941 691.368 309.041C690.967 308.141 690.76 307.167 690.76 306.182C690.76 305.196 690.967 304.222 691.368 303.322C691.769 302.422 692.354 301.616 693.086 300.957C694.091 300.035 695.344 299.427 696.691 299.208C698.038 298.989 699.419 299.169 700.665 299.725C701.91 300.281 702.966 301.19 703.702 302.339C704.437 303.488 704.821 304.827 704.805 306.191ZM704.805 306.191C704.8 305.037 704.46 303.908 703.826 302.943C703.192 301.978 702.291 301.218 701.233 300.756C700.175 300.294 699.005 300.149 697.866 300.339C696.727 300.53 695.668 301.047 694.818 301.828C693.967 302.609 693.362 303.621 693.076 304.739C692.79 305.858 692.836 307.036 693.207 308.129C693.578 309.223 694.259 310.185 695.167 310.898C696.075 311.612 697.17 312.046 698.32 312.148C699.13 312.211 699.944 312.112 700.715 311.857C701.487 311.602 702.199 311.197 702.813 310.664C703.438 310.098 703.938 309.408 704.281 308.638C704.624 307.868 704.802 307.035 704.805 306.191Z" fill="#3D405B"/>
<path d="M704.805 283.379C706.582 280.898 708.496 278.555 710.43 276.191C712.363 273.828 714.434 271.601 716.523 269.394C718.609 267.149 720.82 265.024 723.145 263.027C725.454 260.954 727.974 259.127 730.664 257.578C730.783 257.513 730.914 257.471 731.05 257.456C731.185 257.442 731.322 257.453 731.452 257.492C731.583 257.53 731.705 257.593 731.811 257.678C731.917 257.764 732.005 257.869 732.07 257.988C732.163 258.134 732.21 258.304 732.207 258.476C732.207 264.805 732.207 271.133 732.09 277.48L730.879 276.601C734.794 275.358 738.612 273.83 742.305 272.031C744.154 271.135 745.941 270.117 747.656 268.984C749.393 267.87 750.898 266.431 752.09 264.746C751.11 266.613 749.737 268.245 748.066 269.531C746.445 270.87 744.706 272.06 742.871 273.086C739.217 275.161 735.395 276.925 731.445 278.359C731.22 278.435 730.974 278.421 730.759 278.319C730.544 278.217 730.377 278.035 730.293 277.812C730.274 277.716 730.274 277.616 730.293 277.519C730.189 271.178 730.15 264.844 730.176 258.516L731.719 259.433C729.142 260.903 726.704 262.603 724.434 264.512C722.109 266.465 719.863 268.418 717.656 270.371C713.281 274.609 708.984 278.965 704.805 283.379Z" fill="#3D405B"/>
<path d="M705.332 282.754C708.574 280.664 711.895 278.711 715.215 276.738C716.875 275.762 718.555 274.785 720.273 273.906L721.582 273.242C721.816 273.123 722.057 273.018 722.305 272.93H722.617C722.795 272.87 722.987 272.87 723.164 272.93L723.398 273.145C723.492 273.247 723.565 273.366 723.613 273.496L723.711 273.75C723.921 274.759 724.033 275.786 724.043 276.816C724.112 280.729 723.942 284.643 723.535 288.535C723.243 292.448 722.59 296.325 721.582 300.117L720.02 298.867C723.348 296.76 726.544 294.451 729.59 291.953C732.672 289.51 735.619 286.902 738.418 284.141C741.216 281.355 743.796 278.358 746.133 275.176C748.48 271.967 750.502 268.532 752.168 264.922C750.877 268.724 749.147 272.362 747.012 275.762C744.79 279.122 742.315 282.309 739.609 285.293C736.87 288.216 733.947 290.963 730.859 293.516C727.754 296.102 724.493 298.496 721.094 300.684C720.861 300.829 720.579 300.875 720.312 300.813C720.045 300.751 719.813 300.585 719.668 300.352C719.583 300.223 719.529 300.078 719.508 299.926C719.488 299.773 719.503 299.618 719.551 299.473C720.573 295.837 721.272 292.118 721.641 288.359C722.09 284.57 722.402 280.742 722.5 276.953C722.527 276.052 722.482 275.151 722.363 274.258C722.395 274.267 722.429 274.267 722.461 274.258C722.522 274.286 722.589 274.3 722.656 274.3C722.724 274.3 722.79 274.286 722.852 274.258L722.246 274.492L720.957 275.059C719.219 275.879 717.52 276.758 715.781 277.598L705.332 282.754Z" fill="#3D405B"/>
<path d="M796.172 188.75C783.716 194.305 772.03 201.448 761.406 210C756.177 214.315 751.322 219.065 746.895 224.199C742.554 229.366 738.843 235.031 735.84 241.074L734.414 239.766C739.622 236.732 744.863 233.776 750.137 230.898C752.773 229.473 755.43 228.047 758.105 226.68C760.8 225.164 763.608 223.858 766.504 222.773C766.729 222.699 766.975 222.717 767.187 222.823C767.399 222.929 767.561 223.115 767.637 223.34C767.685 223.519 767.685 223.708 767.637 223.887C766.244 229.071 765.245 234.353 764.648 239.688C763.985 245.042 763.594 250.426 763.477 255.82C763.477 261.211 763.477 266.621 763.867 272.031C764.258 277.441 764.844 282.793 765.547 288.184C765.078 285.508 764.531 282.852 764.141 280.156C763.75 277.461 763.32 274.785 763.105 272.09C762.516 266.68 762.209 261.243 762.188 255.801C762.168 250.355 762.423 244.912 762.949 239.492C763.462 234.039 764.423 228.636 765.82 223.34L766.953 224.531C764.222 225.593 761.566 226.839 759.004 228.262C756.367 229.648 753.731 231.094 751.191 232.539L735.566 241.367C735.45 241.433 735.321 241.475 735.188 241.491C735.055 241.507 734.921 241.497 734.792 241.46C734.663 241.424 734.543 241.363 734.437 241.28C734.332 241.197 734.245 241.094 734.18 240.977C734.107 240.831 734.07 240.67 734.07 240.508C734.07 240.345 734.107 240.185 734.18 240.039C737.307 233.859 741.162 228.076 745.664 222.813C750.175 217.607 755.193 212.863 760.645 208.652C766.076 204.451 771.808 200.652 777.793 197.285C783.695 193.979 789.839 191.126 796.172 188.75Z" fill="#3D405B"/>
<path d="M794.844 189.277C791.86 193.562 789.327 198.144 787.285 202.949C785.211 207.695 783.462 212.576 782.051 217.559C780.648 222.547 779.546 227.614 778.75 232.734C778.281 235.273 778.105 237.852 777.773 240.43C777.441 243.008 777.402 245.586 777.207 248.242L775.996 247.402C786.66 242.676 797.363 238.125 808.125 233.73C818.887 229.336 829.609 224.883 840.898 221.387C841.023 221.344 841.154 221.328 841.285 221.337C841.416 221.347 841.544 221.383 841.66 221.443C841.777 221.503 841.88 221.587 841.964 221.688C842.048 221.789 842.111 221.905 842.148 222.031C842.213 222.244 842.205 222.472 842.128 222.68C842.05 222.888 841.907 223.065 841.719 223.184C834.941 227.324 828.301 231.758 821.797 236.328C815.293 240.898 808.887 245.645 802.695 250.645C796.461 255.594 790.539 260.923 784.961 266.602C779.219 272.141 774.347 278.514 770.508 285.508C774.061 278.315 778.72 271.725 784.316 265.977C789.761 260.109 795.594 254.615 801.777 249.531C807.91 244.395 814.199 239.453 820.742 234.824C827.285 230.195 833.867 225.703 840.684 221.484L841.484 223.281C835.996 225.02 830.547 227.07 825.137 229.141C819.727 231.211 814.297 233.359 808.906 235.547C798.125 239.922 787.422 244.453 776.719 249.023C776.511 249.109 776.279 249.109 776.071 249.025C775.863 248.942 775.696 248.78 775.605 248.574C775.568 248.44 775.568 248.298 775.605 248.164C775.84 245.566 776.016 242.949 776.328 240.352C776.641 237.754 776.953 235.156 777.48 232.539C778.379 227.385 779.592 222.291 781.113 217.285C782.679 212.305 784.598 207.442 786.855 202.734C789.002 197.961 791.681 193.447 794.844 189.277Z" fill="#3D405B"/>
<path d="M430.078 302.129C437.318 305.382 444.897 307.818 452.676 309.395C456.534 310.142 460.471 310.405 464.395 310.176C468.309 309.824 472.173 309.045 475.918 307.852C479.797 306.392 483.973 305.896 488.086 306.406C490.223 306.813 492.231 307.724 493.945 309.062C495.592 310.403 496.981 312.031 498.047 313.867C499.983 317.513 501.228 321.487 501.719 325.586C502.259 329.568 502.331 333.599 501.934 337.598C501.929 337.625 501.915 337.65 501.893 337.668C501.872 337.686 501.844 337.696 501.816 337.695C501.789 337.691 501.764 337.676 501.746 337.655C501.728 337.633 501.718 337.606 501.719 337.578C501.556 333.638 501.066 329.718 500.254 325.859C499.521 322.028 498.127 318.353 496.133 315C495.236 313.389 494.018 311.98 492.552 310.861C491.087 309.742 489.407 308.937 487.617 308.496C483.821 307.928 479.943 308.277 476.309 309.512C472.44 310.644 468.457 311.339 464.434 311.582C460.405 311.721 456.375 311.347 452.441 310.469C444.705 308.602 437.203 305.87 430.078 302.324C430.06 302.306 430.05 302.281 430.05 302.256C430.05 302.23 430.06 302.206 430.078 302.187C430.073 302.168 430.073 302.148 430.078 302.129Z" fill="#3D405B"/>
<path d="M482.91 261.699C481.801 264.401 480.97 267.208 480.43 270.078C479.857 272.886 479.601 275.749 479.668 278.613C479.838 281.421 480.33 284.199 481.133 286.895C481.965 289.607 483.077 292.226 484.453 294.707C484.465 294.716 484.475 294.728 484.482 294.741C484.489 294.755 484.492 294.77 484.492 294.785C484.492 294.8 484.489 294.815 484.482 294.829C484.475 294.842 484.465 294.854 484.453 294.863C484.435 294.874 484.415 294.879 484.395 294.879C484.374 294.879 484.354 294.874 484.336 294.863C483.188 293.892 482.17 292.776 481.309 291.543C480.868 290.916 480.464 290.264 480.098 289.59L479.18 287.5C478.2 284.625 477.801 281.585 478.008 278.555C478.323 272.616 479.965 266.823 482.813 261.602H482.949C482.951 261.62 482.948 261.638 482.941 261.655C482.935 261.672 482.924 261.687 482.91 261.699Z" fill="#3D405B"/>
<path d="M486.719 294.59C487.725 294.976 488.672 295.502 489.531 296.152C490.396 296.754 491.224 297.407 492.012 298.105C493.62 299.509 495.116 301.037 496.485 302.676C499.18 305.998 501.287 309.756 502.715 313.789C504.266 317.821 504.971 322.129 504.785 326.445C504.571 330.725 503.571 334.929 501.836 338.848C501.816 338.862 501.792 338.87 501.768 338.87C501.743 338.87 501.719 338.862 501.699 338.848C501.691 338.829 501.686 338.809 501.686 338.789C501.686 338.769 501.691 338.749 501.699 338.73C501.699 337.656 501.953 336.621 502.09 335.586C502.288 334.567 502.419 333.536 502.481 332.5C502.685 330.456 502.763 328.401 502.715 326.348C502.798 322.27 502.278 318.203 501.172 314.277C499.988 310.321 498.139 306.596 495.703 303.262C494.468 301.593 493.117 300.014 491.66 298.535C490.222 297.037 488.554 295.778 486.719 294.805V294.687C486.71 294.673 486.706 294.656 486.706 294.639C486.706 294.622 486.71 294.605 486.719 294.59Z" fill="#3D405B"/>
<path d="M553.379 280.117C555.391 279.706 557.438 279.49 559.492 279.473C561.546 279.518 563.595 279.701 565.625 280.019C567.669 280.256 569.681 280.721 571.621 281.406C573.568 282.138 575.388 283.173 577.012 284.473C577.031 284.494 577.042 284.522 577.042 284.551C577.042 284.579 577.031 284.607 577.012 284.629C575.038 284.317 573.082 283.9 571.152 283.379C569.199 282.91 567.383 282.148 565.449 281.621C561.595 280.542 557.591 280.093 553.594 280.293C553.576 280.303 553.556 280.309 553.535 280.309C553.515 280.309 553.494 280.303 553.477 280.293C553.458 280.288 553.441 280.28 553.426 280.269C553.411 280.257 553.398 280.243 553.389 280.226C553.38 280.21 553.374 280.192 553.373 280.173C553.371 280.154 553.373 280.135 553.379 280.117Z" fill="#3D405B"/>
<path d="M552.363 283.555C549.352 289.229 545.266 294.264 540.332 298.379C535.198 302.19 529.763 305.58 524.082 308.516C518.634 311.553 513.889 315.706 510.156 320.703C506.621 325.906 503.822 331.571 501.836 337.539C501.818 337.557 501.793 337.567 501.768 337.567C501.742 337.567 501.717 337.557 501.699 337.539C501.687 337.522 501.68 337.501 501.68 337.48C501.68 337.459 501.687 337.439 501.699 337.422C502.725 331.019 505.044 324.891 508.516 319.414C512.338 314.104 517.427 309.834 523.32 306.992C529.045 304.274 534.539 301.093 539.746 297.48C544.798 293.641 549.051 288.85 552.266 283.379C552.286 283.364 552.309 283.357 552.334 283.357C552.359 283.357 552.382 283.364 552.402 283.379C552.413 283.392 552.42 283.408 552.424 283.425C552.428 283.442 552.428 283.459 552.424 283.476C552.42 283.493 552.413 283.508 552.402 283.522C552.392 283.536 552.379 283.547 552.363 283.555Z" fill="#3D405B"/>
<path d="M414.766 298.652C413.155 297.632 411.815 296.239 410.859 294.59C410.629 294.1 410.502 293.568 410.488 293.027C410.5 292.421 410.729 291.839 411.133 291.387C411.509 290.965 411.967 290.626 412.48 290.391C412.788 290.253 413.12 290.181 413.457 290.181C413.794 290.181 414.127 290.253 414.434 290.391C415.416 290.995 416.118 291.964 416.387 293.086C416.676 294.081 416.782 295.12 416.699 296.152C416.621 297.207 416.3 298.23 415.762 299.141C415.316 299.876 414.93 300.647 414.609 301.445C414.268 302.209 414.012 303.008 413.848 303.828C413.686 304.41 413.686 305.024 413.848 305.605C413.848 305.605 413.848 305.605 414.199 305.605C414.477 305.572 414.74 305.464 414.961 305.293C415.43 304.787 415.725 304.143 415.801 303.457C415.888 302.652 415.829 301.838 415.625 301.055C415.516 300.668 415.365 300.295 415.176 299.941C415.083 299.772 414.979 299.608 414.863 299.453C414.678 299.258 414.508 299.049 414.355 298.828C414.267 298.647 414.231 298.445 414.252 298.245C414.272 298.045 414.349 297.854 414.473 297.695C414.638 297.477 414.835 297.286 415.059 297.129C415.447 296.852 415.858 296.61 416.289 296.406C417.118 296 417.981 295.667 418.867 295.41C418.086 295.879 417.305 296.367 416.582 296.875C416.224 297.13 415.891 297.418 415.586 297.734C415.273 298.008 415.156 298.437 415.254 298.32C415.352 298.203 415.508 298.535 415.684 298.691C415.869 298.873 416.038 299.068 416.191 299.277C416.495 299.686 416.745 300.132 416.934 300.605C417.308 301.556 417.481 302.573 417.441 303.594C417.43 304.738 416.983 305.834 416.191 306.66C415.733 307.097 415.155 307.389 414.531 307.5C414.195 307.552 413.852 307.552 413.516 307.5C413.064 307.435 412.649 307.214 412.344 306.875C411.902 306.321 411.667 305.63 411.68 304.922C411.657 304.385 411.697 303.848 411.797 303.32C411.964 302.346 412.246 301.396 412.637 300.488C413.017 299.611 413.461 298.762 413.965 297.949C414.358 297.292 414.611 296.561 414.707 295.801C414.806 295.019 414.766 294.225 414.59 293.457C414.475 292.781 414.138 292.163 413.633 291.699C413.531 291.655 413.422 291.631 413.311 291.631C413.2 291.631 413.09 291.655 412.988 291.699C412.659 291.819 412.355 291.997 412.09 292.227C411.823 292.468 411.646 292.791 411.586 293.146C411.525 293.5 411.586 293.864 411.758 294.18C412.45 295.857 413.473 297.378 414.766 298.652Z" fill="#3D405B"/>
<path d="M478.906 276.191C477.11 275.371 475.41 274.492 473.692 273.828C472.907 273.497 472.078 273.286 471.231 273.203C470.43 273.203 470.293 273.379 470.156 273.867C469.688 274.492 471.641 275.566 473.34 276.016C475.039 276.465 476.992 276.953 478.906 277.461C476.976 277.835 474.997 277.895 473.047 277.637C471.997 277.512 470.974 277.215 470.02 276.758C469.745 276.638 469.489 276.48 469.258 276.289C468.981 276.086 468.743 275.834 468.555 275.547C468.331 275.234 468.179 274.876 468.108 274.498C468.037 274.121 468.049 273.732 468.145 273.359C468.339 272.617 468.806 271.975 469.453 271.562C469.791 271.407 470.145 271.29 470.508 271.211C470.826 271.182 471.147 271.182 471.465 271.211C472.53 271.384 473.547 271.777 474.453 272.363C476.147 273.373 477.654 274.668 478.906 276.191Z" fill="#3D405B"/>
<path d="M478.906 275.41C479.604 274.008 480.646 272.805 481.934 271.914C482.683 271.395 483.563 271.098 484.473 271.055C484.894 271.056 485.31 271.143 485.697 271.311C486.083 271.479 486.431 271.724 486.719 272.031C486.962 272.27 487.143 272.565 487.246 272.891C487.37 273.278 487.37 273.695 487.246 274.082C487.125 274.372 486.96 274.642 486.758 274.883C486.425 275.224 486.043 275.513 485.625 275.742C484.923 276.118 484.174 276.401 483.398 276.582C481.913 277 480.355 277.1 478.828 276.875C480.234 276.289 481.543 275.664 482.734 275.039C483.349 274.741 483.943 274.402 484.512 274.023C485.059 273.73 485.332 273.145 485.176 273.496C485.176 273.496 485.176 273.379 485 273.34C484.839 273.212 484.639 273.143 484.434 273.145C483.862 273.103 483.29 273.211 482.773 273.457C481.438 274.011 480.145 274.664 478.906 275.41Z" fill="#3D405B"/>
<path d="M474.531 281.035C475.195 279.239 476.188 277.583 477.461 276.152C477.614 275.967 477.828 275.843 478.065 275.804C478.302 275.764 478.545 275.812 478.75 275.937C479.67 276.513 480.539 277.167 481.348 277.891C482.197 278.616 482.94 279.458 483.555 280.391C482.458 280.172 481.394 279.811 480.391 279.316C479.415 278.857 478.481 278.314 477.598 277.695L478.965 277.52C477.713 278.951 476.211 280.143 474.531 281.035Z" fill="#3D405B"/>
<path d="M554.082 278.437C553.555 277.012 553.125 275.625 552.578 274.375C552.35 273.822 552.026 273.313 551.621 272.871C551.495 272.76 551.349 272.674 551.191 272.617C551.191 272.617 551.055 272.617 550.996 272.617C551.002 272.889 551.048 273.159 551.133 273.418C551.309 274.081 551.524 274.733 551.777 275.371C552.305 276.68 552.871 278.027 553.34 279.473C552.158 278.529 551.136 277.401 550.313 276.133C549.875 275.477 549.508 274.776 549.219 274.043C549.06 273.616 548.962 273.169 548.926 272.715C548.874 272.347 548.921 271.973 549.061 271.63C549.202 271.286 549.432 270.987 549.727 270.762C550.042 270.59 550.386 270.478 550.742 270.43C551.041 270.4 551.342 270.4 551.641 270.43C552.18 270.598 552.661 270.917 553.027 271.348C553.561 272.033 553.923 272.837 554.082 273.691C554.441 275.253 554.441 276.876 554.082 278.437Z" fill="#3D405B"/>
<path d="M553.125 281.211C552.161 282.565 550.923 283.703 549.492 284.551C548.691 285.045 547.777 285.328 546.836 285.371C546.225 285.38 545.628 285.187 545.137 284.824C544.606 284.428 544.237 283.852 544.102 283.203C544.05 282.814 544.097 282.417 544.238 282.051C544.38 281.748 544.579 281.476 544.824 281.25C545.202 280.902 545.638 280.624 546.113 280.43C546.909 280.113 547.743 279.903 548.594 279.805C550.217 279.579 551.866 279.619 553.477 279.922C551.934 280.488 550.43 280.918 548.965 281.406C548.296 281.642 547.644 281.923 547.012 282.246C546.763 282.369 546.533 282.527 546.328 282.715C546.192 282.715 546.328 282.832 546.328 282.852C546.384 282.978 546.456 283.096 546.543 283.203C546.692 283.309 546.868 283.37 547.051 283.379C547.717 283.391 548.379 283.279 549.004 283.047C550.117 282.559 551.543 281.797 553.125 281.211Z" fill="#3D405B"/>
<path d="M578.887 346.797C581.247 346.967 583.532 347.704 585.547 348.945C587.622 350.159 589.424 351.788 590.84 353.73C592.259 355.659 593.299 357.84 593.906 360.156C594.212 361.295 594.421 362.458 594.531 363.633C594.6 364.791 594.6 365.952 594.531 367.109C594.121 366.016 593.887 364.902 593.535 363.828C593.184 362.754 592.852 361.68 592.363 360.684C592.129 360.176 591.914 359.687 591.699 359.18L590.918 357.734C590.415 356.766 589.827 355.844 589.16 354.98C587.875 353.215 586.35 351.637 584.629 350.293C582.867 348.894 580.938 347.72 578.887 346.797Z" fill="#3D405B"/>
<path d="M495.293 199.512C496.828 199.243 498.408 199.405 499.856 199.981C501.305 200.557 502.565 201.524 503.496 202.773C504.479 203.977 505.324 205.287 506.016 206.68C506.367 207.363 506.699 208.047 507.012 208.769L507.695 210.898C509.286 216.574 509.907 222.477 509.531 228.359C509.531 229.805 509.434 231.269 509.277 232.695L508.75 236.875C508.391 239.716 507.862 242.534 507.168 245.312C505.917 250.898 504.105 256.342 501.758 261.562C501.465 255.703 502.031 250.176 502.227 244.59C502.227 243.203 502.422 241.816 502.539 240.43L502.754 236.289C502.93 233.516 503.164 230.781 503.184 228.047C503.534 222.676 503.423 217.285 502.852 211.934L502.598 209.98L502.148 208.027C501.884 206.768 501.478 205.543 500.937 204.375C500.447 203.176 499.68 202.111 498.699 201.265C497.718 200.42 496.551 199.819 495.293 199.512Z" fill="white"/>
<path d="M377.969 195.469C377.943 199.071 377.735 202.669 377.344 206.25C377.012 209.746 376.582 213.184 376.074 216.621C375.567 220.059 374.961 223.457 374.297 226.914C373.619 230.468 372.679 233.968 371.485 237.383C370.231 233.91 369.5 230.27 369.317 226.582C369.097 222.942 369.261 219.289 369.805 215.684C370.331 212.075 371.241 208.533 372.52 205.117C373.774 201.615 375.617 198.352 377.969 195.469Z" fill="white"/>
<path d="M635.156 255.352C637.02 253.394 639.323 251.908 641.875 251.016C644.477 250.058 647.254 249.665 650.02 249.863C652.806 250.048 655.497 250.95 657.832 252.48C660.147 253.947 662.007 256.03 663.203 258.496C660.993 257.324 658.702 256.313 656.348 255.469C654.178 254.69 651.91 254.223 649.609 254.082C644.757 253.897 639.902 254.324 635.156 255.352Z" fill="white"/>
<path d="M599.609 263.086C599.785 265.039 599.844 266.875 599.922 268.652L600.059 273.809L600.156 278.984C600.208 280.848 600.156 282.713 600 284.57C597.297 281.681 595.808 277.863 595.84 273.906C595.782 271.961 596.053 270.019 596.641 268.164C597.202 266.255 598.221 264.511 599.609 263.086Z" fill="white"/>
<path d="M595.488 217.012C595.439 221.626 594.829 226.217 593.672 230.684C592.566 235.114 591.096 239.445 589.277 243.633C587.443 247.835 585.22 251.856 582.637 255.645C580.036 259.492 576.846 262.906 573.184 265.762C574.824 261.367 576.563 257.324 578.281 253.242C580 249.16 581.68 245.117 583.477 241.094C585.273 237.07 587.051 232.969 588.984 229.062C590.936 224.932 593.107 220.91 595.488 217.012Z" fill="white"/>
<path d="M601.172 377.5C604.262 376.673 607.419 376.117 610.605 375.84C613.77 375.547 616.914 375.371 620.059 375.371C623.203 375.371 626.348 375.527 629.492 375.84C632.687 376.106 635.851 376.662 638.945 377.5C635.848 378.323 632.685 378.872 629.492 379.141C626.354 379.453 623.21 379.609 620.059 379.609C616.914 379.609 613.77 379.453 610.605 379.141C607.42 378.86 604.265 378.311 601.172 377.5Z" fill="white"/>
</svg>
